<svg xmlns="http://www.w3.org/2000/svg" width="169.987" height="158" viewBox="0 0 169.987 158"><defs><style>.a,.f{fill:#fff;}.b{fill:#313131;}.c{fill:#e32a66;}.d,.g{fill:none;}.d{stroke:#313131;stroke-dasharray:1 15;}.e,.f{stroke:none;}</style></defs><g transform="translate(-875.007 -3637)"><path class="a" d="M-9443,227a85.621,85.621,0,0,1-17.012-1.7,84.586,84.586,0,0,1-15.856-4.886,85.052,85.052,0,0,1-14.366-7.734,85.657,85.657,0,0,1-12.54-10.247A85.635,85.635,0,0,1-9513.154,190a85.1,85.1,0,0,1-7.887-14.27,84.618,84.618,0,0,1-5.058-15.78A85.612,85.612,0,0,1-9527.993,143h169.987a85.584,85.584,0,0,1-1.895,16.954,84.623,84.623,0,0,1-5.059,15.78,85.094,85.094,0,0,1-7.887,14.27,85.657,85.657,0,0,1-10.381,12.426,85.6,85.6,0,0,1-12.54,10.247,84.979,84.979,0,0,1-14.366,7.734,84.542,84.542,0,0,1-15.855,4.886A85.636,85.636,0,0,1-9443,227Z" transform="translate(10403 3568)"/><g class="b" transform="translate(913.484 3662.602)"><path class="e" d="M 74.64351654052734 88.98847961425781 L 18.67217063903809 88.98847961425781 C 18.29202651977539 88.98847961425781 17.95867156982422 88.84200286865234 17.7335262298584 88.57603454589844 C 17.49743843078613 88.29715728759766 17.39874839782715 87.91793823242188 17.46273803710938 87.53562927246094 L 18.72739410400391 80.79238128662109 L 18.76061630249023 80.61522674560547 L 18.58786010742188 80.56382751464844 L 13.38518238067627 79.01569366455078 L 13.23332691192627 78.97050476074219 L 13.1545934677124 79.10797882080078 C 12.01401519775391 81.09930419921875 10.07788276672363 82.24137878417969 7.842648983001709 82.24137878417969 C 6.196515560150146 82.24137878417969 4.655448913574219 81.60712432861328 3.503315687179565 80.4554443359375 C 2.350804567337036 79.30339050292969 1.716093420982361 77.76185607910156 1.716093420982361 76.11481475830078 C 1.716093420982361 74.60239410400391 2.259871244430542 73.1575927734375 3.247271299362183 72.04656219482422 C 4.230782508850098 70.93990325927734 5.570549011230469 70.25753784179688 7.019771099090576 70.12516021728516 L 7.200748920440674 70.10863494873047 L 7.201582431793213 69.92690277099609 L 7.342971324920654 38.99021530151367 L 7.343637943267822 38.84297943115234 L 7.203259944915771 38.79860305786133 C 5.924637794494629 38.39440155029297 4.834704399108887 37.62857055664062 4.051304340362549 36.58388137817383 C 3.261237859725952 35.53032684326172 2.843637943267822 34.27095794677734 2.843637943267822 32.94193649291992 C 2.843637943267822 31.29580307006836 3.477893352508545 29.75472640991211 4.629559993743896 28.60260391235352 C 5.781615734100342 27.45009231567383 7.32314920425415 26.81537055969238 8.970193862915039 26.81537055969238 C 10.63984870910645 26.81537055969238 12.137282371521 27.39329147338867 13.18665981292725 28.44267082214355 L 13.29467105865479 28.5506706237793 L 13.42729377746582 28.47490310668945 L 40.99576950073242 12.72532558441162 L 41.12754821777344 12.65004730224609 L 41.09051513671875 12.50286960601807 C 40.94819259643555 11.93724727630615 40.81375885009766 11.40300369262695 40.81375885009766 10.72435855865479 C 40.81375885009766 9.078225135803223 41.44801712036133 7.537158966064453 42.59968185424805 6.385025501251221 C 43.75173950195312 5.232514381408691 45.29327011108398 4.597803115844727 46.94031524658203 4.597803115844727 C 48.58644866943359 4.597803115844727 50.12751388549805 5.232059001922607 51.27964782714844 6.383725643157959 C 52.43215942382812 7.535780906677246 53.06687164306641 9.077314376831055 53.06687164306641 10.72435855865479 C 53.06687164306641 11.16829204559326 52.97117233276367 11.78329181671143 52.79012680053711 12.50286960601807 L 52.75353622436523 12.64830303192139 L 52.88288116455078 12.72418117523193 L 80.44764709472656 28.89420318603516 L 80.58931732177734 28.97730255126953 L 80.69837951660156 28.85451507568359 C 81.8345947265625 27.57533645629883 83.51352691650391 26.81165885925293 85.18952941894531 26.81165885925293 C 86.83566284179688 26.81165885925293 88.37673950195312 27.44591522216797 89.52886199951172 28.59759140014648 C 90.68137359619141 29.74963569641113 91.31608581542969 31.29118156433105 91.31608581542969 32.93822479248047 C 91.31608581542969 35.74973678588867 89.16357421875 38.38204956054688 86.41567993164062 38.93092727661133 L 86.25558471679688 38.9629020690918 L 86.25485992431641 39.12617111206055 L 86.11345672607422 71.19054412841797 L 86.11249542236328 71.41082763671875 L 86.30428314208984 71.39312744140625 C 87.70695495605469 71.66634368896484 88.96598815917969 72.40669250488281 89.85210418701172 73.47997283935547 C 90.78449249267578 74.60928344726562 91.243408203125 76.00263977050781 91.17921447753906 77.50940704345703 L 91.17903900146484 77.51365661621094 L 91.17903900146484 77.51791381835938 C 91.17903900146484 79.16404724121094 90.54478454589844 80.70512390136719 89.39311218261719 81.85724639892578 C 88.24105834960938 83.00975799560547 86.69952392578125 83.64447784423828 85.05248260498047 83.64447784423828 C 82.93312835693359 83.64447784423828 80.94617462158203 82.47109985351562 79.73735809326172 80.50569152832031 L 79.65888977050781 80.37811279296875 L 79.51439666748047 80.41751098632812 L 74.87369537353516 81.68284606933594 L 74.69361877441406 81.73194885253906 L 74.73017883300781 81.91497802734375 L 75.85407257080078 87.54181671142578 L 75.85640716552734 87.55353546142578 L 75.86013793945312 87.56490325927734 C 75.96614074707031 87.88848114013672 75.87860107421875 88.23246765136719 75.62598419189453 88.48509216308594 L 75.61183929443359 88.49924468994141 L 75.60076904296875 88.51591491699219 C 75.39264678955078 88.82949066162109 75.07057952880859 88.98847961425781 74.64351654052734 88.98847961425781 Z M 24.51840972900391 64.40486145019531 L 20.16133880615234 86.33919525146484 L 20.11385917663574 86.57817840576172 L 20.35751533508301 86.57815551757812 L 72.94588470458984 86.57389068603516 L 73.1898193359375 86.57386779785156 L 73.14199066162109 86.33467864990234 L 68.78515625 64.54347991943359 C 68.48155212402344 62.44947052001953 66.68585968017578 60.5920524597168 64.41628265380859 60.02558135986328 C 61.71848297119141 59.319091796875 58.8724365234375 58.75035858154297 55.95943832397461 58.33574676513672 L 55.67871475219727 58.29578018188477 L 55.73528289794922 58.57364654541016 C 57.42477035522461 66.87214660644531 54.42277145385742 75.36500549316406 47.49902725219727 81.87455749511719 L 47.49678421020508 81.87667083740234 L 47.49460601806641 81.87884521484375 C 47.26058197021484 82.11286163330078 46.96122741699219 82.24173736572266 46.65168380737305 82.24173736572266 C 46.34213638305664 82.24173736572266 46.04279327392578 82.11286163330078 45.80878067016602 81.87884521484375 C 42.59991455078125 78.81134033203125 40.12534713745117 75.10446929931641 38.64937210083008 71.15583801269531 C 37.08185958862305 66.96231079101562 36.70783615112305 62.61206817626953 37.5677375793457 58.57541275024414 L 37.62423706054688 58.3101692199707 L 37.35414886474609 58.33456039428711 C 34.28374862670898 58.61174774169922 31.52894973754883 59.29291534423828 28.74317169189453 60.02621459960938 L 28.7369499206543 60.02784729003906 L 28.73083877563477 60.02989196777344 C 26.50298500061035 60.77250289916992 24.81075859069824 62.53034591674805 24.51840972900391 64.40486145019531 Z M 84.89923858642578 73.65915679931641 L 84.89154052734375 73.65975952148438 C 82.97457885742188 73.80813598632812 81.47296905517578 75.44049072265625 81.47296905517578 77.37596893310547 C 81.47296905517578 79.46015930175781 83.10558319091797 81.09278106689453 85.18977355957031 81.09278106689453 C 87.27011871337891 81.09278106689453 88.90272521972656 79.4603271484375 88.90657043457031 77.37633514404297 C 88.90657043457031 75.29177856445312 87.27395629882812 73.65915679931641 85.18977355957031 73.65915679931641 L 85.04837036132812 73.65915679931641 L 84.90697479248047 73.65915679931641 L 84.89923858642578 73.65915679931641 Z M 7.842115879058838 72.39420318603516 C 5.757926940917969 72.39420318603516 4.12531566619873 74.02682495117188 4.12531566619873 76.11101531982422 C 4.12531566619873 78.19520568847656 5.757926940917969 79.82781219482422 7.842115879058838 79.82781219482422 C 9.856838226318359 79.82781219482422 11.55892658233643 78.12572479248047 11.55892658233643 76.11101531982422 C 11.55892658233643 74.02682495117188 9.926304817199707 72.39420318603516 7.842115879058838 72.39420318603516 Z M 45.06450271606445 66.63344573974609 L 45.05104827880859 66.81899261474609 L 44.34772491455078 76.52081298828125 L 44.34278106689453 76.58905792236328 L 44.38067245483398 76.64603424072266 C 44.76169204711914 77.21887969970703 45.2730598449707 77.79337310791016 45.76758193969727 78.34894561767578 C 46.01432800292969 78.62615966796875 46.26948165893555 78.91280364990234 46.5035285949707 79.19390106201172 L 46.6572265625 79.37850189208984 L 46.81092834472656 79.19389343261719 C 47.16416168212891 78.76962280273438 47.51739501953125 78.34628295898438 47.87062835693359 77.92293548583984 C 48.22072601318359 77.50333404541016 48.57083892822266 77.08374786376953 48.92094802856445 76.66323852539062 L 48.97256088256836 76.60125732421875 L 48.96672821044922 76.52080535888672 L 48.26338195800781 66.81897735595703 L 48.24992752075195 66.63344573974609 L 48.06390380859375 66.63344573974609 L 45.25052642822266 66.63344573974609 L 45.06450271606445 66.63344573974609 Z M 80.79740142822266 37.29978179931641 L 80.66959381103516 37.45515823364258 L 64.35848999023438 57.282958984375 L 64.08944702148438 57.61001586914062 L 64.51294708251953 57.61001586914062 C 64.77765655517578 57.61001586914062 65.02769470214844 57.61001586914062 65.26824951171875 57.73030471801758 L 65.28702545166016 57.73969268798828 L 65.30735015869141 57.74496841430664 C 66.87580108642578 58.15293502807617 68.27840423583984 58.96047973632812 69.36351776123047 60.08032608032227 C 70.46354675292969 61.21554946899414 71.14989471435547 62.58699035644531 71.34835052490234 64.04635620117188 L 71.34913635253906 64.05219268798828 L 71.35027313232422 64.05796051025391 L 74.30509185791016 79.10400390625 L 74.34721374511719 79.3184814453125 L 74.55712890625 79.25752258300781 L 78.91471862792969 77.99208068847656 L 79.05893707275391 77.9501953125 L 79.05893707275391 77.80001068115234 L 79.05893707275391 77.37945556640625 C 79.05893707275391 75.99526214599609 79.49994659423828 74.70035552978516 80.33429718017578 73.63477325439453 C 81.13751220703125 72.60894012451172 82.27847290039062 71.85984039306641 83.5469970703125 71.52548217773438 L 83.69533538818359 71.48636627197266 L 83.69601440429688 71.33296203613281 L 83.83740234375 39.1312255859375 L 83.83807373046875 38.97983551025391 L 83.69253540039062 38.93810272216797 C 82.7669677734375 38.67264938354492 81.81931304931641 38.150634765625 80.95201873779297 37.42851257324219 L 80.79740142822266 37.29978179931641 Z M 12.93100452423096 37.44302368164062 L 12.77861595153809 37.57045745849609 C 11.89691543579102 38.30774688720703 10.80739307403564 38.80405807495117 9.789393424987793 38.93212509155273 L 9.61515998840332 38.95403671264648 L 9.614359855651855 39.12964630126953 L 9.472960472106934 70.06634521484375 L 9.472293853759766 70.21376037597656 L 9.61290454864502 70.25802612304688 C 10.91726016998291 70.66864776611328 12.07380485534668 71.49162292480469 12.86947154998779 72.57534790039062 C 13.72120475769043 73.73545074462891 14.10284900665283 75.09847259521484 13.97312641143799 76.51705932617188 L 13.9583158493042 76.67897796630859 L 14.11381530761719 76.72652435302734 L 19.17544937133789 78.27420043945312 L 19.38670539855957 78.33880615234375 L 19.43003845214844 78.12218475341797 L 22.24341583251953 64.05903625488281 L 22.24451637268066 64.05355834960938 L 22.24530410766602 64.04801177978516 C 22.65286064147949 61.18798065185547 24.97177124023438 58.71315765380859 28.15301513671875 57.74310302734375 C 28.53578186035156 57.61777114868164 28.95016098022461 57.48003768920898 29.42373847961426 57.32080459594727 L 29.70324897766113 57.22683715820312 L 29.51255989074707 57.00190353393555 L 13.05947113037109 37.59454727172852 L 12.93100452423096 37.44302368164062 Z M 39.0805778503418 55.64113616943359 C 39.62101364135742 55.64313125610352 39.94671630859375 55.78508758544922 40.16835021972656 56.11466979980469 L 40.17953872680664 56.13131332397461 L 40.19380569458008 56.14539337158203 C 40.43387222290039 56.38239288330078 40.5409049987793 56.86748123168945 40.42753601074219 57.20466995239258 C 38.88912582397461 61.95357131958008 39.39237213134766 67.34992218017578 41.8438606262207 72.40174865722656 L 42.16254806518555 73.05847930908203 L 42.22310638427734 72.33102416992188 L 42.78507232666016 65.58031463623047 L 42.78890609741211 65.53421783447266 L 42.77211380004883 65.49110412597656 L 41.78596115112305 62.96044921875 L 41.77071380615234 62.92134857177734 L 41.74103927612305 62.89165878295898 C 41.6582145690918 62.8088264465332 41.6582145690918 62.56346893310547 41.6582145690918 62.47110366821289 L 41.6582145690918 58.95430374145508 C 41.6582145690918 58.22127151489258 42.13185882568359 57.74761581420898 42.86489486694336 57.74761581420898 L 50.59814834594727 57.74761581420898 C 51.33118057250977 57.74761581420898 51.80482864379883 58.22127151489258 51.80482864379883 58.95430374145508 L 51.80482864379883 62.47110366821289 C 51.80482864379883 62.56346893310547 51.80482864379883 62.808837890625 51.72201538085938 62.89165878295898 L 51.69232559204102 62.92133712768555 L 51.67708206176758 62.96044921875 L 50.69093704223633 65.49110412597656 L 50.67414855957031 65.53421783447266 L 50.67798233032227 65.58031463623047 L 51.23993682861328 72.33102416992188 L 51.29904937744141 73.04114532470703 L 51.61808395385742 72.40398406982422 C 54.07263946533203 67.50173950195312 54.57646179199219 62.10518264770508 53.03672790527344 57.20841598510742 C 52.93124771118164 56.88636016845703 53.01587295532227 56.52933502197266 53.29469299316406 56.11466979980469 C 53.52435684204102 55.76871490478516 54.00491714477539 55.64359283447266 54.38275146484375 55.64115142822266 C 56.75013732910156 55.91820526123047 59.14807891845703 56.34333801269531 61.38723754882812 56.76159286499023 L 61.50321578979492 56.78326034545898 L 61.57826995849609 56.69222640991211 L 79.43378448486328 35.03691482543945 L 79.51629638671875 34.93684768676758 L 79.45858001708984 34.82069396972656 C 79.21578979492188 34.33200454711914 79.05891418457031 33.53869247436523 79.05891418457031 32.79964828491211 C 79.05891418457031 32.23186874389648 79.05891418457031 31.69558143615723 79.19639587402344 31.01175880432129 L 79.22460174560547 30.87142562866211 L 79.10086822509766 30.79945945739746 L 51.53982543945312 14.76773643493652 L 51.39604949951172 14.68410301208496 L 51.28761672973633 14.81022548675537 C 50.42760467529297 15.81055927276611 49.32973861694336 16.45080375671387 48.02448272705078 16.71320343017578 L 47.8639030456543 16.74548149108887 L 47.8639030456543 16.90928077697754 L 47.8639030456543 28.01815795898438 L 47.8639030456543 28.18662643432617 L 48.02991485595703 28.21524810791016 C 49.99760437011719 28.5545597076416 51.82645034790039 29.53201484680176 53.3187255859375 31.04193687438965 C 54.82484817504883 32.56584930419922 55.90677261352539 34.5516357421875 56.44755935668945 36.78462600708008 L 56.46295928955078 36.84821319580078 L 56.51296997070312 36.89041519165039 C 57.20011520385742 37.47014617919922 57.70778274536133 38.39484786987305 57.98109436035156 39.56454849243164 C 58.23832702636719 40.66542434692383 58.26298141479492 41.90331268310547 58.05051422119141 43.0501594543457 C 57.7020378112793 44.93128204345703 56.80525970458984 46.25233840942383 55.59013748168945 46.67461395263672 L 55.51032638549805 46.70235824584961 L 55.47457122802734 46.77892684936523 C 54.71741485595703 48.40056991577148 53.44758224487305 50.71365737915039 51.69790267944336 52.52400207519531 C 50.04580307006836 54.23339080810547 48.34987258911133 55.10012435913086 46.6572151184082 55.10012435913086 C 44.96416091918945 55.10012435913086 43.26821517944336 54.23386001586914 41.61650466918945 52.5253791809082 C 39.86602783203125 50.71473693847656 38.59658050537109 48.40106964111328 37.83988189697266 46.77898025512695 L 37.80418395996094 46.70243835449219 L 37.72440338134766 46.67465972900391 C 36.46694946289062 46.23678207397461 35.51631546020508 44.81010437011719 35.18144989013672 42.85830307006836 C 34.9874382019043 41.72747039794922 35.02649307250977 40.52555847167969 35.29142761230469 39.47396850585938 C 35.57527160644531 38.34727096557617 36.09605026245117 37.45502471923828 36.79745864868164 36.89370346069336 L 36.84831619262695 36.85300445556641 L 36.86544799804688 36.79015731811523 C 38.09661483764648 32.2747917175293 41.40176010131836 28.90885925292969 45.28569412231445 28.21505928039551 L 45.45052719116211 28.18561363220215 L 45.45052719116211 28.01816940307617 L 45.45052719116211 16.76820373535156 L 45.45052719116211 16.65874862670898 L 45.35833740234375 16.5997486114502 L 45.33065032958984 16.5820255279541 L 45.29846954345703 16.57392501831055 C 44.33881378173828 16.33553695678711 43.37602615356445 15.73845863342285 42.43684768676758 14.79928112030029 L 42.32901382446289 14.69144725799561 L 42.19649505615234 14.7668924331665 L 14.77651596069336 30.37445831298828 L 14.62541580200195 30.46045875549316 L 14.68955993652344 30.62204742431641 C 14.97064876556396 31.33025932312012 15.09600448608398 32.00188064575195 15.09600448608398 32.79974746704102 C 15.09600448608398 33.83453750610352 14.92916011810303 34.6311149597168 14.55501556396484 35.38262557983398 L 14.4963493347168 35.50043487548828 L 14.58134937286377 35.60092544555664 L 32.30692672729492 56.55642700195312 L 32.38322830200195 56.64662551879883 L 32.49905014038086 56.62333679199219 C 34.53569030761719 56.21389770507812 36.60348510742188 55.9344367980957 39.0805778503418 55.64113616943359 Z M 44.06437301635742 60.30316925048828 L 44.06437301635742 60.50317001342773 L 44.06437301635742 62.33049392700195 L 44.06437301635742 62.37053680419922 L 44.07979202270508 62.40750503540039 L 44.78313827514648 64.09336853027344 L 44.83444976806641 64.21636199951172 L 44.96771621704102 64.21636199951172 L 48.48452758789062 64.21636199951172 L 48.61779403686523 64.21636199951172 L 48.66910552978516 64.09336853027344 L 49.37245941162109 62.40750503540039 L 49.38788223266602 62.37053680419922 L 49.38788223266602 62.33049392700195 L 49.38785934448242 60.50317001342773 L 49.38785934448242 60.30316925048828 L 49.18785858154297 60.30316925048828 L 44.26436996459961 60.30316925048828 L 44.06437301635742 60.30316925048828 Z M 39.86484527587891 45.25930404663086 C 40.61710357666016 47.21274948120117 41.65105056762695 49.03963470458984 42.77678298950195 50.40412521362305 C 44.08720397949219 51.99250411987305 45.42905044555664 52.83206939697266 46.6572265625 52.83206939697266 C 47.88202667236328 52.83206939697266 49.19345855712891 51.9974250793457 50.55510330200195 50.35131454467773 C 51.64959335327148 49.02816009521484 52.72776031494141 47.21952438354492 53.59098052978516 45.25857925415039 L 53.59777069091797 45.24316024780273 L 53.60188293457031 45.22682571411133 C 53.72249221801758 44.74770355224609 54.22689437866211 44.53324890136719 54.67327117919922 44.53324890136719 C 55.00976181030273 44.53324890136719 55.28195953369141 44.16679382324219 55.48229217529297 43.44405746459961 C 55.85040664672852 42.11606597900391 55.93265151977539 39.40607452392578 54.79816818237305 38.68982315063477 C 54.54695129394531 38.43850708007812 54.29043197631836 38.17684936523438 54.16343307495117 37.80947494506836 C 53.78886413574219 35.94910049438477 52.88170623779297 34.1317253112793 51.67333602905273 32.82154846191406 C 50.26670455932617 31.29641342163086 48.53216171264648 30.49027061462402 46.6572151184082 30.49027061462402 L 46.40789413452148 30.49027061462402 L 46.40909194946289 30.49565887451172 C 44.80246734619141 30.5641040802002 43.23799133300781 31.2952995300293 41.97879409790039 32.57208251953125 C 40.64073944091797 33.92881011962891 39.71187973022461 35.78880310058594 39.29207611083984 37.95193481445312 C 39.14583206176758 38.38172149658203 38.87931060791016 38.69814300537109 38.5774040222168 38.79965972900391 L 38.55680465698242 38.80657958984375 L 38.53818130493164 38.8177604675293 C 37.91342544555664 39.19290161132812 37.71563720703125 40.1034049987793 37.65972518920898 40.80117034912109 C 37.59543609619141 41.60346984863281 37.68368148803711 42.53936004638672 37.89580535888672 43.30466842651367 C 38.0511474609375 43.86513519287109 38.33108139038086 44.53324890136719 38.78252792358398 44.53324890136719 C 39.26217269897461 44.53324890136719 39.61627960205078 44.7707405090332 39.86484527587891 45.25930404663086 Z M 85.18956756591797 29.08414840698242 C 83.17485809326172 29.08414840698242 81.47277069091797 30.78623580932617 81.47277069091797 32.80096054077148 C 81.47277069091797 34.88514709472656 83.10538482666016 36.51775741577148 85.18956756591797 36.51775741577148 C 87.27375793457031 36.51775741577148 88.90637969970703 34.88514709472656 88.90637969970703 32.80096054077148 C 88.90637969970703 30.71677017211914 87.27375793457031 29.08414840698242 85.18956756591797 29.08414840698242 Z M 8.96971607208252 29.08368110656738 C 6.885526657104492 29.08368110656738 5.252904415130615 30.7162914276123 5.252904415130615 32.80047988891602 C 5.252904415130615 34.88467025756836 6.885526657104492 36.51729202270508 8.96971607208252 36.51729202270508 C 11.05390453338623 36.51729202270508 12.68651580810547 34.88467025756836 12.68651580810547 32.80047988891602 C 12.68651580810547 30.7162914276123 11.05390453338623 29.08368110656738 8.96971607208252 29.08368110656738 Z M 46.93638229370117 6.866381168365479 C 44.9256477355957 6.866381168365479 43.22356033325195 8.568292617797852 43.21957015991211 10.58279228210449 C 43.21957015991211 12.66738128662109 44.85219192504883 14.29999256134033 46.93638229370117 14.29999256134033 C 49.02057266235352 14.29999256134033 50.65319442749023 12.66738128662109 50.65319442749023 10.58319187164307 C 50.65319442749023 8.499003410339355 49.02057266235352 6.866381168365479 46.93638229370117 6.866381168365479 Z"/><path class="f" d="M 74.64351654052734 88.78847503662109 C 75.00440216064453 88.78847503662109 75.26300048828125 88.66314697265625 75.43412780761719 88.40532684326172 L 75.45626068115234 88.37198638916016 L 75.48455810546875 88.34368896484375 C 75.68276977539062 88.14546966552734 75.75212097167969 87.87760925292969 75.67007446289062 87.62715911865234 L 75.66262817382812 87.60443115234375 L 75.65794372558594 87.58098602294922 L 74.5340576171875 81.95416259765625 L 74.46094512939453 81.58808898925781 L 74.82108306884766 81.48989105224609 L 79.46177673339844 80.22456359863281 L 79.75077819824219 80.14575958251953 L 79.90772247314453 80.40092468261719 C 81.07986450195312 82.30670166015625 83.00312805175781 83.44448089599609 85.05248260498047 83.44448089599609 C 86.64609527587891 83.44448089599609 88.13739013671875 82.83057403564453 89.25166320800781 81.71585083007812 C 90.36557769775391 80.60150146484375 90.97903442382812 79.11064147949219 90.97903442382812 77.51791381835938 L 90.97903442382812 77.50939178466797 L 90.97940063476562 77.50089263916016 C 91.04145050048828 76.04428863525391 90.59830474853516 74.69789886474609 89.69788360595703 73.6072998046875 C 88.84662628173828 72.57625579833984 87.63858795166016 71.86285400390625 86.29164123535156 71.59447479248047 L 85.91154479980469 71.6251220703125 L 85.91345977783203 71.18965148925781 L 86.05486297607422 39.12527847290039 L 86.05630493164062 38.79874801635742 L 86.37651062011719 38.73479461669922 C 89.03421020507812 38.20392608642578 91.11608123779297 35.65777206420898 91.11608123779297 32.938232421875 C 91.11608123779297 31.34461975097656 90.50218200683594 29.85332489013672 89.38745880126953 28.73904228210449 C 88.27310943603516 27.62512397766113 86.78225708007812 27.01166534423828 85.18952941894531 27.01166534423828 C 83.56979370117188 27.01166534423828 81.94675445556641 27.75023078918457 80.84790802001953 28.98732566833496 L 80.62977600097656 29.23290061950684 L 80.34645843505859 29.06670188903809 L 52.78169631958008 12.89668941497803 L 52.52299118041992 12.7449369430542 L 52.5961799621582 12.45407772064209 C 52.77326202392578 11.75020694732666 52.86687088012695 11.15207767486572 52.86687088012695 10.72436046600342 C 52.86687088012695 9.130748748779297 52.25296783447266 7.639454364776611 51.13824844360352 6.525171756744385 C 50.02389526367188 5.411254405975342 48.53305053710938 4.797795295715332 46.9403190612793 4.797795295715332 C 45.34670639038086 4.797795295715332 43.85541534423828 5.411701202392578 42.74114227294922 6.526419162750244 C 41.62722396850586 7.640771865844727 41.01376724243164 9.131630897521973 41.01376724243164 10.72436046600342 C 41.01376724243164 11.37819576263428 41.14525985717773 11.90079498291016 41.28446197509766 12.45407772064209 L 41.3585319519043 12.7484302520752 L 41.09497833251953 12.8989953994751 L 13.52650737762451 28.6485595703125 L 13.26124858856201 28.80008888244629 L 13.04523754119873 28.5840892791748 C 12.03362560272217 27.57248878479004 10.58641338348389 27.01537132263184 8.970190048217773 27.01537132263184 C 7.376590251922607 27.01537132263184 5.885284423828125 27.6292781829834 4.771013736724854 28.74399566650391 C 3.657096147537231 29.85834884643555 3.043637275695801 31.34920692443848 3.043637275695801 32.94193649291992 C 3.043637275695801 34.22734832763672 3.447413682937622 35.44521713256836 4.211308002471924 36.46389007568359 C 4.96951961517334 37.47497177124023 6.024966716766357 38.21636199951172 7.263543128967285 38.60791397094727 L 7.544307708740234 38.69667816162109 L 7.542966842651367 38.99113845825195 L 7.401578426361084 69.92781829833984 L 7.39990758895874 70.29127502441406 L 7.037966728210449 70.32433319091797 C 5.639531135559082 70.45206451416016 4.346390247344971 71.11087799072266 3.396754741668701 72.17942047119141 C 2.441943168640137 73.25380706787109 1.916096091270447 74.65142059326172 1.916096091270447 76.11482238769531 C 1.916096091270447 77.70841979980469 2.530001878738403 79.19972229003906 3.64471960067749 80.31399536132812 C 4.759072303771973 81.42790985107422 6.249919414520264 82.04137420654297 7.842648983001709 82.04137420654297 C 10.004225730896 82.04137420654297 11.87709617614746 80.93595886230469 12.98103713989258 79.00857543945312 L 13.13851928710938 78.73361968994141 L 13.442214012146 78.82398223876953 L 18.64489555358887 80.37212371826172 L 18.99040222167969 80.47493743896484 L 18.92395401000977 80.82923889160156 L 17.65939521789551 87.57223510742188 C 17.60635185241699 87.89518737792969 17.68890380859375 88.21378326416016 17.88616752624512 88.44681549072266 C 18.01811981201172 88.60267639160156 18.26157760620117 88.78847503662109 18.67216682434082 88.78847503662109 L 74.64351654052734 88.78847503662109 M 24.3214111328125 64.37008666992188 C 24.6267147064209 62.42499923706055 26.37209892272949 60.60530853271484 28.6675910949707 59.84014892578125 L 28.67981338500977 59.83607864379883 L 28.6922607421875 59.83279418945312 C 31.4865665435791 59.09725570678711 34.25030899047852 58.41394805908203 37.33615493774414 58.13537216186523 L 37.8763427734375 58.08659362792969 L 37.76334381103516 58.61708831787109 C 36.9113883972168 62.61642074584961 37.28255462646484 66.92803192138672 38.83671951293945 71.0858154296875 C 40.30220031738281 75.00637054443359 42.7597770690918 78.68746948242188 45.94375610351562 81.73114013671875 L 45.94701385498047 81.7342529296875 L 45.95020294189453 81.73743438720703 C 46.14643859863281 81.93367767333984 46.39555358886719 82.041748046875 46.65167236328125 82.041748046875 C 46.90780258178711 82.041748046875 47.15693283081055 81.93367767333984 47.35319137573242 81.73743438720703 L 47.3575439453125 81.73307800292969 L 47.36203765869141 81.72885131835938 C 54.23415374755859 75.26782989501953 57.21466064453125 66.84262847900391 55.5392951965332 58.61354827880859 L 55.42616653442383 58.05783081054688 L 55.98762512207031 58.13773727416992 C 58.90816497802734 58.55343246459961 61.76177978515625 59.12367630004883 64.4647216796875 59.83152389526367 C 66.80915069580078 60.41668701171875 68.66519927978516 62.33951187133789 68.98233795166016 64.50965881347656 L 73.33810424804688 86.29546356201172 L 73.43375396728516 86.77385711669922 L 72.94590759277344 86.77388763427734 L 20.35753059387207 86.77816009521484 L 19.87021446228027 86.7781982421875 L 19.96516609191895 86.30023193359375 L 24.3214111328125 64.37008666992188 M 84.89151000976562 73.45915985107422 L 84.90696716308594 73.45915985107422 L 85.04837036132812 73.45915985107422 L 85.18976593017578 73.45915985107422 C 87.3861083984375 73.45915985107422 89.10657501220703 75.17963409423828 89.10657501220703 77.37671661376953 C 89.10253143310547 79.57263946533203 87.38207244873047 81.29278564453125 85.18978118896484 81.29278564453125 C 82.99343872070312 81.29278564453125 81.27296447753906 79.57231140136719 81.27296447753906 77.37596893310547 C 81.27296447753906 75.33669281005859 82.85565185546875 73.61674499511719 84.8760986328125 73.46035003662109 L 84.89151000976562 73.45915985107422 M 7.842119693756104 72.19420623779297 C 10.03846073150635 72.19420623779297 11.75893115997314 73.91466522216797 11.75893115997314 76.11100769042969 C 11.75893115997314 78.23413848876953 9.965249061584473 80.02781677246094 7.842119693756104 80.02781677246094 C 5.645778179168701 80.02781677246094 3.925307750701904 78.30735015869141 3.925307750701904 76.11100769042969 C 3.925307750701904 73.91466522216797 5.645778179168701 72.19420623779297 7.842119693756104 72.19420623779297 M 44.87848281860352 66.43344116210938 L 45.25053024291992 66.43344116210938 L 48.06390762329102 66.43344116210938 L 48.43595504760742 66.43344116210938 L 48.46286010742188 66.80452728271484 L 49.16620254516602 76.50634765625 L 49.17786026000977 76.66722869873047 L 49.07464981079102 76.79120635986328 C 48.72459030151367 77.21165466308594 48.37451934814453 77.63119506835938 48.02445983886719 78.05073547363281 C 47.67118835449219 78.47413635253906 47.31790924072266 78.89753723144531 46.96462631225586 79.32185363769531 L 46.6572380065918 79.69107818603516 L 46.34982681274414 79.32186889648438 C 46.11787414550781 79.04328918457031 45.86382675170898 78.75788116455078 45.61814498901367 78.48186492919922 C 45.11903762817383 77.92113494873047 44.60294342041016 77.34132385253906 44.21414184570312 76.75679779052734 L 44.13835525512695 76.64284515380859 L 44.14825057983398 76.50634765625 L 44.85157775878906 66.80452728271484 L 44.87848281860352 66.43344116210938 M 80.77076721191406 37.01734924316406 L 81.07998657226562 37.27480697631836 C 81.91400146484375 37.96923065185547 82.86140441894531 38.49165344238281 83.7476806640625 38.74585342407227 L 84.03873443603516 38.82932662963867 L 84.03739929199219 39.13210296630859 L 83.89601135253906 71.33383178710938 L 83.89466094970703 71.64066314697266 L 83.59796905517578 71.71886444091797 C 82.37139129638672 72.04218292236328 81.26824951171875 72.76638031005859 80.49176788330078 73.75806427001953 C 79.68524932861328 74.78812408447266 79.25894165039062 76.04038238525391 79.25894165039062 77.37945556640625 L 79.25894165039062 77.80001068115234 L 79.25894165039062 78.10037231445312 L 78.97049713134766 78.18413543701172 L 74.61289978027344 79.4495849609375 L 74.19308471679688 79.57150268554688 L 74.10884094238281 79.14253997802734 L 71.15402221679688 64.09650421142578 L 71.15176391601562 64.08496856689453 L 71.15017700195312 64.07332611083984 C 70.95750427246094 62.65651321411133 70.29002380371094 61.32387924194336 69.21988677978516 60.21950149536133 C 68.16030883789062 59.12600708007812 66.78997039794922 58.33725357055664 65.25700378417969 57.93852615356445 L 65.21636962890625 57.92795944213867 L 65.17881011962891 57.90918350219727 C 64.98048400878906 57.81002044677734 64.77415466308594 57.81002044677734 64.512939453125 57.81002044677734 L 63.66593170166016 57.81002044677734 L 64.20404052734375 57.15590286254883 L 80.51514434814453 37.32809066772461 L 80.77076721191406 37.01734924316406 M 12.95509624481201 37.16215896606445 L 13.21201324462891 37.46520614624023 L 29.66511917114258 56.8725700378418 L 30.0465202331543 57.32245254516602 L 29.48747253417969 57.51039505004883 C 29.01247215270996 57.67007827758789 28.59761428833008 57.80796051025391 28.21919059753418 57.93192672729492 L 28.21527290344238 57.93320846557617 L 28.21134376525879 57.93440628051758 C 25.10402488708496 58.88192367553711 22.83994293212891 61.2927360534668 22.44330787658691 64.07623291015625 L 22.44173049926758 64.08730316162109 L 22.43953132629395 64.09827423095703 L 19.62615394592285 78.16142272949219 L 19.53948402404785 78.59465789794922 L 19.11696624755859 78.46546936035156 L 14.05533123016357 76.91778564453125 L 13.74434280395508 76.82269287109375 L 13.77395439147949 76.49884033203125 C 13.89916706085205 75.12963104248047 13.53064918518066 73.8138427734375 12.70826053619385 72.69371032714844 C 11.93756675720215 71.64400482177734 10.81695461273193 70.84674835205078 9.552848815917969 70.44879913330078 L 9.271625518798828 70.36026763916016 L 9.272966384887695 70.0654296875 L 9.414355278015137 39.12873840332031 L 9.415966987609863 38.77752304077148 L 9.764425277709961 38.73368835449219 C 10.74538993835449 38.61027908325195 11.79726028442383 38.13037109375 12.65030765533447 37.41703033447266 L 12.95509624481201 37.16215896606445 M 39.09183883666992 55.8411979675293 C 36.62481689453125 56.13343048095703 34.56501388549805 56.4119987487793 32.53845977783203 56.81940841674805 L 32.30681228637695 56.86597061157227 L 32.15422439575195 56.68558502197266 L 14.42864894866943 35.7300910949707 L 14.25866031646729 35.52912521362305 L 14.37596702575684 35.29349136352539 C 14.7404842376709 34.56133651733398 14.8960018157959 33.81553649902344 14.8960018157959 32.79974746704102 C 14.8960018157959 32.02833557128906 14.77500152587891 31.37946510314941 14.50366115570068 30.69583129882812 L 14.37539005279541 30.37264251708984 L 14.67757797241211 30.20063018798828 L 42.09755325317383 14.59306621551514 L 42.36261367797852 14.44219589233398 L 42.57827377319336 14.6578540802002 C 43.49139022827148 15.57097148895264 44.42281341552734 16.15032577514648 45.34668350219727 16.37981986999512 L 45.41450881958008 16.39678382873535 L 45.472412109375 16.43538284301758 L 45.65053176879883 16.55413627624512 L 45.65053176879883 16.76820755004883 L 45.65053176879883 28.01815986633301 L 45.65053176879883 28.35304260253906 L 45.32087326049805 28.41192436218262 C 41.51256561279297 29.09222984313965 38.26935577392578 32.40153503417969 37.05841445922852 36.8427734375 L 37.02414321899414 36.96845245361328 L 36.92242431640625 37.04985427856445 C 35.61026000976562 38.09994888305664 34.97540283203125 40.47454833984375 35.37856674194336 42.82446670532227 C 35.70094299316406 44.70347595214844 36.60247421264648 46.07219696044922 37.79018020629883 46.48578262329102 L 37.9497184753418 46.54133605957031 L 38.0211296081543 46.69443130493164 C 38.77136611938477 48.30266571044922 40.02907180786133 50.59563064575195 41.76029586791992 52.38636016845703 C 43.37288284301758 54.05437088012695 45.02045059204102 54.90012359619141 46.6572151184082 54.90012359619141 C 48.2935676574707 54.90012359619141 49.94112014770508 54.05391311645508 51.55409622192383 52.38500595092773 C 53.28455352783203 50.59454727172852 54.54264831542969 48.3021240234375 55.29335403442383 46.69431304931641 L 55.36484909057617 46.54118347167969 L 55.52448272705078 46.48570251464844 C 56.66981506347656 46.08767700195312 57.51884841918945 44.82218551635742 57.85387420654297 43.01372528076172 C 58.0614128112793 41.89341735839844 58.03742599487305 40.68463134765625 57.78634262084961 39.61004257202148 C 57.52290725708008 38.48260879516602 57.03799057006836 37.59503173828125 56.38400268554688 37.04327774047852 L 56.28397750854492 36.95888900756836 L 56.25317764282227 36.83170318603516 C 55.72095489501953 34.63404083251953 54.65704727172852 32.68058395385742 53.17648315429688 31.18252563476562 C 51.71368408203125 29.70244216918945 49.92228317260742 28.7445240020752 47.99592971801758 28.4123363494873 L 47.66390609741211 28.35508918762207 L 47.66390609741211 28.01815986633301 L 47.66390609741211 16.90927696228027 L 47.66390609741211 16.58168983459473 L 47.98507308959961 16.51712417602539 C 49.24559020996094 16.26372528076172 50.30569458007812 15.6455717086792 51.13594436645508 14.67984294891357 L 51.35281372070312 14.42757225036621 L 51.64037704467773 14.5948429107666 L 79.20143890380859 30.62657165527344 L 79.44889831542969 30.7705135345459 L 79.39247131347656 31.05117225646973 C 79.25891876220703 31.71550178527832 79.25891876220703 32.24211120605469 79.25891876220703 32.79965591430664 C 79.25891876220703 33.51017379760742 79.40760040283203 34.26854705810547 79.6376953125 34.73171234130859 L 79.75310516357422 34.96400833129883 L 79.58809661865234 35.16415023803711 L 61.73257827758789 56.81946563720703 L 61.58246231079102 57.00152587890625 L 61.35050964355469 56.95819473266602 C 59.11911010742188 56.5413818359375 56.72964477539062 56.11771011352539 54.37215423583984 55.84127426147461 C 54.06155776977539 55.84585571289062 53.64535903930664 55.94805526733398 53.46065902709961 56.22626495361328 C 53.13809585571289 56.70597076416016 53.17228317260742 56.9797248840332 53.22750854492188 57.14841842651367 C 54.78288269042969 62.09494781494141 54.27482604980469 67.54461669921875 51.79692077636719 72.49352264404297 L 51.15885925292969 73.76787567138672 L 51.04062652587891 72.34763336181641 L 50.47866058349609 65.59691619873047 L 50.47098922729492 65.50469970703125 L 50.50457763671875 65.41848754882812 L 51.49073028564453 62.8878288269043 L 51.52121353149414 62.80960845947266 L 51.57390975952148 62.75690078735352 C 51.59442901611328 62.71755599975586 51.60482406616211 62.62147521972656 51.60482406616211 62.47111129760742 L 51.60482406616211 58.95429992675781 C 51.60482406616211 58.33335876464844 51.21908569335938 57.9476203918457 50.59814453125 57.9476203918457 L 42.86489486694336 57.9476203918457 C 42.24395370483398 57.9476203918457 41.85821533203125 58.33335876464844 41.85821533203125 58.95429992675781 L 41.85821533203125 62.47111129760742 C 41.85821533203125 62.62147521972656 41.86861038208008 62.71755599975586 41.88912963867188 62.75690078735352 L 41.94182586669922 62.80960845947266 L 41.97230911254883 62.8878288269043 L 42.95846176147461 65.41848754882812 L 42.99205017089844 65.50469970703125 L 42.98437881469727 65.59691619873047 L 42.42242431640625 72.34763336181641 L 42.30130767822266 73.80252838134766 L 41.66393280029297 72.48907470703125 C 39.18978881835938 67.39057159423828 38.6828727722168 61.94132614135742 40.23796844482422 57.14093780517578 C 40.33489608764648 56.85264205932617 40.22041320800781 56.45270156860352 40.05329513549805 56.28771209716797 L 40.02476501464844 56.25954818725586 L 40.00239181518555 56.22627639770508 C 39.82136535644531 55.95707702636719 39.55665588378906 55.84472274780273 39.09183883666992 55.8411979675293 M 43.8643684387207 60.10317230224609 L 44.26436614990234 60.10317230224609 L 49.18786239624023 60.10317230224609 L 49.58786010742188 60.10317230224609 L 49.58786010742188 60.50317001342773 L 49.58787155151367 62.33049011230469 L 49.58787155151367 62.41058349609375 L 49.55703735351562 62.48450088500977 L 48.85368347167969 64.17037200927734 L 48.75104904174805 64.41635894775391 L 48.48451995849609 64.41635894775391 L 44.96772003173828 64.41635894775391 L 44.70119094848633 64.41635894775391 L 44.59855651855469 64.17037200927734 L 43.89520263671875 62.48450088500977 L 43.8643684387207 62.41058349609375 L 43.8643684387207 62.33049011230469 L 43.8643684387207 60.50317001342773 L 43.8643684387207 60.10317230224609 M 39.68198776245117 45.34099197387695 C 39.46844863891602 44.92647552490234 39.18222427368164 44.73325347900391 38.78253173828125 44.73325347900391 C 38.31916809082031 44.73325347900391 37.95598983764648 44.27058410644531 37.70307159423828 43.35808944702148 C 37.29368591308594 41.88101959228516 37.24324798583984 39.36201858520508 38.43521499633789 38.64628982543945 L 38.47247314453125 38.62392425537109 L 38.513671875 38.61006546020508 C 38.75410842895508 38.52923965454102 38.97155380249023 38.26469802856445 39.09840393066406 37.90009689331055 C 39.52701187133789 35.70404434204102 40.47342300415039 33.81363677978516 41.83639144897461 32.4316291809082 C 43.19817733764648 31.05080795288086 44.91023635864258 30.29032516479492 46.65720367431641 30.2902774810791 L 46.6572151184082 30.2902774810791 C 48.58947372436523 30.2902774810791 50.37485885620117 31.11869049072266 51.82035446166992 32.68595886230469 C 53.06808090209961 34.0388069152832 53.96819305419922 35.83848190307617 54.35674285888672 37.75628280639648 C 54.46800231933594 38.06789398193359 54.68800735473633 38.29644393920898 54.92448043823242 38.53326797485352 C 56.18017196655273 39.35598754882812 56.0331916809082 42.20537567138672 55.6750373840332 43.49747848510742 C 55.44773101806641 44.31747817993164 55.11069488525391 44.73325347900391 54.67327117919922 44.73325347900391 C 54.30448532104492 44.73325347900391 53.89015579223633 44.90095901489258 53.79584884643555 45.27564239501953 L 53.78761291503906 45.30832672119141 L 53.7740364074707 45.33917236328125 C 52.90357971191406 47.31653594970703 51.81513214111328 49.14181900024414 50.70921325683594 50.47879409790039 C 49.30776596069336 52.17301940917969 47.94448471069336 53.03206634521484 46.6572265625 53.03206634521484 C 45.36736679077148 53.03206634521484 43.9721794128418 52.1673469543457 42.62249755859375 50.53140640258789 C 41.48531341552734 49.15302276611328 40.44145965576172 47.3103141784668 39.68198776245117 45.34099197387695 M 85.1895751953125 28.88414764404297 C 87.38591766357422 28.88414764404297 89.10637664794922 30.60460662841797 89.10637664794922 32.80094909667969 C 89.10637664794922 34.99728775024414 87.38591766357422 36.7177619934082 85.1895751953125 36.7177619934082 C 82.99324035644531 36.7177619934082 81.27276611328125 34.99728775024414 81.27276611328125 32.80094909667969 C 81.27276611328125 30.67781829833984 83.06645202636719 28.88414764404297 85.1895751953125 28.88414764404297 M 8.969707489013672 28.8836784362793 C 11.16604900360107 28.8836784362793 12.88651943206787 30.60414886474609 12.88651943206787 32.80049133300781 C 12.88651943206787 34.99682998657227 11.16604900360107 36.71728897094727 8.969707489013672 36.71728897094727 C 6.773366451263428 36.71728897094727 5.052907943725586 34.99682998657227 5.052907943725586 32.80049133300781 C 5.052907943725586 30.60414886474609 6.773366451263428 28.8836784362793 8.969707489013672 28.8836784362793 M 46.93637847900391 6.666383743286133 C 49.13272094726562 6.666383743286133 50.85319137573242 8.386842727661133 50.85319137573242 10.58318328857422 C 50.85319137573242 12.77952480316162 49.13272094726562 14.49999523162842 46.93637847900391 14.49999523162842 C 44.74003601074219 14.49999523162842 43.01957702636719 12.77952480316162 43.01957702636719 10.58239555358887 C 43.02377700805664 8.459701538085938 44.81744766235352 6.666383743286133 46.93637847900391 6.666383743286133 M 74.64351654052734 89.1884765625 L 18.67216682434082 89.1884765625 C 17.68603706359863 89.1884765625 17.12408447265625 88.34735870361328 17.26548385620117 87.50260925292969 L 18.53081321716309 80.75551605224609 L 13.32813167572021 79.20737457275391 C 12.20054340362549 81.17605590820312 10.23186111450195 82.44136810302734 7.842648983001709 82.44136810302734 C 4.329460620880127 82.44136810302734 1.516095995903015 79.63162231445312 1.516095995903015 76.11482238769531 C 1.516095995903015 72.88082122802734 3.905401945114136 70.20878601074219 7.001578330993652 69.92599487304688 L 7.142966747283936 38.98931121826172 C 4.470954895019531 38.14460754394531 2.643637180328369 35.75530242919922 2.643637180328369 32.94193649291992 C 2.643637180328369 29.42874908447266 5.453390121459961 26.61537170410156 8.970190048217773 26.61537170410156 C 10.65606117248535 26.61537170410156 12.20419025421143 27.17736053466797 13.32808399200439 28.30124282836914 L 40.89655303955078 12.55167770385742 C 40.75515365600586 11.98968982696533 40.61376571655273 11.42771339416504 40.61376571655273 10.72436046600342 C 40.61376571655273 7.211172103881836 43.42350769042969 4.3977952003479 46.9403190612793 4.3977952003479 C 50.45350646972656 4.3977952003479 53.26687240600586 7.207548141479492 53.26687240600586 10.72436046600342 C 53.26687240600586 11.28634834289551 53.12547302246094 11.98971271514893 52.98408508300781 12.55167770385742 L 80.54885101318359 28.72168922424316 C 81.67272186279297 27.45641899108887 83.36220550537109 26.61166572570801 85.18952941894531 26.61166572570801 C 88.70272064208984 26.61166572570801 91.51608276367188 29.42141914367676 91.51608276367188 32.938232421875 C 91.51608276367188 35.89304351806641 89.26822662353516 38.56509017944336 86.45486450195312 39.12704086303711 L 86.31346130371094 71.19142150878906 L 86.31419372558594 71.19136047363281 C 89.26901245117188 71.75334930419922 91.51681518554688 74.28391265869141 91.37903594970703 77.51791381835938 C 91.37903594970703 81.03110504150391 88.56929779052734 83.84447479248047 85.05248260498047 83.84447479248047 C 82.65955352783203 83.84447479248047 80.69088745117188 82.43779754638672 79.56700134277344 80.61048126220703 L 74.92630767822266 81.87580871582031 L 76.05019378662109 87.50263214111328 C 76.18795776367188 87.92315673828125 76.05019378662109 88.34372711181641 75.76740264892578 88.62652587890625 C 75.48827362060547 89.04708099365234 75.06407165527344 89.1884765625 74.64351654052734 89.1884765625 Z M 37.37211990356445 58.53374862670898 C 34.27956771850586 58.81293487548828 31.46609687805176 59.51626586914062 28.7940845489502 60.21961975097656 C 26.68406105041504 60.92295837402344 24.99817848205566 62.61244201660156 24.71537780761719 64.43977355957031 L 20.35749626159668 86.37815856933594 L 72.94586944580078 86.37388610839844 L 68.58798980712891 64.57749938964844 C 68.30519104003906 62.60882949829102 66.61931610107422 60.78158187866211 64.36785125732422 60.21961975097656 C 61.69583892822266 59.51990127563477 58.88608551025391 58.95431137084961 55.93125915527344 58.53374862670898 C 57.62092971801758 66.83314514160156 54.66593170166016 75.41091156005859 47.63602447509766 82.02027893066406 C 47.35503005981445 82.30125427246094 47.00335311889648 82.44174194335938 46.65167617797852 82.44174194335938 C 46.30000305175781 82.44174194335938 45.94832992553711 82.30125427246094 45.66735458374023 82.02027893066406 C 39.34080123901367 75.97252655029297 35.54480361938477 67.11178588867188 37.37211990356445 58.53374862670898 Z M 85.18976593017578 80.89278411865234 L 85.18978118896484 80.89278411865234 C 87.15843963623047 80.89278411865234 88.70294189453125 79.3482666015625 88.70658111572266 77.37596893310547 C 88.70658111572266 75.40730285644531 87.15843963623047 73.85916137695312 85.18976593017578 73.85916137695312 L 85.04837036132812 73.85916137695312 L 84.90696716308594 73.85916137695312 C 83.07965850830078 74.0006103515625 81.67296600341797 75.54864501953125 81.67296600341797 77.37596893310547 C 81.67296600341797 79.34464263916016 83.22109222412109 80.89278411865234 85.18978118896484 80.89278411865234 Z M 7.842119693756104 72.59420776367188 C 5.873448848724365 72.59420776367188 4.325307846069336 74.142333984375 4.325307846069336 76.11100769042969 C 4.325307846069336 78.07968139648438 5.873448848724365 79.62781524658203 7.842119693756104 79.62781524658203 C 9.810790061950684 79.62781524658203 11.35893154144287 77.94194793701172 11.35893154144287 76.11100769042969 C 11.35893154144287 74.142333984375 9.810790061950684 72.59420776367188 7.842119693756104 72.59420776367188 Z M 45.25053024291992 66.83344268798828 L 44.54720306396484 76.53526306152344 C 45.10909652709961 77.38005065917969 45.95387268066406 78.22116851806641 46.6572265625 79.06592559814453 C 47.36056518554688 78.22113800048828 48.06390762329102 77.38002014160156 48.76725006103516 76.53526306152344 L 48.06390762329102 66.83344268798828 L 45.25053024291992 66.83344268798828 Z M 80.82405090332031 37.58220672607422 L 64.512939453125 57.41001892089844 C 64.79574584960938 57.41001892089844 65.07490539550781 57.41001892089844 65.35769653320312 57.55140686035156 C 68.59169769287109 58.39258193969727 71.12596893310547 60.92686462402344 71.54653167724609 64.01941680908203 L 74.5013427734375 79.06545257568359 L 78.85894012451172 77.80001068115234 L 78.85894012451172 77.37945556640625 C 78.85894012451172 74.42464447021484 80.82761383056641 72.03544616699219 83.49601745605469 71.33207702636719 L 83.63740539550781 39.13034820556641 C 82.6513671875 38.84753799438477 81.66879272460938 38.28556060791016 80.82405090332031 37.58220672607422 Z M 12.90690803527832 37.723876953125 C 12.06583690643311 38.42720794677734 10.93823719024658 38.98917007446289 9.81435489654541 39.13056182861328 L 9.672966957092285 70.06725311279297 C 12.34497833251953 70.90843200683594 14.45509624481201 73.44270324707031 14.17229557037354 76.53526306152344 L 19.23393058776855 78.08294677734375 L 22.04730796813965 64.01980590820312 C 22.46783638000488 61.06860733032227 24.86067199707031 58.53794860839844 28.09467315673828 57.55179595947266 C 28.51524925231934 57.41403198242188 28.93944931030273 57.27263259887695 29.36001396179199 57.13124084472656 L 12.90690803527832 37.723876953125 Z M 42.86489486694336 57.5476188659668 L 50.59814453125 57.5476188659668 C 51.44287109375 57.5476188659668 52.00482559204102 58.10954666137695 52.00482559204102 58.95429992675781 L 52.00482559204102 62.47111129760742 C 52.00482559204102 62.61251449584961 52.00482559204102 62.89166641235352 51.86343765258789 63.03306579589844 L 50.87728500366211 65.56372833251953 L 51.43924713134766 72.31444549560547 C 53.83207321166992 67.53545379638672 54.39406204223633 62.19190216064453 52.84593200683594 57.26840591430664 C 52.70816802978516 56.84782028198242 52.84593200683594 56.42362976074219 53.12873077392578 56.00306701660156 C 53.40790939331055 55.58250045776367 53.97349548339844 55.44111251831055 54.39406204223633 55.44111251831055 C 56.78327178955078 55.72024154663086 59.1724853515625 56.14443206787109 61.42395401000977 56.56499481201172 L 79.27947235107422 34.9096794128418 C 79.00032043457031 34.34778213500977 78.85891723632812 33.50300598144531 78.85891723632812 32.79965591430664 C 78.85891723632812 32.23766708374023 78.85891723632812 31.67568969726562 79.00032043457031 30.97233581542969 L 51.43926239013672 14.94060707092285 C 50.59456634521484 15.92313671112061 49.47058868408203 16.62648963928223 48.06390762329102 16.90927696228027 L 48.06390762329102 28.01815986633301 C 52.14261245727539 28.72150039672852 55.51806259155273 32.09686660766602 56.64194488525391 36.737548828125 C 59.31034469604492 38.98884201049805 58.88980102539062 45.73965454101562 55.65578842163086 46.8635368347168 C 53.68711853027344 51.07997131347656 50.45312118530273 55.30012512207031 46.6572151184082 55.30012512207031 C 42.86132049560547 55.30012512207031 39.6273193359375 51.08369064331055 37.65863800048828 46.8635368347168 C 34.42102432250977 45.73612594604492 33.8591194152832 38.98902893066406 36.6724967956543 36.737548828125 C 37.93782424926758 32.09686660766602 41.31319046020508 28.72151374816895 45.25053024291992 28.01815986633301 L 45.25053024291992 16.76820755004883 L 45.25024795532227 16.76801872253418 C 44.1263542175293 16.48884201049805 43.14017868041992 15.78545379638672 42.29542541503906 14.94070148468018 L 14.87544918060303 30.54826545715332 C 15.15461349487305 31.25161933898926 15.29600238800049 31.95499610900879 15.29600238800049 32.79974746704102 C 15.29600238800049 33.7859001159668 15.15461349487305 34.62700653076172 14.73404884338379 35.47175979614258 L 32.45962524414062 56.42725372314453 C 34.56964874267578 56.00306701660156 36.67976760864258 55.72391128540039 39.06898880004883 55.44111251831055 C 39.63096618652344 55.44111251831055 40.05152130126953 55.58251190185547 40.33432006835938 56.00306701660156 C 40.61710739135742 56.28225326538086 40.75850677490234 56.84784317016602 40.61710739135742 57.26840591430664 C 39.06897735595703 62.04738235473633 39.63457870483398 67.39094543457031 42.0238037109375 72.31444549560547 L 42.58575439453125 65.56372833251953 L 41.59960174560547 63.03306579589844 C 41.45821380615234 62.89166641235352 41.45821380615234 62.61250305175781 41.45821380615234 62.47111129760742 L 41.45821380615234 58.95429992675781 C 41.45821380615234 58.10957336425781 42.0201416015625 57.5476188659668 42.86489486694336 57.5476188659668 Z M 44.26436614990234 60.50317001342773 L 44.26436614990234 62.33049011230469 L 44.96772003173828 64.016357421875 L 48.48451995849609 64.016357421875 L 49.18787384033203 62.33049011230469 L 49.18786239624023 60.50317001342773 L 44.26436614990234 60.50317001342773 Z M 46.6572151184082 30.69027709960938 L 46.6572380065918 30.69037246704102 C 43.28178024291992 30.69037246704102 40.3270149230957 33.64518356323242 39.48588562011719 38.00307846069336 C 39.344482421875 38.42726516723633 39.06169509887695 38.84783172607422 38.64113235473633 38.98921966552734 C 37.23439025878906 39.83391189575195 37.93777847290039 44.33325576782227 38.78253173828125 44.33325576782227 C 39.34450912475586 44.33325576782227 39.76506042480469 44.61604309082031 40.04785919189453 45.17800903320312 C 41.45454406738281 48.8361701965332 44.12655639648438 52.63206481933594 46.6572265625 52.63206481933594 C 49.18778991699219 52.63206481933594 51.85980224609375 48.69480895996094 53.40794372558594 45.17800903320312 C 53.54938888549805 44.61604309082031 54.11130905151367 44.33325576782227 54.67327117919922 44.33325576782227 C 55.51802444458008 44.33325576782227 56.0799560546875 39.69252395629883 54.67327117919922 38.84777069091797 C 54.39047241210938 38.56497192382812 54.11130905151367 38.28218460083008 53.96992111206055 37.86161804199219 C 53.26657867431641 34.34481811523438 50.59455490112305 30.69027709960938 46.6572151184082 30.69027709960938 Z M 85.1895751953125 29.28414916992188 C 83.22090911865234 29.28414916992188 81.67276763916016 30.97363090515137 81.67276763916016 32.80094909667969 C 81.67276763916016 34.76963043212891 83.22090911865234 36.3177604675293 85.1895751953125 36.3177604675293 C 87.15826416015625 36.3177604675293 88.70637512207031 34.76963043212891 88.70637512207031 32.80094909667969 C 88.70637512207031 30.83227729797363 87.15826416015625 29.28414916992188 85.1895751953125 29.28414916992188 Z M 8.969707489013672 29.28367805480957 C 7.001037120819092 29.28367805480957 5.452907562255859 30.83180809020996 5.452907562255859 32.80049133300781 C 5.452907562255859 34.76916122436523 7.001037120819092 36.31729125976562 8.969707489013672 36.31729125976562 C 10.93838977813721 36.31729125976562 12.4865198135376 34.76916122436523 12.4865198135376 32.80049133300781 C 12.4865198135376 30.83180809020996 10.93838977813721 29.28367805480957 8.969707489013672 29.28367805480957 Z M 46.93637847900391 7.066383838653564 C 44.96770858764648 7.066383838653564 43.42320251464844 8.752254486083984 43.41957855224609 10.58318328857422 C 43.41957855224609 12.55186557769775 44.96770858764648 14.09999561309814 46.93637847900391 14.09999561309814 C 48.90505981445312 14.09999561309814 50.45318984985352 12.55186557769775 50.45318984985352 10.58318328857422 C 50.45318984985352 8.614513397216797 48.90505981445312 7.066383838653564 46.93637847900391 7.066383838653564 Z"/></g><g class="c" transform="translate(10473 3635)"><path class="e" d="M -9541.5078125 112.234992980957 L -9540.787109375 108.3952560424805 L -9540.75390625 108.2181015014648 L -9540.9267578125 108.1666717529297 L -9546.1318359375 106.6170883178711 L -9546.283203125 106.5718841552734 L -9546.3623046875 106.7093811035156 C -9547.5029296875 108.701904296875 -9549.4384765625 109.8446807861328 -9551.671875 109.8446807861328 C -9553.318359375 109.8446807861328 -9554.8603515625 109.2101593017578 -9556.0126953125 108.0580062866211 C -9557.1650390625 106.9060440063477 -9557.7998046875 105.3643112182617 -9557.7998046875 103.7168045043945 C -9557.7998046875 102.2045593261719 -9557.2568359375 100.7598571777344 -9556.26953125 99.64883422851562 C -9555.2861328125 98.54212188720703 -9553.9462890625 97.85967254638672 -9552.49609375 97.72721099853516 L -9552.3154296875 97.71067810058594 L -9552.314453125 97.52896118164062 L -9552.1728515625 66.59237670898438 L -9552.1728515625 66.44513702392578 L -9552.3125 66.40077209472656 C -9553.591796875 65.99666595458984 -9554.681640625 65.23094940185547 -9555.46484375 64.18635559082031 C -9556.2548828125 63.1325798034668 -9556.6728515625 61.8731575012207 -9556.6728515625 60.54424667358398 C -9556.6728515625 58.89821243286133 -9556.0390625 57.35721206665039 -9554.88671875 56.20509338378906 C -9553.734375 55.05318069458008 -9552.1923828125 54.41875839233398 -9550.544921875 54.41875839233398 C -9548.875 54.41875839233398 -9547.3779296875 54.99597930908203 -9546.330078125 56.04410171508789 L -9546.2216796875 56.15210342407227 L -9546.0888671875 56.07634735107422 L -9518.5205078125 40.3286018371582 L -9518.400390625 40.25951385498047 L -9518.4228515625 40.12211227416992 L -9518.423828125 40.11630249023438 L -9518.4248046875 40.10830307006836 L -9518.4267578125 40.10043716430664 L -9518.4287109375 40.09541320800781 C -9518.5634765625 39.55690383911133 -9518.703125 39.00005722045898 -9518.703125 38.32709121704102 C -9518.703125 36.68090438842773 -9518.0693359375 35.13945770263672 -9516.9169921875 33.98670196533203 C -9515.7646484375 32.83403778076172 -9514.22265625 32.19921493530273 -9512.5751953125 32.19921493530273 C -9510.9296875 32.19921493530273 -9509.388671875 32.83371353149414 -9508.2373046875 33.98582458496094 C -9507.0849609375 35.13796997070312 -9506.4501953125 36.67971420288086 -9506.4501953125 38.32709121704102 C -9506.4501953125 38.7645149230957 -9506.5419921875 39.36347961425781 -9506.724609375 40.10734558105469 L -9506.759765625 40.25204849243164 L -9506.6318359375 40.32743453979492 L -9479.068359375 56.49736785888672 L -9478.92578125 56.58054733276367 L -9478.8173828125 56.45754623413086 C -9477.6826171875 55.17791366577148 -9476.00390625 54.41395950317383 -9474.3271484375 54.41395950317383 C -9472.6806640625 54.41395950317383 -9471.138671875 55.04806900024414 -9469.986328125 56.19949340820312 C -9468.833984375 57.35091400146484 -9468.19921875 58.89220428466797 -9468.19921875 60.53944778442383 C -9468.19921875 61.91300201416016 -9468.70703125 63.28557968139648 -9469.62890625 64.40435028076172 C -9470.54296875 65.51240539550781 -9471.775390625 66.26805877685547 -9473.099609375 66.53204345703125 L -9473.259765625 66.56398773193359 L -9473.2607421875 66.72731018066406 L -9473.40234375 98.793701171875 L -9473.4033203125 98.96002197265625 L -9473.2392578125 98.99106597900391 C -9471.8251953125 99.25968170166016 -9470.5556640625 100.0024566650391 -9469.6640625 101.0825576782227 C -9468.7314453125 102.2117004394531 -9468.2724609375 103.6049346923828 -9468.3359375 105.1116714477539 L -9468.3359375 105.1158676147461 L -9468.3359375 105.1200714111328 C -9468.3359375 106.7662658691406 -9468.9697265625 108.3077163696289 -9470.1220703125 109.46044921875 C -9471.2744140625 110.6131134033203 -9472.81640625 111.2479476928711 -9474.4638671875 111.2479476928711 C -9476.583984375 111.2479476928711 -9478.5703125 110.0739364624023 -9479.7763671875 108.1074600219727 L -9479.85546875 107.979621887207 L -9480 108.0191040039062 L -9484.6416015625 109.2856369018555 L -9484.76171875 109.3183364868164 L -9488.4599609375 90.40528106689453 C -9488.322265625 90.81055450439453 -9488.224609375 91.22591400146484 -9488.1669921875 91.64919281005859 L -9488.166015625 91.65506744384766 L -9488.1650390625 91.66088104248047 L -9485.2099609375 106.705810546875 L -9485.16796875 106.9202270507812 L -9484.9580078125 106.8593444824219 L -9480.599609375 105.5951919555664 L -9480.455078125 105.5533447265625 L -9480.455078125 105.4031143188477 L -9480.455078125 104.9809341430664 C -9480.455078125 103.596923828125 -9480.0146484375 102.3022232055664 -9479.181640625 101.2367935180664 C -9478.3779296875 100.2102890014648 -9477.2373046875 99.46104431152344 -9475.9697265625 99.12711334228516 L -9475.8212890625 99.08803558349609 L -9475.8203125 98.93460083007812 L -9475.6767578125 66.73387908935547 L -9475.6767578125 66.58240509033203 L -9475.822265625 66.54071044921875 C -9476.748046875 66.27546691894531 -9477.6962890625 65.75303649902344 -9478.5625 65.02987670898438 L -9478.716796875 64.90077972412109 L -9478.8447265625 65.05635833740234 L -9495.15625 84.88436126708984 L -9495.345703125 85.11487579345703 L -9501.255859375 83.80471801757812 C -9500.1591796875 83.98822784423828 -9499.1064453125 84.18140411376953 -9498.12890625 84.36367034912109 L -9498.0126953125 84.38527679443359 L -9497.9375 84.29428863525391 L -9480.0810546875 62.63844680786133 L -9479.998046875 62.53816986083984 L -9480.056640625 62.42189025878906 C -9480.3505859375 61.83277893066406 -9480.455078125 60.99258041381836 -9480.455078125 60.40271377563477 C -9480.455078125 59.85930252075195 -9480.455078125 59.29737854003906 -9480.3193359375 58.61385726928711 L -9480.2919921875 58.47380447387695 L -9480.4150390625 58.40200424194336 L -9507.974609375 42.3712043762207 L -9508.1181640625 42.28770446777344 L -9508.2265625 42.41345977783203 C -9509.0888671875 43.41276931762695 -9510.1865234375 44.05253601074219 -9511.4912109375 44.31497955322266 L -9511.65234375 44.34727096557617 L -9511.65234375 44.51104736328125 L -9511.65234375 55.61962509155273 L -9511.65234375 55.75048446655273 L -9514.0634765625 55.77368545532227 L -9514.0634765625 55.61962509155273 L -9514.0634765625 44.36952590942383 L -9514.0634765625 44.21293640136719 L -9514.2158203125 44.17536926269531 C -9515.17578125 43.93816757202148 -9516.1376953125 43.34173583984375 -9517.0771484375 42.40265655517578 L -9517.185546875 42.29484558105469 L -9517.3173828125 42.37025833129883 L -9544.740234375 57.97647857666016 L -9544.892578125 58.06278228759766 L -9544.8271484375 58.22472381591797 C -9544.548828125 58.91823577880859 -9544.419921875 59.61030197143555 -9544.419921875 60.40271377563477 C -9544.419921875 61.43671417236328 -9544.5859375 62.23344802856445 -9544.958984375 62.98604583740234 L -9545.017578125 63.103759765625 L -9544.9326171875 63.20407104492188 L -9527.208984375 84.15947723388672 L -9527.1328125 84.24969482421875 L -9527.017578125 84.22640228271484 C -9526.7431640625 84.17137145996094 -9526.466796875 84.11805725097656 -9526.1845703125 84.06605529785156 L -9531.3779296875 85.34880065917969 C -9531.373046875 85.34725952148438 -9531.3681640625 85.34573364257812 -9531.36328125 85.34420013427734 C -9530.990234375 85.22357940673828 -9530.587890625 85.08995056152344 -9530.091796875 84.92268371582031 L -9529.8125 84.82854461669922 L -9530.0029296875 84.60382843017578 L -9546.4560546875 65.19800567626953 L -9546.583984375 65.04662322998047 L -9546.736328125 65.17378997802734 C -9547.619140625 65.91031646728516 -9548.7080078125 66.40630340576172 -9549.7255859375 66.53456878662109 L -9549.8994140625 66.55653381347656 L -9549.900390625 66.73207855224609 L -9550.0419921875 97.66865539550781 L -9550.0419921875 97.81601715087891 L -9549.90234375 97.86031341552734 C -9548.59765625 98.27162170410156 -9547.44140625 99.09458923339844 -9546.646484375 100.1776351928711 C -9545.794921875 101.3376159667969 -9545.4140625 102.7002563476562 -9545.5439453125 104.118293762207 L -9545.55859375 104.2802505493164 L -9545.4033203125 104.3278274536133 L -9540.3388671875 105.8774108886719 L -9540.14453125 105.9368286132812 L -9541.5078125 112.234992980957 Z M -9474.615234375 101.2619934082031 L -9474.623046875 101.2625885009766 C -9476.541015625 101.4111022949219 -9478.0439453125 103.0433502197266 -9478.0439453125 104.9785461425781 C -9478.0439453125 107.0625915527344 -9476.4111328125 108.6950912475586 -9474.3271484375 108.6950912475586 C -9472.2470703125 108.6950912475586 -9470.61328125 107.0628128051758 -9470.6083984375 104.9790496826172 C -9470.6083984375 102.8945007324219 -9472.2421875 101.2619934082031 -9474.3271484375 101.2619934082031 L -9474.4658203125 101.2619934082031 L -9474.607421875 101.2619934082031 L -9474.615234375 101.2619934082031 Z M -9551.6748046875 99.99546051025391 C -9553.7587890625 99.99546051025391 -9555.3916015625 101.6290130615234 -9555.3916015625 103.7144012451172 C -9555.3916015625 105.7984466552734 -9553.7587890625 107.4309616088867 -9551.6748046875 107.4309616088867 C -9550.68359375 107.4309616088867 -9549.7451171875 107.0288162231445 -9549.033203125 106.2986145019531 C -9548.3486328125 105.5961151123047 -9547.955078125 104.6541900634766 -9547.955078125 103.7144012451172 C -9547.955078125 101.6290130615234 -9549.5888671875 99.99546051025391 -9551.6748046875 99.99546051025391 Z M -9474.3271484375 56.6861572265625 C -9475.3173828125 56.6861572265625 -9476.2548828125 57.08868026733398 -9476.9658203125 57.81955718994141 C -9477.650390625 58.52239227294922 -9478.0439453125 59.46397018432617 -9478.0439453125 60.40271377563477 C -9478.0439453125 62.48675918579102 -9476.4111328125 64.11927032470703 -9474.3271484375 64.11927032470703 C -9472.2431640625 64.11927032470703 -9470.6103515625 62.48675918579102 -9470.6103515625 60.40271377563477 C -9470.6103515625 58.31866836547852 -9472.2431640625 56.6861572265625 -9474.3271484375 56.6861572265625 Z M -9550.544921875 56.6861572265625 C -9552.62890625 56.6861572265625 -9554.26171875 58.31866836547852 -9554.26171875 60.40271377563477 C -9554.26171875 62.48675918579102 -9552.62890625 64.11927032470703 -9550.544921875 64.11927032470703 C -9548.4609375 64.11927032470703 -9546.828125 62.48675918579102 -9546.828125 60.40271377563477 C -9546.828125 58.31866836547852 -9548.4609375 56.6861572265625 -9550.544921875 56.6861572265625 Z M -9512.580078125 34.46901321411133 C -9514.58984375 34.46901321411133 -9516.2919921875 36.17075729370117 -9516.296875 38.18505859375 C -9516.296875 40.26961517333984 -9514.6640625 41.90212631225586 -9512.580078125 41.90212631225586 C -9510.49609375 41.90212631225586 -9508.86328125 40.26961517333984 -9508.86328125 38.18556976318359 C -9508.86328125 36.10152435302734 -9510.49609375 34.46901321411133 -9512.580078125 34.46901321411133 Z M -9539.90625 104.8376007080078 L -9537.2734375 91.66152191162109 L -9537.2724609375 91.65615844726562 L -9537.271484375 91.65074920654297 C -9537.1669921875 90.91909790039062 -9536.9404296875 90.21337127685547 -9536.5966796875 89.54198455810547 L -9539.90625 104.8376007080078 Z M -9493.861328125 85.44403839111328 L -9494.9150390625 85.21038055419922 C -9494.6748046875 85.21271514892578 -9494.4619140625 85.22428131103516 -9494.2470703125 85.33184814453125 L -9494.2275390625 85.34121704101562 L -9494.2080078125 85.34648132324219 C -9494.091796875 85.37673187255859 -9493.9755859375 85.40925598144531 -9493.861328125 85.44403839111328 Z"/><path class="f" d="M -9474.4638671875 111.0479507446289 C -9472.8701171875 111.0479507446289 -9471.3779296875 110.4339294433594 -9470.263671875 109.319091796875 C -9469.1494140625 108.2041168212891 -9468.5361328125 106.7128829956055 -9468.5361328125 105.1200714111328 L -9468.5361328125 105.1116714477539 L -9468.53515625 105.1032791137695 C -9468.474609375 103.6466674804688 -9468.91796875 102.3003768920898 -9469.818359375 101.2098770141602 C -9470.6796875 100.1656951904297 -9471.908203125 99.44747924804688 -9473.2763671875 99.18755340576172 L -9473.603515625 99.12546539306641 L -9473.6025390625 98.79280853271484 L -9473.4609375 66.72642517089844 L -9473.458984375 66.39977264404297 L -9473.138671875 66.33590698242188 C -9471.859375 66.08089447021484 -9470.66796875 65.34970092773438 -9469.783203125 64.27713775634766 C -9468.890625 63.1941032409668 -9468.3994140625 61.86669158935547 -9468.3994140625 60.53944396972656 C -9468.3994140625 58.94564437866211 -9469.0126953125 57.45459747314453 -9470.126953125 56.34098815917969 C -9471.2421875 55.22729110717773 -9472.7333984375 54.61395263671875 -9474.3271484375 54.61395263671875 C -9475.947265625 54.61395263671875 -9477.5703125 55.35275268554688 -9478.66796875 56.5902214050293 L -9478.8857421875 56.83623504638672 L -9479.1689453125 56.66986846923828 L -9506.732421875 40.49993896484375 L -9506.9892578125 40.34918594360352 L -9506.9189453125 40.05978775024414 C -9506.740234375 39.3314208984375 -9506.650390625 38.74845504760742 -9506.650390625 38.32709121704102 C -9506.650390625 36.73313903808594 -9507.263671875 35.24163436889648 -9508.37890625 34.12722015380859 C -9509.4921875 33.01289367675781 -9510.982421875 32.39920806884766 -9512.5751953125 32.39920806884766 C -9514.1689453125 32.39920806884766 -9515.6611328125 33.01323318481445 -9516.775390625 34.12806701660156 C -9517.8896484375 35.24305725097656 -9518.5029296875 36.73429107666016 -9518.5029296875 38.32709121704102 C -9518.5029296875 38.97531509399414 -9518.3662109375 39.51996231079102 -9518.234375 40.04666900634766 L -9518.2333984375 40.05175018310547 L -9518.2294921875 40.06717300415039 L -9518.2265625 40.08284378051758 L -9518.2255859375 40.08865737915039 L -9518.1796875 40.36385726928711 L -9518.421875 40.50226974487305 L -9545.990234375 56.2500114440918 L -9546.2548828125 56.40151596069336 L -9546.4716796875 56.18552780151367 C -9547.4814453125 55.17518615722656 -9548.9287109375 54.6187629699707 -9550.544921875 54.6187629699707 C -9552.138671875 54.6187629699707 -9553.630859375 55.23239898681641 -9554.7451171875 56.34650421142578 C -9555.859375 57.46083450317383 -9556.47265625 58.95162200927734 -9556.47265625 60.54424667358398 C -9556.47265625 61.82954025268555 -9556.0693359375 63.04747009277344 -9555.3046875 64.06633758544922 C -9554.546875 65.07732391357422 -9553.4912109375 65.81861877441406 -9552.2529296875 66.21006011962891 L -9551.9716796875 66.29881286621094 L -9551.97265625 66.59330749511719 L -9552.1142578125 97.52987670898438 L -9552.1162109375 97.89330291748047 L -9552.478515625 97.92638397216797 C -9553.876953125 98.05419921875 -9555.169921875 98.71310424804688 -9556.1201171875 99.78165435791016 C -9557.07421875 100.8560562133789 -9557.599609375 102.2535858154297 -9557.599609375 103.7168121337891 C -9557.599609375 105.3108825683594 -9556.986328125 106.8023834228516 -9555.87109375 107.9165496826172 C -9554.7568359375 109.0309524536133 -9553.265625 109.6446838378906 -9551.671875 109.6446838378906 C -9549.5126953125 109.6446838378906 -9547.640625 108.53857421875 -9546.53515625 106.609977722168 L -9546.3779296875 106.3349838256836 L -9546.07421875 106.4253997802734 L -9540.869140625 107.9749755859375 L -9540.794921875 107.9970550537109 L -9540.37890625 106.0742568969727 L -9540.3974609375 106.0686569213867 L -9545.4619140625 104.5190811157227 L -9545.7724609375 104.4239120483398 L -9545.7431640625 104.1000061035156 C -9545.6171875 102.7313766479492 -9545.9853515625 101.4159851074219 -9546.8076171875 100.2959365844727 C -9547.5771484375 99.24692535400391 -9548.697265625 98.44969177246094 -9549.9619140625 98.05107116699219 L -9550.2431640625 97.96245574951172 L -9550.2421875 97.66773986816406 L -9550.1005859375 66.73114776611328 L -9550.0986328125 66.38006591796875 L -9549.75 66.33612823486328 C -9548.7705078125 66.2125244140625 -9547.71875 65.73290252685547 -9546.8642578125 65.02023315429688 L -9546.5595703125 64.76590728759766 L -9546.3037109375 65.06864166259766 L -9529.8505859375 84.47447204589844 L -9529.646484375 84.71502685546875 L -9527.4580078125 84.17472076416016 L -9545.0859375 63.33322143554688 L -9545.255859375 63.13259887695312 L -9545.138671875 62.89718627929688 C -9544.779296875 62.17363357543945 -9544.6201171875 61.40431594848633 -9544.6201171875 60.40271759033203 C -9544.6201171875 59.63664627075195 -9544.7451171875 58.96820831298828 -9545.0126953125 58.29914093017578 L -9545.142578125 57.97525787353516 L -9544.83984375 57.80265808105469 L -9517.4169921875 42.19643402099609 L -9517.1513671875 42.04560852050781 L -9516.935546875 42.26122283935547 C -9516.0224609375 43.17418670654297 -9515.091796875 43.75288009643555 -9514.16796875 43.98120880126953 L -9513.86328125 44.05635070800781 L -9513.86328125 44.36952590942383 L -9513.86328125 55.57175064086914 L -9511.8525390625 55.55239868164062 L -9511.8525390625 44.51104354858398 L -9511.8525390625 44.18349075317383 L -9511.53125 44.11890411376953 C -9510.271484375 43.86543273925781 -9509.2099609375 43.2476921081543 -9508.3779296875 42.28284454345703 L -9508.1611328125 42.03131484985352 L -9507.8740234375 42.19831466674805 L -9480.314453125 58.2291145324707 L -9480.0673828125 58.37271499633789 L -9480.123046875 58.65283203125 C -9480.2548828125 59.31705856323242 -9480.2548828125 59.86897277832031 -9480.2548828125 60.40271759033203 C -9480.2548828125 60.94382095336914 -9480.15625 61.77392578125 -9479.8779296875 62.33256149291992 L -9479.76171875 62.56512832641602 L -9479.9267578125 62.76568222045898 L -9497.7470703125 84.37771606445312 L -9495.4228515625 84.89305877685547 L -9495.310546875 84.75729370117188 L -9478.9990234375 64.92929077148438 L -9478.7431640625 64.61814117431641 L -9478.43359375 64.87635040283203 C -9477.5888671875 65.58177185058594 -9476.6669921875 66.09081268310547 -9475.7666015625 66.34843444824219 L -9475.4755859375 66.43180847167969 L -9475.4765625 66.73477172851562 L -9475.6201171875 98.93549346923828 L -9475.6220703125 99.24234771728516 L -9475.9189453125 99.32051849365234 C -9477.14453125 99.64339447021484 -9478.2470703125 100.3677291870117 -9479.0234375 101.3600234985352 C -9479.8291015625 102.3899383544922 -9480.2548828125 103.6420364379883 -9480.2548828125 104.9809417724609 L -9480.2548828125 105.4031143188477 L -9480.2548828125 105.7035827636719 L -9480.5439453125 105.7872772216797 L -9484.90234375 107.0514297485352 L -9484.99609375 107.0785140991211 L -9484.6064453125 109.0687255859375 L -9480.052734375 107.8261489868164 L -9479.7626953125 107.747184753418 L -9479.6064453125 108.0028686523438 C -9478.4365234375 109.9095993041992 -9476.513671875 111.0479507446289 -9474.4638671875 111.0479507446289 M -9474.623046875 101.0619888305664 L -9474.607421875 101.0619888305664 L -9474.4658203125 101.0619888305664 L -9474.3271484375 101.0619888305664 C -9472.1298828125 101.0619888305664 -9470.408203125 102.7823486328125 -9470.408203125 104.9795379638672 C -9470.4140625 107.1751708984375 -9472.1357421875 108.8950958251953 -9474.3271484375 108.8950958251953 C -9476.5234375 108.8950958251953 -9478.244140625 107.1747360229492 -9478.244140625 104.9785537719727 C -9478.244140625 102.9395523071289 -9476.66015625 101.2197189331055 -9474.638671875 101.0631713867188 L -9474.623046875 101.0619888305664 M -9551.6748046875 99.79545593261719 C -9549.4765625 99.79545593261719 -9547.7548828125 101.5168533325195 -9547.7548828125 103.7144012451172 C -9547.7548828125 104.7059173583984 -9548.1689453125 105.6987533569336 -9548.890625 106.4382247924805 C -9549.6396484375 107.2073745727539 -9550.62890625 107.6309661865234 -9551.6748046875 107.6309661865234 C -9553.87109375 107.6309661865234 -9555.591796875 105.9105987548828 -9555.591796875 103.7144012451172 C -9555.591796875 101.5168533325195 -9553.87109375 99.79545593261719 -9551.6748046875 99.79545593261719 M -9474.3271484375 56.48616409301758 C -9472.130859375 56.48616409301758 -9470.41015625 58.20651626586914 -9470.41015625 60.40271759033203 C -9470.41015625 62.59891510009766 -9472.130859375 64.31926727294922 -9474.3271484375 64.31926727294922 C -9476.5234375 64.31926727294922 -9478.244140625 62.59891510009766 -9478.244140625 60.40271759033203 C -9478.244140625 59.41226959228516 -9477.830078125 58.4197998046875 -9477.109375 57.68011474609375 C -9476.3603515625 56.91018676757812 -9475.3720703125 56.48616409301758 -9474.3271484375 56.48616409301758 M -9550.544921875 56.48616409301758 C -9548.3486328125 56.48616409301758 -9546.6279296875 58.20651626586914 -9546.6279296875 60.40271759033203 C -9546.6279296875 62.59891510009766 -9548.3486328125 64.31926727294922 -9550.544921875 64.31926727294922 C -9552.7412109375 64.31926727294922 -9554.4619140625 62.59891510009766 -9554.4619140625 60.40271759033203 C -9554.4619140625 58.20651626586914 -9552.7412109375 56.48616409301758 -9550.544921875 56.48616409301758 M -9512.580078125 34.26900863647461 C -9510.3837890625 34.26900863647461 -9508.6630859375 35.98936462402344 -9508.6630859375 38.18556213378906 C -9508.6630859375 40.38176345825195 -9510.3837890625 42.10212707519531 -9512.580078125 42.10212707519531 C -9514.7763671875 42.10212707519531 -9516.4970703125 40.38176345825195 -9516.4970703125 38.18453979492188 C -9516.4912109375 36.06210327148438 -9514.697265625 34.26900863647461 -9512.580078125 34.26900863647461 M -9483.638671875 116.1025543212891 L -9483.638671875 116.100341796875 L -9488.9619140625 88.88323211669922 C -9488.431640625 89.74188995361328 -9488.0986328125 90.66370391845703 -9487.96875 91.62233734130859 L -9485.013671875 106.6672668457031 L -9480.6552734375 105.4031143188477 L -9480.6552734375 104.9809417724609 C -9480.6552734375 103.5519866943359 -9480.2001953125 102.2146835327148 -9479.3388671875 101.1135711669922 C -9478.5087890625 100.0527877807617 -9477.330078125 99.27861785888672 -9476.0205078125 98.93370056152344 L -9475.876953125 66.73298645019531 C -9476.8310546875 66.45985412597656 -9477.8037109375 65.92369079589844 -9478.6904296875 65.18341064453125 L -9495.001953125 85.01141357421875 L -9494.9931640625 85.00983428955078 C -9494.70703125 85.01141357421875 -9494.4375 85.01290130615234 -9494.1572265625 85.15293121337891 C -9493.3544921875 85.36191558837891 -9492.587890625 85.67681884765625 -9491.876953125 86.08882141113281 L -9505.4697265625 83.07532501220703 C -9505.3515625 83.054443359375 -9505.2314453125 83.04444885253906 -9505.1220703125 83.04444885253906 C -9502.6435546875 83.33315277099609 -9500.193359375 83.77529144287109 -9498.091796875 84.16705322265625 L -9480.2353515625 62.51121139526367 C -9480.544921875 61.89106750488281 -9480.6552734375 61.01522064208984 -9480.6552734375 60.40271759033203 C -9480.6552734375 59.8496208190918 -9480.6552734375 59.27770233154297 -9480.515625 58.57487869262695 L -9508.0751953125 42.5440788269043 C -9508.966796875 43.5778923034668 -9510.103515625 44.23974990844727 -9511.4521484375 44.51104354858398 L -9511.4521484375 55.61962127685547 C -9511.01953125 55.69441986083984 -9510.5869140625 55.8012809753418 -9510.16796875 55.93621063232422 L -9515.662109375 55.98906707763672 C -9515.2001953125 55.82672882080078 -9514.73046875 55.70309066772461 -9514.263671875 55.61962127685547 L -9514.263671875 44.36952590942383 C -9515.259765625 44.12332916259766 -9516.25390625 43.50883483886719 -9517.21875 42.5440788269043 L -9544.6416015625 58.15030288696289 C -9544.353515625 58.86891555786133 -9544.2197265625 59.58502197265625 -9544.2197265625 60.40271759033203 C -9544.2197265625 61.46909332275391 -9544.392578125 62.29322052001953 -9544.7802734375 63.07491683959961 L -9527.056640625 84.03031921386719 C -9525.5751953125 83.73237609863281 -9524.0009765625 83.48471832275391 -9521.9521484375 83.22693634033203 L -9533.546875 86.09032440185547 C -9532.8828125 85.69574737548828 -9532.16796875 85.38098907470703 -9531.421875 85.15293121337891 C -9531.0498046875 85.03249359130859 -9530.6474609375 84.89910125732422 -9530.1552734375 84.733154296875 L -9546.6083984375 65.32732391357422 C -9547.51953125 66.08777618408203 -9548.646484375 66.60008239746094 -9549.7001953125 66.73298645019531 L -9549.841796875 97.66957092285156 C -9548.4970703125 98.09351348876953 -9547.3046875 98.94254302978516 -9546.4853515625 100.059326171875 C -9545.6044921875 101.2591171264648 -9545.2099609375 102.6690063476562 -9545.3447265625 104.136589050293 L -9540.2802734375 105.686164855957 L -9537.4697265625 91.62233734130859 C -9537.3076171875 90.49253082275391 -9536.865234375 89.423095703125 -9536.154296875 88.44376373291016 L -9542.1220703125 116.0198822021484 C -9542.2578125 115.7421417236328 -9542.302734375 115.4175186157227 -9542.25 115.1060180664062 L -9540.9833984375 108.3583526611328 L -9546.1884765625 106.8087768554688 C -9547.3662109375 108.8650665283203 -9549.365234375 110.044677734375 -9551.671875 110.044677734375 C -9553.3720703125 110.044677734375 -9554.9638671875 109.3893661499023 -9556.154296875 108.1994552612305 C -9557.3447265625 107.0095138549805 -9558 105.4175415039062 -9558 103.7168121337891 C -9558 102.1555252075195 -9557.4384765625 100.6636428833008 -9556.4189453125 99.51599884033203 C -9555.4013671875 98.37112426757812 -9554.0146484375 97.66513061523438 -9552.5146484375 97.52804565429688 L -9552.373046875 66.59146881103516 C -9553.69140625 66.17481994628906 -9554.81640625 65.38433074951172 -9555.625 64.30636596679688 C -9556.44140625 63.2177848815918 -9556.873046875 61.9168701171875 -9556.873046875 60.54424667358398 C -9556.873046875 58.84465789794922 -9556.2177734375 57.25343322753906 -9555.0283203125 56.06369400024414 C -9553.837890625 54.87396240234375 -9552.2451171875 54.2187614440918 -9550.544921875 54.2187614440918 C -9548.822265625 54.2187614440918 -9547.2744140625 54.81679916381836 -9546.1884765625 55.90267944335938 L -9518.6201171875 40.15493774414062 L -9518.62109375 40.14912796020508 C -9518.759765625 39.59665679931641 -9518.9033203125 39.02689361572266 -9518.9033203125 38.32709121704102 C -9518.9033203125 36.62738800048828 -9518.248046875 35.03572845458984 -9517.05859375 33.84534072875977 C -9515.8681640625 32.65484619140625 -9514.275390625 31.99921035766602 -9512.5751953125 31.99921035766602 C -9510.8759765625 31.99921035766602 -9509.28515625 32.65452575683594 -9508.095703125 33.84443283081055 C -9506.9052734375 35.03451538085938 -9506.25 36.62648010253906 -9506.25 38.32709121704102 C -9506.25 38.78224563598633 -9506.3447265625 39.39722061157227 -9506.5302734375 40.15492630004883 L -9478.966796875 56.32485580444336 C -9477.794921875 55.00315093994141 -9476.0595703125 54.21395111083984 -9474.3271484375 54.21395111083984 C -9472.626953125 54.21395111083984 -9471.03515625 54.86884689331055 -9469.8447265625 56.05798721313477 C -9468.654296875 57.24740982055664 -9467.9990234375 58.83895111083984 -9467.9990234375 60.53944396972656 C -9467.9990234375 61.95973968505859 -9468.5234375 63.37750244140625 -9469.474609375 64.53154754638672 C -9470.41796875 65.67509460449219 -9471.69140625 66.4552001953125 -9473.060546875 66.72818756103516 L -9473.2021484375 98.79457092285156 C -9471.7421875 99.07190704345703 -9470.4306640625 99.839599609375 -9469.509765625 100.9552459716797 C -9468.5458984375 102.1225128173828 -9468.0703125 103.5626907348633 -9468.1357421875 105.1200714111328 C -9468.1357421875 106.8197708129883 -9468.791015625 108.4114456176758 -9469.98046875 109.6018218994141 C -9471.1708984375 110.7923126220703 -9472.763671875 111.4479522705078 -9474.4638671875 111.4479522705078 C -9476.654296875 111.4479522705078 -9478.7041015625 110.2382659912109 -9479.947265625 108.212043762207 L -9484.5888671875 109.4785766601562 L -9483.466796875 115.1060180664062 C -9483.3544921875 115.4430465698242 -9483.4169921875 115.8056564331055 -9483.63671875 116.1007537841797 L -9483.638671875 116.1025543212891 Z M -9474.607421875 101.4619827270508 C -9476.421875 101.6024703979492 -9477.84375 103.1471252441406 -9477.84375 104.9785537719727 C -9477.84375 106.9504318237305 -9476.298828125 108.4950942993164 -9474.3271484375 108.4950942993164 C -9472.359375 108.4950942993164 -9470.8134765625 106.9504318237305 -9470.80859375 104.9785537719727 C -9470.80859375 103.0066452026367 -9472.3544921875 101.4619827270508 -9474.3271484375 101.4619827270508 L -9474.4658203125 101.4619827270508 L -9474.607421875 101.4619827270508 Z M -9551.6748046875 100.1954574584961 C -9553.646484375 100.1954574584961 -9555.19140625 101.7411651611328 -9555.19140625 103.7144012451172 C -9555.19140625 105.6863021850586 -9553.646484375 107.2309646606445 -9551.6748046875 107.2309646606445 C -9550.7373046875 107.2309646606445 -9549.8505859375 106.8502655029297 -9549.1767578125 106.1590118408203 C -9548.52734375 105.4932479858398 -9548.1552734375 104.6022109985352 -9548.1552734375 103.7144012451172 C -9548.1552734375 101.7411651611328 -9549.701171875 100.1954574584961 -9551.6748046875 100.1954574584961 Z M -9474.3271484375 56.88616180419922 C -9475.263671875 56.88616180419922 -9476.1494140625 57.26716232299805 -9476.822265625 57.95899963378906 C -9477.4716796875 58.62522125244141 -9477.84375 59.51592636108398 -9477.84375 60.40271759033203 C -9477.84375 62.37461090087891 -9476.298828125 63.91926956176758 -9474.3271484375 63.91926956176758 C -9472.35546875 63.91926956176758 -9470.810546875 62.37461090087891 -9470.810546875 60.40271759033203 C -9470.810546875 58.43080902099609 -9472.35546875 56.88616180419922 -9474.3271484375 56.88616180419922 Z M -9550.544921875 56.88616180419922 C -9552.5166015625 56.88616180419922 -9554.0615234375 58.43080902099609 -9554.0615234375 60.40271759033203 C -9554.0615234375 62.37461090087891 -9552.5166015625 63.91926956176758 -9550.544921875 63.91926956176758 C -9548.5732421875 63.91926956176758 -9547.0283203125 62.37461090087891 -9547.0283203125 60.40271759033203 C -9547.0283203125 58.43080902099609 -9548.5732421875 56.88616180419922 -9550.544921875 56.88616180419922 Z M -9512.580078125 34.66901016235352 C -9514.4814453125 34.66901016235352 -9516.091796875 36.27939987182617 -9516.0966796875 38.18556213378906 C -9516.0966796875 40.15746688842773 -9514.5517578125 41.70212936401367 -9512.580078125 41.70212936401367 C -9510.6083984375 41.70212936401367 -9509.0634765625 40.15746688842773 -9509.0634765625 38.18556213378906 C -9509.0634765625 36.21366882324219 -9510.6083984375 34.66901016235352 -9512.580078125 34.66901016235352 Z"/></g><g class="d" transform="translate(886.5 3637)"><circle class="e" cx="73.5" cy="73.5" r="73.5"/><circle class="g" cx="73.5" cy="73.5" r="73"/></g></g></svg>