<svg xmlns="http://www.w3.org/2000/svg" width="169.987" height="158" viewBox="0 0 169.987 158"><defs><style>.a{fill:#fff;}.b{fill:#313131;stroke-width:1.2px;}.b,.c{stroke:#fff;}.c{fill:#e32a66;}.d,.f{fill:none;}.d{stroke:#313131;stroke-dasharray:1 15;}.e{stroke:none;}</style></defs><g transform="translate(-1275.007 -3637)"><path class="a" d="M-9443,227a85.621,85.621,0,0,1-17.012-1.7,84.586,84.586,0,0,1-15.856-4.886,85.052,85.052,0,0,1-14.366-7.734,85.657,85.657,0,0,1-12.54-10.247A85.635,85.635,0,0,1-9513.154,190a85.1,85.1,0,0,1-7.887-14.27,84.618,84.618,0,0,1-5.058-15.78A85.612,85.612,0,0,1-9527.993,143h169.987a85.584,85.584,0,0,1-1.895,16.954,84.623,84.623,0,0,1-5.059,15.78,85.094,85.094,0,0,1-7.887,14.27,85.657,85.657,0,0,1-10.381,12.426,85.6,85.6,0,0,1-12.54,10.247,84.979,84.979,0,0,1-14.366,7.734,84.542,84.542,0,0,1-15.855,4.886A85.636,85.636,0,0,1-9443,227Z" transform="translate(10803 3568)"/><g transform="translate(400 -397.999)"><path class="b" d="M95.781,46.805l-.926-2.984L80.843,48.168a32.6,32.6,0,0,0-3.2-6.5l14.031-9.961L89.87,29.16,75.827,39.129a32.644,32.644,0,0,0-5.1-5.207L80.937,20.07l-2.516-1.855L68.194,32.074v0a33.342,33.342,0,0,0-6.078-3.18l1.875-6.551,3.125-10L64.132,11.4l-2.848,9.113L55.46,21.679l-3.9-6.488V7.812H48.436v7.379l-3.906,6.5-5.824-1.164-2.84-9.117-2.984.938,3.125,10,1.875,6.551a32.767,32.767,0,0,0-6.082,3.18L21.573,18.215,19.061,20.07,29.28,33.918a32.519,32.519,0,0,0-5.106,5.207L10.132,29.156,8.323,31.707l14.031,9.961a32.48,32.48,0,0,0-3.2,6.5l-14-4.344L4.217,46.8l14.02,4.352c-.164.645-.312,1.293-.437,1.953h0a8.159,8.159,0,0,0-7.133,3.758,10.813,10.813,0,0,0-1.172,5.574A11.039,11.039,0,0,0,9.366,64c0,5.25,1.086,8.574,2.6,10.672a11.065,11.065,0,0,0-7.277,9.641v7.813a1.56,1.56,0,0,0,1.563,1.563H29.687v1.621a1.56,1.56,0,0,0,1.563,1.563h37.5a1.56,1.56,0,0,0,1.563-1.563V93.692H93.75a1.56,1.56,0,0,0,1.563-1.563V84.317a11.069,11.069,0,0,0-7.277-9.652c1.508-2.094,2.59-5.418,2.59-10.66a10.821,10.821,0,0,0-.133-1.629.043.043,0,0,0,0-.031,10.649,10.649,0,0,0-1.168-5.477,8.161,8.161,0,0,0-7.137-3.758c-.125-.656-.273-1.309-.437-1.953ZM45,24.969a1.55,1.55,0,0,0,1.645-.727L50,18.66l3.348,5.582a1.556,1.556,0,0,0,1.645.727l5.3-1.059-2.1,7.34H41.8l-2.1-7.344Zm-6.25,6.938.383,1.332v0a1.556,1.556,0,0,0,1.492,1.133h18.75a1.561,1.561,0,0,0,1.5-1.133l.383-1.332v0A29.6,29.6,0,0,1,79.039,53.238a7.673,7.673,0,0,0-5.867,3.629A10.774,10.774,0,0,0,72,62.442,11.038,11.038,0,0,0,71.875,64c0,5.25,1.086,8.574,2.6,10.672a12.738,12.738,0,0,0-4.16,2.746V74.938c0-2.129-1.633-6.156-7.813-6.156H54.687v-1c3.4-1.547,4.477-4.77,5.25-7.117a18.737,18.737,0,0,1,.836-2.219,3.054,3.054,0,0,0,.285-3.184,1.058,1.058,0,0,1-.121-.637,21.307,21.307,0,0,0-.414-5.1,1.721,1.721,0,0,0,.406-.973A8.091,8.091,0,0,0,59.3,42.4C57.449,40.145,54.32,39,50,39s-7.449,1.145-9.3,3.4a8.09,8.09,0,0,0-1.629,6.148,1.721,1.721,0,0,0,.406.973,21.306,21.306,0,0,0-.414,5.1,1.058,1.058,0,0,1-.121.637,3.054,3.054,0,0,0,.285,3.184,18.73,18.73,0,0,1,.836,2.219c.781,2.344,1.852,5.57,5.25,7.117v1H35.968a6.906,6.906,0,0,0-4.6,1.766,5.984,5.984,0,0,0-1.684,4.391v2.469a12.736,12.736,0,0,0-4.152-2.742c1.508-2.094,2.59-5.418,2.59-10.66a10.822,10.822,0,0,0-.133-1.629.043.043,0,0,0,0-.031,10.649,10.649,0,0,0-1.168-5.477,7.682,7.682,0,0,0-5.871-3.629,29.548,29.548,0,0,1,17.8-21.332Zm42.5,43.035C77.1,74.941,75,71.262,75,64H87.5C87.5,71.261,85.4,74.941,81.25,74.941ZM37.5,79.629v6.309H32.813v-11a2.883,2.883,0,0,1,.734-2.145,3.855,3.855,0,0,1,2.391-.887H40.07l8.367,8.367V93.751H40.625V79.626ZM50,77.418l-5.512-5.512h2.387a1.56,1.56,0,0,0,1.563-1.563v-1.75a13.486,13.486,0,0,0,3.125,0v1.75a1.56,1.56,0,0,0,1.563,1.563h2.387Zm7.813-22.9v0A9.861,9.861,0,0,1,50.988,51.5a33.762,33.762,0,0,0,6.637-.578,24.141,24.141,0,0,1,.188,3.6ZM50,48.379c-5.273,0-7.234-.508-7.883-.762a4.837,4.837,0,0,1,1.023-3.258c1.234-1.48,3.543-2.23,6.859-2.23s5.625.75,6.859,2.23a4.816,4.816,0,0,1,1.023,3.258c-.645.25-2.609.758-7.883.758Zm-7.812,6.25a24.558,24.558,0,0,1,.188-3.711,28.139,28.139,0,0,0,4.891.535c.984,2.082,3.652,5.59,10.469,6.2-.281.66-.527,1.348-.754,2.031-1.043,3.156-1.941,5.879-6.973,5.879s-5.937-2.723-6.973-5.879a20.357,20.357,0,0,0-1-2.629c-.117-.234-.187-.4-.23-.508v0a4.16,4.16,0,0,0,.387-1.93ZM12.5,64H25c0,7.258-2.1,10.938-6.25,10.938S12.5,71.263,12.5,64Zm.871-5.566c.879-1.508,2.641-2.242,5.379-2.242s4.5.734,5.379,2.242a5.961,5.961,0,0,1,.7,2.445H12.672a5.961,5.961,0,0,1,.7-2.445ZM7.812,90.567V84.329c0-.227.184-5.383,6.828-7.27v0a8.894,8.894,0,0,0,8.23-.008c6.633,1.875,6.813,7.051,6.816,7.266v6.25Zm25,3.184V89.063H37.5v4.688Zm25,0h-6.25V80.274l8.367-8.367H62.5c4.375,0,4.672,2.547,4.687,3.031v11H62.5V79.625H59.374V93.75Zm9.375,0H62.5V89.063h4.687Zm25-9.434v6.25H70.312V84.329c0-.227.184-5.383,6.828-7.27v0a8.894,8.894,0,0,0,8.23-.008C92,78.93,92.187,84.1,92.187,84.317ZM86.628,58.438a5.961,5.961,0,0,1,.7,2.445H75.172a5.961,5.961,0,0,1,.7-2.445C76.75,56.93,78.511,56.2,81.25,56.2s4.5.73,5.379,2.242Z" transform="translate(909.783 4055.188)"/><path class="c" d="M-9556.984,117.505h0c-.027-.023-.055-.049-.088-.081a1.553,1.553,0,0,1-.456-1.106V108.5a11.081,11.081,0,0,1,.559-2.782l-.013,11.781Zm78.242-40.146h-4.451a29.571,29.571,0,0,0-17.765-21.264v0l-.384,1.331a1.57,1.57,0,0,1-1.5,1.132h-18.751a1.56,1.56,0,0,1-1.492-1.132l-.384-1.336a29.514,29.514,0,0,0-17.78,21.257h-4.407a8.179,8.179,0,0,1,.971-.058c.087,0,.176,0,.264,0,.121-.609.264-1.248.441-1.953L-9558,70.993l.938-2.984,14,4.344a32.562,32.562,0,0,1,3.2-6.5l-14.03-9.96,1.809-2.55,14.042,9.967a32.542,32.542,0,0,1,5.107-5.205l-10.221-13.848,2.511-1.857,10.229,13.86a32.748,32.748,0,0,1,6.081-3.181l-1.874-6.551-3.125-10,2.983-.936,2.841,9.115,5.824,1.166,3.907-6.5V32h3.123V39.38l3.9,6.486,5.824-1.163,2.848-9.113,2.983.938-3.125,10-1.876,6.551a33.206,33.206,0,0,1,6.078,3.178l10.229-13.855,2.514,1.857-10.209,13.85a32.793,32.793,0,0,1,5.1,5.208l14.045-9.969,1.809,2.547-14.032,9.962a32.648,32.648,0,0,1,3.194,6.5l14.014-4.347.926,2.984-14.032,4.351c.18.7.323,1.343.438,1.953.088,0,.178,0,.266,0a8.18,8.18,0,0,1,1.021.064Zm-43.769-29.264h0l2.1,7.342h16.391l2.1-7.338-5.3,1.058a1.55,1.55,0,0,1-.31.031,1.568,1.568,0,0,1-1.336-.758l-3.349-5.582-3.354,5.582a1.561,1.561,0,0,1-1.335.758,1.566,1.566,0,0,1-.311-.031Zm13.865,15.4h-7.154a19.178,19.178,0,0,1,3.582-.312,19.216,19.216,0,0,1,3.572.31Z" transform="translate(10472 4031)"/></g><g class="d" transform="translate(1287 3637)"><circle class="e" cx="73.5" cy="73.5" r="73.5"/><circle class="f" cx="73.5" cy="73.5" r="73"/></g></g></svg>