<svg xmlns="http://www.w3.org/2000/svg" width="169.989" height="158" viewBox="0 0 169.989 158"><defs><style>.a,.f{fill:#fff;}.b{fill:#313131;}.c{fill:#e32a66;}.d,.g{fill:none;}.d{stroke:#313131;stroke-dasharray:1 15;}.e,.f{stroke:none;}</style></defs><g transform="translate(-1275.006 -4431)"><g class="a" transform="translate(10798 4362)"><path class="e" d="M -9438.0009765625 226.9501495361328 C -9443.7236328125 226.9501495361328 -9449.443359375 226.3775482177734 -9455.001953125 225.2482299804688 C -9460.419921875 224.1476135253906 -9465.751953125 222.5048370361328 -9470.84765625 220.3655242919922 C -9475.8515625 218.2658996582031 -9480.681640625 215.6654357910156 -9485.2060546875 212.6363983154297 C -9489.6826171875 209.6385803222656 -9493.8994140625 206.1929779052734 -9497.73828125 202.3952789306641 C -9501.5771484375 198.5966491699219 -9505.068359375 194.4184112548828 -9508.11328125 189.9766540527344 C -9511.189453125 185.4881439208984 -9513.841796875 180.6898498535156 -9515.9951171875 175.7150421142578 C -9518.1875 170.6507263183594 -9519.888671875 165.3448791503906 -9521.05078125 159.9448547363281 C -9522.2373046875 154.4231872558594 -9522.8740234375 148.7398681640625 -9522.943359375 143.0509948730469 L -9353.0556640625 143.0509948730469 C -9353.125 148.7413330078125 -9353.76171875 154.4246520996094 -9354.9482421875 159.9448699951172 C -9356.1103515625 165.3449554443359 -9357.8115234375 170.6508178710938 -9360.00390625 175.7150268554688 C -9362.15625 180.6898345947266 -9364.80859375 185.4881286621094 -9367.8857421875 189.9766540527344 C -9370.9306640625 194.4185028076172 -9374.421875 198.5967254638672 -9378.2607421875 202.3952789306641 C -9382.099609375 206.1930084228516 -9386.31640625 209.6386108398438 -9390.79296875 212.6363983154297 C -9395.3154296875 215.6643371582031 -9400.1455078125 218.2648010253906 -9405.1513671875 220.3655242919922 C -9410.2490234375 222.5047149658203 -9415.580078125 224.1475067138672 -9420.998046875 225.2482299804688 C -9426.5576171875 226.3775482177734 -9432.2783203125 226.9501495361328 -9438.0009765625 226.9501495361328 Z"/><path class="f" d="M -9438.0009765625 226.900146484375 C -9432.28125 226.900146484375 -9426.564453125 226.327880859375 -9421.0078125 225.1992340087891 C -9415.59375 224.0991516113281 -9410.2646484375 222.4573364257812 -9405.1708984375 220.3194122314453 C -9400.16796875 218.2199401855469 -9395.33984375 215.6210174560547 -9390.8212890625 212.5948486328125 C -9386.3466796875 209.5988311767578 -9382.1328125 206.1552276611328 -9378.2958984375 202.3597259521484 C -9374.458984375 198.5634002685547 -9370.970703125 194.3876342773438 -9367.9267578125 189.9483795166016 C -9364.8515625 185.4625091552734 -9362.201171875 180.6670379638672 -9360.0498046875 175.6951751708984 C -9357.8583984375 170.6339569091797 -9356.158203125 165.3312530517578 -9354.9970703125 159.9343566894531 C -9353.814453125 154.4339447021484 -9353.1787109375 148.7709045410156 -9353.1064453125 143.1009979248047 L -9522.892578125 143.1009979248047 C -9522.8203125 148.7694549560547 -9522.1845703125 154.4324798583984 -9521.001953125 159.9343414306641 C -9519.8408203125 165.3311614990234 -9518.140625 170.6338806152344 -9515.94921875 175.6951751708984 C -9513.796875 180.6670379638672 -9511.146484375 185.4625244140625 -9508.072265625 189.9483795166016 C -9505.0283203125 194.3875427246094 -9501.5400390625 198.5633087158203 -9497.703125 202.3597106933594 C -9493.8662109375 206.1552124023438 -9489.65234375 209.5988159179688 -9485.177734375 212.5948486328125 C -9480.6572265625 215.6221313476562 -9475.8291015625 218.2210388183594 -9470.828125 220.3194122314453 C -9465.7353515625 222.4574584960938 -9460.4072265625 224.0992736816406 -9454.9921875 225.1992340087891 C -9449.4365234375 226.327880859375 -9443.720703125 226.900146484375 -9438.0009765625 226.900146484375 M -9438.0009765625 227.0001525878906 C -9443.7265625 227.0001525878906 -9449.4501953125 226.4272155761719 -9455.01171875 225.2972259521484 C -9460.4326171875 224.1961059570312 -9465.767578125 222.5523376464844 -9470.8671875 220.41162109375 C -9475.875 218.3102264404297 -9480.7080078125 215.708251953125 -9485.2333984375 212.6779327392578 C -9489.7138671875 209.6777038574219 -9493.9326171875 206.2300872802734 -9497.7734375 202.4308166503906 C -9501.61328125 198.6316070556641 -9505.1064453125 194.4509124755859 -9508.154296875 190.0049133300781 C -9511.2333984375 185.5131225585938 -9513.88671875 180.7120056152344 -9516.041015625 175.7348937988281 C -9518.234375 170.6684875488281 -9519.9365234375 165.3594818115234 -9521.099609375 159.9553833007812 C -9522.2900390625 154.4155426025391 -9522.927734375 148.7112579345703 -9522.994140625 143.0010070800781 L -9353.0048828125 143.0010070800781 C -9353.0712890625 148.7131042480469 -9353.708984375 154.4170379638672 -9354.8994140625 159.9553833007812 C -9356.0625 165.3595581054688 -9357.7646484375 170.6685638427734 -9359.9580078125 175.7348937988281 C -9362.11328125 180.7159423828125 -9364.767578125 185.5170593261719 -9367.8447265625 190.0049133300781 C -9370.892578125 194.4509429931641 -9374.3857421875 198.6316223144531 -9378.2255859375 202.4308166503906 C -9382.06640625 206.2301025390625 -9386.28515625 209.677734375 -9390.765625 212.6779327392578 C -9395.2890625 215.7071533203125 -9400.1220703125 218.3091278076172 -9405.1318359375 220.41162109375 C -9410.232421875 222.5520782470703 -9415.5673828125 224.1958618164062 -9420.98828125 225.2972259521484 C -9426.55078125 226.4272155761719 -9432.2744140625 227.0001525878906 -9438.0009765625 227.0001525878906 Z"/></g><path class="b" d="M16.1,91.609A147.606,147.606,0,0,0,37.548,94.4c4.089.3,8.279.4,12.371.4s8.282-.1,12.371-.4a145.221,145.221,0,0,0,21.452-2.795,3.722,3.722,0,0,0,3.095-3.594V76.841c0-8.98-6.287-16.962-15.364-19.757l6.684-19.655a.953.953,0,0,0-.1-.9.9.9,0,0,0-.8-.4H68.674a20.627,20.627,0,0,0,1-6.287,17.319,17.319,0,0,0-.3-3.192c7.784-1,8.879-2.194,8.879-3.492,0-.9,0-2.494-10.08-3.594-.7-4.989-2.6-14.768-6.985-14.768A70.648,70.648,0,0,0,47.217,6.7,14.475,14.475,0,0,0,40.131,4.8c-4.19,0-6.883,8.879-8.181,14.768-10.176,1.1-10.176,2.693-10.176,3.594,0,1.2,1.1,2.494,8.879,3.492a16.585,16.585,0,0,0-.3,3.192,24.8,24.8,0,0,0,1,6.287H22.767a1.232,1.232,0,0,0-.8.4.977.977,0,0,0-.1.9l6.684,19.655C19.286,59.979,13,67.962,13,76.841V88.015a3.81,3.81,0,0,0,3.095,3.594Zm22.747.9L44.63,61.177l.1-.6a1.262,1.262,0,0,0-.1-.6L39.442,49.1a16.1,16.1,0,0,0,10.477,4.291A15.888,15.888,0,0,0,60.4,49.1L55.208,59.879a1.247,1.247,0,0,0-.1.6l5.885,32.031a204.83,204.83,0,0,1-22.15,0ZM35.848,41.618l-2.3-4.888-.1-.1a20.906,20.906,0,0,1-1.3-6.786,15.289,15.289,0,0,1,.3-2.993c.9.1,2,.2,2.993.3a7.653,7.653,0,0,0-.2,1.6,7.015,7.015,0,0,0,7.183,6.786,7.121,7.121,0,0,0,7.086-5.687h.7A7.121,7.121,0,0,0,57.3,35.534a6.949,6.949,0,0,0,7.183-6.786,8.957,8.957,0,0,0-.2-1.6c1-.1,2-.2,2.993-.3a15.29,15.29,0,0,1,.3,2.993,20.906,20.906,0,0,1-1.3,6.786l-.1.1-2.3,4.79a.1.1,0,0,1-.1.1l.105.1C60.594,47.008,55.407,51.2,49.919,51.2S39.243,47.106,35.95,41.719ZM62.59,28.845a5.016,5.016,0,0,1-5.188,4.79,4.953,4.953,0,0,1-5.188-4.79v-.5l10.278-.4c0,.3.1.6.1.9Zm-12.371-.9h-.6v-.2h.6v.2Zm-2.494.9a5.016,5.016,0,0,1-5.188,4.79,4.953,4.953,0,0,1-5.188-4.79,2.7,2.7,0,0,1,.1-.9l10.278.4c-.105.2,0,.3,0,.5Zm28.036,9.382L69.275,57.485a1.04,1.04,0,0,0,.6,1.3h.1c8.777,2.292,14.865,9.775,14.865,18.058V88.015a1.7,1.7,0,0,1-1.5,1.6,145.987,145.987,0,0,1-20.353,2.693L57.107,60.678l-.1-.3,8.583-17.858a25.631,25.631,0,0,0,2.194-4.389l7.978,0ZM23.978,23.358c.8-.4,2.993-1.1,8.781-1.7l.7-.1.2-.7C35.351,12.881,38.044,7,40.04,7a13.474,13.474,0,0,1,6.384,1.8l.4.2h.3c.1,0,7.881-2,13.867-2,2.194,0,4.291,7.086,5.188,13.771l.1.8.8.1c5.788.6,7.881,1.3,8.68,1.7-.8.4-2.795,1-7.881,1.6a158.794,158.794,0,0,1-18.062.9c-6.684,0-12.971-.4-17.96-.9a32.672,32.672,0,0,1-7.881-1.6ZM15,76.841c0-8.38,6.088-15.863,14.865-18.159h.1a1,1,0,0,0,.6-1.3L24.079,38.126H31.96a25.924,25.924,0,0,0,2.194,4.389l8.583,17.858L36.851,92.3A147.977,147.977,0,0,1,16.5,89.609,1.69,1.69,0,0,1,15,88.015Z" transform="translate(1310 4454.199)"/><path class="c" d="M-9507.7,62.732a7.12,7.12,0,0,1-7.086-5.685h-.7a7.12,7.12,0,0,1-7.086,5.685,7.338,7.338,0,0,1-5.089-2.008,6.559,6.559,0,0,1-2.1-4.775,7.648,7.648,0,0,1,.2-1.593v-.007c-.341-.034-.7-.069-1.045-.1l-.038,0-.735-.071-3.924-.445c-6.988-.989-7.931-2.256-7.931-3.365,0-.453,0-1.073,1.272-1.722,1.5-.766,4.5-1.4,8.9-1.871a50.486,50.486,0,0,1,3.006-9.593c1.579-3.435,3.32-5.176,5.176-5.176a14.5,14.5,0,0,1,7.086,1.9,71.311,71.311,0,0,1,13.969-1.9c1.913,0,3.554,1.855,4.877,5.514a48.815,48.815,0,0,1,2.107,9.256c4.364.476,7.332,1.106,8.819,1.872,1.261.649,1.261,1.269,1.261,1.721,0,1.115-.648,2.391-8.4,3.43l-2.572.269h0v-.005a.013.013,0,0,1,0-.006c-.587.061-1.185.12-1.764.177l-.041,0-1.189.119a8.942,8.942,0,0,1,.2,1.6,6.562,6.562,0,0,1-2.094,4.814A7.37,7.37,0,0,1-9507.7,62.732Zm5.19-7.585-10.278.4v.5a4.948,4.948,0,0,0,5.188,4.79,5.007,5.007,0,0,0,5.188-4.79,2.732,2.732,0,0,0-.046-.425l0-.02a2.853,2.853,0,0,1-.05-.452Zm-25.04,0a2.671,2.671,0,0,0-.1.9,4.948,4.948,0,0,0,5.188,4.79,5.007,5.007,0,0,0,5.188-4.79.819.819,0,0,0-.023-.18.409.409,0,0,1,.028-.319l-10.278-.4Zm12.166-.2v.2h.6v-.2h-.6Zm-9.578-20.754c-1.992,0-4.678,5.833-6.386,13.87l-.2.7-.7.1c-5.887.605-8.027,1.321-8.779,1.694.639.243,2.591.977,7.88,1.6,4.089.409,10.523.9,17.959.9a157.6,157.6,0,0,0,18.063-.895c5.062-.6,7.079-1.2,7.88-1.6-.923-.457-3.177-1.124-8.679-1.694l-.8-.1-.1-.8a50.567,50.567,0,0,0-2.107-9.393c-1.265-3.619-2.373-4.379-3.081-4.379a61.367,61.367,0,0,0-13.544,1.923l-.022.005c-.187.043-.289.067-.3.067h-.3l-.4-.2a1.264,1.264,0,0,1-.188-.1A12.842,12.842,0,0,0-9524.96,34.194Z" transform="translate(10875 4427)"/><g class="d" transform="translate(1287 4431)"><circle class="e" cx="73.5" cy="73.5" r="73.5"/><circle class="g" cx="73.5" cy="73.5" r="73"/></g></g></svg>