<svg xmlns="http://www.w3.org/2000/svg" width="169.987" height="158" viewBox="0 0 169.987 158"><defs><style>.a,.f{fill:#fff;}.b{fill:#313131;}.c{fill:#e32a66;}.d,.g{fill:none;}.d{stroke:#313131;stroke-dasharray:1 15;}.e,.f{stroke:none;}</style></defs><g transform="translate(-875.007 -4035)"><g class="a" transform="translate(10403 3966)"><path class="e" d="M -9443 226.5001373291016 C -9448.693359375 226.5001373291016 -9454.3837890625 225.9305572509766 -9459.912109375 224.8072357177734 C -9465.2998046875 223.7127380371094 -9470.603515625 222.0787353515625 -9475.6748046875 219.9505920410156 C -9480.650390625 217.8621368408203 -9485.4560546875 215.2754821777344 -9489.9560546875 212.262451171875 C -9494.4111328125 209.2785797119141 -9498.60546875 205.8511352539062 -9502.4228515625 202.0753479003906 C -9506.2412109375 198.2977447509766 -9509.712890625 194.1415405273438 -9512.7421875 189.7222137451172 C -9515.8017578125 185.2574310302734 -9518.4404296875 180.4845886230469 -9520.58203125 175.5362548828125 C -9522.763671875 170.4960479736328 -9524.455078125 165.2184753417969 -9525.609375 159.8502197265625 C -9526.7587890625 154.5053863525391 -9527.388671875 149.0074615478516 -9527.4853515625 143.5009918212891 L -9358.513671875 143.5009918212891 C -9358.6103515625 149.0088195800781 -9359.240234375 154.5068206787109 -9360.3896484375 159.8503112792969 C -9361.544921875 165.2214050292969 -9363.2373046875 170.4989776611328 -9365.41796875 175.5362396240234 C -9367.5595703125 180.4848022460938 -9370.1982421875 185.2576446533203 -9373.2578125 189.7222137451172 C -9376.287109375 194.1405487060547 -9379.7587890625 198.2967529296875 -9383.578125 202.0753936767578 C -9387.3974609375 205.8530578613281 -9391.591796875 209.280517578125 -9396.044921875 212.2624816894531 C -9400.544921875 215.2755432128906 -9405.349609375 217.8621978759766 -9410.326171875 219.9505920410156 C -9415.39453125 222.0780792236328 -9420.697265625 223.7121124267578 -9426.087890625 224.8072204589844 C -9431.6171875 225.9305572509766 -9437.3076171875 226.5001373291016 -9443 226.5001373291016 Z"/><path class="f" d="M -9443 226.0001373291016 C -9437.3408203125 226.0001373291016 -9431.6845703125 225.4339141845703 -9426.1875 224.3172454833984 C -9420.8291015625 223.2286224365234 -9415.5576171875 221.6043701171875 -9410.51953125 219.4895172119141 C -9405.572265625 217.4135437011719 -9400.7958984375 214.8422393798828 -9396.3232421875 211.8470153808594 C -9391.8955078125 208.8826293945312 -9387.7265625 205.4753723144531 -9383.9296875 201.7199554443359 C -9380.1328125 197.9635467529297 -9376.681640625 193.8318023681641 -9373.6708984375 189.4395141601562 C -9370.6279296875 185.0013732910156 -9368.005859375 180.2568054199219 -9365.876953125 175.3376007080078 C -9363.708984375 170.3303527832031 -9362.02734375 165.0842132568359 -9360.8779296875 159.7452239990234 C -9359.771484375 154.5977478027344 -9359.1484375 149.3063201904297 -9359.0234375 144.0009918212891 L -9526.9755859375 144.0009918212891 C -9526.8505859375 149.3050689697266 -9526.2275390625 154.5963592529297 -9525.12109375 159.7450866699219 C -9523.9736328125 165.0813446044922 -9522.2919921875 170.3274536132812 -9520.123046875 175.3376007080078 C -9517.994140625 180.2565612792969 -9515.3720703125 185.0011444091797 -9512.3291015625 189.4395141601562 C -9509.318359375 193.8327789306641 -9505.8662109375 197.9645233154297 -9502.0712890625 201.7198638916016 C -9498.2763671875 205.4734344482422 -9494.1064453125 208.8807220458984 -9489.677734375 211.8469543457031 C -9485.2041015625 214.8421478271484 -9480.427734375 217.4134979248047 -9475.4814453125 219.4895172119141 C -9470.4404296875 221.6049957275391 -9465.1689453125 223.2292785644531 -9459.8125 224.3172454833984 C -9454.31640625 225.4339294433594 -9448.66015625 226.0001373291016 -9443 226.0001373291016 M -9443 227.0001373291016 C -9448.7265625 227.0001373291016 -9454.4501953125 226.4272003173828 -9460.01171875 225.2972106933594 C -9465.431640625 224.1962432861328 -9470.7666015625 222.5524749755859 -9475.8681640625 220.4116363525391 C -9480.875 218.3102416992188 -9485.7080078125 215.7082672119141 -9490.234375 212.6779327392578 C -9494.716796875 209.6757202148438 -9498.935546875 206.2280883789062 -9502.7744140625 202.4308319091797 C -9506.615234375 198.6305847167969 -9510.107421875 194.4499053955078 -9513.154296875 190.0049133300781 C -9516.23046875 185.5169982910156 -9518.884765625 180.7158660888672 -9521.041015625 175.7348937988281 C -9523.234375 170.6670227050781 -9524.9365234375 165.3580169677734 -9526.0986328125 159.9553680419922 C -9527.2890625 154.4155426025391 -9527.9267578125 148.7112426757812 -9527.9931640625 143.0009918212891 L -9358.005859375 143.0009918212891 C -9358.072265625 148.7131042480469 -9358.7099609375 154.4170379638672 -9359.900390625 159.9553680419922 C -9361.0634765625 165.3594970703125 -9362.765625 170.6685028076172 -9364.958984375 175.7348937988281 C -9367.115234375 180.7159576416016 -9369.76953125 185.5171051025391 -9372.845703125 190.0049133300781 C -9375.8935546875 194.450927734375 -9379.38671875 198.6316223144531 -9383.2265625 202.4308319091797 C -9387.0673828125 206.2301483154297 -9391.2861328125 209.6777648925781 -9395.7666015625 212.6779327392578 C -9400.2919921875 215.7082214355469 -9405.125 218.3102416992188 -9410.1328125 220.4116363525391 C -9415.2314453125 222.5519561767578 -9420.56640625 224.1957092285156 -9425.98828125 225.2972106933594 C -9431.55078125 226.4272003173828 -9437.2744140625 227.0001373291016 -9443 227.0001373291016 Z"/></g><g transform="translate(0 401)"><g transform="translate(909.999 3658.296)"><path class="b" d="M33.747,80.279h-.455a1,1,0,0,0,0,2h.455a1,1,0,0,0,0-2Z"/><path class="b" d="M72.455,19.295h-6.43a1,1,0,0,0,0,2h6.43a.525.525,0,0,1,.524.524v4.058a1,1,0,0,0,2,0V21.819A2.527,2.527,0,0,0,72.455,19.295Z"/><path class="b" d="M61.118,19.295h-1.05a1,1,0,0,0,0,2h1.05a1,1,0,0,0,0-2Z"/><path class="b" d="M90.635,43.688,85.487,34.6l5.122-8.943a2.794,2.794,0,0,0-2.424-4.183H80.43V17.286a3.457,3.457,0,0,0-3.463-3.442H55.623V11.7a1,1,0,0,0-1-1H48.082a1,1,0,0,0-1,1V40.071a5.8,5.8,0,0,0-9.646,4.344V50.2H10a1,1,0,0,0-1,1V88.3a1,1,0,0,0,1,1H62.553a5.64,5.64,0,0,0,3.994-9.623,5.589,5.589,0,0,0-.782-.652,5.637,5.637,0,0,0-.009-9.275,5.636,5.636,0,0,0,0-9.28,5.637,5.637,0,0,0-3.2-10.27H55.623V40.231h9.856v3.633a4,4,0,0,0,4,4H88.2a2.8,2.8,0,0,0,2.44-4.175ZM49.082,12.7h4.541v2.114c0,.009-.005.017-.005.027V39.231c0,.009.005.017.005.027V50.2H49.082ZM62.553,52.2a3.635,3.635,0,1,1,0,7.27,1,1,0,0,0,0,2,3.64,3.64,0,1,1,0,7.28,1,1,0,0,0,0,2,3.641,3.641,0,0,1,0,7.281,1,1,0,0,0,0,2,3.635,3.635,0,1,1,0,7.27H11V82.279H27.97a1,1,0,0,0,0-2H11V52.2H38.435a1,1,0,0,0,1-1v-6.78a3.809,3.809,0,0,1,7.619,0V51.2a1.058,1.058,0,0,0,1.028,1.028h6.541a.941.941,0,0,0,.14-.028Zm3.925-13.964H55.623V15.844H76.966a1.454,1.454,0,0,1,1.463,1.442V36.779a1.46,1.46,0,0,1-1.463,1.453Zm22.411,7.236a.787.787,0,0,1-.694.4H69.477a2,2,0,0,1-2-2V40.231h9.488a3.462,3.462,0,0,0,3.463-3.453v-13.3h7.754a.794.794,0,0,1,.689,1.188l-5.4,9.437a1,1,0,0,0,0,.99l5.428,9.581A.786.786,0,0,1,88.889,45.468Z"/></g><path class="c" d="M-9532.379,71.5h0l-25.62,0a1.017,1.017,0,0,1,.12-.007h25.5V71.5Zm14.077,0h0v-.006h4.044V60.554a.018.018,0,0,0,0-.012.036.036,0,0,1,0-.014V36.139a.026.026,0,0,1,0-.012.026.026,0,0,0,0-.014V34h-4.541V64.034a7.94,7.94,0,0,0-2-2.692V33a1,1,0,0,1,1-1h6.541a1,1,0,0,1,1,1v2.14h21.345a3.457,3.457,0,0,1,3.463,3.442v4.191h7.753a2.769,2.769,0,0,1,2.418,1.391,2.761,2.761,0,0,1,.008,2.79l-5.122,8.945,5.148,9.086a2.768,2.768,0,0,1-.02,2.787,2.772,2.772,0,0,1-2.42,1.386h-18.72a4,4,0,0,1-4-4V61.528h-9.856v9.964h6.931c.081,0,.161,0,.238,0Zm17.9-9.971v3.634a2,2,0,0,0,2,2h18.72a.787.787,0,0,0,.7-.4.788.788,0,0,0,0-.8l-5.428-9.581a1,1,0,0,1,0-.991l5.4-9.437a.788.788,0,0,0,0-.794.8.8,0,0,0-.688-.393h-7.753v13.3a3.463,3.463,0,0,1-3.463,3.454Zm-11.857-24.388V59.527h21.345a1.46,1.46,0,0,0,1.463-1.454V38.581a1.454,1.454,0,0,0-1.463-1.442Zm18.357,11.032a1,1,0,0,1-1-1V43.115a.526.526,0,0,0-.525-.525h-6.431a1,1,0,0,1-1-1,1,1,0,0,1,1-1h6.431a2.528,2.528,0,0,1,2.526,2.523v4.059A1,1,0,0,1-9493.9,48.172Zm-12.861-5.582h-1.051a1,1,0,0,1-1-1,1,1,0,0,1,1-1h1.051a1,1,0,0,1,1,1A1,1,0,0,1-9506.763,42.59Z" transform="translate(10477.88 3636.999)"/></g><g class="d" transform="translate(886.5 4035)"><circle class="e" cx="73.5" cy="73.5" r="73.5"/><circle class="g" cx="73.5" cy="73.5" r="73"/></g></g></svg>