<svg xmlns="http://www.w3.org/2000/svg" width="370" height="50.668" viewBox="0 0 370 50.668"><defs><style>.a{fill:#3b42a7;fill-rule:evenodd;}</style></defs><path class="a" d="M1064.64,9022.169l2.875,10.528h-1.335l-.829-3.246h-3.411l-.828,3.246h-1.335l2.876-10.528Zm-2.466,6.289h2.944l-1.365-5.352h-.214Zm13.646.506a4.855,4.855,0,0,1-.877,2.681,3.01,3.01,0,0,1-2.651,1.3,3.3,3.3,0,0,1-2.905-1.715,9.089,9.089,0,0,1,0-7.583,3.183,3.183,0,0,1,2.9-1.707,3.05,3.05,0,0,1,2.593,1.248,4.744,4.744,0,0,1,.877,2.662h-1.277a3.323,3.323,0,0,0-.536-1.9,1.983,1.983,0,0,0-1.677-.927,2.114,2.114,0,0,0-1.969,1.4,7.466,7.466,0,0,0-.458,3.011,6.946,6.946,0,0,0,.458,2.982,2.151,2.151,0,0,0,1.989,1.405,1.864,1.864,0,0,0,1.677-.877,3.857,3.857,0,0,0,.555-1.97Zm8.743,0a4.846,4.846,0,0,1-.867,2.681,3.016,3.016,0,0,1-2.651,1.3,3.288,3.288,0,0,1-2.905-1.715,9,9,0,0,1,0-7.583,3.171,3.171,0,0,1,2.9-1.707,3.041,3.041,0,0,1,2.593,1.248,4.658,4.658,0,0,1,.867,2.662h-1.267a3.4,3.4,0,0,0-.536-1.9,1.994,1.994,0,0,0-1.677-.928,2.1,2.1,0,0,0-1.969,1.395,7.294,7.294,0,0,0-.458,3.011,6.8,6.8,0,0,0,.458,2.983,2.146,2.146,0,0,0,1.988,1.405,1.855,1.855,0,0,0,1.667-.879,3.815,3.815,0,0,0,.565-1.971l1.286,0Zm2.281-5.352a3.245,3.245,0,0,1,5.683,0,9.635,9.635,0,0,1,0,7.64,3.236,3.236,0,0,1-5.682,0A9.639,9.639,0,0,1,1086.845,9023.612Zm.926,6.794a2.009,2.009,0,0,0,3.831,0,10.688,10.688,0,0,0,0-5.994,2.013,2.013,0,0,0-3.831,0,10.684,10.684,0,0,0,0,5.994Zm8.558-8.237v9.445h4.065v-9.445h1.228v9.445h1.033l-.283,1.083H1095.1v-10.528h1.228Zm8.753,0v5.985l4.055-3.374v-2.611h1.228V9032.7h-1.228v-6.463l-4.055,3.363v3.1h-1.228v-10.527Zm11.492,0,2.865,10.527h-1.326l-.838-3.245h-3.4l-.828,3.245h-1.335l2.875-10.527Zm-2.466,6.287h2.934l-1.365-5.352h-.2Zm7.905-6.287v9.445h4.065v-9.445h1.228v9.445h1.033l-.283,1.083h-7.272v-10.528Zm8.753,0v5.985l4.055-3.374v-2.611h1.228V9032.7h-1.228v-6.463l-4.055,3.363v3.1h-1.228v-10.527Zm13.442,10.527h-1.228v-4.542h-1.618a1.489,1.489,0,0,0-.868.214,2.641,2.641,0,0,0-.507.867l-1.287,3.459H1137.4l1.462-3.868a1.981,1.981,0,0,1,.848-1.093,2.013,2.013,0,0,1-.828-.5,2.769,2.769,0,0,1-.8-2.046,2.827,2.827,0,0,1,1.2-2.535,3.593,3.593,0,0,1,2.135-.487h2.8Zm-2.876-9.476a2.111,2.111,0,0,0-1.423.41,1.989,1.989,0,0,0,1.394,3.528h1.677v-3.938h-1.647Zm14.933-1.052V9032.7h-1.228v-9.445h-4.065v9.445h-1.228v-10.527h6.521Zm4.6,0a3.5,3.5,0,0,1,2.4.722,3.289,3.289,0,0,1,1.014,2.572,3.192,3.192,0,0,1-1.053,2.583,3.457,3.457,0,0,1-2.359.665l-1.287,0v3.987h-1.238v-10.527Zm-1.286,5.518h1.267a2.273,2.273,0,0,0,1.609-.479,2.318,2.318,0,0,0,.575-1.764,1.888,1.888,0,0,0-2.183-2.224h-1.267Zm6.891-4.074a3.255,3.255,0,0,1,5.692,0,9.747,9.747,0,0,1,0,7.643,3.244,3.244,0,0,1-5.693,0,9.636,9.636,0,0,1,0-7.64Zm.936,6.794a2,2,0,0,0,3.821,0,10.681,10.681,0,0,0,0-5.994,2.006,2.006,0,0,0-3.821,0,10.687,10.687,0,0,0,0,6Zm8.432-7.1a5.945,5.945,0,0,1,7.457,0,6.721,6.721,0,0,1,0,8.247,4.827,4.827,0,0,1-3.714,1.315,4.879,4.879,0,0,1-3.743-1.315,6.757,6.757,0,0,1,0-8.245Zm.624.984a5.319,5.319,0,0,0-.751,3.129,5.576,5.576,0,0,0,.751,3.118,2.987,2.987,0,0,0,2.534,1.3V9023a3.12,3.12,0,0,0-2.534,1.3Zm3.675,7.545a2.964,2.964,0,0,0,2.534-1.3,5.592,5.592,0,0,0,.76-3.119,5.224,5.224,0,0,0-.76-3.129,3.077,3.077,0,0,0-2.534-1.295Zm12.028-8.617h-4.445v3.413h4.328v1.053h-4.328v3.908h4.552v1.1h-5.781v-10.527h5.673v1.052Zm8.851,5.741a4.855,4.855,0,0,1-.867,2.683,3.026,3.026,0,0,1-2.661,1.295,3.312,3.312,0,0,1-2.9-1.714,9.094,9.094,0,0,1,0-7.586,3.191,3.191,0,0,1,2.9-1.7,3.045,3.045,0,0,1,2.6,1.247,4.656,4.656,0,0,1,.867,2.66h-1.267a3.4,3.4,0,0,0-.536-1.9,2,2,0,0,0-1.677-.927,2.1,2.1,0,0,0-1.969,1.395,7.3,7.3,0,0,0-.458,3.011,6.8,6.8,0,0,0,.458,2.981,2.139,2.139,0,0,0,1.979,1.405,1.853,1.853,0,0,0,1.677-.878,3.809,3.809,0,0,0,.565-1.97h1.286Zm8.753,0a4.859,4.859,0,0,1-.877,2.683,3.006,3.006,0,0,1-2.651,1.295,3.307,3.307,0,0,1-2.9-1.717,9.09,9.09,0,0,1,0-7.583,3.192,3.192,0,0,1,2.9-1.7,3.043,3.043,0,0,1,2.593,1.245,4.744,4.744,0,0,1,.877,2.662h-1.277a3.326,3.326,0,0,0-.536-1.9,1.982,1.982,0,0,0-1.667-.926,2.119,2.119,0,0,0-1.979,1.395,7.474,7.474,0,0,0-.458,3.011,6.934,6.934,0,0,0,.458,2.981,2.148,2.148,0,0,0,1.989,1.405,1.852,1.852,0,0,0,1.677-.878,3.911,3.911,0,0,0,.565-1.97h1.286Zm3.012-6.793v5.985l4.065-3.374v-2.611h1.228V9032.7h-1.228v-6.463l-4.065,3.363v3.1h-1.228v-10.527Zm7.857,1.443a3.255,3.255,0,0,1,5.692,0,9.643,9.643,0,0,1,0,7.645,3.246,3.246,0,0,1-5.692,0,9.746,9.746,0,0,1,0-7.642Zm.936,6.794a2.009,2.009,0,0,0,3.831,0,10.681,10.681,0,0,0,0-5.994,2.013,2.013,0,0,0-3.831,0,10.685,10.685,0,0,0,0,5.994Zm8.558-8.237v4.434h4.065v-4.434h1.228V9032.7H1234.2v-4.99h-4.065v4.99H1228.9v-10.527Zm11.492,0,2.875,10.527h-1.335l-.829-3.245h-3.411l-.828,3.245h-1.336l2.875-10.527Zm-2.466,6.287h2.944l-1.365-5.352h-.214Zm10.635-6.287,2.681,10.527h-1.336l-2.252-9.562h-.2l-2.252,9.563h-1.336l2.681-10.527h2.018Zm5.254,0v3.928h1.209a3.808,3.808,0,0,1,2.6.751,3.267,3.267,0,0,1,1.034,2.554,3.172,3.172,0,0,1-1.062,2.594,3.517,3.517,0,0,1-2.5.7h-2.515v-10.527h1.228Zm0,9.474h1.248a2.325,2.325,0,0,0,1.745-.525,2.352,2.352,0,0,0,.594-1.736,2.248,2.248,0,0,0-.614-1.725,2.385,2.385,0,0,0-1.823-.524l-1.15,0Zm7.779-9.474v4.434h4.065v-4.434h1.228V9032.7h-1.228v-4.99h-4.065v4.99H1261.6v-10.527Zm8.607,0v3.928h1.219a3.8,3.8,0,0,1,2.593.751,3.268,3.268,0,0,1,1.033,2.554,3.143,3.143,0,0,1-1.063,2.594,3.515,3.515,0,0,1-2.5.7H1270.2v-10.527Zm0,9.474h1.248a2.326,2.326,0,0,0,1.745-.525,2.356,2.356,0,0,0,.595-1.736,2.274,2.274,0,0,0-.6-1.725,2.423,2.423,0,0,0-1.833-.527h-1.15Zm7.808-9.474V9032.7h-1.228v-10.527Zm2.827,0,2.144,4.494h.136l2.164-4.494h1.306l-2.5,4.961,2.671,5.566h-1.375l-2.261-5.05h-.146l-2.252,5.05h-1.374l2.651-5.566-2.476-4.961h1.306Zm-219.737,20.479v5.984l4.065-3.362v-2.623h1.228v10.526h-1.228v-6.462l-4.065,3.362v3.1H1061.1v-10.526h1.228Zm8.6,0v4.436h4.065v-4.436h1.228v10.526h-1.228v-4.991h-4.065v4.991H1069.7v-10.526Zm12.974,0v1.111h-2.564v9.415h-1.228v-9.415h-2.554v-1.111Zm7.018,1.052h-4.445v3.421h4.328v1.044h-4.328v3.918h4.542v1.092h-5.78v-10.526h5.683v1.052Zm4.406-1.052a3.544,3.544,0,0,1,2.4.72,3.294,3.294,0,0,1,1,2.574,3.188,3.188,0,0,1-1.052,2.593,3.443,3.443,0,0,1-2.349.653h-1.3v3.986H1092.8v-10.526Zm-1.3,5.517h1.277a2.255,2.255,0,0,0,1.6-.477,2.28,2.28,0,0,0,.585-1.766,1.895,1.895,0,0,0-2.183-2.221l-1.277,0Zm7.642-5.517v4.436h4.065v-4.436h1.228v10.526h-1.228v-4.991h-4.065v4.991h-1.228v-10.526Zm13.042,1.052h-4.445v3.421h4.328v1.044h-4.328v3.918h4.552v1.092h-5.78v-10.526h5.673v1.052Zm7.5-1.052v1.111h-2.563v9.415h-1.238v-9.415h-2.544v-1.111Zm5.488,6.063v.994h-4.152v-.994Zm8.6-6.062v10.526h-1.228v-9.445H1131v9.445h-1.228v-10.526Zm4.6,0a3.545,3.545,0,0,1,2.4.72,3.3,3.3,0,0,1,1,2.574,3.209,3.209,0,0,1-1.043,2.593,3.491,3.491,0,0,1-2.359.653h-1.287v3.986h-1.238v-10.526Zm-1.287,5.517h1.267a2.269,2.269,0,0,0,1.609-.477,2.32,2.32,0,0,0,.575-1.766,1.888,1.888,0,0,0-2.183-2.224h-1.267Zm12.077-4.465h-4.445v3.421h4.328v1.044h-4.328v3.918h4.552v1.092h-5.78v-10.526h5.673Zm6.131-1.052,2.661,9.4h.331v1.13h-7.974v-1.13h.322l2.671-9.4Zm-3.382,9.4h4.776l-2.291-8.433h-.2Zm14.231-9.4v10.526h-1.228v-9.445h-4.065v9.445h-1.228v-10.526Zm4.6,0a3.545,3.545,0,0,1,2.4.72,3.312,3.312,0,0,1,1.014,2.575,3.223,3.223,0,0,1-1.052,2.594,3.5,3.5,0,0,1-2.359.653l-1.286,0v3.986h-1.238v-10.526Zm-1.287,5.517h1.267a2.282,2.282,0,0,0,1.608-.477,2.979,2.979,0,0,0,0-3.52,2.359,2.359,0,0,0-1.608-.47h-1.267Zm7.632-5.517v5.984l4.065-3.362v-2.623h1.228v10.526h-1.228v-6.462l-4.065,3.362v3.1h-1.228v-10.526h1.228Zm8.6,0v4.436h4.065v-4.436h1.228v10.526h-1.228v-4.991h-4.065v4.991h-1.228v-10.526Zm8.607,0v5.984l4.055-3.362v-2.623h1.228v10.526h-1.228v-6.462l-4.055,3.362v3.1h-1.228v-10.526h1.228Zm8.685,0,2.5,3.43,2.505-3.43h1.316v10.526H1210.6V9044.2l-2.593,3.606-2.593-3.606v8.977h-1.228v-10.526h1.316Zm12.535,0,2.875,10.526h-1.336l-.828-3.246h-3.412l-.829,3.246h-1.335l2.875-10.526Zm-2.466,6.287h2.934l-1.365-5.352h-.2Zm12.282-6.287v1.111h-2.564v9.415h-1.238v-9.415h-2.544v-1.111Zm7.008,1.052h-4.445v3.421h4.328v1.044h-4.328v3.918h4.552v1.092h-5.78v-10.526h5.673v1.052Zm5.848-1.052,2.68,10.526h-1.335l-2.252-9.562h-.2l-2.252,9.562h-1.335l2.681-10.526Zm9.689,1.052h-4.445v3.421h4.328v1.044h-4.328v3.918h4.552v1.092h-5.781v-10.526h5.673Zm3.119-1.052v5.984l4.065-3.362v-2.623h1.228v10.526h-1.228v-6.462l-4.065,3.362v3.1h-1.228v-10.526h1.228Zm.731-2.252a1.265,1.265,0,0,0,.312.644,1.2,1.2,0,0,0,.965.431,1.236,1.236,0,0,0,1-.459,1.466,1.466,0,0,0,.263-.614h1.072a3.153,3.153,0,0,1-.7,1.277,2.193,2.193,0,0,1-1.637.652,2.15,2.15,0,0,1-1.637-.662,3.179,3.179,0,0,1-.712-1.269h1.072Zm-287.27,7.281H946.97v5.771h30.82l-22.361-37.021-27.11,45.2H936.5l18.927-33.229Zm-18.37-36.483-30.614,50.424h7.462l29.935-50.424Zm72.143,17.2a9.314,9.314,0,0,0-9.309-9.309h-21.6v18.637h.066l21.529.011a9.339,9.339,0,0,0,9.308-9.339Zm-25.059,3.188v-6.561l.146-.011h15.6a3.373,3.373,0,0,1,3.256,3.383,3.3,3.3,0,0,1-3.255,3.3H995.694Zm33.354-3.013a17.631,17.631,0,0,0-17.6-17.614h-29.6v32.313l-19.606-32.079h-6.784l26.388,44.517v.087l-34.868-.009v5.839l34.868-.01h5.848V9016.78h23.755a11.766,11.766,0,0,1,11.551,11.793,11.59,11.59,0,0,1-11.552,11.59H990.073l-.23-.009v21.464h5.848v-15.343l.168-.089h15.582a17.523,17.523,0,0,0,11.833-4.582v20.014h5.849V9028.8h-.078v-.225Zm2.232-17.614v50.658h5.849V9010.96Z" transform="translate(-917.993 -9010.96)"/></svg>