<svg xmlns="http://www.w3.org/2000/svg" width="169.987" height="158" viewBox="0 0 169.987 158"><defs><style>.a{fill:#fff;}.b{fill:#313131;}.c{fill:#e32a66;}.d,.f{fill:none;}.d{stroke:#313131;stroke-dasharray:1 15;}.e{stroke:none;}</style></defs><g transform="translate(-475.007 -3637)"><path class="a" d="M-9435,227a85.636,85.636,0,0,1-17.012-1.7,84.542,84.542,0,0,1-15.855-4.886,85.052,85.052,0,0,1-14.366-7.734,85.652,85.652,0,0,1-12.54-10.247A85.713,85.713,0,0,1-9505.154,190a85.057,85.057,0,0,1-7.886-14.27,84.621,84.621,0,0,1-5.059-15.78A85.612,85.612,0,0,1-9519.993,143h169.987a85.584,85.584,0,0,1-1.895,16.954,84.623,84.623,0,0,1-5.059,15.78,85.094,85.094,0,0,1-7.887,14.27,85.657,85.657,0,0,1-10.381,12.426,85.6,85.6,0,0,1-12.54,10.247,84.979,84.979,0,0,1-14.366,7.734,84.542,84.542,0,0,1-15.855,4.886A85.636,85.636,0,0,1-9435,227Z" transform="translate(9995 3568)"/><g transform="translate(517.641 3659.996)"><path class="b" d="M85.41,24.508A12.027,12.027,0,0,0,74.277,20.9a17.879,17.879,0,0,0-34.684,4.751q-.328-.023-.645-.023a9.578,9.578,0,0,0,0,19.156h5.98v1.5l-22.414,0V41.942a5.588,5.588,0,0,0-5.578-5.578,5.581,5.581,0,0,0-5.578,5.578V90a1,1,0,0,0,1,1h9.156a1,1,0,0,0,1-1V87.188h22.41V90a1,1,0,0,0,1,1h9.16a1,1,0,0,0,1-1l0-45.223H76.577a12.056,12.056,0,0,0,8.831-20.27ZM20.515,89H13.359l0-47.066a3.583,3.583,0,0,1,3.578-3.578,3.588,3.588,0,0,1,3.578,3.578v4.336H18.468a1,1,0,0,0-1,1v8.395a1,1,0,0,0,1,1h2.051v4.863H18.468a1,1,0,0,0-1,1v8.394a1,1,0,0,0,1,1h2.051v4.863H18.468a1,1,0,0,0-1,1v8.395l0,0a1,1,0,0,0,1,1h2.051Zm24.414-3.816H19.464V78.8h2.051s.008,0,.016,0h23.4Zm0-8.395H22.515V71.926h22.41Zm0-6.867H19.464V63.535H44.925Zm0-8.391H22.515V56.668h22.41Zm0-6.867H19.464V48.277h2.051s.008,0,.016,0h23.4Zm9.156-10.891V89h-7.16V41.937c0-.125.008-.254.016-.355a3.575,3.575,0,0,1,6.09-2.172,3.532,3.532,0,0,1,1.055,2.531Zm22.492-1H56.085v-.84a5.526,5.526,0,0,0-1.641-3.949,5.576,5.576,0,0,0-9.5,3.438c-.012.168-.023.344-.023.508v.84h-5.98a7.578,7.578,0,1,1,1.41-15.016.986.986,0,0,0,.82-.211,1,1,0,0,0,.367-.766,15.876,15.876,0,0,1,31.1-4.426,1,1,0,0,0,1.223.68,10.057,10.057,0,1,1,2.714,19.742Z"/><path class="b" d="M67.926,37.777H66.258a1,1,0,0,0,0,2h1.668a1,1,0,0,0,0-2Z"/><path class="b" d="M74.672,25.93a1,1,0,0,0,.527,1.926,4.938,4.938,0,0,1,5.09,1.422,5.059,5.059,0,0,1-3.711,8.492H74.09a1,1,0,0,0,0,2h2.488a7.06,7.06,0,0,0,5.176-11.855,6.964,6.964,0,0,0-7.082-1.984Z"/></g><g transform="translate(517.641 3659.996)"><path class="c" d="M-10066.064-3592.216h0a9.586,9.586,0,0,1-9.576-9.576,9.589,9.589,0,0,1,9.578-9.577c.242,0,.447.006.648.02a17.938,17.938,0,0,1,17.832-16.643,17.79,17.79,0,0,1,9.928,3.008,18.064,18.064,0,0,1,6.924,8.884,12.111,12.111,0,0,1,2.33-.228,12.079,12.079,0,0,1,8.8,3.839,12.019,12.019,0,0,1,3.227,8.21,12.073,12.073,0,0,1-12.059,12.059h-20.416v-2h20.416a9.989,9.989,0,0,0,7.115-2.955,9.976,9.976,0,0,0,2.938-7.108,10.015,10.015,0,0,0-2.693-6.848,9.986,9.986,0,0,0-3.326-2.363,9.932,9.932,0,0,0-4.014-.839,10.354,10.354,0,0,0-2.734.371.994.994,0,0,1-.262.035,1,1,0,0,1-.959-.714,15.93,15.93,0,0,0-6.406-8.691,15.8,15.8,0,0,0-8.812-2.674,15.939,15.939,0,0,0-15.879,15.792.993.993,0,0,1-.369.765.977.977,0,0,1-.637.229,1.043,1.043,0,0,1-.184-.016,7.4,7.4,0,0,0-1.408-.142,7.587,7.587,0,0,0-7.582,7.577,7.587,7.587,0,0,0,7.582,7.577h5.971l0,2h-.512c-3.5,0-5.443,0-5.463.012Z" transform="translate(10105.012 3637)"/><path class="c" d="M67.926,37.777H66.258a1,1,0,0,0,0,2h1.668a1,1,0,0,0,0-2Z"/><path class="c" d="M74.672,25.93a1,1,0,0,0,.527,1.926,4.938,4.938,0,0,1,5.09,1.422,5.059,5.059,0,0,1-3.711,8.492H74.09a1,1,0,0,0,0,2h2.488a7.06,7.06,0,0,0,5.176-11.855,6.964,6.964,0,0,0-7.082-1.984Z"/></g><g class="d" transform="translate(487 3637)"><circle class="e" cx="73.5" cy="73.5" r="73.5"/><circle class="f" cx="73.5" cy="73.5" r="73"/></g></g></svg>