<svg xmlns="http://www.w3.org/2000/svg" width="169.998" height="158" viewBox="0 0 169.998 158"><defs><style>.a,.g{fill:#fff;}.b,.c{fill:#313131;}.c,.d{stroke:#fff;stroke-width:0.5px;}.d{fill:#e32a66;}.e,.h{fill:none;}.e{stroke:#313131;stroke-dasharray:1 15;}.f,.g{stroke:none;}</style></defs><g transform="translate(-475.001 -4431)"><path class="a" d="M-9457,221a85.64,85.64,0,0,1-17.131-1.727,84.586,84.586,0,0,1-15.955-4.953,85.05,85.05,0,0,1-14.438-7.837A85.7,85.7,0,0,1-9517.1,196.1a85.741,85.741,0,0,1-10.379-12.58,85.048,85.048,0,0,1-7.836-14.439,84.566,84.566,0,0,1-4.953-15.956A85.67,85.67,0,0,1-9542,136h170a85.642,85.642,0,0,1-1.727,17.131,84.561,84.561,0,0,1-4.953,15.956,84.949,84.949,0,0,1-7.837,14.439A85.615,85.615,0,0,1-9396.9,196.1a85.611,85.611,0,0,1-12.579,10.379,85,85,0,0,1-14.439,7.837,84.542,84.542,0,0,1-15.955,4.953A85.623,85.623,0,0,1-9457,221Z" transform="translate(10017 4368)"/><g transform="translate(506.715 4453.715)"><g class="b" transform="translate(-1.43)"><path class="f" d="M 74.28500366210938 26.9950008392334 C 68.06519317626953 26.9950008392334 63.0050048828125 21.93481063842773 63.0050048828125 15.71500015258789 C 63.0050048828125 9.495190620422363 68.06519317626953 4.434999942779541 74.28500366210938 4.434999942779541 C 80.50481414794922 4.434999942779541 85.56500244140625 9.495190620422363 85.56500244140625 15.71500015258789 C 85.56500244140625 21.93481063842773 80.50481414794922 26.9950008392334 74.28500366210938 26.9950008392334 Z M 74.28500366210938 6.99500036239624 C 69.47661590576172 6.99500036239624 65.56470489501953 10.90690994262695 65.56470489501953 15.71530055999756 C 65.56470489501953 20.52368927001953 69.47661590576172 24.43560028076172 74.28500366210938 24.43560028076172 C 79.09339141845703 24.43560028076172 83.00530242919922 20.52368927001953 83.00530242919922 15.71530055999756 C 83.00530242919922 10.90690994262695 79.09339141845703 6.99500036239624 74.28500366210938 6.99500036239624 Z"/><path class="g" d="M 74.28500366210938 26.84499931335449 C 80.42210388183594 26.84499931335449 85.41500091552734 21.85210037231445 85.41500091552734 15.71500015258789 C 85.41500091552734 9.577899932861328 80.42210388183594 4.585000038146973 74.28500366210938 4.585000038146973 C 68.14790344238281 4.585000038146973 63.15500259399414 9.577899932861328 63.15500259399414 15.71500015258789 C 63.15500259399414 21.85210037231445 68.14790344238281 26.84499931335449 74.28500366210938 26.84499931335449 M 74.28500366210938 6.845000267028809 C 79.17610168457031 6.845000267028809 83.15530395507812 10.82419967651367 83.15530395507812 15.71530055999756 C 83.15530395507812 20.60639953613281 79.17610168457031 24.58559989929199 74.28500366210938 24.58559989929199 C 69.39390563964844 24.58559989929199 65.41470336914062 20.60639953613281 65.41470336914062 15.71530055999756 C 65.41470336914062 10.82419967651367 69.39390563964844 6.845000267028809 74.28500366210938 6.845000267028809 M 74.28500366210938 27.14500045776367 C 67.98390197753906 27.14500045776367 62.85500335693359 22.01580047607422 62.85500335693359 15.71500015258789 C 62.85500335693359 9.413900375366211 67.98420715332031 4.285000324249268 74.28500366210938 4.285000324249268 C 80.58610534667969 4.285000324249268 85.71500396728516 9.414199829101562 85.71500396728516 15.71500015258789 C 85.71500396728516 22.01609992980957 80.58580017089844 27.14500045776367 74.28500366210938 27.14500045776367 Z M 74.28500366210938 7.144999980926514 C 69.55851745605469 7.144999980926514 65.71470642089844 10.9886999130249 65.71470642089844 15.71530055999756 C 65.71470642089844 20.44180107116699 69.55840301513672 24.28560066223145 74.28500366210938 24.28560066223145 C 79.01148986816406 24.28560066223145 82.85530090332031 20.4419002532959 82.85530090332031 15.71530055999756 C 82.85530090332031 10.98880004882812 79.01160430908203 7.144999980926514 74.28500366210938 7.144999980926514 Z"/></g><g class="b" transform="translate(10069 4451.715)"><path class="f" d="M -9974.865234375 -4357.5830078125 L -9981.74609375 -4357.5830078125 L -10064.564453125 -4357.5830078125 L -10064.564453125 -4360.07666015625 L -10049.244140625 -4360.07666015625 L -10046.435546875 -4360.0791015625 L -10028.15234375 -4360.07666015625 L -10025.3388671875 -4360.0791015625 L -10009.8701171875 -4360.07177734375 L -10009.7197265625 -4360.07177734375 L -10009.7197265625 -4360.2216796875 L -10009.7197265625 -4386.7763671875 L -10009.7197265625 -4386.92626953125 L -10009.8701171875 -4386.92626953125 L -10016.751953125 -4386.92626953125 L -10016.751953125 -4410.6337890625 C -10016.751953125 -4416.6611328125 -10011.818359375 -4421.56494140625 -10005.7529296875 -4421.56494140625 L -10005.2333984375 -4421.56494140625 L -9995.9140625 -4412.30322265625 L -9995.80859375 -4412.1982421875 L -9995.703125 -4412.30322265625 L -9986.388671875 -4421.56494140625 L -9985.8662109375 -4421.56494140625 C -9979.7998046875 -4421.56494140625 -9974.865234375 -4416.6611328125 -9974.865234375 -4410.6337890625 L -9974.865234375 -4386.92626953125 L -9981.74609375 -4386.92626953125 L -9981.896484375 -4386.92626953125 L -9981.896484375 -4386.7763671875 L -9981.896484375 -4360.2265625 L -9981.896484375 -4360.07666015625 L -9981.74609375 -4360.07666015625 L -9974.865234375 -4360.07666015625 L -9974.865234375 -4357.5830078125 Z M -9994.5517578125 -4378.2431640625 L -9994.5517578125 -4360.2216796875 L -9994.5517578125 -4360.07177734375 L -9994.4013671875 -4360.07177734375 L -9984.5576171875 -4360.07177734375 L -9984.4072265625 -4360.07177734375 L -9984.4072265625 -4360.2216796875 L -9984.4072265625 -4396.40966796875 L -9981.896484375 -4396.4140625 L -9981.896484375 -4389.5751953125 L -9981.896484375 -4389.42529296875 L -9981.74609375 -4389.42529296875 L -9977.5283203125 -4389.42529296875 L -9977.3779296875 -4389.42529296875 L -9977.3779296875 -4389.5751953125 L -9977.3779296875 -4410.6337890625 C -9977.3779296875 -4415.05908203125 -9980.853515625 -4418.75634765625 -9985.291015625 -4419.05078125 L -9985.3583984375 -4419.05517578125 L -9985.40625 -4419.00732421875 L -9995.810546875 -4408.67041015625 L -10006.2080078125 -4419.0048828125 L -10006.255859375 -4419.052734375 L -10006.3232421875 -4419.04833984375 C -10010.76171875 -4418.75341796875 -10014.23828125 -4415.05712890625 -10014.23828125 -4410.6337890625 L -10014.23828125 -4389.5703125 L -10014.23828125 -4389.42041015625 L -10014.087890625 -4389.42041015625 L -10009.8701171875 -4389.42041015625 L -10009.7197265625 -4389.42041015625 L -10009.7197265625 -4389.5703125 L -10009.7197265625 -4396.40966796875 L -10007.2119140625 -4396.40966796875 L -10007.2060546875 -4360.2265625 L -10007.2060546875 -4360.07666015625 L -10007.0556640625 -4360.07666015625 L -9997.212890625 -4360.07666015625 L -9997.0625 -4360.07666015625 L -9997.0625 -4360.2265625 L -9997.0625 -4378.2431640625 L -9994.5517578125 -4378.2431640625 Z"/><path class="g" d="M -9975.0146484375 -4357.73291015625 L -9975.0146484375 -4359.9267578125 L -9981.74609375 -4359.9267578125 L -9982.0458984375 -4359.9267578125 L -9982.0458984375 -4360.2265625 L -9982.0458984375 -4386.7763671875 L -9982.0458984375 -4387.076171875 L -9981.74609375 -4387.076171875 L -9975.0146484375 -4387.076171875 L -9975.0146484375 -4410.6337890625 C -9975.0146484375 -4416.57861328125 -9979.8828125 -4421.4150390625 -9985.8662109375 -4421.4150390625 L -9986.326171875 -4421.4150390625 L -9995.5966796875 -4412.19677734375 L -9995.80859375 -4411.98681640625 L -9996.0205078125 -4412.19677734375 L -10005.2958984375 -4421.4150390625 L -10005.7529296875 -4421.4150390625 C -10011.7353515625 -4421.4150390625 -10016.6025390625 -4416.57861328125 -10016.6025390625 -4410.6337890625 L -10016.6025390625 -4387.076171875 L -10009.8701171875 -4387.076171875 L -10009.5703125 -4387.076171875 L -10009.5703125 -4386.7763671875 L -10009.5703125 -4360.2216796875 L -10009.5703125 -4359.92138671875 L -10009.8701171875 -4359.921875 L -10025.3388671875 -4359.92919921875 L -10028.15234375 -4359.9267578125 L -10046.435546875 -4359.92919921875 L -10049.244140625 -4359.9267578125 L -10064.4150390625 -4359.9267578125 L -10064.4150390625 -4357.73291015625 L -9981.74609375 -4357.73291015625 L -9975.0146484375 -4357.73291015625 M -9994.701171875 -4378.09326171875 L -9996.9130859375 -4378.09326171875 L -9996.9130859375 -4360.2265625 L -9996.9130859375 -4359.9267578125 L -9997.212890625 -4359.9267578125 L -10007.0556640625 -4359.9267578125 L -10007.35546875 -4359.9267578125 L -10007.35546875 -4360.2265625 L -10007.361328125 -4396.259765625 L -10009.5703125 -4396.259765625 L -10009.5703125 -4389.5703125 L -10009.5703125 -4389.2705078125 L -10009.8701171875 -4389.2705078125 L -10014.087890625 -4389.2705078125 L -10014.3876953125 -4389.2705078125 L -10014.3876953125 -4389.5703125 L -10014.3876953125 -4410.6337890625 C -10014.3876953125 -4415.13623046875 -10010.849609375 -4418.89794921875 -10006.3330078125 -4419.19775390625 L -10006.1982421875 -4419.20654296875 L -10006.1015625 -4419.111328125 L -9995.810546875 -4408.8818359375 L -9985.5126953125 -4419.11376953125 L -9985.416015625 -4419.208984375 L -9985.28125 -4419.2001953125 C -9980.765625 -4418.90087890625 -9977.228515625 -4415.1376953125 -9977.228515625 -4410.6337890625 L -9977.228515625 -4389.5751953125 L -9977.228515625 -4389.275390625 L -9977.5283203125 -4389.275390625 L -9981.74609375 -4389.275390625 L -9982.0458984375 -4389.275390625 L -9982.0458984375 -4389.5751953125 L -9982.0458984375 -4396.26416015625 L -9984.2578125 -4396.26025390625 L -9984.2578125 -4360.2216796875 L -9984.2578125 -4359.921875 L -9984.5576171875 -4359.921875 L -9994.4013671875 -4359.921875 L -9994.701171875 -4359.921875 L -9994.701171875 -4360.2216796875 L -9994.701171875 -4378.09326171875 M -9974.71484375 -4357.43310546875 L -9974.7158203125 -4357.43310546875 L -9981.74609375 -4357.43310546875 L -10064.71484375 -4357.43310546875 L -10064.71484375 -4360.2265625 L -10049.244140625 -4360.2265625 L -10046.435546875 -4360.22900390625 L -10028.15234375 -4360.2265625 L -10025.3388671875 -4360.22900390625 L -10009.8701171875 -4360.2216796875 L -10009.8701171875 -4386.7763671875 L -10016.90234375 -4386.7763671875 L -10016.90234375 -4410.6337890625 C -10016.90234375 -4416.744140625 -10011.900390625 -4421.71484375 -10005.7529296875 -4421.71484375 L -10005.171875 -4421.71484375 L -9995.80859375 -4412.40966796875 L -9986.4501953125 -4421.71484375 L -9985.8662109375 -4421.71484375 C -9979.7177734375 -4421.71484375 -9974.71484375 -4416.744140625 -9974.71484375 -4410.6337890625 L -9974.71484375 -4386.7763671875 L -9981.74609375 -4386.7763671875 L -9981.74609375 -4360.2265625 L -9974.71484375 -4360.2265625 L -9974.71484375 -4357.43408203125 L -9974.71484375 -4357.43310546875 Z M -9997.212890625 -4378.39306640625 L -9997.2119140625 -4378.39306640625 L -9994.4013671875 -4378.39306640625 L -9994.4013671875 -4360.2216796875 L -9984.5576171875 -4360.2216796875 L -9984.5576171875 -4396.5595703125 L -9981.74609375 -4396.564453125 L -9981.74609375 -4389.5751953125 L -9977.5283203125 -4389.5751953125 L -9977.5283203125 -4410.6337890625 C -9977.5283203125 -4414.98046875 -9980.9423828125 -4418.61181640625 -9985.30078125 -4418.90087890625 L -9995.810546875 -4408.458984375 L -10006.3134765625 -4418.8984375 C -10010.6728515625 -4418.60888671875 -10014.087890625 -4414.97900390625 -10014.087890625 -4410.6337890625 L -10014.087890625 -4389.5703125 L -10009.8701171875 -4389.5703125 L -10009.8701171875 -4396.5595703125 L -10007.0615234375 -4396.5595703125 L -10007.0556640625 -4360.2265625 L -9997.212890625 -4360.2265625 L -9997.212890625 -4378.39208984375 L -9997.212890625 -4378.39306640625 Z"/></g><path class="c" d="M72.855,48.57h2.855v4.285H72.855Z" transform="translate(-1.107 -0.726)"/><path class="c" d="M72.855,56.43h2.855v4.285H72.855Z" transform="translate(-1.107 -0.855)"/></g><path class="d" d="M-9509,126.4h-45.5v-.2h15.467V86.088l-3.564,3.541-1.988-1.974,6.961-6.916,6.957,6.916-1.989,1.974-3.564-3.541V126.2h18.283V102.155l-3.569,3.548-1.986-1.977,6.959-6.916,6.959,6.916-1.986,1.977-3.564-3.543V126.2l6.124,0v.194Z" transform="translate(10065.5 4418)"/><g class="e" transform="translate(487 4431)"><circle class="f" cx="73.5" cy="73.5" r="73.5"/><circle class="h" cx="73.5" cy="73.5" r="73"/></g></g></svg>