<svg xmlns="http://www.w3.org/2000/svg" width="169.999" height="158" viewBox="0 0 169.999 158"><defs><style>.a{fill:#fff;}.b{fill:#313131;}.b,.c{stroke:#fff;}.c{fill:#e32a66;}.d,.f{fill:none;}.d{stroke:#313131;stroke-dasharray:1 15;}.e{stroke:none;}</style></defs><g transform="translate(-875.001 -4431)"><path class="a" d="M-9443,228a85.642,85.642,0,0,1-17.131-1.727,84.592,84.592,0,0,1-15.955-4.953,85.046,85.046,0,0,1-14.438-7.837A85.691,85.691,0,0,1-9503.1,203.1a85.736,85.736,0,0,1-10.379-12.58,84.979,84.979,0,0,1-7.836-14.438,84.564,84.564,0,0,1-4.953-15.955A85.665,85.665,0,0,1-9528,143h170a85.637,85.637,0,0,1-1.727,17.13,84.558,84.558,0,0,1-4.953,15.955,85.084,85.084,0,0,1-7.837,14.438A85.742,85.742,0,0,1-9382.9,203.1a85.692,85.692,0,0,1-12.58,10.379,85.011,85.011,0,0,1-14.439,7.837,84.571,84.571,0,0,1-15.955,4.953A85.626,85.626,0,0,1-9443,228Z" transform="translate(10403 4361)"/><path class="b" d="M13.154,58.626h5.19V74.709a4.919,4.919,0,0,0,4.916,4.916H37.844v12a1.5,1.5,0,0,0,1.5,1.5h25.5a1.5,1.5,0,0,0,1.5-1.5V71.151L76.96,57.884h0a33.441,33.441,0,0,0,6.24-29.64,1.5,1.5,0,0,0-1.447-1.118H49.874V21.748L53.5,18.126h8.389A10.5,10.5,0,0,0,72.374,7.637V4.626a1.5,1.5,0,0,0-1.5-1.5H61.863A10.5,10.5,0,0,0,51.374,13.615v2.393l-3,3-3-3V13.615A10.5,10.5,0,0,0,34.885,3.126H25.874a1.5,1.5,0,0,0-1.5,1.5V7.637A10.5,10.5,0,0,0,34.863,18.126h8.393l3.619,3.622v5.378H19.889a1.5,1.5,0,0,0-1.5,1.44l-.015.334c-.015.233-.03.465-.03.7v7.65l-8.52,15.81a3.776,3.776,0,0,0,3.33,5.569ZM54.375,13.614a7.5,7.5,0,0,1,7.489-7.489h7.511V7.636a7.5,7.5,0,0,1-7.489,7.489H54.375Zm-12,1.511H34.864a7.5,7.5,0,0,1-7.489-7.489V6.125h7.511a7.5,7.5,0,0,1,7.489,7.489Zm6,22.5a10.5,10.5,0,1,1-10.5,10.5,10.5,10.5,0,0,1,10.5-10.5Zm-35.9,16.857,8.7-16.143a1.533,1.533,0,0,0,.18-.713v-7.5H46.875v4.59A13.506,13.506,0,0,0,34.924,47.174l-4.9,2.453H26.5l-2.561-2.561-2.122,2.122,3,3a1.5,1.5,0,0,0,1.061.439h3V56.5l-2.561,2.561,2.122,2.122,3-3a1.5,1.5,0,0,0,.439-1.061V52.053l3.214-1.605a13.42,13.42,0,0,0,2.749,6.094l-4.024,4.024a1.5,1.5,0,0,0-.439,1.061V65.5l-4.061,4.061,2.122,2.122,3.439-3.439,3.439,3.439,2.122-2.122L36.375,65.5V62.249l3.585-3.585a13.5,13.5,0,0,0,3.915,2.175v6.787a1.5,1.5,0,0,0,.251.833l3,4.5,2.5-1.665-2.749-4.118v-5.64a12.532,12.532,0,0,0,1.5.09,13.278,13.278,0,0,0,2.078-.176l2.422,3.626V74.5l-2.561,2.561,2.122,2.122,1.939-1.935,3.439,3.439,2.122-2.122L55.875,74.5V64.627a1.5,1.5,0,0,0-.251-.833L53.5,60.611h0a13.58,13.58,0,0,0,4.838-3.4l3.54,3.54v3.878h3v-3h3v-3H64l-3.874-3.874a13.345,13.345,0,0,0,1.661-5.126h3.967l2.561,2.561a1.5,1.5,0,0,0,1.061.439h4.5v-3H70l-2.561-2.561a1.5,1.5,0,0,0-1.061-.439h-4.59a13.512,13.512,0,0,0-11.91-11.91v-4.59h30.7a30.321,30.321,0,0,1,.773,6.705A30.81,30.81,0,0,1,74.615,56.01L63.665,69.69a1.515,1.515,0,0,0-.326.938v19.5h-22.5v-12a1.5,1.5,0,0,0-1.5-1.5H23.262a1.917,1.917,0,0,1-1.916-1.916V57.127a1.5,1.5,0,0,0-1.5-1.5h-6.69a.774.774,0,0,1-.682-1.144Z" transform="translate(913.143 4455.874)"/><path class="c" d="M-9509.556,109.562h0l-3.438-3.439-1.938,1.936-2.123-2.123,2.56-2.56V93.951l-2.42-3.627a13.448,13.448,0,0,1-2.08.178,12.6,12.6,0,0,1-1.5-.091v5.64l2.749,4.119-2.5,1.665-3-4.5a1.5,1.5,0,0,1-.254-.832V89.712a13.491,13.491,0,0,1-3.915-2.173L-9531,91.123v3.255l4.062,4.061-2.123,2.123-3.437-3.437-3.439,3.437-2.121-2.123,4.062-4.061V90.5a1.5,1.5,0,0,1,.437-1.063l4.025-4.023a13.43,13.43,0,0,1-2.749-6.093l-3.215,1.6V86a1.513,1.513,0,0,1-.438,1.06l-3,3-2.123-2.123,2.563-2.562V81.5h-3a1.508,1.508,0,0,1-1.061-.439l-2.958-2.958v-.086l2.08-2.077,2.56,2.56h3.526l4.9-2.452A13.514,13.514,0,0,1-9520.5,63.589v-.914l0-11.989,0-.065-3.62-3.622h-8.391a10.435,10.435,0,0,1-7.414-3.076A10.43,10.43,0,0,1-9543,36.512V33.5a1.5,1.5,0,0,1,1.5-1.5h9.013a10.433,10.433,0,0,1,7.413,3.076A10.434,10.434,0,0,1-9522,42.49v2.392l3,3,3-3V42.49a10.434,10.434,0,0,1,3.075-7.414A10.432,10.432,0,0,1-9505.509,32h9.013a1.507,1.507,0,0,1,1.06.439A1.5,1.5,0,0,1-9495,33.5v3.013a10.435,10.435,0,0,1-3.076,7.412A10.432,10.432,0,0,1-9505.484,47h-8.392l-3.622,3.622V51h-.017V62h.02v1.593a13.563,13.563,0,0,1,8.037,3.872,13.577,13.577,0,0,1,3.872,8.038H-9501a1.5,1.5,0,0,1,1.063.437l2.562,2.562h3.876v3h-4.5a1.508,1.508,0,0,1-1.06-.439l-2.562-2.562h-3.968a13.251,13.251,0,0,1-1.662,5.126l3.874,3.874h3.879v3h-3v3h-3V89.623l-3.538-3.541a13.671,13.671,0,0,1-4.838,3.4h0l2.12,3.183a1.5,1.5,0,0,1,.252.832v9.878l4.062,4.061-2.12,2.122ZM-9519,66.5a10.442,10.442,0,0,0-7.421,3.079A10.453,10.453,0,0,0-9529.5,77a10.461,10.461,0,0,0,1.77,5.831,10.481,10.481,0,0,0,4.71,3.87,10.458,10.458,0,0,0,4.018.8,10.472,10.472,0,0,0,3.986-.784,10.463,10.463,0,0,0,3.443-2.291,10.465,10.465,0,0,0,2.872-5.377,10.485,10.485,0,0,0-.6-6.068,10.482,10.482,0,0,0-3.87-4.712A10.468,10.468,0,0,0-9519,66.5Zm13.488-31.5a7.456,7.456,0,0,0-5.289,2.2,7.447,7.447,0,0,0-2.2,5.29V44h7.511a7.452,7.452,0,0,0,5.291-2.2,7.449,7.449,0,0,0,2.2-5.292V35ZM-9540,35V36.51a7.449,7.449,0,0,0,2.2,5.292,7.456,7.456,0,0,0,5.292,2.2H-9525V42.487a7.451,7.451,0,0,0-2.2-5.29,7.458,7.458,0,0,0-5.291-2.2Zm-17.519,50.578,0,0a3.806,3.806,0,0,1-.031-3.642l.033-.062v3.708Z" transform="translate(10480.514 4427)"/><g class="d" transform="translate(886.5 4431)"><circle class="e" cx="73.5" cy="73.5" r="73.5"/><circle class="f" cx="73.5" cy="73.5" r="73"/></g></g></svg>