<svg xmlns="http://www.w3.org/2000/svg" width="169.987" height="158" viewBox="0 0 169.987 158"><defs><style>.a{fill:#fff;}.b{fill:#e32a66;stroke:#fff;}.c{fill:#313131;}.d,.f{fill:none;}.d{stroke:#313131;stroke-dasharray:1 15;}.e{stroke:none;}</style></defs><g transform="translate(-475.007 -4035)"><path class="a" d="M-9451,227a85.638,85.638,0,0,1-17.013-1.7,84.542,84.542,0,0,1-15.855-4.886,84.977,84.977,0,0,1-14.366-7.734,85.6,85.6,0,0,1-12.54-10.247A85.659,85.659,0,0,1-9521.154,190a85.1,85.1,0,0,1-7.887-14.27,84.619,84.619,0,0,1-5.058-15.78A85.612,85.612,0,0,1-9535.993,143h169.987a85.584,85.584,0,0,1-1.895,16.954,84.623,84.623,0,0,1-5.059,15.78,85.06,85.06,0,0,1-7.887,14.27,85.657,85.657,0,0,1-10.381,12.426,85.605,85.605,0,0,1-12.54,10.247,84.979,84.979,0,0,1-14.366,7.734,84.528,84.528,0,0,1-15.855,4.886A85.619,85.619,0,0,1-9451,227Z" transform="translate(10011 3966)"/><g transform="translate(510 4059)"><path class="b" d="M50,99c-2.4,0-4.1-2.2-5.7-4.1-.9-1.1-2-2.6-2.7-2.7-.7-.2-2.4.8-3.7,1.5-2.2,1.2-4.5,2.5-6.7,1.6s-2.9-3.5-3.6-5.9c-.4-1.3-.9-3.2-1.5-3.6s-2.5-.2-3.9,0c-2.5.3-5.2.6-6.8-1.1-1.7-1.7-1.4-4.3-1.1-6.8.2-1.4.4-3.3,0-3.9s-2.2-1.1-3.6-1.5c-2.5-.7-5-1.4-5.9-3.6s.4-4.5,1.6-6.7C7,60.8,8,59.1,7.8,58.4c-.1-.7-1.6-1.9-2.7-2.7C3.2,54.1,1,52.4,1,50s2.2-4.1,4.1-5.7c1.1-.9,2.6-2,2.7-2.7.2-.7-.8-2.4-1.5-3.7-1.2-2.2-2.5-4.5-1.6-6.7s3.5-2.9,5.9-3.6c1.3-.4,3.2-.9,3.6-1.5s.2-2.5,0-3.9c-.3-2.5-.6-5.2,1.1-6.8,1.7-1.7,4.3-1.4,6.8-1.1,1.4.2,3.3.4,3.9,0s1.1-2.2,1.5-3.6c.7-2.5,1.4-5,3.6-5.9s4.5.4,6.7,1.6c1.4.6,3.1,1.6,3.8,1.4.7-.1,1.9-1.6,2.7-2.7C45.9,3.2,47.6,1,50,1s4.1,2.2,5.7,4.1c.9,1.1,2,2.6,2.7,2.7.7.2,2.4-.8,3.7-1.5,2.2-1.2,4.5-2.5,6.7-1.6s2.9,3.5,3.6,5.9c.4,1.3.9,3.2,1.5,3.6s2.5.2,3.9,0c2.5-.3,5.2-.6,6.8,1.1,1.7,1.7,1.4,4.3,1.1,6.8-.2,1.4-.4,3.3,0,3.9s2.2,1.1,3.6,1.5c2.5.7,5,1.4,5.9,3.6s-.4,4.5-1.6,6.7c-.7,1.2-1.6,2.9-1.5,3.7.1.7,1.6,1.9,2.7,2.7,1.9,1.5,4.1,3.3,4.1,5.7s-2.2,4.1-4.1,5.7c-1.1.9-2.6,2-2.7,2.7s.8,2.4,1.5,3.7c1.2,2.2,2.5,4.5,1.6,6.7s-3.5,2.9-5.9,3.6c-1.3.4-3.2.9-3.6,1.5s-.2,2.5,0,3.9c.3,2.5.6,5.2-1.1,6.8-1.7,1.7-4.3,1.4-6.8,1.1-1.4-.2-3.3-.4-3.9,0s-1.1,2.2-1.5,3.6c-.7,2.5-1.4,5-3.6,5.9s-4.5-.4-6.7-1.6c-1.2-.7-2.9-1.6-3.7-1.5-.7.1-1.9,1.6-2.7,2.7C54.1,96.8,52.4,99,50,99ZM41.5,88.7a1.922,1.922,0,0,1,.8.1c1.9.4,3.4,2.2,4.8,4,.9,1.1,2.2,2.8,2.9,2.8s2.1-1.7,2.9-2.8c1.4-1.8,2.8-3.6,4.8-4s4.1.7,6.1,1.9c1.1.6,3,1.7,3.6,1.4s1.2-2.3,1.6-3.7c.6-2.2,1.3-4.4,2.9-5.5,1.7-1.1,4-.9,6.3-.6,1.3.1,3.5.4,4-.1s.2-2.7.1-4c-.3-2.3-.5-4.6.6-6.3s3.4-2.3,5.5-2.9c1.4-.4,3.4-1,3.7-1.6.2-.6-.8-2.5-1.4-3.6-1.1-2-2.3-4.1-1.9-6.1.4-1.9,2.2-3.4,4-4.8,1.1-.9,2.8-2.2,2.8-2.9s-1.7-2.1-2.8-2.9c-1.8-1.4-3.6-2.8-4-4.8s.7-4.1,1.9-6.1c.6-1.1,1.7-3,1.4-3.6s-2.3-1.2-3.7-1.6c-2.2-.6-4.4-1.3-5.5-2.9-1.1-1.7-.9-4-.6-6.3.1-1.3.4-3.5-.1-4s-2.7-.2-4-.1c-2.3.3-4.6.5-6.3-.6s-2.3-3.4-2.9-5.5c-.4-1.4-1-3.4-1.6-3.7-.6-.2-2.5.8-3.6,1.4-2,1.1-4.1,2.3-6.1,1.9-1.9-.4-3.4-2.2-4.8-4-.9-1.1-2.2-2.8-2.9-2.8s-2.1,1.7-2.9,2.8c-1.4,1.8-2.8,3.6-4.8,4s-4.1-.7-6.1-1.9c-1.1-.6-3-1.7-3.6-1.4s-1.2,2.3-1.6,3.7c-.6,2.2-1.3,4.4-2.9,5.5-1.7,1.1-4,.9-6.3.6-1.3-.1-3.5-.4-4,.1s-.2,2.7-.1,4c.3,2.3.5,4.6-.6,6.3s-3.4,2.3-5.5,2.9c-1.4.4-3.4,1-3.7,1.6-.2.6.8,2.5,1.4,3.6,1.1,2,2.3,4.1,1.9,6.1-.4,1.9-2.2,3.4-4,4.8-1.1.9-2.8,2.2-2.8,2.9s1.7,2.1,2.8,2.9c1.8,1.4,3.6,2.8,4,4.8s-.7,4.1-1.9,6.1c-.6,1.1-1.7,3-1.4,3.6s2.3,1.2,3.7,1.6c2.2.6,4.4,1.3,5.5,2.9,1.1,1.7.9,4,.6,6.3-.1,1.3-.4,3.5.1,4s2.7.2,4,.1c2.3-.3,4.6-.5,6.3.6s2.3,3.4,2.9,5.5c.4,1.4,1,3.4,1.6,3.7s2.5-.8,3.6-1.4a10.251,10.251,0,0,1,5.3-2Z"/><path class="c" d="M43,52.1a5.618,5.618,0,0,1-5.6-5.4,5.854,5.854,0,0,1,1.5-4A5.21,5.21,0,0,1,42.8,41H43a5.618,5.618,0,0,1,5.6,5.4,5.854,5.854,0,0,1-1.5,4,5.21,5.21,0,0,1-3.9,1.7Zm0-8.7a3.256,3.256,0,0,0-2.3,1,2.653,2.653,0,0,0-.8,2.2,3.031,3.031,0,0,0,3.1,3h.1a3.2,3.2,0,0,0,2.2-1,2.653,2.653,0,0,0,.8-2.2,3.034,3.034,0,0,0-3.1-3Z"/><path class="c" d="M62.7,64.5a3.947,3.947,0,0,1-3.9-3.8,3.841,3.841,0,0,1,1.1-2.8,3.565,3.565,0,0,1,2.7-1.2h.1a3.947,3.947,0,0,1,3.9,3.8,3.9,3.9,0,0,1-3.8,4Zm0-5.3a1.533,1.533,0,0,0-1,.4,1.283,1.283,0,0,0-.4,1A1.427,1.427,0,0,0,62.7,62v0a1.451,1.451,0,0,0,1.4-1.5,1.344,1.344,0,0,0-1.4-1.3Z"/><path class="c" d="M81.3,32.9c-.7-1.5-2.8-1.5-3.5-1.5A34.717,34.717,0,0,0,69,33.1a25.593,25.593,0,0,0-35.3-2.9A25.891,25.891,0,0,0,24.8,55c-6.6,4.9-6.8,7.1-6.1,8.4.7,1.5,2.8,1.5,3.5,1.5a29.818,29.818,0,0,0,6.2-1c.5.8,1,1.5,1.6,2.3A25.562,25.562,0,0,0,75.4,49.4a.955.955,0,0,0-.1-.9,24.124,24.124,0,0,0-1.2-6.4c4.9-3.6,8.3-7,7.2-9.2Zm-3.5.9a2.785,2.785,0,0,1,1.3.2c-.1.9-2.1,2.9-5.8,5.7a20.1,20.1,0,0,0-2.6-4.5,27.953,27.953,0,0,1,7.1-1.4ZM22.2,62.4a2.785,2.785,0,0,1-1.3-.2c.1-.8,1.6-2.4,4.6-4.7a20.9,20.9,0,0,0,1.7,4.1,18.725,18.725,0,0,1-5,.8ZM29.6,61A23.267,23.267,0,0,1,27,46.9l7.6-3.6a1.21,1.21,0,1,0-1-2.2l-6,2.8a22.442,22.442,0,0,1,7.7-11.8,23.064,23.064,0,0,1,17.5-5L39,33.6a1.208,1.208,0,0,0-.6,1.6,1.357,1.357,0,0,0,1.1.7.743.743,0,0,0,.5-.1L56.7,28A23.163,23.163,0,0,1,64,31.8l-7.4,3.5a1.208,1.208,0,0,0-.6,1.6,1.357,1.357,0,0,0,1.1.7.743.743,0,0,0,.5-.1l8-3.8c.1-.1.2-.1.3-.2.6.6,1.2,1.3,1.8,2a23.831,23.831,0,0,1,3.4,5.7,152.193,152.193,0,0,1-19.3,11A148.377,148.377,0,0,1,29.6,61Zm34.9,6.9a22.983,22.983,0,0,1-22.7,3.7l13.8-6.5a1.21,1.21,0,1,0-1-2.2l-15.7,7.4a33.134,33.134,0,0,1-3.1-2l6.8-3.2a1.21,1.21,0,0,0-1-2.2l-7.8,3.7c-.6-.6-1.2-1.2-1.8-1.9a12.413,12.413,0,0,1-1-1.4,162.052,162.052,0,0,0,22.1-8.9,204.611,204.611,0,0,0,19.1-10.8,24.376,24.376,0,0,1,.9,4.7l-7.1,3.4a1.208,1.208,0,0,0-.6,1.6,1.357,1.357,0,0,0,1.1.7.743.743,0,0,0,.5-.1l6.1-2.9A23.894,23.894,0,0,1,64.5,67.9Z"/></g><g class="d" transform="translate(487 4035)"><circle class="e" cx="73.5" cy="73.5" r="73.5"/><circle class="f" cx="73.5" cy="73.5" r="73"/></g></g></svg>