<?xml version="1.0" standalone="no"?>
<!DOCTYPE svg PUBLIC "-//W3C//DTD SVG 1.1//EN" "http://www.w3.org/Graphics/SVG/1.1/DTD/svg11.dtd" >
<svg xmlns="http://www.w3.org/2000/svg" xmlns:xlink="http://www.w3.org/1999/xlink" version="1.1">
<metadata></metadata>
<defs>
<font id="globerbook" horiz-adv-x="1122" >
<font-face units-per-em="2048" ascent="1536" descent="-512" />
<missing-glyph horiz-adv-x="499" />
<glyph horiz-adv-x="0" />
<glyph horiz-adv-x="682" />
<glyph unicode=" "  horiz-adv-x="499" />
<glyph unicode="&#x09;" horiz-adv-x="499" />
<glyph unicode="&#xa0;" horiz-adv-x="499" />
<glyph unicode="!" horiz-adv-x="497" d="M188 8v114q19 8 61 8q19 0 34.5 -2t20.5 -4l6 -2v-114q-18 -8 -61 -8q-18 0 -33.5 2t-21.5 4zM195 1451q2 9 54 9t55 -9l-16 -1118q-12 -10 -39 -10q-8 0 -14.5 1t-11 2.5t-7.5 3t-4 2.5l-1 1z" />
<glyph unicode="&#x22;" horiz-adv-x="627" d="M144 1451q18 9 53 9q7 0 14 -0.5t12.5 -1t9.5 -1.5t7 -2t5.5 -2t3.5 -1v-1l-20 -393q-9 -6 -32 -6q-10 0 -18 1.5t-12 3.5l-3 1zM379 1451q16 9 53 9q16 0 29 -2t18 -4l5 -3l-20 -393q-10 -6 -32 -6q-10 0 -18.5 1.5t-11.5 3.5l-3 1z" />
<glyph unicode="#" horiz-adv-x="1321" d="M89 331q0 20 6 44h234l139 497h-203q-8 28 -8 45t8 44h228l83 294q21 8 49 8q30 0 46 -8l-83 -294h339l83 294q21 8 48 8q31 0 47 -8l-83 -294h199q8 -23 8 -42t-8 -47h-223l-141 -497h193q8 -16 8 -44.5t-8 -44.5h-218l-78 -276q-29 -10 -48 -10q-17 0 -47 10l77 276 h-339l-76 -276q-30 -10 -52 -10q-8 0 -16.5 1.5t-12.5 3t-10 3.5l-5 2l77 276h-207q-6 18 -6 45zM424 375h338l140 497h-339z" />
<glyph unicode="$" horiz-adv-x="1132" d="M124 1000q0 154 103 246.5t296 105.5l-12 240q16 8 50 8q17 0 30 -2t19 -4l5 -2l-13 -238q95 -1 180 -12.5t123 -22.5l37 -11q0 -25 -5 -45q-9 -21 -24 -36q-15 4 -42.5 10.5t-109 17t-159.5 10.5q-184 0 -277.5 -66.5t-93.5 -190.5q0 -38 11 -69.5t26 -54t46 -43.5 t54.5 -33.5t68 -27t71 -22t78.5 -20.5q59 -15 90 -23.5t84.5 -27t83 -35.5t67.5 -46t57 -61.5t33.5 -78.5t14.5 -101q0 -157 -109 -252t-307 -107l15 -259q-15 -8 -52 -8q-16 0 -29 2t-18 4l-5 2l12 257q-68 1 -133.5 8t-111.5 17t-81.5 20t-53.5 17l-17 7q0 32 4 45 q8 27 22 36q21 -6 56 -15t133 -24.5t184 -15.5q185 0 284.5 65t99.5 194q0 41 -11.5 75t-27.5 58.5t-48 46.5t-56.5 35.5t-70.5 28.5t-73.5 22.5t-80.5 20.5q-59 15 -89 23t-82 26t-80 34t-65 43t-55.5 58t-32 75t-13.5 96z" />
<glyph unicode="%" horiz-adv-x="1513" d="M105 1050q0 351 262 351q266 0 266 -350.5t-266 -350.5q-128 0 -195 83t-67 267zM197 1050q0 -77 12 -131t35 -84t53 -43.5t70.5 -13.5t70.5 13.5t53 43.5t35 84t12 131q0 148 -44 211t-127 63q-40 0 -70 -14t-53 -44.5t-35 -84.5t-12 -131zM319 -12l786 1428q14 8 50 8 q10 0 18.5 -1t14 -2t9.5 -2.5t6 -1.5l2 -1l-787 -1428q-16 -8 -53 -8q-13 0 -25 2t-16 4zM886 331q0 122 31.5 201t88.5 114t141 35q266 0 266 -350.5t-266 -350.5q-128 0 -194.5 83.5t-66.5 267.5zM977 331q0 -78 12 -131.5t35 -84t53 -44t70.5 -13.5t70.5 13.5t53 44 t35 84t12 131.5q0 147 -44 210t-127 63q-40 0 -70 -13.5t-53 -44.5t-35 -85t-12 -130z" />
<glyph unicode="&#x26;" horiz-adv-x="1287" d="M103 325q0 65 22.5 125t55 102.5t77 81t79 60t71.5 40.5q-73 163 -73 314q0 164 82 257.5t238 93.5q130 0 205 -70.5t75 -173.5q0 -44 -11 -84.5t-28.5 -74.5t-47 -67t-61 -60t-76.5 -57t-86.5 -54t-97.5 -54q123 -240 375 -428q100 118 148 291q27 2 52.5 -8.5 t36.5 -28.5q-43 -158 -170 -305q110 -76 260 -138q1 -27 -12 -52t-33 -37q-138 54 -284 152q-14 -14 -31.5 -30t-58 -43t-84 -47t-108.5 -35t-134 -15q-60 0 -114.5 12.5t-103.5 39.5t-85 66t-57 97.5t-21 129.5zM211 335q0 -124 78 -195t210 -71q60 0 117 14.5t100.5 38 t69.5 42t48 37.5q-128 97 -228 215.5t-164 244.5q-30 -16 -56.5 -34.5t-60 -50t-57.5 -65t-40.5 -80.5t-16.5 -96zM434 1056q0 -135 59 -278q66 35 113.5 63.5t92.5 63.5t73 69.5t45 77t17 89.5q0 82 -49.5 129.5t-138.5 47.5q-49 0 -88.5 -17t-67 -49.5t-42 -82 t-14.5 -113.5z" />
<glyph unicode="'" horiz-adv-x="393" d="M144 1451q16 9 53 9q7 0 14 -0.5t12.5 -1t9.5 -1.5t7 -2t5.5 -2t3.5 -1v-1l-20 -393q-9 -6 -32 -6q-10 0 -18 1.5t-12 3.5l-3 1z" />
<glyph unicode="(" horiz-adv-x="577" d="M126 648.5q0 118.5 16.5 238t43 214.5t59 183t64.5 152t58.5 112t43.5 72l17 24q20 2 44 -11q5 -3 9.5 -6.5t8 -6.5t6 -6t4.5 -5.5t3 -4.5t1 -3l1 -1q-6 -8 -16 -22.5t-38.5 -65t-54.5 -105.5t-58 -141.5t-55 -176t-38.5 -206.5t-15.5 -235t15 -234t39.5 -207.5 t54 -174.5t59 -142.5t53.5 -103.5t40 -66l15 -22q-8 -19 -33 -33q-7 -4 -14 -6.5t-12 -3.5t-9.5 -1.5t-6.5 -0.5l-2 1q-7 8 -17.5 24t-42 70.5t-60 113.5t-63.5 150.5t-60 184.5t-42 213t-17 238.5z" />
<glyph unicode=")" horiz-adv-x="575" d="M73 -302q11 15 29.5 43.5t65.5 124t83 199t65.5 263t29.5 320.5q0 118 -15 234.5t-39 208t-53 174.5t-58 143t-53.5 104t-39.5 66l-15 22q5 19 32 33q11 6 22 9t16 2h5q7 -8 18 -24.5t42 -70.5t59.5 -113.5t63.5 -150.5t60 -184.5t42 -213.5t17 -238.5t-16.5 -238 t-43 -214.5t-59 -183t-64.5 -152t-58.5 -111.5t-43.5 -71.5l-17 -24q-20 -2 -45 11q-11 7 -18.5 15t-9.5 13z" />
<glyph unicode="*" horiz-adv-x="702" d="M128 1240q0 42 20 66l171 -57v177q35 12 66 0v-177l170 57q21 -21 21 -66l-172 -54l109 -149q-24 -29 -53 -37l-110 145l-104 -147q-31 8 -55 36l107 152z" />
<glyph unicode="+" horiz-adv-x="944" d="M122 588q0 13 2 23.5t4 14.5l2 5h300v300q14 8 42 8q13 0 23.5 -2t15.5 -4l4 -2v-300h300q8 -14 8 -43q0 -13 -2 -23.5t-4 -14.5l-2 -5h-300v-299q-14 -8 -43 -8q-13 0 -23.5 2t-14.5 4l-4 2v299h-300q-8 14 -8 43z" />
<glyph unicode="," horiz-adv-x="441" d="M132 -176q2 2 6.5 7t15.5 21.5t19.5 35.5t17 49.5t10.5 62.5q-13 0 -24 2t-16 4l-5 2v114q22 8 65 8q19 0 35 -2t23 -4l7 -2v-81q0 -46 -11.5 -88.5t-27.5 -70.5t-32 -49t-27 -30l-12 -10z" />
<glyph unicode="-" horiz-adv-x="721" d="M162 588q0 13 2 23.5t4 14.5l2 5h381q8 -14 8 -43q0 -13 -2 -23.5t-4 -14.5l-2 -5h-381q-8 14 -8 43z" />
<glyph unicode="." horiz-adv-x="441" d="M156 8v114q22 8 65 8q19 0 35 -2t23 -4l7 -2v-114q-23 -8 -65 -8q-19 0 -35 2t-23 4z" />
<glyph unicode="/" horiz-adv-x="885" d="M47 -87l685 1600q18 8 53 8q17 0 30.5 -2t18.5 -4l6 -2l-686 -1600q-20 -8 -57 -8q-10 0 -18.5 1t-14 2t-10 2t-6.5 2z" />
<glyph unicode="0" horiz-adv-x="1256" d="M144 689q0 367 121.5 538.5t361.5 171.5q119 0 207.5 -40.5t151.5 -125t95 -221t32 -323.5q0 -150 -21 -267.5t-60.5 -200.5t-99 -137t-135 -79t-170.5 -25q-119 0 -207.5 40t-151 125t-93.5 220.5t-31 323.5zM253 689q0 -73 5 -137t14 -118.5t23 -100t32 -83t41.5 -66.5 t50.5 -50.5t60 -35t69.5 -20.5t78.5 -7q192 0 283.5 146.5t91.5 471.5q0 220 -41.5 357t-123.5 199.5t-210 62.5q-127 0 -208.5 -62.5t-123.5 -200t-42 -356.5z" />
<glyph unicode="1" horiz-adv-x="797" d="M76.5 1028.5q-2.5 16.5 0.5 33.5q128 34 233 112.5t177 195.5q14 9 51 9q15 0 27 -2t17 -5l4 -2v-1362q-14 -8 -52 -8q-17 0 -30 2t-19 4l-5 2v932q0 166 11 281q-68 -91 -170.5 -154t-217.5 -94q-10 10 -17 24.5t-9.5 31z" />
<glyph unicode="2" horiz-adv-x="1070" d="M116 136q0 46 6.5 88t16 75.5t27 65.5t34 56t42.5 49.5t46.5 42.5t52.5 39t53.5 35.5t56.5 35t56 34.5q15 10 43 28q37 23 55 34.5t48.5 32.5t46 33.5t38.5 33.5t34.5 37t26 39t21 45t11.5 49.5t5 56.5t-4 54.5t-14 52.5t-25.5 49.5t-40 42.5t-56.5 34t-77 22.5t-98 8.5 q-76 0 -156.5 -15t-122.5 -31l-43 -15q-34 24 -31 77q6 3 17.5 7.5t49 17.5t78 22.5t102.5 17.5t125 8q68 0 127 -12t111 -38.5t88.5 -66.5t57 -99.5t20.5 -134.5q0 -57 -10 -104.5t-37.5 -89.5t-53.5 -72.5t-79.5 -69.5t-92 -64t-114.5 -70q-16 -10 -53.5 -32t-58.5 -34.5 t-56 -37t-55 -43.5t-45.5 -49t-39 -60t-23 -69t-9.5 -83v-17t0.5 -15.5l1 -13t1 -11t0.5 -8.5t0.5 -6l0.5 -2h696q8 -24 8 -48.5t-8 -48.5h-789q-12 64 -12 136z" />
<glyph unicode="3" horiz-adv-x="1045" d="M110 47q-2 20 6.5 43.5t21.5 33.5l22 -7t32 -9.5t35 -9t44.5 -10t47 -7.5t57 -6t60.5 -2q367 0 367 294q0 75 -22 131.5t-56 90t-83.5 54.5t-97.5 28.5t-104 7.5h-107q-15 44 0 87h107q322 0 322 280q0 127 -78 195.5t-236 68.5q-73 0 -144 -12.5t-105 -25.5l-35 -13 q-18 10 -28 31.5t-8 44.5q5 2 15.5 6.5t44.5 15.5t70 19.5t91 15.5t109 7q200 0 305 -91.5t105 -245.5q0 -127 -50.5 -212.5t-167.5 -125.5q136 -40 197.5 -134t61.5 -240q0 -60 -15 -113t-50 -101t-88 -82t-133 -54t-181 -20q-57 0 -112 7t-93 16.5t-68 19.5t-45 17z" />
<glyph unicode="4" horiz-adv-x="1159" d="M75 412q0 13 2 24.5t4 15.5l2 4l673 914q16 9 55 9q16 0 28.5 -2t17.5 -5l4 -2v-914h207q8 -14 8 -44q0 -14 -2 -25t-4 -15l-2 -5h-207v-359q-16 -8 -50 -8q-16 0 -28.5 2t-17.5 4l-5 2v359h-677q-8 14 -8 45zM197 456h563v767z" />
<glyph unicode="5" horiz-adv-x="1045" d="M112 35q-3 22 4 44.5t22 34.5q13 -5 37 -12t95.5 -19t141.5 -12q203 0 302 74.5t99 231.5q0 58 -11 103.5t-37.5 86.5t-70 68t-111.5 42.5t-157 15.5q-27 0 -56.5 -1.5t-52.5 -3.5t-47 -4.5t-38.5 -4.5t-28.5 -4t-15 -2v706h675q18 -49 0 -96h-571v-511q1 0 5.5 1t13 2 t19.5 2.5t25 2.5t29.5 2.5t34.5 2t37 0.5q467 0 467 -408q0 -397 -499 -397q-45 0 -86 3t-71 8t-56.5 10.5t-44 11.5t-30.5 11t-18 8z" />
<glyph unicode="6" horiz-adv-x="1118" d="M140 521q0 167 34 303.5t96 235.5t152.5 168t200.5 105.5t242 45.5q16 -43 0 -85q-121 -13 -218 -49t-175 -100t-130 -162.5t-75 -230.5q163 91 331 91q88 0 161 -24.5t129.5 -75t88 -135t31.5 -196.5q0 -139 -55.5 -237.5t-152.5 -146.5t-226 -48q-97 0 -175 32t-137 96 t-90.5 169t-31.5 244zM248 513q0 -114 24 -200.5t68.5 -139.5t103 -79.5t130.5 -26.5q147 0 235.5 88.5t88.5 256.5q0 173 -84.5 258.5t-227.5 85.5q-159 0 -333 -110q-5 -63 -5 -133z" />
<glyph unicode="7" horiz-adv-x="1000" d="M75 1330q0 14 2 26.5t4 17.5l2 5h826q8 -26 8 -61q-1 -103 -30 -195t-74.5 -165.5t-101 -147t-110.5 -154.5t-100 -170.5t-73.5 -212.5t-28.5 -265q-32 -8 -51 -8q-28 0 -52 8q0 114 16.5 216t44.5 181t64 150.5t77 131.5t82 115.5t80 111t70 111t53 121t28 135.5h-728 q-8 18 -8 49z" />
<glyph unicode="8" horiz-adv-x="1177" d="M134 325q0 66 21.5 128t52 106t73 84t74 62t65.5 41q-54 28 -94 57t-74.5 68t-53 90.5t-18.5 112.5q0 148 109.5 236.5t294.5 88.5q187 0 296 -87.5t109 -235.5q0 -58 -16.5 -111.5t-40.5 -91.5t-57.5 -72.5t-61 -54.5t-57.5 -38q52 -24 91 -47.5t78.5 -56.5t64.5 -70.5 t40.5 -88.5t15.5 -110q0 -163 -121 -259t-343 -96q-212 0 -330 95.5t-118 249.5zM238 333q0 -119 89 -191.5t263 -72.5q165 0 257.5 73t92.5 189q0 32 -7 61.5t-18 53.5t-30.5 46.5t-38.5 39.5t-48 35.5t-52.5 31t-58.5 28.5t-59.5 26.5t-62.5 26.5t-62 26 q-24 -14 -48 -29.5t-66.5 -52.5t-73 -76t-54 -97t-23.5 -118zM284 1081q0 -38 11 -71.5t26 -58.5t45 -50.5t53 -41t67 -36.5t69.5 -32t76.5 -32q27 -11 41 -17q27 17 51.5 35.5t55.5 49.5t53 64.5t37.5 80t15.5 96.5q0 76 -37 131.5t-105 84t-160 28.5q-138 0 -219 -63 t-81 -168z" />
<glyph unicode="9" horiz-adv-x="1116" d="M110 967q0 139 55.5 237.5t152 146.5t226.5 48q96 0 174.5 -32t137 -96.5t90 -169.5t31.5 -244q0 -167 -34 -303.5t-96 -235t-152.5 -167.5t-200 -105.5t-241.5 -45.5q-20 39 -2 85q122 13 219 49t174.5 100t129 162.5t73.5 230.5q-155 -91 -328 -91q-70 0 -130.5 15 t-112.5 48t-88.5 83t-57 122.5t-20.5 162.5zM219 967q0 -173 84.5 -258.5t228.5 -85.5q54 0 108.5 11.5t98.5 31t72 34.5t52 32q7 74 7 133q0 92 -16 166t-44.5 126t-69.5 87t-90 51.5t-106 16.5q-147 0 -236 -88.5t-89 -256.5z" />
<glyph unicode=":" horiz-adv-x="453" d="M162 8v114q22 8 65 8q19 0 35 -2t23 -4l7 -2v-114q-23 -8 -65 -8q-9 0 -17 0.5t-14.5 1t-12 1.5t-9.5 2t-6.5 1.5t-3.5 0.5zM162 809v114q22 8 65 8q19 0 35 -2t23 -4l7 -2v-114q-23 -8 -65 -8q-12 0 -23 1t-18.5 2t-13 2t-7.5 2z" />
<glyph unicode=";" horiz-adv-x="484" d="M160 -176q7 7 17 20t28 59t22 97q-13 0 -24 2t-16 4l-5 2v114q23 8 66 8q18 0 34.5 -2t22.5 -4l7 -2v-81q0 -46 -11.5 -88.5t-27.5 -70.5t-32 -49t-27 -30l-11 -10zM182 809v114q23 8 66 8q18 0 34.5 -2t22.5 -4l7 -2v-114q-22 -8 -64 -8q-12 0 -23.5 1t-18.5 2t-13 2 t-8 2z" />
<glyph unicode="&#x3c;" horiz-adv-x="948" d="M118 588q0 15 2 28t4 19l2 6l648 298q9 -12 9 -45q0 -14 -2 -25.5t-5 -16.5l-2 -5l-567 -261l567 -257q9 -14 9 -47q0 -13 -2 -25t-5 -17l-2 -4l-648 298q-8 21 -8 54z" />
<glyph unicode="=" horiz-adv-x="1031" d="M176 373q-12 44 0 85h681q11 -35 0 -85h-681zM176 718q-9 44 0 85h681q11 -38 0 -85h-681z" />
<glyph unicode="&#x3e;" horiz-adv-x="948" d="M166 282q0 15 2 26.5t4 15.5l2 5l568 257l-568 261q-8 16 -8 47q0 14 2 25.5t4 15.5l2 4l649 -298q9 -20 9 -53q0 -14 -2.5 -28t-4.5 -20l-2 -6l-649 -298q-8 16 -8 46z" />
<glyph unicode="?" horiz-adv-x="873" d="M85 1335q3 1 7.5 3t20.5 9t34 13t46 13.5t57.5 13t68.5 9t78 3.5q93 0 165 -24.5t117 -69t68 -103t23 -128.5q0 -64 -13 -118t-35 -92.5t-50 -72t-59.5 -61.5t-63 -56.5t-60 -61.5t-50.5 -71t-35 -91.5t-13 -116.5q-14 -10 -45 -10q-7 0 -14 1t-12 2.5t-8.5 3t-5.5 2.5 l-2 1q0 93 20 166.5t51.5 120.5t70 85.5t76.5 72.5t70 71.5t51.5 92.5t19.5 126q0 110 -68 175t-210 65q-74 0 -140.5 -12.5t-96.5 -25.5l-30 -13q-18 12 -27 33.5t-6 44.5zM284 8v114q22 8 64 8q19 0 35.5 -2t23.5 -4l7 -2v-114q-23 -8 -66 -8q-18 0 -34.5 2t-22.5 4z" />
<glyph unicode="@" horiz-adv-x="1854" d="M134 565q0 185 60.5 338.5t167 257.5t254 161t319.5 57q184 0 332.5 -56t246 -157t150 -241.5t52.5 -309.5q0 -137 -39.5 -236t-116.5 -153t-185 -54q-31 0 -58.5 5.5t-52 17t-44 28t-34.5 40t-24 53.5q-73 -144 -262 -144q-69 0 -125 20.5t-101.5 65t-70.5 122 t-25 183.5q0 108 25 186.5t70.5 122.5t101.5 64.5t125 20.5q170 0 245 -117v111q16 8 45 8q13 0 24.5 -2t16.5 -4l6 -2v-505q0 -198 142 -198q39 0 74.5 12.5t67.5 41t55 70.5t36.5 104.5t13.5 138.5q0 155 -47 282t-134.5 217.5t-218 140t-291.5 49.5q-154 0 -284.5 -52 t-224.5 -146t-146.5 -233t-52.5 -308q0 -147 36.5 -267.5t101 -204t152.5 -140.5t189.5 -83t214.5 -26q156 0 300.5 46.5t260.5 123.5q39 -16 39 -59q-262 -191 -619 -191q-125 0 -238 31t-210.5 96t-168.5 158.5t-111 225.5t-40 290zM677 563q0 -317 248 -317 q98 0 157.5 64t62.5 152v199q0 58 -25 108t-76 82.5t-119 32.5q-43 0 -77 -8t-67 -29.5t-55 -56.5t-35.5 -92.5t-13.5 -134.5z" />
<glyph unicode="A" horiz-adv-x="1300" d="M41 8l557 1443q18 9 52 9q16 0 29.5 -2t18.5 -4l6 -3l557 -1443q-18 -8 -56 -8q-16 0 -29.5 2t-19.5 4l-7 2l-160 414h-683l-162 -414q-16 -8 -55 -8q-15 0 -27.5 2t-16.5 4zM339 515h616l-272 704q-11 29 -19 55t-11 38l-3 12h-4q-8 -43 -31 -105z" />
<glyph unicode="B" horiz-adv-x="1269" d="M207 0v1460h491q61 0 113.5 -10.5t92 -29.5t71.5 -46.5t53.5 -60t35.5 -71.5t20.5 -80t6.5 -86q0 -49 -9.5 -93.5t-21 -75t-33 -59t-34.5 -43t-36.5 -31.5t-29 -20t-21.5 -12l14 -6q15 -5 26 -10.5t31.5 -16.5t36.5 -25t35.5 -33.5t34 -45.5t27.5 -57t20 -71.5t7 -85.5 q0 -89 -25.5 -160t-77 -123t-135 -80t-194.5 -28h-499zM312 91h381q179 0 256 76t77 224q0 78 -20 134.5t-61 94t-104 55.5t-150 18h-379v-602zM312 783h365q304 0 304 293q0 69 -15.5 120.5t-50.5 91t-95.5 60t-146.5 20.5h-361v-585z" />
<glyph unicode="C" horiz-adv-x="1128" d="M142 730q0 750 547 750q45 0 88 -3.5t76 -9.5t62 -13.5t49 -14.5t35 -13t22 -10l7 -3q-3 -45 -34 -80q-13 6 -37.5 15t-100.5 24t-152 15q-84 0 -150.5 -19.5t-124 -66.5t-95.5 -121.5t-59.5 -188.5t-21.5 -263.5t21.5 -263t59 -187t95 -119t124 -64.5t151.5 -19 q83 0 161 13.5t115 27.5l36 14q31 -32 34 -83q-2 -2 -7 -4.5t-22.5 -9t-37 -13t-51.5 -14t-66.5 -13t-81 -9.5t-95.5 -4q-275 0 -411 186t-136 564z" />
<glyph unicode="D" horiz-adv-x="1335" d="M207 0v1460h401q119 0 209 -22.5t163 -74t119 -135.5t70.5 -208t24.5 -290q0 -119 -12.5 -216t-36.5 -172.5t-61 -133t-84 -97t-108 -64.5t-130.5 -36t-153.5 -11h-401zM312 93h286q97 0 169.5 17.5t134 60.5t99.5 114.5t59 182.5t21 262t-21 262t-59 182.5t-99.5 114.5 t-134 60t-169.5 17h-286v-1273z" />
<glyph unicode="E" horiz-adv-x="1126" d="M207 0v1460h793q8 -24 8 -44q0 -31 -8 -50h-688v-579h586q8 -28 8 -45q0 -29 -8 -47h-586v-602h708q8 -28 8 -44q0 -31 -8 -49h-813z" />
<glyph unicode="F" horiz-adv-x="1080" d="M207 8v1452h789q8 -24 8 -47t-8 -47h-684v-600h594q9 -18 9 -44q0 -20 -9 -47h-594v-667q-16 -8 -53 -8q-16 0 -29 2t-18 4z" />
<glyph unicode="G" horiz-adv-x="1256" d="M140 730q0 370 147 560t425 190q47 0 93.5 -3.5t82.5 -9.5t68 -13.5t54.5 -14.5t39.5 -13t25 -10l8 -3q-6 -47 -35 -78q-16 5 -45 14t-113.5 23.5t-163.5 14.5q-70 0 -129 -14t-113.5 -44t-96 -81t-72.5 -123t-47.5 -172.5t-16.5 -224.5q0 -149 24 -263t65 -187t102 -119 t130 -65t154 -19q116 0 276 33v571h-365q-8 18 -8 47q0 14 2 25.5t4 16.5l2 4h468v-725q-3 -2 -9 -4.5t-26.5 -9t-43 -13t-58 -14t-72.5 -13t-85.5 -9.5t-98.5 -4q-278 0 -425 188t-147 562z" />
<glyph unicode="H" horiz-adv-x="1370" d="M207 8v1443q18 9 52 9q16 0 29 -2t18 -4l6 -3v-654h746v654q18 9 53 9h10.5t10 -0.5t8.5 -1.5t7.5 -1.5t6 -1.5t4.5 -1.5t3.5 -1t2.5 -0.5v-1v-1443q-17 -8 -53 -8q-18 0 -31 2t-18 4l-4 2v692h-746v-692q-18 -8 -53 -8q-17 0 -30 2t-18 4z" />
<glyph unicode="I" horiz-adv-x="518" d="M207 8v1443q16 9 52 9q17 0 30 -2t18 -4l5 -3v-1443q-16 -8 -53 -8q-17 0 -30 2t-18 4z" />
<glyph unicode="J" horiz-adv-x="861" d="M54 41v9q0 49 31 74q2 -1 6.5 -3t18.5 -7t29 -9.5t37 -10t44 -9.5t49 -7t52 -3q113 0 174.5 59t61.5 197v1120q14 9 53 9q15 0 28.5 -2t19.5 -4l5 -3v-1118q0 -180 -82 -266.5t-248 -86.5q-69 0 -138.5 15t-104.5 30z" />
<glyph unicode="K" horiz-adv-x="1236" d="M207 8v1443q18 9 54 9q16 0 28.5 -2t17.5 -4l5 -3v-646h253l455 646q26 9 56 9q22 0 58 -9l-479 -683l537 -760q-20 -8 -60 -8q-18 0 -34.5 2t-23.5 4l-8 2l-499 704h-255v-704q-16 -8 -53 -8q-15 0 -28 2t-19 4z" />
<glyph unicode="L" horiz-adv-x="1027" d="M207 0v1451q18 9 52 9q17 0 30 -2t18 -4l5 -3v-1356h655q8 -24 8 -46q0 -17 -8 -49h-760z" />
<glyph unicode="M" horiz-adv-x="1706" d="M207 8v1443q26 9 66 9q8 0 16 -0.5t14.5 -1t12.5 -1.5t10.5 -2t7.5 -2t5 -1l2 -1l417 -753q55 -97 82 -164h3q18 43 66 127q81 139 231.5 404.5t219.5 385.5q45 9 70 9q20 0 38 -2t25 -4l8 -3v-1443q-17 -8 -54 -8q-16 0 -29 2t-18 4l-5 2v1029q0 218 10 299h-6 q-5 -20 -33.5 -80t-69.5 -132l-416 -722q-16 -9 -40 -9q-11 0 -21.5 2t-14.5 5l-5 2l-400 720q-38 67 -67 130t-34 84h-6q14 -66 14 -308v-1020q-14 -8 -49 -8q-15 0 -27.5 2t-17.5 4z" />
<glyph unicode="N" horiz-adv-x="1406" d="M207 8v1443q22 9 62 9q19 0 34.5 -2t21.5 -4l6 -3l667 -1105q29 -47 55.5 -99t39.5 -80l12 -27h4q-8 112 -8 270v1041q14 9 50 9l49 -9v-1443q-18 -8 -61 -8q-18 0 -34 2t-22 4l-7 2l-670 1120q-20 31 -38 63t-29 54.5t-19.5 40.5t-11.5 27l-4 9h-4q8 -89 8 -283v-1031 q-16 -8 -53 -8q-6 0 -12.5 0.5t-11 1t-9 1.5t-7 2t-4.5 1.5t-3 0.5z" />
<glyph unicode="O" horiz-adv-x="1378" d="M142 730q0 155 24.5 278.5t70.5 211.5t113.5 146.5t151.5 86t187 27.5q129 0 229 -44t171.5 -134t109.5 -234.5t38 -338t-37.5 -337.5t-109.5 -234t-171.5 -134t-229.5 -44t-229.5 44t-171.5 134t-109 234t-37 338zM255 730q0 -143 20 -254t56.5 -187t90.5 -125t120 -71 t147 -22t147 22t120.5 71.5t91 125t56.5 186.5t20 254t-20 254t-56.5 187t-91 125t-120 71t-147 22t-147.5 -22t-120 -71t-90.5 -125t-56.5 -187t-20 -254z" />
<glyph unicode="P" horiz-adv-x="1213" d="M207 8v1452h501q189 0 297 -116.5t108 -309.5q0 -192 -108 -308t-297 -116h-396v-602q-16 -8 -51 -8q-17 0 -30.5 2t-18.5 4zM312 706h392q142 0 220 86.5t78 239.5q0 157 -78 245.5t-220 88.5h-392v-660z" />
<glyph unicode="Q" horiz-adv-x="1378" d="M142 730q0 155 24.5 278.5t70.5 211.5t113.5 146.5t151.5 86t187 27.5q129 0 229 -44t171.5 -134t109.5 -234.5t38 -337.5q0 -458 -209 -639q52 -53 122 -89t137 -52q-2 -20 -9.5 -37.5t-20.5 -31.5t-30 -23q-74 21 -148.5 71t-125.5 114q-110 -63 -264 -63 q-130 0 -229.5 44t-171.5 134t-109 234t-37 338zM255 730q0 -143 20 -254t56.5 -187t90.5 -125t120 -71t147 -22t147 22t120.5 71.5t91 125t56.5 186.5t20 254t-20 254t-56.5 187t-91 125t-120 71t-147 22t-147.5 -22t-120 -71t-90.5 -125t-56.5 -187t-20 -254z" />
<glyph unicode="R" horiz-adv-x="1252" d="M207 8v1452h488q189 0 298.5 -111.5t109.5 -296.5q0 -154 -78.5 -258t-219.5 -135l350 -651q-20 -8 -60 -8q-17 0 -33 2t-23 4l-7 2l-341 638h-379v-638q-16 -8 -51 -8q-17 0 -30.5 2t-18.5 4zM312 741h381q138 0 218 82.5t80 228.5q0 148 -80 231t-218 83h-381v-625z " />
<glyph unicode="S" horiz-adv-x="1136" d="M130 56q0 51 28 88q21 -8 56 -18.5t133.5 -28.5t184.5 -18q184 0 283.5 76.5t99.5 221.5q0 43 -10 79t-25 62.5t-42 49.5t-52 38.5t-64 30.5t-68.5 24.5t-75.5 21.5q-8 3 -26 8q-59 17 -89.5 26.5t-83.5 29.5t-81.5 38.5t-65.5 49t-56 64.5t-32.5 82.5t-13.5 105.5 q0 182 121.5 287.5t344.5 105.5q101 0 194 -12.5t136 -25.5l43 -12q0 -53 -29 -86q-17 5 -47 12t-117 19t-166 12q-186 0 -279 -77.5t-93 -216.5q0 -43 10.5 -78.5t25 -60.5t45.5 -48.5t54 -37t70 -30.5t75.5 -25.5t86.5 -24.5l12 -3q39 -11 67.5 -19.5t65 -22t63 -27 t57 -32.5t51.5 -40t42 -48.5t33 -59.5t20 -71.5t8 -85.5q0 -188 -127 -293.5t-355 -105.5q-51 0 -101.5 4.5t-90 11t-75.5 14.5t-62 16.5t-45 15t-29 10.5z" />
<glyph unicode="T" horiz-adv-x="1080" d="M62 1413q0 12 2.5 24t4.5 18l2 5h939q8 -17 8 -47q0 -13 -2 -24.5t-4 -17.5l-2 -5h-412v-1358q-16 -8 -53 -8q-17 0 -30 2t-17 4l-5 2v1358h-422q-9 18 -9 47z" />
<glyph unicode="U" horiz-adv-x="1352" d="M197 462v989q18 9 52 9q17 0 30.5 -2t18.5 -4l6 -3v-1003q0 -179 98.5 -278t276.5 -99q177 0 275 99t98 278v1003q16 9 51 9q7 0 13.5 -0.5t12 -1t10 -1.5t7.5 -2t5 -2t3 -1l1 -1v-989q0 -228 -130 -355t-350 -127q-219 0 -348.5 128t-129.5 354z" />
<glyph unicode="V" horiz-adv-x="1248" d="M52 1449q17 11 58 11q15 0 28 -2t17 -4l5 -3l420 -1165q14 -38 24.5 -75t14.5 -55l4 -18h6q10 63 40 146l420 1167q16 9 52 9q18 0 31.5 -2t18.5 -4l5 -3l-519 -1443q-20 -8 -52 -8q-15 0 -28 2t-19 4l-6 2z" />
<glyph unicode="W" horiz-adv-x="1923" d="M60 1451q17 9 54 9q17 0 30.5 -2t18.5 -4l5 -3l331 -1106q16 -52 28 -104t16 -79l4 -26h6q8 91 43 209l325 1106q14 9 50 9q16 0 29 -2t17 -4l5 -3l324 -1106q15 -54 25 -106t13 -78l3 -25h4q10 87 46 209l317 1106q16 9 51 9q14 0 27 -2t18 -4l5 -3l-414 -1443 q-17 -8 -52 -8q-15 0 -28 2t-19 4l-6 2l-324 1105q-16 61 -26.5 112t-12.5 72l-2 21h-6q-4 -68 -40 -205l-325 -1105q-32 -8 -56 -8q-21 0 -53 8z" />
<glyph unicode="X" horiz-adv-x="1213" d="M60 8l467 742l-446 701q20 9 65 9q7 0 15 -0.5t14 -1t11 -1.5t9 -2t6.5 -2t4.5 -1l1 -1l397 -623l406 623q35 9 60 9q26 0 62 -9l-457 -697l478 -744q-22 -10 -64 -10q-19 0 -35 2t-22 4l-6 2l-428 665l-416 -665q-32 -8 -60 -8q-30 0 -62 8z" />
<glyph unicode="Y" horiz-adv-x="1256" d="M52 1451q23 9 66 9q8 0 16 -0.5t13.5 -1t11 -1.5t9 -2t6 -2t3.5 -1l1 -1l453 -723l464 723q18 9 56 9q19 0 35 -2t22 -4l7 -3l-536 -834v-609q-18 -8 -52 -8q-7 0 -14 0.5t-12 1t-9.5 1.5t-7.5 2t-5.5 1.5t-3.5 0.5l-1 1v607z" />
<glyph unicode="Z" horiz-adv-x="1175" d="M83 48.5q0 16.5 8 48.5l836 1265h-781q-8 32 -8 51q0 23 8 47h902q8 -24 8 -47q0 -19 -8 -51l-835 -1265h861q9 -27 9 -48q0 -9 -1 -17.5t-2.5 -13.5t-3 -11t-2.5 -7h-983q-8 32 -8 48.5z" />
<glyph unicode="[" horiz-adv-x="640" d="M203 -345v1987h350q8 -14 8 -46q0 -15 -2 -26.5t-4 -15.5l-2 -5h-249v-1800h249q8 -16 8 -47q0 -15 -2 -26.5t-4 -15.5l-2 -5h-350z" />
<glyph unicode="\" horiz-adv-x="890" d="M49 1511q17 10 54 10q11 0 21 -1t16 -2.5t11 -3t7 -2.5l2 -1l682 -1596q-18 -10 -55 -10q-16 0 -30.5 2.5t-20.5 4.5l-6 3z" />
<glyph unicode="]" horiz-adv-x="638" d="M77 -298q0 14 2 25.5t4 16.5l2 5h250v1800h-250q-8 14 -8 47q0 14 2 26t4 16l2 4h351v-1987h-351q-8 14 -8 47z" />
<glyph unicode="^" horiz-adv-x="1045" d="M118 925l354 526q14 9 51 9q16 0 29 -2t17 -4l5 -3l355 -526q-12 -8 -49 -8q-16 0 -29 2t-18 4l-5 2l-307 454l-304 -454q-14 -8 -51 -8q-16 0 -28 2t-16 4z" />
<glyph unicode="_" horiz-adv-x="1084" d="M122 -79q0 6 0.5 11t1 9t1.5 7t1.5 5t1.5 3.5t1 2.5h1h827q8 -10 8 -38q0 -9 -0.5 -16t-2 -11.5l-2.5 -7.5t-2 -5l-1 -1h-827q-8 10 -8 41z" />
<glyph unicode="`" horiz-adv-x="482" d="M89 1592q12 20 39.5 34t55.5 12l226 -300q-20 -32 -67 -38z" />
<glyph unicode="a" horiz-adv-x="1037" d="M101 294q0 156 93.5 234t283.5 78q153 0 292 -18v138q0 147 -63.5 209.5t-199.5 62.5q-70 0 -143 -13.5t-111 -26.5l-38 -14q-18 12 -27 33q-11 27 -6 47q7 2 18.5 6.5t48 15.5t74 19t91.5 15t105 7q86 0 148 -18t101.5 -51t62.5 -87t32 -116.5t9 -149.5v-657 q-12 -8 -40 -8q-12 0 -23 2t-15 4l-5 2l-17 170q-45 -95 -137.5 -146.5t-218.5 -51.5q-143 0 -229 82t-86 232zM209 294q0 -115 61 -171t172 -56q95 0 170 43.5t116.5 124t41.5 185.5v89q-7 1 -27.5 3t-38.5 3.5t-45 3.5t-52 4t-55 3t-57 1q-148 0 -217 -55t-69 -178z" />
<glyph unicode="b" d="M174 8v1505q14 8 51 8q16 0 29 -2t17 -4l5 -2v-604q98 178 326 178q75 0 135 -17.5t109.5 -58t82.5 -104t51 -157.5t18 -216.5t-18 -216.5t-51 -157.5t-82.5 -103.5t-109.5 -58t-135 -18q-228 0 -326 178v-150q-15 -8 -51 -8q-17 0 -29.5 2t-16.5 4zM276 406 q0 -62 19.5 -121t55 -107.5t93.5 -78.5t128 -30q170 0 244 107.5t74 357t-74 357t-244 107.5q-56 0 -104 -19t-82.5 -51t-59 -74t-37 -88.5t-13.5 -94.5v-265z" />
<glyph unicode="c" horiz-adv-x="899" d="M124 533.5q0 269.5 110 411.5t315 142q73 0 134.5 -12t86.5 -24l25 -12q0 -55 -35 -80q-8 4 -23.5 10.5t-65 16.5t-102.5 10q-117 0 -193 -52t-111.5 -154t-35.5 -256q0 -233 85.5 -346t263.5 -113q55 0 105.5 11t73.5 21l23 11q33 -20 37 -79q-1 -1 -3.5 -2.5 t-10.5 -5.5t-17 -7.5t-24 -9t-30.5 -10t-36.5 -9t-42.5 -8t-48.5 -5.5t-55 -2q-205 0 -315 142t-110 411.5z" />
<glyph unicode="d" d="M126 533.5q0 122.5 18 216.5t50.5 157.5t82 104t109.5 58t135 17.5q229 0 326 -178v604q14 8 51 8q16 0 28.5 -2t17.5 -4l4 -2v-1505q-15 -8 -42 -8q-12 0 -23 2t-17 4l-5 2l-10 156q-99 -184 -330 -184q-75 0 -135 18t-109.5 58t-82 103.5t-50.5 157.5t-18 216.5z M234 533.5q0 -249.5 74 -357t243 -107.5q57 0 106 19.5t83.5 53t59 77t36 91t11.5 96.5v257q0 61 -19.5 119.5t-55 107t-93 78.5t-128.5 30q-169 0 -243 -107.5t-74 -357z" />
<glyph unicode="e" horiz-adv-x="1031" d="M124 540q0 140 30.5 246t87 171.5t133 97.5t172.5 32q179 0 276.5 -103.5t97.5 -277.5q0 -56 -6 -107t-11 -75l-6 -23h-669q10 -228 91.5 -327t248.5 -99q45 0 88 8t72 19t52 22t34 19l11 7q17 -12 29 -33.5t13 -45.5q-4 -3 -13 -9.5t-39 -22t-64.5 -27.5t-90.5 -22 t-116 -10q-137 0 -231.5 63.5t-142 188t-47.5 308.5zM229 584h576q0 1 1 7.5t2.5 18t3 27t2.5 37t1 44.5q0 58 -15 107.5t-46 89.5t-84 62.5t-123 22.5q-143 0 -227 -102.5t-91 -313.5z" />
<glyph unicode="f" horiz-adv-x="696" d="M71 1023.5q0 18.5 8 42.5h142v122q0 51 5.5 93t19 80.5t37 67t56.5 49.5t80.5 32t107.5 11q49 0 97 -7.5t72 -14.5l24 -7v-8q0 -44 -29 -73q-63 23 -151 23q-66 0 -109.5 -15.5t-66.5 -47t-32 -72.5t-9 -101v-132h312q8 -24 8 -42.5t-8 -42.5h-312v-973q-15 -8 -52 -8 q-7 0 -14 0.5t-12 1t-9 1.5t-7 2t-5 1l-2 1l-1 1v973h-142q-8 24 -8 42.5z" />
<glyph unicode="g" horiz-adv-x="1056" d="M85 -215q0 47 14 91.5t33.5 76t46.5 60.5t46 45t38 29q-50 44 -50 118q0 102 95 221q-87 40 -131.5 119t-44.5 191q0 164 97.5 257.5t273.5 93.5q126 0 215 -48l267 46q10 -23 10 -48t-10 -50l-192 -12q81 -90 81 -239q0 -108 -42.5 -186t-126.5 -120.5t-202 -42.5 q-57 0 -122 15q-67 -80 -67 -173q1 -36 24.5 -60t62.5 -36t89 -19.5t105.5 -13.5t110.5 -15t105 -27t88.5 -46t61 -76t22.5 -112q0 -68 -31.5 -127t-91.5 -105t-155.5 -72.5t-215.5 -26.5q-104 0 -182.5 22.5t-126.5 63t-71.5 92.5t-23.5 114zM191 -197q0 -106 77 -166.5 t223 -60.5q179 0 285 65.5t106 172.5q0 57 -28 95.5t-71 56t-103.5 29.5t-117.5 16t-121 14t-106 25q-45 -29 -78 -70.5t-49.5 -86.5t-16.5 -90zM236 738q0 -132 72 -201t195 -69q124 0 195.5 69t71.5 201q0 130 -72 199t-195 69q-122 0 -194.5 -69t-72.5 -199z" />
<glyph unicode="h" horiz-adv-x="1112" d="M174 8v1505q16 8 51 8q15 0 28 -2t18 -4l5 -2v-611q62 89 153.5 137t207.5 48q143 0 225 -82t82 -220v-777q-15 -8 -50 -8q-16 0 -29 2t-17 4l-5 2v754q0 238 -243 238q-97 0 -185.5 -61.5t-138.5 -168.5v-762q-17 -8 -51 -8q-16 0 -28.5 2t-17.5 4z" />
<glyph unicode="i" horiz-adv-x="461" d="M166 1318v114q22 7 65 7q19 0 35 -1.5t23 -3.5l7 -2v-114q-23 -8 -65 -8q-12 0 -23 0.5t-18.5 2t-13 2.5t-7.5 2zM180 8v1050q14 8 51 8q10 0 19 -0.5t14.5 -2t10 -2.5t5.5 -2l2 -1v-1050q-15 -8 -51 -8q-8 0 -14.5 0.5t-11.5 1t-9.5 1.5t-7 2t-4.5 1.5t-3 0.5z" />
<glyph unicode="j" horiz-adv-x="461" d="M-116 -464q0 16 3.5 29t6.5 18l3 5q33 -8 87 -8q100 0 148 55.5t48 178.5v1244q12 8 51 8q15 0 28 -2t18 -4l5 -2v-1236q0 -165 -71.5 -247t-202.5 -82q-38 0 -68 4.5t-41 8.5l-11 5q-4 11 -4 25zM166 1324v113q20 8 65 8q19 0 34.5 -2t22.5 -4l6 -2v-113q-21 -8 -63 -8 q-20 0 -36 2t-22 4z" />
<glyph unicode="k" horiz-adv-x="1004" d="M174 8v1505q16 8 51 8q15 0 28 -2t18 -4l5 -2v-913h215l316 458q20 8 58 8q17 0 29.5 -1.5t17.5 -2.5l5 -2l-341 -497l389 -553q-21 -10 -59 -10q-18 0 -33 2.5t-21 4.5l-7 3l-356 505h-213v-507q-17 -8 -51 -8q-16 0 -28.5 2t-17.5 4z" />
<glyph unicode="l" horiz-adv-x="470" d="M184 8v1505q15 8 52 8q16 0 28.5 -2t17.5 -4l4 -2v-1505q-14 -8 -50 -8q-17 0 -29.5 2t-17.5 4z" />
<glyph unicode="m" horiz-adv-x="1702" d="M174 8v1050q16 8 51 8q15 0 28.5 -2t19.5 -4l5 -2v-154q58 87 144 135t195 48q101 0 172 -49.5t99 -149.5q131 199 359 199q135 0 211 -82t76 -220v-777q-15 -8 -50 -8q-16 0 -29 2t-17 4l-4 2v754q0 122 -55.5 180t-167.5 58q-94 0 -178 -61t-129 -173v-758 q-16 -8 -51 -8q-15 0 -27.5 2t-17.5 4l-5 2v754q0 122 -55 180t-168 58q-59 0 -116.5 -27t-106.5 -80t-79 -123v-762q-19 -8 -53 -8q-16 0 -28.5 2t-17.5 4z" />
<glyph unicode="n" horiz-adv-x="1110" d="M174 8v1050q16 8 51 8q15 0 28 -2t18 -4l5 -2v-156q62 89 153.5 137t207.5 48q143 0 225 -82t82 -220v-777q-15 -8 -50 -8q-16 0 -29 2t-17 4l-5 2v754q0 238 -243 238q-97 0 -185.5 -61.5t-138.5 -168.5v-762q-17 -8 -51 -8q-16 0 -28.5 2t-17.5 4z" />
<glyph unicode="o" horiz-adv-x="1093" d="M126 533.5q0 148.5 28 255.5t83.5 172t132 95.5t178 30.5t178 -30.5t132 -95.5t83.5 -172t28 -255.5t-28 -255.5t-83.5 -172t-132 -95.5t-178 -30.5t-178 30.5t-132 95.5t-83.5 172t-28 255.5zM231 533.5q0 -105.5 14.5 -186t40.5 -133.5t66 -86.5t87.5 -48t108 -14.5 t108 14.5t87 48t66 86.5t40.5 133.5t14 186.5t-14 186t-40.5 133.5t-66 87t-87 47.5t-108 14t-108 -14t-87.5 -47.5t-66 -87t-40.5 -134t-14.5 -186z" />
<glyph unicode="p" d="M174 -489v1547q14 8 51 8q10 0 19 -0.5t14.5 -2t10 -2.5t5.5 -2l2 -1v-149q98 178 326 178q75 0 135 -17.5t109.5 -58t82.5 -104t51 -157.5t18 -216.5t-18 -216.5t-51 -157.5t-82.5 -103.5t-109.5 -58t-135 -18q-228 0 -326 178v-647q-15 -8 -51 -8q-17 0 -29.5 2 t-16.5 4zM276 406q0 -62 19.5 -121t55 -107.5t93.5 -78.5t128 -30q170 0 244 107.5t74 357t-74 357t-244 107.5q-56 0 -104 -19t-82.5 -51t-59 -74t-37 -88.5t-13.5 -94.5v-265z" />
<glyph unicode="q" d="M126 533.5q0 122.5 18 216.5t50.5 157.5t82 104t109.5 58t135 17.5q229 0 326 -178v149q12 8 49 8q16 0 29 -2t18 -4l5 -2v-1547q-14 -8 -50 -8q-16 0 -29 2t-17 4l-5 2v647q-97 -178 -326 -178q-75 0 -135 18t-109.5 58t-82 103.5t-50.5 157.5t-18 216.5zM234 533.5 q0 -249.5 74 -357t243 -107.5q55 0 102.5 18.5t82 50t59.5 73t38 88t14 94.5v278q-2 60 -22 117.5t-55.5 104.5t-92.5 76t-126 29q-169 0 -243 -107.5t-74 -357z" />
<glyph unicode="r" horiz-adv-x="786" d="M174 8v1050q14 8 51 8q10 0 19 -0.5t14.5 -2t10 -2.5t5.5 -2l2 -1v-186q108 213 293 213q44 0 85.5 -11t58 -19.5t28.5 -15.5q-4 -59 -50 -86q-67 36 -146 36q-51 0 -101 -30.5t-92.5 -84t-75.5 -126.5v-740q-15 -8 -51 -8q-17 0 -29.5 2t-16.5 4z" />
<glyph unicode="s" horiz-adv-x="897" d="M120 45v9q0 44 28 70q15 -6 41 -15t99 -23.5t138 -14.5q78 0 136 21t92.5 68.5t34.5 117.5q0 24 -5 45t-11.5 37.5t-20 31.5t-25 25.5t-32.5 21t-34.5 17t-39.5 15t-40.5 13t-43.5 12.5q-4 1 -6.5 1.5t-6 1.5t-6.5 2q-35 10 -61.5 19t-59.5 23t-56.5 29t-47.5 37t-39 47 t-24.5 58.5t-9.5 72.5q0 138 91 219t267 81q73 0 139 -11.5t96 -23.5l29 -12q2 -21 -6.5 -44t-23.5 -35q-11 4 -31 10.5t-78.5 16.5t-113.5 10q-130 0 -198 -53t-68 -154q0 -36 14.5 -65.5t36 -49t58 -37t66.5 -28t76 -23.5q3 -1 8 -2q43 -13 65 -20t61 -22.5t60.5 -29.5 t49 -37.5t42 -50t25 -63.5t10.5 -81q0 -142 -92 -222t-269 -80q-56 0 -108.5 6.5t-88 16t-63.5 19t-41 16.5z" />
<glyph unicode="t" horiz-adv-x="727" d="M62 1024q0 13 2.5 24t4.5 14l2 4h163v201q39 26 83 26q9 0 18 -1v-226h309q11 -14 11 -42q0 -13 -2.5 -23.5t-5.5 -15.5l-3 -4h-309v-625q0 -154 49 -220.5t175 -66.5q26 0 53.5 2.5t42.5 5.5l14 2q10 -16 10 -44q0 -12 -1.5 -22t-2.5 -13l-2 -4q-79 -16 -137 -16 q-69 0 -120.5 16.5t-86 46.5t-56 76.5t-30.5 103.5t-9 131v627h-163q-9 12 -9 43z" />
<glyph unicode="u" horiz-adv-x="1110" d="M166 282v776q16 8 51 8q16 0 28.5 -2t17.5 -4l4 -2v-754q0 -121 61 -179t183 -58q97 0 186 61t139 168v762q15 8 50 8q15 0 28 -2t18 -4l5 -2v-1050q-16 -8 -51 -8q-15 0 -28 2t-18 4l-4 2v156q-64 -87 -156.5 -135.5t-205.5 -48.5q-143 0 -225.5 82t-82.5 220z" />
<glyph unicode="v" horiz-adv-x="1017" d="M56 1058q19 8 56 8q8 0 15 -0.5t12.5 -1t10 -1.5t7.5 -1.5t5 -1.5t3 -1l1 -1l280 -733q19 -50 35 -100.5t22 -76.5l6 -26h6q23 85 65 199l277 737q14 8 49 8q7 0 13 -0.5t11 -1t9.5 -1.5t8 -1.5t5.5 -1.5t3 -1l1 -1l-394 -1050q-20 -8 -52 -8q-7 0 -14 0.5t-12 1 t-9.5 1.5t-7.5 2t-5.5 1.5t-3.5 0.5l-1 1z" />
<glyph unicode="w" horiz-adv-x="1609" d="M67 1058q18 8 53 8q16 0 28 -2t16 -4l4 -2l248 -758q26 -83 40 -172h6q14 79 45 172l251 758q18 8 51 8q16 0 28.5 -2t17.5 -4l4 -2l252 -754q6 -21 12 -41t10 -36.5t7 -30.5t5 -26t3 -20t2 -14.5t1 -7.5h6q12 71 45 174l245 756q16 8 47 8q10 0 18.5 -0.5t14 -2 t9.5 -2.5t6 -2l1 -1l-338 -1050q-1 0 -10.5 -2.5t-19.5 -4t-22 -1.5q-11 0 -20.5 1.5t-19 4t-10.5 2.5l-225 677q-59 187 -67 254h-6q-8 -63 -73 -254l-225 -677q-32 -8 -49 -8q-12 0 -52 8z" />
<glyph unicode="x" horiz-adv-x="990" d="M58 8l374 536l-361 514q18 8 57 8q18 0 33 -2t21 -4l6 -2l313 -441l308 441q14 8 54 8q11 0 21 -0.5t16.5 -2t11 -2.5t7.5 -2l2 -1l-364 -516l376 -534q-18 -8 -57 -8q-19 0 -34 2t-21 4l-6 2l-326 458l-319 -458q-16 -8 -58 -8q-16 0 -29 2t-19 4z" />
<glyph unicode="y" horiz-adv-x="1058" d="M58 1058q21 8 58 8q16 0 29.5 -2t19.5 -4l5 -2l308 -756q20 -51 38 -101t26 -75l7 -25h8q25 85 66 201l269 756q14 8 52 8q16 0 29.5 -2t18.5 -4l6 -2l-458 -1287q-25 -71 -48 -117t-55 -85.5t-74.5 -57.5t-99.5 -18q-26 0 -50.5 3.5t-36.5 7.5l-12 3q-8 24 -8 41 q0 29 10 44q37 -10 87 -10q63 0 106 46t86 167l74 207q-25 4 -37 10z" />
<glyph unicode="z" horiz-adv-x="919" d="M85 47q0 18 8 42l602 888h-555q-8 14 -8 45q0 14 2 25t4 15l2 4h667q8 -24 8 -42q0 -23 -8 -47l-600 -888h606q8 -12 8 -44q0 -14 -2 -25t-4 -16l-2 -4h-720q-8 24 -8 47z" />
<glyph unicode="{" horiz-adv-x="685" d="M71 677q0 23 8 47h67q42 0 63.5 28.5t21.5 73.5v546q0 125 69 197.5t201 72.5h97q8 -23 8 -44t-8 -45h-79q-186 0 -186 -185v-507q0 -70 -15 -112.5t-53 -69.5q26 -18 41 -44.5t21 -59.5t6 -80v-507q0 -185 186 -185h79q8 -24 8 -44.5t-8 -44.5h-97q-132 0 -201 72.5 t-69 197.5v548q0 44 -21.5 72.5t-63.5 28.5h-67q-8 23 -8 44z" />
<glyph unicode="|" horiz-adv-x="506" d="M203 -391v1985q14 8 50 8q17 0 29.5 -2t16.5 -4l5 -2v-1985q-14 -8 -51 -8q-16 0 -28.5 2t-17.5 4z" />
<glyph unicode="}" horiz-adv-x="683" d="M79 -241.5q0 26.5 6 44.5h79q66 0 108 22t60 62.5t18 100.5v507q0 70 15 113t53 69q-38 27 -53 70.5t-15 113.5v507q0 91 -44 138t-142 47h-79q0 1 -3 14.5t-3 28.5q0 29 6 46h97q132 0 201 -72.5t69 -197.5v-546q0 -45 21.5 -73.5t64.5 -28.5h66q8 -24 8 -45 q0 -23 -8 -46h-66q-43 0 -64.5 -28.5t-21.5 -72.5v-548q0 -125 -69 -197.5t-201 -72.5h-97q-6 18 -6 44.5z" />
<glyph unicode="~" horiz-adv-x="1086" d="M168 600q3 4 8 11.5t24.5 25.5t42.5 32t62 25.5t82 11.5q45 0 88.5 -16.5t73.5 -36t72 -35.5t85 -16q27 0 53 7.5t43 18.5t31 21.5t20 18.5l6 7q49 -9 62 -56q-2 -3 -4.5 -6.5t-12 -15t-21 -21.5t-30.5 -22.5t-40.5 -21.5t-51.5 -15t-63 -6q-45 0 -88.5 16t-73.5 35.5 t-72 36t-85 16.5q-27 0 -53 -7.5t-43.5 -18.5t-31 -21.5t-20.5 -18.5l-6 -7q-23 4 -37.5 20t-19.5 38z" />
<glyph unicode="&#xa2;" horiz-adv-x="942" d="M134 533.5q0 254.5 97 395.5t282 156l-10 186q20 8 50 8q33 0 49 -8l-10 -184q63 -3 116 -15t75 -23l22 -10q0 -53 -35 -78q-8 4 -23 10.5t-65 16.5t-102 10q-174 0 -257 -116t-83 -348q0 -117 21 -203t64 -143.5t108.5 -86t154.5 -28.5q55 0 106 11t74 21l23 11 q33 -20 37 -77q-10 -6 -28.5 -15t-79.5 -25t-128 -19l10 -185q-25 -10 -51 -10q-28 0 -48 10l10 187q-185 15 -282 156t-97 395.5z" />
<glyph unicode="&#xa3;" horiz-adv-x="1047" d="M122 683q0 31 8 43h141q-23 67 -34.5 105t-23.5 98t-12 111q0 94 29.5 163.5t84.5 112.5t129.5 64t167.5 21q56 0 112.5 -7t98 -17.5t64.5 -17.5t36 -13q3 -58 -35 -81q-10 5 -42.5 14.5t-96.5 20t-126 10.5q-152 0 -231.5 -69.5t-79.5 -206.5q0 -21 1.5 -41.5t7 -46 t8.5 -40.5t13.5 -46.5t13.5 -41t16 -48.5t15 -44h396q10 -15 10 -41q0 -31 -10 -44h-369q16 -58 24 -106t6.5 -106.5t-17 -110t-51.5 -109.5t-92 -112h635q10 -10 10 -48.5t-10 -48.5h-769v97q65 57 105.5 115.5t58 109t18.5 108.5t-7.5 104t-26.5 107h-168q-8 23 -8 42z " />
<glyph unicode="&#xa5;" horiz-adv-x="1230" d="M77 1377q18 10 55 10q18 0 32.5 -2t20.5 -4l6 -2l417 -706l442 706q18 8 55 8q16 0 29.5 -2t19.5 -4l5 -2l-470 -748h313q8 -24 8 -39q0 -23 -8 -39h-347v-160h347q8 -16 8 -39q0 -14 -8 -38h-347v-308q-13 -8 -49 -8q-8 0 -14.5 0.5t-11.5 1t-9 1.5t-6.5 2t-4 1.5 t-2.5 0.5l-1 1v308h-346q-8 24 -8 38.5t8 38.5h346v160h-346q-8 24 -8 39t8 39h312z" />
<glyph unicode="&#xa8;" horiz-adv-x="921" d="M242 1247v107q19 6 60 6q18 0 33.5 -1.5t21.5 -2.5l6 -2v-107q-21 -9 -61 -9q-18 0 -33 2.5t-21 4.5zM544 1247v107q19 6 60 6q18 0 33.5 -1.5t21.5 -2.5l6 -2v-107q-21 -9 -61 -9q-18 0 -33 2.5t-21 4.5z" />
<glyph unicode="&#xa9;" horiz-adv-x="1635" d="M134 689q0 140 54 266.5t145.5 217.5t218.5 145t266.5 54t266.5 -54t218.5 -145t145.5 -217.5t54 -266.5t-54 -266.5t-145.5 -218.5t-218.5 -146t-266.5 -54t-266.5 54t-218.5 146t-145.5 218.5t-54 266.5zM211 689q0 -123 48 -235.5t129.5 -194t194 -130t236 -48.5 t236 48.5t193.5 130t129.5 194t48.5 235.5t-48.5 235.5t-129.5 194t-193.5 129.5t-236 48t-236 -48t-194 -129.5t-129.5 -194t-48 -235.5zM478 704q0 199 87 301t258 102q59 0 110.5 -11t72.5 -23l22 -11q0 -38 -30 -62q-2 1 -5 2t-12.5 5t-20 7.5t-26 7.5t-30.5 7t-34 5.5 t-36 2.5q-139 0 -204 -78t-65 -255q0 -331 269 -331q19 0 39 2t36.5 5t32.5 6.5t27.5 7t20.5 6t13 4.5l5 2q27 -14 31 -61q-9 -6 -25.5 -13.5t-72.5 -20.5t-118 -13q-170 0 -257.5 104.5t-87.5 301.5z" />
<glyph unicode="&#xab;" horiz-adv-x="998" d="M103 545q0 13 2 24.5t5 15.5l2 5l418 442q32 -20 35 -69l-370 -416l370 -417q-3 -50 -35 -70l-418 443q-9 16 -9 42zM448 545q0 13 1.5 24t3.5 15l1 4l382 403q14 -9 23.5 -27.5t10.5 -38.5l-332 -378l332 -379q-3 -48 -34 -67l-382 404q-6 14 -6 40z" />
<glyph unicode="&#xad;" horiz-adv-x="721" d="M162 588q0 13 2 23.5t4 14.5l2 5h381q8 -14 8 -43q0 -13 -2 -23.5t-4 -14.5l-2 -5h-381q-8 14 -8 43z" />
<glyph unicode="&#xae;" d="M140 955q0 115 56 212.5t153 153.5t212 56t212 -56t153.5 -153.5t56.5 -212.5q0 -86 -33.5 -164t-89.5 -134.5t-134.5 -89.5t-164.5 -33q-115 0 -212 56t-153 153t-56 212zM191 955.5q0 -101.5 49.5 -187.5t134.5 -136t186 -50q77 0 145.5 29.5t118 79.5t79 119 t29.5 145.5t-29.5 145.5t-79 118.5t-118 79t-145.5 29.5q-101 0 -186 -49.5t-134.5 -135.5t-49.5 -187.5zM418 737v1v456h176q72 0 109.5 -34.5t37.5 -99.5q0 -96 -91 -123l118 -196q-10 -9 -27 -9q-8 0 -15.5 1.5t-10.5 2.5l-3 2l-116 193h-128v-193q-10 -6 -23 -6h-7 t-5.5 0.5t-5 1.5t-4 1.5l-3 1t-2.5 0.5zM468 975h126q50 0 71.5 21.5t21.5 63.5q0 23 -5 39t-15.5 27.5t-28.5 17t-44 5.5h-126v-174z" />
<glyph unicode="&#xb4;" horiz-adv-x="453" d="M60 1338l226 300q29 2 55.5 -11t39.5 -35l-253 -292q-48 6 -68 38z" />
<glyph unicode="&#xb8;" horiz-adv-x="599" d="M99 -387q3 37 29 56l7 -3t16 -6.5t23.5 -8t30 -8t35 -6t38.5 -2.5q72 0 111 33t39 98q0 55 -36 84.5t-104 29.5h-65l-16 21l33 184l68 -10l-22 -127q115 0 170 -48t55 -136q0 -98 -59 -148t-174 -50q-46 0 -91 12t-67 23z" />
<glyph unicode="&#xbb;" horiz-adv-x="1000" d="M130 168l334 379l-334 378q1 20 10.5 38.5t23.5 27.5l381 -403q6 -14 6 -43q0 -7 -0.5 -14t-1.5 -11.5t-1.5 -8t-1.5 -5.5l-1 -1l-381 -404q-31 19 -34 67zM434 130l371 417l-371 416q1 20 11 39t25 30l418 -442q8 -16 8 -45q0 -11 -2 -22t-4 -15l-2 -5l-418 -443 q-33 24 -36 70z" />
<glyph unicode="&#x2c6;" horiz-adv-x="802" d="M116 1192l259 213h53l257 -213q-14 -44 -48 -53l-238 173l-233 -174q-38 14 -50 54z" />
<glyph unicode="&#x2da;" horiz-adv-x="696" d="M116 1247q0 67 33.5 117t85 74t111.5 24q45 0 86 -14t74.5 -40t53.5 -67.5t20 -93.5q0 -67 -32.5 -118t-85.5 -76t-117 -25q-101 0 -165 58.5t-64 160.5zM195 1247q0 -61 38.5 -103.5t111.5 -42.5q74 0 115 43.5t41 102.5q0 61 -41 102.5t-115 41.5q-73 0 -111.5 -42 t-38.5 -102z" />
<glyph unicode="&#x2dc;" horiz-adv-x="662" d="M97 1310q2 4 5.5 10t16.5 22t29 28.5t42.5 22.5t57.5 10q34 0 66 -11t52.5 -24t47.5 -24t52 -11q17 0 32 6t25.5 15t18.5 17.5t12 15.5l3 6q41 -14 47 -51q-2 -3 -5 -9.5t-15.5 -22t-27.5 -27.5t-42 -22t-58 -10q-34 0 -65.5 11t-52.5 24.5t-48 24.5t-52 11 q-17 0 -32 -6.5t-25 -15.5t-17.5 -17.5t-11.5 -15.5l-4 -6q-45 16 -51 49z" />
<glyph unicode="&#x401;" horiz-adv-x="1126" d="M207 0v1460h793q8 -24 8 -44q0 -22 -8 -50h-688v-579h586q8 -28 8 -45q0 -19 -8 -47h-586v-602h708q8 -28 8 -44q0 -21 -8 -49h-813zM408 1631v106q20 8 60 8q18 0 33.5 -2t21.5 -4l7 -2v-106q-21 -9 -62 -9q-18 0 -33 2t-21 4zM710 1631v106q20 8 60 8q18 0 33.5 -2 t21.5 -4l7 -2v-106q-21 -9 -62 -9q-18 0 -33 2t-21 4z" />
<glyph unicode="&#x410;" horiz-adv-x="1300" d="M41 8l557 1443q18 9 52 9q16 0 29.5 -2t18.5 -4l6 -3l557 -1443q-18 -8 -56 -8q-16 0 -29.5 2t-19.5 4l-7 2l-160 414h-683l-162 -414q-16 -8 -55 -8q-15 0 -27.5 2t-16.5 4zM339 515h616l-272 704q-11 29 -19 55t-11 38l-3 12h-4q-8 -43 -31 -105z" />
<glyph unicode="&#x411;" horiz-adv-x="1238" d="M207 0v1460h776q11 -19 11 -49q0 -13 -2.5 -24.5t-5.5 -17.5l-3 -5h-671v-543h412q188 0 299 -110.5t111 -296.5q0 -188 -111 -301t-299 -113h-517zM312 89h396q151 0 233.5 87.5t82.5 235.5q0 150 -82 235t-234 85h-396v-643z" />
<glyph unicode="&#x412;" horiz-adv-x="1269" d="M207 0v1460h491q61 0 113.5 -10.5t92 -29.5t71.5 -46.5t53.5 -60t35.5 -71.5t20.5 -80t6.5 -86q0 -49 -9.5 -93.5t-21 -75t-33 -59t-34.5 -43t-36.5 -31.5t-29 -20t-21.5 -12l14.5 -5.5t25.5 -11t31.5 -16.5t36.5 -25t35.5 -33.5t34 -45.5t27.5 -57t20 -71.5t7 -85.5 q0 -89 -25.5 -160t-77 -123t-135 -80t-194.5 -28h-499zM312 91h381q179 0 256 76t77 224q0 78 -20 134.5t-61 94t-104 55.5t-150 18h-379v-602zM312 783h365q304 0 304 293q0 69 -15.5 120.5t-50.5 91t-95.5 60t-146.5 20.5h-361v-585z" />
<glyph unicode="&#x413;" horiz-adv-x="1004" d="M207 8v1452h737q9 -19 9 -47q0 -13 -2 -25t-4 -18l-3 -6h-632v-1356q-18 -8 -53 -8q-15 0 -28 2t-19 4z" />
<glyph unicode="&#x414;" horiz-adv-x="1370" d="M41 93h123q69 86 107 245.5t58 405.5l54 716h734v-1367h158v-373q-24 -8 -48 -8q-19 0 -51 8v280h-1036v-280q-32 -8 -51 -8q-25 0 -48 8v373zM284 93h728v1279h-536l-46 -640q-32 -464 -146 -639z" />
<glyph unicode="&#x415;" horiz-adv-x="1126" d="M207 0v1460h793q8 -24 8 -44q0 -31 -8 -50h-688v-579h586q8 -24 8 -45q0 -29 -8 -47h-586v-602h708q8 -28 8 -44q0 -31 -8 -49h-813z" />
<glyph unicode="&#x416;" horiz-adv-x="1911" d="M47 8l491 762l-433 681q36 9 57 9q30 0 57 -9l412 -648h273v648q19 9 53 9q16 0 29 -2t18 -4l6 -3v-648h269l414 648q27 9 56 9t56 -9l-433 -677l495 -766q-22 -8 -62 -8q-18 0 -35 2t-25 4l-8 2l-454 704h-273v-704q-16 -8 -53 -8q-7 0 -13.5 0.5t-12 1t-10 1.5t-7.5 2 t-5.5 1.5t-3.5 0.5l-1 1v704h-283l-453 -704q-23 -8 -63 -8q-18 0 -32.5 2t-20.5 4z" />
<glyph unicode="&#x417;" horiz-adv-x="1106" d="M89 41q-1 24 7.5 47.5t25.5 35.5q160 -49 323 -49q111 0 192.5 22.5t130 64t71 95t22.5 120.5q0 79 -24.5 138.5t-63 94t-95 55.5t-110 28t-118.5 7h-109q-11 21 -11 47t11 46h109q369 0 369 304q0 90 -39 154t-119 99t-195 35q-81 0 -160.5 -13t-118.5 -26l-39 -13 q-43 25 -36 80q6 2 17.5 7t48.5 16.5t77 20t100.5 16t120.5 7.5q222 0 337.5 -101t115.5 -276q0 -61 -13 -113.5t-34.5 -88t-45.5 -63t-52 -45t-47.5 -27t-36.5 -14.5v-4q17 -4 36 -10.5t46.5 -21.5t52 -33.5t50.5 -49t44.5 -66t30 -86t11.5 -108.5q0 -67 -16.5 -124 t-55 -107.5t-97 -85.5t-146.5 -55.5t-200 -20.5q-63 0 -124 6.5t-103 15t-75 17.5t-49 15z" />
<glyph unicode="&#x418;" horiz-adv-x="1389" d="M207 8v1443q18 9 52 9q17 0 30.5 -2t18.5 -4l6 -3v-993q0 -83 -2.5 -163t-5.5 -118l-2 -37h4q7 23 43 97.5t83 153.5l628 1060q19 9 62 9q19 0 34 -2t20 -4l6 -3v-1443q-16 -8 -52 -8q-18 0 -31 2t-17 4l-5 2v981q0 51 0.5 96t1.5 77t2 59t2 44t2 29t1 17l1 5h-6 q-27 -75 -118 -235l-632 -1073q-1 0 -4 -1t-8.5 -2t-13 -2t-18 -2t-22.5 -1q-19 0 -34 2t-20 4z" />
<glyph unicode="&#x419;" horiz-adv-x="1389" d="M207 8v1443q18 9 52 9q17 0 30.5 -2t18.5 -4l6 -3v-993q0 -83 -2.5 -163t-5.5 -118l-2 -37h4q7 23 43 97.5t83 153.5l628 1060q19 9 62 9q19 0 34 -2t20 -4l6 -3v-1443q-16 -8 -52 -8q-18 0 -31 2t-17 4l-5 2v981q0 51 0.5 96t1.5 77t2 59t2 44t2 29t1 17l1 5h-6 q-27 -75 -118 -235l-632 -1073q-1 0 -4 -1t-8.5 -2t-13 -2t-18 -2t-22.5 -1q-19 0 -34 2t-20 4zM418 1780q15 45 52 59q3 -1 7 -4t18 -11t29.5 -15.5t38.5 -17t46.5 -16t52.5 -11t58 -4.5q38 0 78 8.5t69 20t52.5 23t35.5 19.5l12 8q38 -14 51 -59q-5 -4 -13.5 -11.5 t-38 -27t-61.5 -34t-82.5 -26.5t-102.5 -12t-102.5 11.5t-85 28t-61.5 32.5t-40 28z" />
<glyph unicode="&#x41a;" horiz-adv-x="1236" d="M207 8v1443q18 9 54 9q16 0 28.5 -2t17.5 -4l5 -3v-646h253l455 646q26 9 56 9q22 0 58 -9l-479 -683l537 -760q-20 -8 -60 -8q-18 0 -34.5 2t-23.5 4l-8 2l-499 704h-255v-704q-16 -8 -53 -8q-15 0 -28 2t-19 4z" />
<glyph unicode="&#x41b;" horiz-adv-x="1331" d="M39 41q0 18 8 42q6 0 22.5 -1t25.5 -1q22 1 37.5 4.5t39.5 19.5t42 43.5t40 81.5t39 128t33 187t26 256l52 659h722v-1452q-19 -8 -54 -8q-42 0 -52 8v1360h-523l-43 -571q-9 -122 -22.5 -225t-28.5 -179.5t-34 -138t-38 -103t-42 -72t-43.5 -48t-45 -27.5t-43.5 -13 t-43 -3q-32 0 -67 12q-8 24 -8 41z" />
<glyph unicode="&#x41c;" horiz-adv-x="1706" d="M207 8v1443q26 9 66 9q8 0 16 -0.5t14.5 -1t12.5 -1.5t10.5 -2t7.5 -2t5 -1l2 -1l417 -753q55 -97 82 -164h3q18 43 66 127q81 139 231.5 404.5t219.5 385.5q45 9 70 9q20 0 38 -2t25 -4l8 -3v-1443q-17 -8 -54 -8q-16 0 -29 2t-18 4l-5 2v1029q0 218 10 299h-6 q-5 -20 -33.5 -80t-69.5 -132l-416 -722q-16 -9 -40 -9q-11 0 -21.5 2t-14.5 5l-5 2l-400 720q-38 67 -67 130t-34 84h-6q14 -66 14 -308v-1020q-14 -8 -49 -8q-15 0 -27.5 2t-17.5 4z" />
<glyph unicode="&#x41d;" horiz-adv-x="1370" d="M207 8v1443q18 9 52 9q16 0 29 -2t18 -4l6 -3v-654h746v654q18 9 53 9h10.5t10 -0.5t8.5 -1.5t7.5 -1.5t6 -1.5t4.5 -1.5t3.5 -1t2.5 -0.5v-1v-1443q-17 -8 -53 -8q-18 0 -31 2t-18 4l-4 2v692h-746v-692q-18 -8 -53 -8q-17 0 -30 2t-18 4z" />
<glyph unicode="&#x41e;" horiz-adv-x="1378" d="M142 730q0 155 24.5 278.5t70.5 211.5t113.5 146.5t151.5 86t187 27.5q129 0 229 -44t171.5 -134t109.5 -234.5t38 -338t-37.5 -337.5t-109.5 -234t-171.5 -134t-229.5 -44t-229.5 44t-171.5 134t-109 234t-37 338zM255 730q0 -143 20 -254t56.5 -187t90.5 -125t120 -71 t147 -22t147 22t120.5 71.5t91 125t56.5 186.5t20 254t-20 254t-56.5 187t-91 125t-120 71t-147 22t-147.5 -22t-120 -71t-90.5 -125t-56.5 -187t-20 -254z" />
<glyph unicode="&#x41f;" horiz-adv-x="1345" d="M207 8v1452h932v-1452q-17 -8 -50 -8q-17 0 -31 2t-19 4l-5 2v1356h-720v-1356q-20 -8 -55 -8q-15 0 -28 2t-19 4z" />
<glyph unicode="&#x420;" horiz-adv-x="1213" d="M207 8v1452h501q189 0 297 -116.5t108 -309.5q0 -192 -108 -308t-297 -116h-396v-602q-16 -8 -51 -8q-17 0 -30.5 2t-18.5 4zM312 706h392q142 0 220 86.5t78 239.5q0 157 -78 245.5t-220 88.5h-392v-660z" />
<glyph unicode="&#x421;" horiz-adv-x="1130" d="M142 730q0 750 547 750q45 0 88 -3.5t76 -9.5t62 -13.5t49 -14.5t35 -13t22 -10l7 -3q0 -47 -34 -80q-13 6 -37.5 15t-100.5 24t-152 15q-84 0 -150.5 -19.5t-124 -66.5t-95.5 -121.5t-59.5 -188.5t-21.5 -263.5t21.5 -263t59 -187t95 -119t124 -64.5t151.5 -19 q83 0 161 13.5t115 27.5l36 14q31 -28 34 -83q-2 -2 -7 -4.5t-22.5 -9t-37 -13t-51.5 -14t-66.5 -13t-81 -9.5t-95.5 -4q-275 0 -411 186t-136 564z" />
<glyph unicode="&#x422;" horiz-adv-x="1080" d="M62 1413q0 12 2.5 24t4.5 18l2 5h939q8 -17 8 -47q0 -13 -2 -24.5t-4 -17.5l-2 -5h-412v-1358q-16 -8 -53 -8q-17 0 -30 2t-17 4l-5 2v1358h-422q-9 18 -9 47z" />
<glyph unicode="&#x423;" horiz-adv-x="1230" d="M49 1451q18 9 59 9q18 0 32.5 -2t20.5 -4l5 -3l449 -932q13 -30 29 -69.5t17 -43.5h4q4 7 18 47.5t27 71.5l362 926q17 9 54 9q16 0 29.5 -2t19.5 -4l5 -3l-414 -1060q-39 -101 -78.5 -172t-75 -113.5t-77.5 -66.5t-79 -31.5t-87 -7.5q-30 0 -57.5 3.5t-39.5 6.5l-13 4 q-8 16 -8 46.5t8 42.5q47 -8 84 -8t62 3t56.5 15t56 34.5t52 63t53.5 99.5h-27z" />
<glyph unicode="&#x424;" horiz-adv-x="1605" d="M108 762q0 127 32.5 224t89 158.5t139.5 100.5t175 55t204 16v156q18 8 53 8q15 0 28.5 -2t18.5 -4l5 -2v-156q113 0 205.5 -16t176 -55t140.5 -100.5t90 -158.5t33 -223.5t-33 -224t-90 -159.5t-140.5 -101t-176 -55t-205.5 -16v-199q-19 -8 -52 -8q-8 0 -14.5 0.5 t-12 1t-10 1.5t-7 2t-5 1.5t-3.5 0.5l-1 1v199q-112 0 -204 16t-175 55t-139.5 101t-89 159t-32.5 224zM217 762q0 -109 26 -191t71.5 -134t114.5 -84t145.5 -44.5t173.5 -12.5v933q-97 0 -173.5 -13t-145.5 -45t-114.5 -84t-71.5 -134t-26 -191zM853 296q61 0 112.5 5 t101.5 15.5t91.5 29t78 44.5t63.5 62t47 81t30 103t10 126q0 110 -26.5 192t-71.5 134t-114.5 84t-146.5 44.5t-175 12.5v-933z" />
<glyph unicode="&#x425;" horiz-adv-x="1213" d="M60 8l467 742l-446 701q20 9 65 9q7 0 15 -0.5t14 -1t11 -1.5t9 -2t6.5 -2t4.5 -1l1 -1l397 -623l406 623q35 9 60 9q26 0 62 -9l-457 -697l478 -744q-22 -10 -64 -10q-19 0 -35 2t-22 4l-6 2l-428 665l-416 -665q-32 -8 -60 -8q-30 0 -62 8z" />
<glyph unicode="&#x426;" horiz-adv-x="1408" d="M207 0v1451q16 9 52 9q16 0 29 -2t18 -4l6 -3v-1356h738v1356q16 9 53 9q7 0 13.5 -0.5t12 -1t10 -1.5t7.5 -2t5 -2t3 -1l1 -1v-1356h157v-375q-19 -8 -51 -8q-30 0 -48 8v280h-1006z" />
<glyph unicode="&#x427;" horiz-adv-x="1279" d="M126 1072v379q16 9 50 9q16 0 30 -2t19 -4l6 -3v-379q0 -105 20.5 -176t66.5 -113.5t112 -60.5t162 -18q43 0 86 4t78.5 10.5t67.5 14t57.5 16t43 14.5t30 11.5l12.5 5.5v671q18 9 53 9q7 0 13.5 -0.5t11.5 -1t9.5 -1.5t8 -2t5.5 -2t3 -1l1 -1v-1443q-18 -8 -52 -8 q-8 0 -15 0.5t-12 1t-9.5 1.5t-7.5 2t-5 1.5t-3 0.5l-1 1v673l-9 -3.5t-20.5 -7.5t-29.5 -9.5t-39 -11.5t-46.5 -12t-55 -11t-60.5 -9t-66.5 -6.5t-71.5 -2.5q-59 0 -108.5 6.5t-95.5 22t-82.5 40t-66.5 61t-49.5 84.5t-30 111t-10.5 139z" />
<glyph unicode="&#x428;" horiz-adv-x="1935" d="M207 0v1451q16 9 52 9q17 0 30 -2t18 -4l5 -3v-1356h603v1356q12 9 54 9q8 0 15 -0.5t12.5 -1t9.5 -1.5t7 -2t5 -2t3 -1l1 -1v-1356h602v1356q15 9 53 9q16 0 29.5 -2t18.5 -4l5 -3v-1451h-1523z" />
<glyph unicode="&#x429;" horiz-adv-x="1981" d="M207 0v1451q16 9 52 9q16 0 29 -2t18 -4l6 -3v-1356h603v1356q18 9 54 9q16 0 29 -2t18 -4l6 -3v-1356h602v1356q17 9 53 9q15 0 28.5 -2t18.5 -4l6 -3v-1356h156v-375q-19 -8 -50 -8q-29 0 -50 8v280h-1579z" />
<glyph unicode="&#x42a;" horiz-adv-x="1404" d="M54 1411q0 8 1 16.5t2 14t2.5 10t2.5 6.5v2h418v-637h410q126 0 219.5 -50t144 -142t50.5 -215q0 -188 -112.5 -302t-301.5 -114h-515v1364h-313q-8 18 -8 47zM480 93h398q150 0 232 86t82 235q0 148 -81.5 232t-232.5 84h-398v-637z" />
<glyph unicode="&#x42b;" horiz-adv-x="1741" d="M207 0v1451q16 9 54 9q16 0 28.5 -2t17.5 -4l5 -3v-628h410q125 0 219 -50t144.5 -142t50.5 -215q0 -188 -112.5 -302t-301.5 -114h-515zM312 93h398q150 0 232 86t82 235q0 148 -82 232t-232 84h-398v-637zM1430 8v1443q15 9 52 9q16 0 29.5 -2t18.5 -4l4 -3v-1443 q-15 -8 -52 -8q-16 0 -29 2t-18 4z" />
<glyph unicode="&#x42c;" horiz-adv-x="1236" d="M207 0v1451q16 9 54 9q16 0 28.5 -2t17.5 -4l5 -3v-628h410q125 0 219 -50t144.5 -142t50.5 -215q0 -188 -112.5 -302t-301.5 -114h-515zM312 93h398q150 0 232 86t82 235q0 148 -82 232t-232 84h-398v-637z" />
<glyph unicode="&#x42d;" horiz-adv-x="1177" d="M87 47q3 52 35 81q15 -6 42.5 -15t114.5 -23.5t175 -14.5q53 0 99 7t89 22t79 40t68 60t56 83t41.5 107.5t27 135.5t11.5 165h-579q-7 19 -7 47q0 13 2 25t4 17l1 5h577q-4 113 -21 203.5t-47.5 155.5t-70.5 111.5t-92.5 74.5t-110.5 40.5t-127 12.5q-81 0 -158.5 -13 t-114.5 -26l-37 -13q-34 29 -34 78q5 2 15 7t44.5 16.5t73 20t100 16t125.5 7.5q283 0 426 -188.5t143 -561.5q0 -750 -569 -750q-70 0 -134.5 7t-107.5 16.5t-76 19.5t-48 17z" />
<glyph unicode="&#x42e;" horiz-adv-x="1921" d="M207 8v1443q18 9 52 9q17 0 30.5 -2t18.5 -4l6 -3v-675h373q9 360 149 532t397 172q130 0 230 -44t171.5 -134t108.5 -234t37 -338q0 -156 -24 -279.5t-70 -211.5t-113 -146t-151.5 -85.5t-188.5 -27.5q-529 0 -546 703h-373v-675q-20 -8 -53 -8q-16 0 -29.5 2t-19.5 4z M799 730q0 -120 13.5 -216.5t39.5 -169t63 -125t86.5 -85t106 -48t125.5 -15.5q103 0 181 35.5t135.5 112.5t87 205t29.5 306q0 143 -19.5 254t-55.5 187t-90 125t-120 71t-148 22t-148 -22t-120 -71t-90.5 -125t-56 -187t-19.5 -254z" />
<glyph unicode="&#x42f;" horiz-adv-x="1258" d="M105 8l341 635q-142 30 -221 136.5t-79 266.5q0 188 108.5 301t296.5 113h501v-1452q-16 -8 -54 -8q-16 0 -29.5 2t-18.5 4l-6 2v623h-383l-334 -623q-24 -8 -63 -8q-17 0 -32 2t-21 4zM257 1046q0 -151 79.5 -235.5t218.5 -84.5h389v640h-389q-138 0 -218 -84.5 t-80 -235.5z" />
<glyph unicode="&#x430;" horiz-adv-x="1037" d="M101 294q0 152 94 232t283 80q153 0 292 -18v138q0 144 -63.5 208t-199.5 64q-70 0 -143 -13.5t-111 -26.5l-38 -14q-18 12 -27 33q-11 27 -6 47q7 2 18.5 6.5t48 15.5t74 19t91.5 15t105 7q86 0 148 -18t101.5 -51t62.5 -87t32 -116.5t9 -149.5v-657q-12 -8 -40 -8 q-12 0 -23 2t-15 4l-5 2l-17 170q-45 -95 -137.5 -146.5t-218.5 -51.5q-143 0 -229 83t-86 231zM209 294q0 -114 61.5 -170.5t171.5 -56.5q95 0 170 43.5t116.5 124t41.5 185.5v89q-7 1 -27.5 3t-38.5 3.5t-45 3.5t-52 4t-55 3t-57 1q-146 0 -216 -57t-70 -176z" />
<glyph unicode="&#x431;" horiz-adv-x="1153" d="M154 712q0 90 5.5 165t19 137t28.5 111t43 89t54 70t69 54.5t81 41.5t96.5 33t108.5 26.5t124 24.5q58 11 79 23t44 47q55 -3 75 -36q-12 -40 -30.5 -63t-52 -38t-93.5 -27q-87 -17 -135 -27.5t-111.5 -28.5t-96.5 -36t-74 -47t-61 -64.5t-41.5 -85t-31.5 -112.5 t-14 -143h8q39 98 131 157t238 59q96 0 170.5 -30.5t128.5 -94.5t83 -166.5t29 -239.5q0 -531 -428 -531q-45 0 -83 5t-77 16.5t-70.5 31t-61.5 49.5t-53 70t-42.5 95t-32 123t-19.5 154t-7 188zM278 511q0 -86 11 -154t32 -116.5t49.5 -83t65.5 -54.5t77 -29t87 -9 q58 0 104.5 13t88 44t69.5 81t44.5 128t16.5 180t-16.5 180t-44.5 128t-69.5 81.5t-88 44t-104.5 12.5q-47 0 -86 -8.5t-76.5 -27.5t-65.5 -53.5t-49.5 -82.5t-33 -117.5t-11.5 -156.5z" />
<glyph unicode="&#x432;" horiz-adv-x="1041" d="M174 0v1066h414q137 0 215.5 -71t78.5 -204q0 -87 -36.5 -149t-103.5 -93q89 -28 135 -96.5t46 -166.5q0 -139 -83 -212.5t-236 -73.5h-430zM276 85h314q110 0 167.5 51t57.5 152q0 100 -56 155.5t-169 55.5h-314v-414zM276 582h291q102 0 157.5 53.5t55.5 149.5 q0 98 -55 147t-158 49h-291v-399z" />
<glyph unicode="&#x433;" horiz-adv-x="808" d="M174 8v1058h572q8 -16 8 -44q0 -13 -2 -24t-4 -16l-2 -5h-470v-969q-13 -8 -51 -8q-17 0 -29.5 2t-16.5 4z" />
<glyph unicode="&#x434;" horiz-adv-x="1147" d="M52 85h90q44 55 73 165t46 334l39 482h633v-981h127v-336q-23 -8 -44 -8q-19 0 -51 8v251h-817v-251q-23 -8 -49 -8q-23 0 -47 8v336zM257 85h575v894h-445l-31 -403q-14 -193 -38 -305.5t-61 -185.5z" />
<glyph unicode="&#x435;" horiz-adv-x="1031" d="M124 540q0 140 30.5 246t87 171.5t133 97.5t172.5 32q179 0 276.5 -103.5t97.5 -277.5q0 -56 -6 -107t-11 -75l-6 -23h-669q10 -228 91.5 -327t248.5 -99q45 0 88 8t72 19t52 22t34 19l11 7q35 -22 42 -79q-4 -3 -13 -9.5t-39 -22t-64.5 -27.5t-90.5 -22t-116 -10 q-137 0 -231.5 63.5t-142 188t-47.5 308.5zM229 584h576q0 1 1 7.5t2.5 18t3 27t2.5 37t1 44.5q0 58 -15 107.5t-46 89.5t-84 62.5t-123 22.5q-143 0 -227 -102.5t-91 -313.5z" />
<glyph unicode="&#x436;" horiz-adv-x="1563" d="M49 10l365 553l-317 495q17 8 55 8q18 0 32.5 -2t20.5 -4l6 -2l292 -458h229v458q17 8 51 8q15 0 27.5 -2t17.5 -4l6 -2v-458h228l292 458q21 8 62 8q16 0 28.5 -2t17.5 -4l4 -2l-315 -495l366 -553q-19 -10 -62 -10q-11 0 -20.5 1t-16.5 2.5t-12 3t-7 2.5l-2 1l-335 505 h-228v-507q-16 -8 -51 -8q-15 0 -28 2t-18 4l-5 2v507h-229l-335 -505q-22 -10 -60 -10q-9 0 -17 0.5t-13.5 1.5t-10.5 2t-8.5 2t-5.5 2t-3 1z" />
<glyph unicode="&#x437;" horiz-adv-x="917" d="M83 35q0 49 31 77q11 -5 32.5 -12t90 -19t140.5 -12q166 0 240 56t74 167q0 103 -77 155t-219 52h-115q-11 18 -11 45q0 11 3 21.5t5 15.5l3 5h115q62 0 108.5 10t83.5 32.5t56.5 63t19.5 97.5q0 108 -65 159.5t-211 51.5q-66 0 -127.5 -9.5t-89.5 -19.5l-28 -10 q-32 22 -28 78q11 5 33.5 13t99.5 21.5t165 13.5q184 0 270 -75.5t86 -212.5q0 -196 -158 -254v-1q91 -30 139 -98t48 -160q0 -54 -11.5 -98t-41 -83.5t-76 -66.5t-119 -42.5t-168.5 -15.5q-39 0 -77 3t-66.5 8t-54.5 10.5t-43.5 11.5t-30.5 11t-20 8z" />
<glyph unicode="&#x438;" horiz-adv-x="1169" d="M174 8v1050q16 8 51 8q10 0 19 -0.5t14.5 -2t10 -2.5t5.5 -2l2 -1v-715q0 -52 -1.5 -103.5t-3.5 -77.5l-2 -26h4q32 63 88 148l523 774q16 8 55 8q18 0 32 -2t20 -4l5 -2v-1050q-19 -8 -52 -8q-14 0 -27 2t-19 4l-6 2v706q0 61 1 113t2.5 78t2.5 26h-6q1 -1 -4.5 -12 t-16.5 -30t-25.5 -42.5t-32 -51.5t-35.5 -54l-492 -733q-19 -8 -57 -8q-17 0 -30.5 2t-18.5 4z" />
<glyph unicode="&#x439;" horiz-adv-x="1169" d="M174 8v1050q16 8 51 8q10 0 19 -0.5t14.5 -2t10 -2.5t5.5 -2l2 -1v-715q0 -52 -1.5 -103.5t-3.5 -77.5l-2 -26h4q32 63 88 148l523 774q16 8 55 8q18 0 32 -2t20 -4l5 -2v-1050q-19 -8 -52 -8q-14 0 -27 2t-19 4l-6 2v706q0 211 6 217h-6q-39 -76 -93 -159l-513 -764 q-19 -8 -57 -8q-17 0 -30.5 2t-18.5 4zM312 1387q12 41 49 54q4 -3 11 -8.5t29.5 -19.5t47 -24.5t62 -19.5t75.5 -9t75 8.5t63 20.5t46.5 24t30.5 20l10 8q39 -10 48 -54q-3 -5 -10.5 -12.5t-33 -27t-54.5 -34.5t-76.5 -27.5t-98.5 -12.5t-98 12t-77.5 28.5t-54 33.5 t-34.5 28z" />
<glyph unicode="&#x43a;" horiz-adv-x="1008" d="M174 8v1050q16 8 51 8q15 0 28 -2t18 -4l5 -2v-458h211l316 458q22 8 60 8q17 0 30 -1.5t19 -2.5l5 -2l-341 -497l389 -553q-21 -10 -63 -10q-17 0 -32 2.5t-22 4.5l-6 3l-355 505h-211v-507q-17 -8 -51 -8q-16 0 -28.5 2t-17.5 4z" />
<glyph unicode="&#x43b;" horiz-adv-x="1116" d="M45 35q0 11 2 21l3 15l2 4q3 0 8 -0.5t20 -1.5t28 0q69 2 113 124t65 399l37 470h619v-1058q-17 -8 -50 -8q-7 0 -13.5 0.5t-11.5 1t-9.5 1.5t-7 2t-5 1.5t-3.5 0.5v1v971h-430l-31 -391q-10 -113 -23.5 -202t-28.5 -152t-34 -108t-37.5 -71.5t-43 -41.5t-46 -20 t-50.5 -5q-16 0 -32 2.5t-25 5.5l-9 2q-7 12 -7 37z" />
<glyph unicode="&#x43c;" horiz-adv-x="1360" d="M174 8v1050q20 8 55 8q17 0 31.5 -2t19.5 -4l6 -2l320 -555q25 -43 63 -122h4q37 77 63 122l336 555q23 8 58 8q15 0 29 -2t21 -4l6 -2v-1050q-14 -8 -48 -8q-8 0 -14.5 0.5t-11.5 1t-9 1.5t-7 2t-5 1.5t-3 0.5l-1 1v724q0 78 8 193h-4q-33 -75 -77 -151l-314 -517 q-13 -6 -31 -6q-8 0 -15.5 1.5t-11.5 3.5l-3 1l-296 507q-54 95 -78 159h-6q12 -81 12 -191v-724q-16 -8 -48 -8q-7 0 -13 0.5t-11 1t-9 1.5t-7 2t-5 1.5t-3 0.5z" />
<glyph unicode="&#x43d;" horiz-adv-x="1134" d="M174 8v1050q14 8 51 8q10 0 19 -0.5t14.5 -2t10 -2.5t5.5 -2l2 -1v-464h583v464q17 8 52 8q16 0 28.5 -2t17.5 -4l4 -2v-1050q-16 -8 -50 -8q-8 0 -14.5 0.5t-11.5 1t-9.5 1.5t-7.5 2t-5 1.5t-3 0.5l-1 1v497h-583v-497q-15 -8 -51 -8q-16 0 -28.5 2t-17.5 4z" />
<glyph unicode="&#x43e;" horiz-adv-x="1093" d="M126 533.5q0 148.5 28 255.5t83.5 172t132 95.5t178 30.5t178 -30.5t132 -95.5t83.5 -172t28 -255.5t-28 -255.5t-83.5 -172t-132 -95.5t-178 -30.5t-178 30.5t-132 95.5t-83.5 172t-28 255.5zM231 533.5q0 -105.5 14.5 -186t40.5 -133.5t66 -86.5t87.5 -48t108 -14.5 t108 14.5t87 48t66 86.5t40.5 133.5t14 186.5t-14 186t-40.5 133.5t-66 87t-87 47.5t-108 14t-108 -14t-87.5 -47.5t-66 -87t-40.5 -134t-14.5 -186z" />
<glyph unicode="&#x43f;" horiz-adv-x="1112" d="M174 8v1058h765v-1058q-14 -8 -49 -8q-7 0 -14 0.5t-12.5 1t-9.5 1.5t-7 2t-5.5 1.5t-3.5 0.5v1v969h-562v-969q-17 -8 -51 -8q-16 0 -28.5 2t-17.5 4z" />
<glyph unicode="&#x440;" d="M174 -489v1547q14 8 51 8q10 0 19 -0.5t14.5 -2t10 -2.5t5.5 -2l2 -1v-149q98 178 326 178q75 0 135 -17.5t109.5 -58t82.5 -104t51 -157.5t18 -216.5t-18 -216.5t-51 -157.5t-82.5 -103.5t-109.5 -58t-135 -18q-228 0 -326 178v-647q-15 -8 -51 -8q-17 0 -29.5 2 t-16.5 4zM276 406q0 -62 19.5 -121t55 -107.5t93.5 -78.5t128 -30q170 0 244 107.5t74 357t-74 357t-244 107.5q-56 0 -104 -19t-82.5 -51t-59 -74t-37 -88.5t-13.5 -94.5v-265z" />
<glyph unicode="&#x441;" horiz-adv-x="899" d="M124 533.5q0 269.5 110 411.5t315 142q73 0 134.5 -12t86.5 -24l25 -12q0 -55 -35 -80q-8 4 -23.5 10.5t-65 16.5t-102.5 10q-117 0 -193 -52t-111.5 -154t-35.5 -256q0 -233 85.5 -346t263.5 -113q55 0 105.5 11t73.5 21l23 11q33 -20 37 -79q-1 -1 -3.5 -2.5 t-10.5 -5.5t-17 -7.5t-24 -9t-30.5 -10t-36.5 -9t-42.5 -8t-48.5 -5.5t-55 -2q-205 0 -315 142t-110 411.5z" />
<glyph unicode="&#x442;" horiz-adv-x="881" d="M54 1022q0 6 1 12t2 10l2 8t2 6.5t2 4.5t2 2v1h754q11 -14 11 -44q0 -14 -3 -25.5t-6 -16.5l-2 -5h-326v-967q-15 -8 -51 -8q-17 0 -29.5 2t-16.5 4l-5 2v967h-326q-11 16 -11 47z" />
<glyph unicode="&#x443;" horiz-adv-x="1058" d="M58 1058q21 8 58 8q16 0 29.5 -2t19.5 -4l5 -2l308 -756q20 -51 38 -101t26 -75l7 -25h8q25 85 66 201l269 756q14 8 52 8q16 0 29.5 -2t18.5 -4l6 -2l-458 -1287q-25 -71 -48 -117t-55 -85.5t-74.5 -57.5t-99.5 -18q-26 0 -50.5 3.5t-36.5 7.5l-12 3q-8 24 -8 41 q0 29 10 44q37 -10 87 -10q63 0 106 46t86 167l74 207q-25 4 -37 10z" />
<glyph unicode="&#x444;" horiz-adv-x="1573" d="M128 534q0 280 84.5 416.5t280.5 136.5q62 0 122.5 -11t90.5 -22l30 -12v471q14 8 51 8q16 0 29 -2t17 -4l5 -2v-471q11 6 32 13.5t84.5 20t126.5 11.5q100 -1 170.5 -36.5t113 -106.5t61.5 -171.5t19 -238.5q0 -111 -12 -197t-38.5 -154t-69 -112.5t-103.5 -67.5 t-141 -23q-31 0 -61.5 3t-53.5 7.5t-44.5 9.5t-36.5 10.5t-26 10t-16 7.5l-5 3v-530q-14 -8 -51 -8q-16 0 -29 2t-18 4l-4 2v530q-2 -1 -5.5 -3t-16 -7t-26.5 -10t-35.5 -11t-44.5 -10t-53.5 -7t-61.5 -3q-100 0 -170.5 35t-113.5 107t-62 172.5t-19 239.5zM234 534 q0 -243 63 -354t212 -111q59 0 116.5 14t84.5 27l28 14v829q-1 0 -11 4.5t-30 11.5t-46 14t-64 12t-78 5q-76 0 -128.5 -28t-85 -87t-47 -144.5t-14.5 -206.5zM836 124q10 -6 29.5 -15t79.5 -24.5t119 -15.5q150 0 213 111.5t63 353.5t-63.5 354t-212.5 112 q-29 0 -57.5 -2.5t-50.5 -7t-41.5 -9.5t-33.5 -10t-24.5 -9t-15.5 -6.5l-5 -2.5v-829z" />
<glyph unicode="&#x445;" horiz-adv-x="990" d="M58 8l374 536l-361 514q18 8 57 8q18 0 33 -2t21 -4l6 -2l313 -441l308 441q14 8 54 8q11 0 21 -0.5t16.5 -2t11 -2.5t7.5 -2l2 -1l-364 -516l376 -534q-18 -8 -57 -8q-19 0 -34 2t-21 4l-6 2l-326 458l-319 -458q-16 -8 -58 -8q-16 0 -29 2t-19 4z" />
<glyph unicode="&#x446;" horiz-adv-x="1159" d="M174 0v1058q16 8 51 8q17 0 30.5 -2t17.5 -4l5 -2v-969h564v969q15 8 50 8q16 0 29.5 -2t17.5 -4l5 -2v-969h128v-340q-24 -8 -46 -8q-25 0 -49 8v251h-803z" />
<glyph unicode="&#x447;" horiz-adv-x="1053" d="M114 736v322q16 8 50 8q16 0 28.5 -2t17.5 -4l5 -2v-324q0 -122 64.5 -178.5t207.5 -56.5q96 0 170.5 24t120.5 53v482q15 8 52 8q16 0 28.5 -2t17.5 -4l4 -2v-1050q-14 -8 -50 -8q-8 0 -15 0.5t-12 1t-9 1.5t-7 2t-5 1.5t-3 0.5l-1 1v474q-121 -70 -304 -70 q-186 0 -273 82t-87 242z" />
<glyph unicode="&#x448;" horiz-adv-x="1600" d="M174 0v1058q14 8 51 8q10 0 19 -0.5t14.5 -2t10 -2.5t5.5 -2l2 -1v-969h472v969q14 8 51 8q16 0 29 -2t18 -4l5 -2v-969h475v969q15 8 51 8q16 0 29 -2t17 -4l5 -2v-1058h-1254z" />
<glyph unicode="&#x449;" horiz-adv-x="1641" d="M174 0v1058q14 8 51 8q10 0 19 -0.5t14.5 -2t10 -2.5t5.5 -2l2 -1v-969h472v969q14 8 51 8q16 0 29 -2t18 -4l5 -2v-969h475v969q15 8 51 8q16 0 29 -2t17 -4l5 -2v-969h127v-340q-23 -8 -46 -8q-25 0 -49 8v251h-1286z" />
<glyph unicode="&#x44a;" horiz-adv-x="1153" d="M56 1022q0 8 1.5 16t3.5 12.5t4 9.5t2 6h343v-458h342q144 0 224 -82.5t80 -221.5t-80 -221.5t-224 -82.5h-444v975h-241q0 1 -2 6t-4 9.5t-3.5 13t-1.5 18.5zM410 85h326q107 0 161 56t54 161t-54 163t-161 58h-326v-438z" />
<glyph unicode="&#x44b;" horiz-adv-x="1443" d="M174 0v1058q32 8 51 8q27 0 51 -8v-450h343q144 0 224 -82.5t80 -221.5t-80 -221.5t-224 -82.5h-445zM276 85h326q107 0 161 56t54 161t-54 163t-161 58h-326v-438zM1166 8v1050q32 8 53 8q19 0 50 -8v-1050q-32 -8 -52 -8q-19 0 -51 8z" />
<glyph unicode="&#x44c;" horiz-adv-x="1019" d="M174 0v1058q32 8 51 8q27 0 51 -8v-450h343q144 0 224 -82.5t80 -221.5t-80 -221.5t-224 -82.5h-445zM276 85h326q107 0 161 56t54 161t-54 163t-161 58h-326v-438z" />
<glyph unicode="&#x44d;" horiz-adv-x="917" d="M85 39q3 50 35 75q10 -5 29 -12t75 -19t111 -12q171 0 258.5 105.5t93.5 320.5h-432q-7 24 -7 42.5t7 42.5h430q-15 418 -342 418q-54 0 -104.5 -8.5t-74.5 -17.5l-24 -9q-30 27 -30 74q10 5 29.5 13t85 21.5t138.5 13.5q209 0 320.5 -142t111.5 -411t-112.5 -411.5 t-319.5 -142.5q-48 0 -95 6t-78.5 14.5t-56 17.5t-36.5 15z" />
<glyph unicode="&#x44e;" horiz-adv-x="1579" d="M174 8v1050q32 8 51 8q27 0 51 -8v-489h320q4 138 34.5 238t86.5 161.5t131.5 90t175.5 28.5q103 0 181 -30.5t134.5 -95.5t85 -172t28.5 -255q0 -119 -19 -212t-54.5 -157t-89 -105.5t-119.5 -60.5t-147 -19q-98 0 -173 27.5t-131 86t-87.5 155.5t-36.5 231h-320v-472 q-24 -8 -51 -8q-19 0 -51 8zM702 534q0 -89 10 -159.5t29.5 -121.5t47 -87.5t64.5 -58.5t78.5 -32t92.5 -10q61 0 109 14.5t89 48t68 86.5t41.5 133.5t14.5 186.5q0 88 -10 158.5t-30 122t-47 87.5t-64 58t-79 32t-92 10q-62 0 -110 -14t-88.5 -47.5t-67.5 -87t-41.5 -134 t-14.5 -185.5z" />
<glyph unicode="&#x44f;" horiz-adv-x="1051" d="M93 8l252 450q-51 15 -90 42.5t-65 65.5t-39 85t-13 101q0 143 86 228.5t244 85.5h410v-1058q-32 -8 -50 -8q-28 0 -52 8v434h-328l-235 -434q-32 -8 -65 -8q-23 0 -55 8zM244 752q0 -104 60.5 -164.5t179.5 -60.5h292v454h-292q-81 0 -135 -27.5t-79.5 -78t-25.5 -123.5 z" />
<glyph unicode="&#x451;" horiz-adv-x="1031" d="M124 540q0 140 30.5 246t87 171.5t133 97.5t172.5 32q179 0 276.5 -103.5t97.5 -277.5q0 -56 -6 -107t-11 -75l-6 -23h-669q10 -228 92 -328t248 -100q45 0 88 8t72 19t52 22t34 19l11 7q35 -24 42 -77q-4 -3 -13 -9.5t-39 -22t-64.5 -27.5t-90.5 -22t-116 -10 q-137 0 -231.5 63.5t-142 188t-47.5 308.5zM229 584h576q0 1 1 7.5t2.5 18t3 27t2.5 37t1 44.5q0 58 -15 107.5t-46 89.5t-84 62.5t-123 22.5q-143 0 -227 -102.5t-91 -313.5zM333 1310v108q20 8 60 8q11 0 21.5 -1t17.5 -2t12.5 -2.5t7.5 -2.5h2v-108q-20 -8 -61 -8 q-11 0 -21.5 0.5t-17.5 2t-12 2.5t-7 2zM635 1310v108q19 8 60 8q18 0 33.5 -2t21.5 -4l6 -2v-108q-21 -8 -61 -8q-18 0 -33 2t-21 4z" />
<glyph unicode="&#x2000;" horiz-adv-x="919" />
<glyph unicode="&#x2001;" horiz-adv-x="1839" />
<glyph unicode="&#x2002;" horiz-adv-x="919" />
<glyph unicode="&#x2003;" horiz-adv-x="1839" />
<glyph unicode="&#x2004;" horiz-adv-x="613" />
<glyph unicode="&#x2005;" horiz-adv-x="459" />
<glyph unicode="&#x2006;" horiz-adv-x="306" />
<glyph unicode="&#x2007;" horiz-adv-x="306" />
<glyph unicode="&#x2008;" horiz-adv-x="229" />
<glyph unicode="&#x2009;" horiz-adv-x="367" />
<glyph unicode="&#x200a;" horiz-adv-x="102" />
<glyph unicode="&#x2010;" horiz-adv-x="721" d="M162 588q0 13 2 23.5t4 14.5l2 5h381q8 -14 8 -43q0 -13 -2 -23.5t-4 -14.5l-2 -5h-381q-8 14 -8 43z" />
<glyph unicode="&#x2011;" horiz-adv-x="721" d="M162 588q0 13 2 23.5t4 14.5l2 5h381q8 -14 8 -43q0 -13 -2 -23.5t-4 -14.5l-2 -5h-381q-8 14 -8 43z" />
<glyph unicode="&#x2012;" horiz-adv-x="721" d="M162 588q0 13 2 23.5t4 14.5l2 5h381q8 -14 8 -43q0 -13 -2 -23.5t-4 -14.5l-2 -5h-381q-8 14 -8 43z" />
<glyph unicode="&#x2013;" horiz-adv-x="1126" d="M162 588q0 13 2 23.5t4 14.5l2 5h787q8 -14 8 -43q0 -13 -2 -23.5t-4 -14.5l-2 -5h-787q-8 14 -8 43z" />
<glyph unicode="&#x2014;" horiz-adv-x="1633" d="M162 588q0 13 2 23.5t4 14.5l2 5h1294q8 -14 8 -43q0 -13 -2 -23.5t-4 -14.5l-2 -5h-1294q-8 14 -8 43z" />
<glyph unicode="&#x2018;" horiz-adv-x="420" d="M140 1130v83q0 33 6 64.5t15.5 55.5t21.5 45t23.5 36t21 25.5t15.5 15.5l6 5l43 -32q-2 -3 -6.5 -7.5t-15.5 -21t-20 -35t-17.5 -49.5t-11.5 -64q9 0 17.5 -1t13.5 -2t9.5 -2t5.5 -1l2 -1v-114q-22 -8 -64 -8q-19 0 -35.5 2t-23.5 4z" />
<glyph unicode="&#x2019;" horiz-adv-x="406" d="M132 1153q2 3 6 7.5t15 21.5t19.5 35.5t17 49t11.5 63.5q-14 0 -25 2t-15 4l-5 2v113q20 9 63 9q19 0 35 -2t23 -4l7 -3v-81q0 -46 -11.5 -88.5t-27.5 -70.5t-32 -49t-27 -31l-12 -9z" />
<glyph unicode="&#x201a;" horiz-adv-x="441" d="M132 -176q2 2 6.5 7t15.5 21.5t19.5 35.5t17 49.5t10.5 62.5q-13 0 -24 2t-16 4l-5 2v114q22 8 65 8q19 0 35 -2t23 -4l7 -2v-81q0 -46 -11.5 -88.5t-27.5 -70.5t-32 -49t-27 -30l-12 -10z" />
<glyph unicode="&#x201c;" horiz-adv-x="579" d="M120 1128v81q0 33 6 65t15 56t20.5 45.5t23 36.5t21 25.5t15.5 15.5l6 5l44 -32q-2 -3 -6 -7.5t-14.5 -21.5t-19.5 -35.5t-17 -49t-11 -63.5q14 0 25 -2t15 -4l5 -3v-112q-21 -9 -66 -9q-18 0 -33.5 2t-22.5 4zM346 1128v81q0 46 11.5 88.5t27 70.5t31.5 49.5t27 31.5 l11 9l45 -32q-3 -3 -7 -7.5t-15 -21.5t-20 -35.5t-17 -49t-10 -63.5q8 0 16 -0.5t13 -2t8.5 -3t5.5 -2.5l1 -1v-112q-20 -9 -64 -9q-19 0 -35 2t-22 4z" />
<glyph unicode="&#x201d;" horiz-adv-x="634" d="M132 1153q2 3 6.5 7.5t15.5 21.5t19.5 35.5t17 49t10.5 63.5q-14 0 -25 2t-15 4l-5 2v113q20 9 65 9q19 0 34.5 -2t22.5 -4l6 -3v-81q0 -46 -11 -88.5t-27 -70.5t-32 -49t-27 -31l-11 -9zM358 1153q3 3 7 7.5t14.5 21.5t19.5 35.5t17.5 49t11.5 63.5q-9 0 -16.5 0.5 t-12.5 2t-9 3t-5 2.5h-2v113q21 9 65 9q19 0 34.5 -2t21.5 -4l7 -3v-81q0 -46 -11 -88.5t-27 -70.5t-31.5 -49t-26.5 -31l-11 -9z" />
<glyph unicode="&#x201e;" horiz-adv-x="670" d="M132 -176q2 2 6 7t15 21.5t19.5 35.5t17 49.5t11.5 62.5q-14 0 -25 2t-15 4l-5 2v114q20 8 65 8q19 0 34.5 -2t22.5 -4l6 -2v-81q0 -46 -11 -88.5t-27 -70.5t-32 -49t-27 -30l-11 -10zM363 -176q3 2 7 7t15 21.5t19.5 35.5t16.5 49.5t11 62.5q-14 0 -25 2t-16 4l-4 2v114 q21 8 65 8q19 0 35 -2t22 -4l6 -2v-81q0 -46 -11 -88.5t-27 -70.5t-31.5 -49t-26.5 -30l-11 -10z" />
<glyph unicode="&#x2022;" horiz-adv-x="603" d="M211 572q0 42 26 66.5t65 24.5q40 0 65.5 -24.5t25.5 -66.5q0 -40 -25.5 -65t-65.5 -25q-19 0 -35.5 6.5t-29 18t-19.5 28.5t-7 37z" />
<glyph unicode="&#x2026;" horiz-adv-x="1102" d="M156 8v114q22 8 65 8q19 0 35 -2t23 -4l7 -2v-114q-23 -8 -65 -8q-19 0 -35 2t-23 4zM489 8v114q20 8 62 8q19 0 35.5 -2t23.5 -4l7 -2v-114q-23 -8 -66 -8q-18 0 -34 2t-22 4zM819 8v114q21 8 63 8q19 0 35 -2t23 -4l6 -2v-114q-21 -8 -64 -8q-19 0 -35 2t-22 4z" />
<glyph unicode="&#x202f;" horiz-adv-x="367" />
<glyph unicode="&#x2039;" horiz-adv-x="685" d="M103 545q0 13 2 24.5t5 15.5l2 5l418 442q32 -20 35 -69l-370 -416l370 -417q-3 -50 -35 -70l-418 443q-9 16 -9 42z" />
<glyph unicode="&#x203a;" horiz-adv-x="685" d="M120 130l371 417l-371 416q3 48 36 69l418 -442q8 -16 8 -45q0 -11 -2 -22t-4 -15l-2 -5l-418 -443q-33 21 -36 70z" />
<glyph unicode="&#x205f;" horiz-adv-x="459" />
<glyph unicode="&#x20ac;" horiz-adv-x="1186" d="M112 482q-6 35 12 75h147q-4 78 -4 122q0 81 4 126h-159q-6 36 12 77h156q65 497 476 497q42 0 81 -3.5t68 -9t54.5 -12.5t42.5 -13.5t29 -12t18 -9.5l5 -3q-3 -48 -32 -74q-11 6 -32 14t-86.5 22t-133.5 14q-79 0 -140.5 -21t-112 -67.5t-84 -127t-48.5 -194.5h548 q6 -43 -14 -77h-544q-2 -41 -2 -128q0 -83 2 -120h474q8 -40 -13 -75h-453q12 -94 36 -165t58 -118t80 -76t97.5 -41.5t115.5 -12.5q74 0 142 12.5t99 24.5l31 12q29 -26 32 -75q-4 -3 -12.5 -7t-38 -15t-63.5 -19t-89 -15t-115 -7q-210 0 -328 124t-150 378h-166z" />
<glyph unicode="&#x2122;" horiz-adv-x="1275" d="M87 1436q0 16 4 24h412q6 -12 6 -24t-6 -27h-176v-527q-9 -6 -29 -6q-8 0 -14.5 1.5t-9.5 3.5l-3 1v527h-180q-4 16 -4 27zM610 882v571q10 7 33 7q9 0 30 -7l112 -218q38 -72 68 -148q33 78 72 142l114 224q11 7 31 7q10 0 18.5 -1.5t11.5 -3.5l3 -2v-571q-8 -6 -24 -6 q-8 0 -14.5 1.5t-9.5 3.5l-3 1v497q-34 -75 -63 -126l-111 -214q-9 -7 -27 -7q-8 0 -14 1.5t-9 3.5l-2 2l-106 214q-7 14 -17 32.5t-17 31.5t-15.5 30t-15.5 32q4 -71 4 -236v-261q-9 -6 -24 -6q-7 0 -13.5 1.5t-8.5 3.5z" />
<glyph unicode="&#x25fc;" horiz-adv-x="1064" d="M0 0v1064h1064v-1064h-1064z" />
</font>
</defs>
</svg>
