<svg xmlns="http://www.w3.org/2000/svg" width="50" height="50" viewBox="0 0 50 50"><defs><style>.a{fill:#05a3dd;}</style></defs><g transform="translate(-4.748 -2.549)"><path class="a" d="M6.2,36.2V62.928a6.055,6.055,0,0,0,6.14,5.923H49.285a6.055,6.055,0,0,0,6.14-5.923l0-26.729ZM37.227,53.11,26.609,59.193a.593.593,0,0,1-.886-.479L25.779,46.5a.591.591,0,0,1,.886-.479L37.228,52.1a.641.641,0,0,1,0,1.013Z" transform="translate(-0.677 -16.302)"/><path class="a" d="M14.112,24.962,9.471,20l-2.455.588a2.955,2.955,0,0,0-2.188,3.574l.694,2.88Z" transform="translate(0 -8.27)"/><path class="a" d="M30.789,20.561,26.1,15.6l-6.3,1.546,4.7,4.962Z" transform="translate(-6.646 -6.089)"/><path class="a" d="M48.834,16.161,44.193,11.2l-6.3,1.548,4.643,4.96Z" transform="translate(-14.639 -4.036)"/><path class="a" d="M66.889,11.763,62.194,6.8,55.9,8.347l4.643,4.962Z" transform="translate(-22.586 -1.984)"/><path class="a" d="M83.983,7.7l-.694-2.88a2.955,2.955,0,0,0-3.574-2.188L73.9,4.017l4.7,5.014Z" transform="translate(-30.517 0)"/></g></svg>