<svg xmlns="http://www.w3.org/2000/svg" width="346.022" height="47.076" viewBox="0 0 346.022 47.076"><defs><style>.a{fill:#fff;fill-rule:evenodd;}</style></defs><path class="a" d="M1115.137,10592.436l2.683,9.729h-1.247l-.777-2.981h-3.185l-.777,2.981h-1.247l2.691-9.729Zm-2.307,5.806h2.746l-1.271-4.942h-.2Zm12.758.471a4.451,4.451,0,0,1-.816,2.511,2.7,2.7,0,0,1-2.479,1.178,3,3,0,0,1-2.715-1.57,8.41,8.41,0,0,1,0-7.061,3.007,3.007,0,0,1,2.715-1.57,2.877,2.877,0,0,1,2.424,1.178,4.285,4.285,0,0,1,.816,2.432h-1.192a3.051,3.051,0,0,0-.494-1.727,1.876,1.876,0,0,0-1.569-.862,1.974,1.974,0,0,0-1.844,1.255,7.225,7.225,0,0,0-.431,2.824,6.137,6.137,0,0,0,.432,2.746,1.948,1.948,0,0,0,1.86,1.335,1.836,1.836,0,0,0,1.561-.785,3.619,3.619,0,0,0,.526-1.884h1.208Zm8.183,0a4.509,4.509,0,0,1-.816,2.51,2.7,2.7,0,0,1-2.479,1.179,3.016,3.016,0,0,1-2.723-1.57,8.41,8.41,0,0,1,0-7.061,3.021,3.021,0,0,1,2.723-1.569,2.877,2.877,0,0,1,2.424,1.177,4.282,4.282,0,0,1,.816,2.432h-1.193a3,3,0,0,0-.5-1.727,1.857,1.857,0,0,0-1.562-.862,1.975,1.975,0,0,0-1.844,1.255,7.227,7.227,0,0,0-.431,2.824,6.139,6.139,0,0,0,.431,2.746,1.949,1.949,0,0,0,1.86,1.335,1.835,1.835,0,0,0,1.561-.785,3.618,3.618,0,0,0,.526-1.884h1.208Zm2.126-4.943a3.039,3.039,0,0,1,5.319,0,6.962,6.962,0,0,1,.738,3.531,6.751,6.751,0,0,1-.737,3.53,3.039,3.039,0,0,1-5.32,0,6.748,6.748,0,0,1-.738-3.53,6.961,6.961,0,0,1,.737-3.531Zm.871,6.277a1.867,1.867,0,0,0,3.578,0,6.7,6.7,0,0,0,.4-2.746,7.588,7.588,0,0,0-.4-2.823,1.9,1.9,0,0,0-3.578,0,7.583,7.583,0,0,0-.4,2.825,6.7,6.7,0,0,0,.4,2.746Zm8-7.61v8.787h3.8v-8.787h1.153v8.787h.965l-.259.941h-6.81v-9.729h1.153Zm8.183,0V10598l3.8-3.138v-2.432h1.146v9.729h-1.146v-5.962l-3.8,3.138v2.824H1151.8v-9.729Zm10.749,0,2.683,9.729h-1.247l-.777-2.981h-3.186l-.777,2.981h-1.247l2.691-9.729h1.859Zm-2.307,5.806h2.746l-1.271-4.942h-.2Zm7.391-5.806v8.787h3.8v-8.787h1.153v8.787h.973l-.267.941h-6.8v-9.729Zm8.183,0V10598l3.8-3.138v-2.432h1.153v9.729h-1.153v-5.962l-3.8,3.138v2.824h-1.145v-9.729Zm12.577,9.729H1188.4v-4.158h-1.514a1.592,1.592,0,0,0-.816.157,3.178,3.178,0,0,0-.471.784l-1.208,3.217h-1.216l1.365-3.53a1.6,1.6,0,0,1,.793-1.02,2.762,2.762,0,0,1-.777-.47,2.666,2.666,0,0,1-.745-1.885,2.815,2.815,0,0,1,1.122-2.432,3.66,3.66,0,0,1,1.993-.393h2.621v9.729Zm-2.691-8.787a2.228,2.228,0,0,0-1.326.392,1.861,1.861,0,0,0-.526,1.491,1.947,1.947,0,0,0,.526,1.412,1.8,1.8,0,0,0,1.3.392h1.569v-3.687h-1.546Zm13.966-.941v9.729h-1.153v-8.708h-3.8v8.708h-1.145v-9.729h6.1Zm4.3,0a3.63,3.63,0,0,1,2.244.628,3.085,3.085,0,0,1,.949,2.431,2.772,2.772,0,0,1-.989,2.354,3.135,3.135,0,0,1-2.2.628h-1.2v3.688h-1.153v-9.729h2.354Zm-1.2,5.1h1.185a1.794,1.794,0,0,0,2.04-2.04,2.119,2.119,0,0,0-.541-1.647,2.209,2.209,0,0,0-1.5-.47h-1.185v4.158Zm6.441-3.767a3.046,3.046,0,0,1,5.328,0,6.977,6.977,0,0,1,.73,3.53,6.764,6.764,0,0,1-.73,3.53,3.045,3.045,0,0,1-5.328,0,6.849,6.849,0,0,1-.73-3.531,7.062,7.062,0,0,1,.729-3.53Zm.879,6.277a1.867,1.867,0,0,0,3.578,0,6.7,6.7,0,0,0,.4-2.746,7.583,7.583,0,0,0-.4-2.823,1.9,1.9,0,0,0-3.578,0,7.414,7.414,0,0,0-.4,2.823,6.559,6.559,0,0,0,.4,2.747Zm7.893-6.591a5.741,5.741,0,0,1,6.967,0,5.371,5.371,0,0,1,1.318,3.846,5.167,5.167,0,0,1-1.318,3.844,5.461,5.461,0,0,1-6.967,0,5.168,5.168,0,0,1-1.318-3.845,5.371,5.371,0,0,1,1.318-3.845Zm.581.941a4.725,4.725,0,0,0-.706,2.9,5.2,5.2,0,0,0,.706,2.9,2.733,2.733,0,0,0,2.369,1.178v-8.16a2.917,2.917,0,0,0-2.37,1.178Zm3.437,6.983a2.745,2.745,0,0,0,2.369-1.177,5.211,5.211,0,0,0,.706-2.9,4.725,4.725,0,0,0-.706-2.9,2.915,2.915,0,0,0-2.369-1.176Zm11.243-8h-4.158v3.216h4.049v.942h-4.049v3.608h4.26v1.02h-5.406v-9.729h5.3v.941Zm8.277,5.335a4.391,4.391,0,0,1-.816,2.511,2.7,2.7,0,0,1-2.479,1.178,3.007,3.007,0,0,1-2.715-1.57,8.41,8.41,0,0,1,0-7.061,3.006,3.006,0,0,1,2.715-1.57,2.868,2.868,0,0,1,2.424,1.178,4.226,4.226,0,0,1,.816,2.432h-1.185a3.06,3.06,0,0,0-.5-1.727,1.871,1.871,0,0,0-1.569-.862,1.974,1.974,0,0,0-1.844,1.255,7.243,7.243,0,0,0-.423,2.824,6.257,6.257,0,0,0,.424,2.747,1.948,1.948,0,0,0,1.859,1.334,1.855,1.855,0,0,0,1.569-.785,3.706,3.706,0,0,0,.526-1.884h1.2Zm8.183,0a4.451,4.451,0,0,1-.816,2.511,2.7,2.7,0,0,1-2.479,1.178,3,3,0,0,1-2.715-1.57,8.41,8.41,0,0,1,0-7.061,3.006,3.006,0,0,1,2.715-1.57,2.877,2.877,0,0,1,2.424,1.178,4.285,4.285,0,0,1,.816,2.432h-1.193a3.049,3.049,0,0,0-.494-1.727,1.876,1.876,0,0,0-1.569-.862,1.974,1.974,0,0,0-1.844,1.255,7.38,7.38,0,0,0-.431,2.824,6.253,6.253,0,0,0,.432,2.746,1.948,1.948,0,0,0,1.859,1.335,1.86,1.86,0,0,0,1.569-.785,3.7,3.7,0,0,0,.526-1.884h1.2Zm2.817-6.276V10598l3.805-3.138v-2.432h1.146v9.729h-1.146v-5.962l-3.805,3.138v2.824h-1.146v-9.729Zm7.352,1.333a3.046,3.046,0,0,1,5.328,0,6.979,6.979,0,0,1,.729,3.53,6.764,6.764,0,0,1-.73,3.53,3.045,3.045,0,0,1-5.328,0,6.849,6.849,0,0,1-.73-3.531,7.062,7.062,0,0,1,.729-3.53Zm.879,6.277a1.861,1.861,0,0,0,3.57,0,6.5,6.5,0,0,0,.408-2.746,7.358,7.358,0,0,0-.408-2.825,1.9,1.9,0,0,0-3.57,0,7.349,7.349,0,0,0-.408,2.824A6.5,6.5,0,0,0,1261.9,10600.046Zm8-7.61v4.079h3.8v-4.079h1.146v9.729H1273.7v-4.629h-3.8v4.629h-1.153v-9.729Zm10.741,0,2.691,9.729h-1.247l-.777-2.981h-3.186l-.777,2.981H1276.1l2.683-9.729h1.859Zm-2.3,5.806h2.746l-1.279-4.942h-.2Zm9.941-5.806,2.511,9.729h-1.247l-2.111-8.865h-.188l-2.11,8.865h-1.248l2.511-9.729Zm4.911,0v3.608h1.138a3.6,3.6,0,0,1,2.424.706,3.039,3.039,0,0,1,.973,2.354,2.933,2.933,0,0,1-1,2.434,3.241,3.241,0,0,1-2.322.627h-2.362v-9.729h1.153Zm0,8.787h1.161a2.146,2.146,0,0,0,1.64-.472,2.257,2.257,0,0,0,.549-1.646,1.986,1.986,0,0,0-.565-1.568,2.042,2.042,0,0,0-1.7-.471H1293.2v4.158Zm7.281-8.787v4.079h3.8v-4.079h1.145v9.729h-1.145v-4.629h-3.8v4.629h-1.153v-9.729Zm8.042,0v3.608h1.138a3.6,3.6,0,0,1,2.424.706,3.013,3.013,0,0,1,.973,2.354,2.953,2.953,0,0,1-1,2.433,3.272,3.272,0,0,1-2.331.627h-2.361v-9.729h1.153Zm0,8.787h1.161a2.146,2.146,0,0,0,1.64-.472,2.263,2.263,0,0,0,.557-1.646,2,2,0,0,0-.573-1.57,2.041,2.041,0,0,0-1.7-.469h-1.083v4.158Zm7.3-8.787v9.729h-1.153v-9.729Zm2.636,0,2.016,4.157h.118l2.024-4.157h1.224l-2.33,4.629,2.495,5.1h-1.287l-2.11-4.629h-.133l-2.11,4.629h-1.287l2.479-5.1-2.314-4.629h1.216Zm-205.492,18.986v5.57l3.8-3.138v-2.433h1.153v9.808h-1.153v-6.041l-3.8,3.138v2.9h-1.146v-9.808Zm8.042,0v4.158h3.8v-4.158h1.153v9.808h-1.153v-4.629h-3.8v4.629h-1.145v-9.808Zm12.138,0v1.1h-2.4v8.708H1129.6v-8.708h-2.385v-1.1Zm6.559,1.021h-4.158v3.138h4.048v1.021h-4.048v3.608h4.253v1.02H1134.4v-9.807h5.312v1.02Zm4.119-1.021a3.291,3.291,0,0,1,2.244.707,3.46,3.46,0,0,1-.039,4.785,3.137,3.137,0,0,1-2.205.628h-1.208v3.688h-1.146v-9.808h2.354Zm-1.208,5.179h1.193a2.231,2.231,0,0,0,1.5-.47,2.779,2.779,0,0,0,0-3.3,2.136,2.136,0,0,0-1.5-.392h-1.193Zm7.148-5.179v4.158h3.8v-4.158h1.146v9.808h-1.146v-4.629h-3.8v4.629h-1.153v-9.808Zm12.2,1.021h-4.158v3.138h4.041v1.021h-4.041v3.608h4.252v1.02h-5.406v-9.807h5.312v1.02Zm7-1.021v1.1h-2.393v8.708h-1.153v-8.708h-2.385v-1.1Zm5.131,5.649v.942h-3.876v-.942h3.876Zm8.042-5.649v9.808H1181v-8.787h-3.8v8.787h-1.153v-9.808Zm4.307,0a3.291,3.291,0,0,1,2.244.707,3.041,3.041,0,0,1,.942,2.354,3,3,0,0,1-.988,2.432,3.116,3.116,0,0,1-2.2.629h-1.208v3.688h-1.153v-9.808h2.362Zm-1.208,5.179h1.193a2.23,2.23,0,0,0,1.5-.47,2.779,2.779,0,0,0,0-3.3,2.146,2.146,0,0,0-1.5-.392h-1.193Zm11.3-4.158h-4.158v3.138h4.049v1.021h-4.049v3.608h4.253v1.02h-5.4v-9.807h5.3v1.02Zm5.728-1.021,2.495,8.788h.306v1.02h-7.454v-1.02h.306l2.487-8.788h1.859Zm-3.162,8.788h4.464l-2.134-7.846h-.2Zm13.315-8.788v9.808h-1.153v-8.787h-3.8v8.787h-1.145v-9.808h6.1Zm4.3,0a3.291,3.291,0,0,1,2.244.707,3.46,3.46,0,0,1-.039,4.785,3.137,3.137,0,0,1-2.205.629h-1.208v3.688h-1.146v-9.808h2.354Zm-1.208,5.179h1.193a2.209,2.209,0,0,0,1.5-.47,2.779,2.779,0,0,0,0-3.3,2.136,2.136,0,0,0-1.5-.392h-1.193Zm7.148-5.179v5.57l3.8-3.138v-2.433h1.146v9.808h-1.146v-6.041l-3.8,3.138v2.9H1221.5v-9.808Zm8.042,0v4.158h3.8v-4.158h1.145v9.808H1234.5v-4.629h-3.8v4.629h-1.153v-9.808Zm8.042,0v5.57l3.8-3.138v-2.433h1.153v9.808h-1.153v-6.041l-3.8,3.138v2.9h-1.153v-9.808Zm8.128,0,2.338,3.217,2.346-3.217h1.232v9.808h-1.153v-8.316l-2.424,3.3-2.424-3.3v8.316h-1.145v-9.808Zm11.714,0,2.691,9.808h-1.248l-.777-2.981h-3.185l-.777,2.981h-1.248l2.683-9.808h1.859Zm-2.3,5.885h2.746l-1.279-5.021h-.2Zm11.479-5.885v1.1h-2.393v8.708h-1.153v-8.708h-2.385v-1.1Zm6.559,1.021h-4.158v3.138h4.048v1.021h-4.048v3.608h4.252v1.02h-5.4v-9.807h5.3v1.02Zm5.469-1.021,2.5,9.808h-1.248l-2.1-8.865h-.2l-2.1,8.865H1275.4l2.511-9.808h1.883Zm9.07,1.021H1284.7v3.138h4.041v1.021H1284.7v3.608h4.253v1.02h-5.406v-9.807h5.312v1.02Zm2.911-1.021v5.57l3.8-3.138v-2.433h1.153v9.808h-1.153v-6.041l-3.8,3.138v2.9h-1.153v-9.808Zm.683-2.039a.944.944,0,0,0,.29.549,1.032,1.032,0,0,0,.9.394,1.1,1.1,0,0,0,.942-.394,1.864,1.864,0,0,0,.243-.549h1a3.329,3.329,0,0,1-.651,1.176,2.137,2.137,0,0,1-1.538.551,2.058,2.058,0,0,1-1.53-.55,3.232,3.232,0,0,1-.659-1.177h1Zm-268.652,6.747H1005.09v5.335h28.826L1013,10587.1l-25.35,41.976h7.65l17.7-30.834Zm-17.183-33.895-28.631,46.84h6.978l28-46.84Zm67.467,16.006a8.724,8.724,0,0,0-8.7-8.709h-20.2v17.34h20.2A8.708,8.708,0,0,0,1074.087,10598.241Zm-23.436,2.9v-6.042h14.735a3.1,3.1,0,0,1,0,6.2h-14.727Zm31.2-2.746a16.459,16.459,0,0,0-16.461-16.4H1037.7v30.05l-18.336-29.814h-6.34l24.675,41.349v.078H1005.09v5.413h38.076v-41.661h22.22a10.963,10.963,0,0,1,10.8,10.984,10.812,10.812,0,0,1-10.8,10.749h-20.2v19.929h5.469V10614.8l.157-.078h14.578a16.324,16.324,0,0,0,11.063-4.237v18.595h5.469v-30.521h-.071v-.157Zm2.087-16.4v47.075h5.469V10582Z" transform="translate(-977.989 -10582)"/></svg>