<svg xmlns="http://www.w3.org/2000/svg" width="112.693" height="47.929" viewBox="0 0 112.693 47.929"><defs><style>.a{fill:#05a3dd;fill-rule:evenodd;}</style></defs><path class="a" d="M964.329,9045.692H945.4v5.458h29.154l-21.152-35.02-25.644,42.756h7.74l17.9-31.434Zm-17.378-34.512-28.959,47.7h7.058l28.317-47.7Zm68.243,16.274a8.81,8.81,0,0,0-8.806-8.8H985.961v17.629h.063l20.365.01a8.833,8.833,0,0,0,8.8-8.834Zm-23.7,3.017v-6.206l.138-.01h14.76a3.19,3.19,0,0,1,3.08,3.2,3.12,3.12,0,0,1-3.08,3.126h-14.9Zm31.551-2.851a16.677,16.677,0,0,0-16.652-16.661h-28v30.566l-18.546-30.346h-6.418l24.962,42.11v.083l-32.983-.009v5.523l32.983-.009h5.532v-42.415h22.471a11.13,11.13,0,0,1,10.926,11.156,10.963,10.963,0,0,1-10.927,10.963H986.177l-.218-.008v20.3h5.532v-14.514l.159-.084h14.74a16.573,16.573,0,0,0,11.194-4.335v18.933h5.532v-31.047h-.074v-.212Zm2.111-16.661v47.92h5.532v-47.92Z" transform="translate(-917.993 -9010.96)"/></svg>