<svg xmlns="http://www.w3.org/2000/svg" width="379.586" height="51.98" viewBox="0 0 379.586 51.98"><defs><style>.a{fill:#3b42a7;fill-rule:evenodd;}</style></defs><path class="a" d="M1068.44,9022.46l2.95,10.8h-1.37l-.85-3.33h-3.5l-.85,3.33h-1.37l2.95-10.8Zm-2.53,6.45h3.02l-1.4-5.49h-.22Zm14,.52a4.978,4.978,0,0,1-.9,2.75,3.09,3.09,0,0,1-2.72,1.33,3.389,3.389,0,0,1-2.98-1.76,9.326,9.326,0,0,1,0-7.78,3.265,3.265,0,0,1,2.98-1.75,3.127,3.127,0,0,1,2.66,1.28,4.867,4.867,0,0,1,.9,2.73h-1.31a3.406,3.406,0,0,0-.55-1.95,2.034,2.034,0,0,0-1.72-.951,2.167,2.167,0,0,0-2.02,1.431,7.665,7.665,0,0,0-.47,3.09,7.12,7.12,0,0,0,.47,3.059,2.2,2.2,0,0,0,2.04,1.441,1.912,1.912,0,0,0,1.72-.9,3.953,3.953,0,0,0,.57-2.021h1.33Zm8.97,0a4.971,4.971,0,0,1-.89,2.75,3.1,3.1,0,0,1-2.72,1.331,3.377,3.377,0,0,1-2.981-1.762,9.228,9.228,0,0,1,0-7.779,3.254,3.254,0,0,1,2.98-1.751,3.122,3.122,0,0,1,2.66,1.281,4.781,4.781,0,0,1,.89,2.73h-1.3a3.483,3.483,0,0,0-.55-1.949,2.046,2.046,0,0,0-1.72-.951,2.159,2.159,0,0,0-2.02,1.43,7.489,7.489,0,0,0-.47,3.09,6.974,6.974,0,0,0,.47,3.06,2.2,2.2,0,0,0,2.04,1.441,1.9,1.9,0,0,0,1.71-.9,3.908,3.908,0,0,0,.58-2.021h1.32Zm2.34-5.49a3.33,3.33,0,0,1,5.83,0,9.889,9.889,0,0,1,0,7.839,3.321,3.321,0,0,1-5.83,0A9.891,9.891,0,0,1,1091.22,9023.939Zm.95,6.97a2.061,2.061,0,0,0,3.93,0,10.961,10.961,0,0,0,0-6.149,2.065,2.065,0,0,0-3.93,0,10.965,10.965,0,0,0,0,6.15Zm8.78-8.45v9.69h4.17v-9.69h1.26v9.69h1.06l-.29,1.11h-7.46v-10.8h1.26Zm8.98,0v6.14l4.16-3.46v-2.68h1.26v10.8h-1.26v-6.63l-4.16,3.45v3.18h-1.26v-10.8Zm11.79,0,2.94,10.8h-1.36l-.86-3.33h-3.49l-.85,3.33h-1.37l2.95-10.8Zm-2.53,6.45h3.01l-1.4-5.49h-.21Zm8.11-6.45v9.69h4.17v-9.69h1.26v9.69h1.06l-.29,1.11h-7.46v-10.8h1.26Zm8.98,0v6.14l4.16-3.46v-2.68h1.26v10.8h-1.26v-6.63l-4.16,3.45v3.18h-1.26v-10.8Zm13.79,10.8h-1.26v-4.66h-1.66a1.541,1.541,0,0,0-.89.22,2.738,2.738,0,0,0-.52.89l-1.32,3.55h-1.34l1.5-3.97a2.028,2.028,0,0,1,.87-1.12,2.073,2.073,0,0,1-.85-.51,2.841,2.841,0,0,1-.82-2.1,2.9,2.9,0,0,1,1.23-2.6,3.684,3.684,0,0,1,2.19-.5h2.87Zm-2.95-9.72a2.16,2.16,0,0,0-1.46.42,2.04,2.04,0,0,0,1.43,3.62h1.72v-4.04h-1.69Zm15.32-1.08v10.8h-1.26v-9.69h-4.17v9.69h-1.26v-10.8h6.69Zm4.72,0a3.587,3.587,0,0,1,2.46.74,3.374,3.374,0,0,1,1.04,2.64,3.273,3.273,0,0,1-1.08,2.649,3.537,3.537,0,0,1-2.42.682h-1.32v4.09h-1.27v-10.8Zm-1.32,5.66h1.3a2.322,2.322,0,0,0,1.65-.49,2.377,2.377,0,0,0,.59-1.81,1.937,1.937,0,0,0-2.24-2.281h-1.3Zm7.07-4.18a3.339,3.339,0,0,1,5.84,0,10,10,0,0,1,0,7.841,3.329,3.329,0,0,1-5.84,0,9.889,9.889,0,0,1,0-7.839Zm.96,6.97a2.054,2.054,0,0,0,3.92,0,10.961,10.961,0,0,0,0-6.149,2.058,2.058,0,0,0-3.92,0,10.966,10.966,0,0,0,0,6.151Zm8.65-7.28a5.047,5.047,0,0,1,3.84-1.35,4.993,4.993,0,0,1,3.81,1.35,6.894,6.894,0,0,1,0,8.46,4.956,4.956,0,0,1-3.81,1.35,5.006,5.006,0,0,1-3.84-1.35,6.933,6.933,0,0,1,0-8.459Zm.64,1.01a5.453,5.453,0,0,0-.77,3.21,5.722,5.722,0,0,0,.77,3.2,3.062,3.062,0,0,0,2.6,1.332v-9.071a3.2,3.2,0,0,0-2.6,1.331Zm3.77,7.74a3.042,3.042,0,0,0,2.6-1.33,5.74,5.74,0,0,0,.78-3.2,5.358,5.358,0,0,0-.78-3.21,3.164,3.164,0,0,0-2.6-1.33Zm12.34-8.84h-4.56v3.5h4.44v1.08h-4.44v4.01h4.67v1.13h-5.93v-10.8h5.82v1.08Zm9.08,5.89a4.973,4.973,0,0,1-.89,2.751,3.1,3.1,0,0,1-2.73,1.329,3.4,3.4,0,0,1-2.98-1.759,9.327,9.327,0,0,1,0-7.781,3.276,3.276,0,0,1,2.98-1.75,3.127,3.127,0,0,1,2.67,1.28,4.776,4.776,0,0,1,.89,2.729h-1.3a3.483,3.483,0,0,0-.55-1.949,2.045,2.045,0,0,0-1.72-.952,2.159,2.159,0,0,0-2.02,1.431,7.485,7.485,0,0,0-.47,3.09,6.974,6.974,0,0,0,.47,3.059,2.192,2.192,0,0,0,2.03,1.44,1.9,1.9,0,0,0,1.72-.9,3.913,3.913,0,0,0,.579-2.021h1.32Zm8.98,0a4.979,4.979,0,0,1-.9,2.751,3.078,3.078,0,0,1-2.72,1.328,3.389,3.389,0,0,1-2.98-1.76,9.325,9.325,0,0,1,0-7.779,3.276,3.276,0,0,1,2.98-1.75,3.123,3.123,0,0,1,2.66,1.279,4.862,4.862,0,0,1,.9,2.73h-1.31a3.408,3.408,0,0,0-.55-1.95,2.031,2.031,0,0,0-1.71-.951,2.176,2.176,0,0,0-2.03,1.431,7.669,7.669,0,0,0-.47,3.09,7.119,7.119,0,0,0,.47,3.059,2.2,2.2,0,0,0,2.04,1.441,1.9,1.9,0,0,0,1.72-.9,4.019,4.019,0,0,0,.58-2.021h1.32Zm3.09-6.97v6.14l4.17-3.46v-2.68h1.26v10.8h-1.26v-6.63l-4.17,3.45v3.18h-1.26v-10.8Zm8.06,1.48a3.339,3.339,0,0,1,5.84,0,9.891,9.891,0,0,1,0,7.842,3.329,3.329,0,0,1-5.84,0,10,10,0,0,1,0-7.84Zm.96,6.97a2.061,2.061,0,0,0,3.93,0,10.96,10.96,0,0,0,0-6.149,2.065,2.065,0,0,0-3.93,0,10.964,10.964,0,0,0,0,6.15Zm8.78-8.45v4.55h4.17v-4.55h1.26v10.8h-1.26v-5.12h-4.17v5.12h-1.26v-10.8Zm11.79,0,2.95,10.8h-1.37l-.85-3.33h-3.5l-.85,3.33h-1.37l2.95-10.8Zm-2.53,6.45h3.02l-1.4-5.49h-.22Zm10.91-6.45,2.75,10.8h-1.37l-2.31-9.81h-.21l-2.31,9.81h-1.37l2.75-10.8h2.07Zm5.39,0v4.03h1.24a3.9,3.9,0,0,1,2.67.77,3.353,3.353,0,0,1,1.06,2.62,3.25,3.25,0,0,1-1.09,2.66,3.608,3.608,0,0,1-2.56.721h-2.58v-10.8h1.26Zm0,9.72h1.28a2.055,2.055,0,0,0,2.4-2.32,2.306,2.306,0,0,0-.63-1.77,2.45,2.45,0,0,0-1.87-.539h-1.18Zm7.98-9.72v4.55h4.17v-4.55h1.26v10.8h-1.26v-5.12h-4.17v5.12h-1.26v-10.8Zm8.83,0v4.03h1.25a3.891,3.891,0,0,1,2.66.77,3.353,3.353,0,0,1,1.06,2.62,3.223,3.223,0,0,1-1.09,2.66,3.606,3.606,0,0,1-2.56.721h-2.58v-10.8h1.26Zm0,9.72h1.28a2.056,2.056,0,0,0,2.4-2.32,2.332,2.332,0,0,0-.62-1.77,2.479,2.479,0,0,0-1.88-.541h-1.18Zm8.01-9.72v10.8h-1.26v-10.8Zm2.9,0,2.2,4.61h.14l2.22-4.61h1.34l-2.56,5.09,2.74,5.71h-1.41l-2.32-5.18h-.15l-2.31,5.18h-1.41l2.72-5.71-2.54-5.09h1.34Zm-225.43,21.01v6.14l4.17-3.45v-2.69h1.26v10.8h-1.26v-6.63l-4.17,3.45v3.18h-1.26v-10.8h1.26Zm8.82,0v4.55h4.17v-4.55h1.26v10.8h-1.26v-5.12h-4.17v5.12h-1.26v-10.8Zm13.31,0v1.14h-2.63v9.66h-1.26v-9.66h-2.62v-1.14Zm7.2,1.08h-4.56v3.51h4.44v1.07h-4.44v4.02h4.66v1.12h-5.93v-10.8h5.83v1.08Zm4.52-1.08a3.635,3.635,0,0,1,2.46.74,3.374,3.374,0,0,1,1.03,2.639,3.274,3.274,0,0,1-1.08,2.661,3.534,3.534,0,0,1-2.41.67h-1.33v4.09h-1.26v-10.8Zm-1.33,5.66h1.31a2.3,2.3,0,0,0,1.64-.49,2.334,2.334,0,0,0,.6-1.81,1.945,1.945,0,0,0-2.24-2.279h-1.31Zm7.84-5.66v4.55h4.17v-4.55h1.26v10.8h-1.26v-5.12h-4.17v5.12h-1.26v-10.8Zm13.38,1.08h-4.56v3.51h4.44v1.07h-4.44v4.02h4.67v1.12h-5.93v-10.8h5.82v1.08Zm7.69-1.08v1.14h-2.63v9.66h-1.27v-9.66h-2.61v-1.14Zm5.63,6.22v1.02h-4.26v-1.02Zm8.82-6.22v10.8h-1.26v-9.69h-4.17v9.69h-1.26v-10.8h6.69Zm4.72,0a3.636,3.636,0,0,1,2.46.74,3.374,3.374,0,0,1,1.03,2.639,3.294,3.294,0,0,1-1.07,2.661,3.582,3.582,0,0,1-2.42.67h-1.32v4.09h-1.27v-10.8Zm-1.32,5.66h1.3a2.332,2.332,0,0,0,1.65-.489,2.378,2.378,0,0,0,.59-1.811,1.937,1.937,0,0,0-2.24-2.281h-1.3Zm12.39-4.58h-4.56v3.51h4.44v1.07h-4.44v4.02h4.67v1.12h-5.93v-10.8h5.82v1.08Zm6.29-1.08,2.73,9.64h.34v1.16h-8.18v-1.16h.33l2.74-9.64h2.04Zm-3.47,9.64h4.9l-2.35-8.65h-.21Zm14.6-9.64v10.8h-1.26v-9.69h-4.17v9.69h-1.26v-10.8h6.69Zm4.72,0a3.636,3.636,0,0,1,2.46.74,3.392,3.392,0,0,1,1.04,2.641,3.305,3.305,0,0,1-1.08,2.66,3.577,3.577,0,0,1-2.42.67h-1.32v4.09h-1.27v-10.8Zm-1.32,5.66h1.3a2.336,2.336,0,0,0,1.65-.49,3.056,3.056,0,0,0,0-3.61,2.412,2.412,0,0,0-1.65-.48h-1.3v4.58Zm7.83-5.66v6.14l4.17-3.45v-2.69h1.26v10.8h-1.26v-6.63l-4.17,3.45v3.18h-1.26v-10.8h1.26Zm8.82,0v4.55h4.17v-4.55h1.26v10.8h-1.26v-5.12h-4.17v5.12h-1.26v-10.8Zm8.83,0v6.14l4.16-3.45v-2.69h1.26v10.8h-1.26v-6.63l-4.16,3.45v3.18h-1.26v-10.8h1.26Zm8.91,0,2.57,3.52,2.57-3.52h1.35v10.8h-1.26v-9.21l-2.66,3.7-2.66-3.7v9.21h-1.26v-10.8h1.35Zm12.86,0,2.95,10.8h-1.37l-.85-3.33h-3.5l-.85,3.33h-1.37l2.95-10.8Zm-2.53,6.45h3.01l-1.4-5.49h-.21Zm12.6-6.45v1.14h-2.63v9.66h-1.27v-9.66h-2.61v-1.14Zm7.19,1.08h-4.56v3.51h4.44v1.07h-4.44v4.02h4.67v1.12h-5.93v-10.8h5.82v1.08Zm6-1.08,2.75,10.8h-1.37l-2.31-9.81h-.21l-2.31,9.81h-1.37l2.75-10.8h2.07Zm9.94,1.08h-4.56v3.51h4.44v1.07h-4.44v4.02h4.67v1.12h-5.93v-10.8h5.82v1.08Zm3.2-1.08v6.14l4.17-3.45v-2.69h1.26v10.8h-1.26v-6.63l-4.17,3.45v3.18h-1.26v-10.8h1.26Zm.75-2.31a1.3,1.3,0,0,0,.32.66,1.23,1.23,0,0,0,.99.441,1.269,1.269,0,0,0,1.03-.471,1.509,1.509,0,0,0,.27-.63h1.1a3.233,3.233,0,0,1-.72,1.31,2.255,2.255,0,0,1-1.68.67,2.2,2.2,0,0,1-1.68-.68,3.264,3.264,0,0,1-.73-1.3h1.1Zm-294.713,7.47H947.721v5.92h31.618l-22.94-37.98-27.812,46.37h8.394l19.418-34.09ZM949.4,9011.2l-31.407,51.73h7.655l30.711-51.73Zm74.012,17.65a9.555,9.555,0,0,0-9.55-9.55H991.706v19.12h.068l22.087.01a9.581,9.581,0,0,0,9.549-9.581Zm-25.708,3.27v-6.73l.15-.01h16.008a3.459,3.459,0,0,1,3.34,3.47,3.383,3.383,0,0,1-3.34,3.39H997.707Zm34.218-3.09a18.087,18.087,0,0,0-18.06-18.07H983.494v33.15L963.38,9011.2h-6.96l27.072,45.67v.09l-35.771-.01v5.99l35.771-.01h6v-46h24.371a12.071,12.071,0,0,1,11.85,12.1,11.89,11.89,0,0,1-11.851,11.891H991.941l-.236-.01v22.02h6v-15.74l.172-.09h15.986a17.984,17.984,0,0,0,12.14-4.7v20.531h6v-33.67h-.08v-.23Zm2.29-18.07v51.97h6v-51.97Z" transform="translate(-917.993 -9010.96)"/></svg>