<svg xmlns="http://www.w3.org/2000/svg" width="70.5" height="70.5" viewBox="0 0 70.5 70.5"><defs><style>.a{fill:#599b6d;stroke:#fff;stroke-width:0.5px;}</style></defs><g transform="translate(-0.75 -0.75)"><path class="a" d="M62.311,15.123a7.9,7.9,0,1,0-9.7.014,12.311,12.311,0,0,0-1.969.816,24.767,24.767,0,0,0-29.284,0,12.269,12.269,0,0,0-1.969-.816,7.9,7.9,0,1,0-9.7-.014A12.439,12.439,0,0,0,1,26.968v11.29A5.652,5.652,0,0,0,6.645,43.9V66.484a4.5,4.5,0,0,0,7.9,2.956,4.5,4.5,0,0,0,7.9-2.956V56.8a24.757,24.757,0,0,0,27.1,0v9.681a4.5,4.5,0,0,0,7.9,2.956,4.5,4.5,0,0,0,7.9-2.956V43.9A5.652,5.652,0,0,0,71,38.258V26.968A12.439,12.439,0,0,0,62.311,15.123ZM51.806,8.9a5.645,5.645,0,1,1,5.645,5.645A5.652,5.652,0,0,1,51.806,8.9ZM55.525,47.29H47.539a30.887,30.887,0,0,0,1.985-10.161h9A22.4,22.4,0,0,1,55.525,47.29Zm-23.473-33.5a27.773,27.773,0,0,0-6.608,8.664H17.978A22.578,22.578,0,0,1,32.053,13.787ZM36,58.391a24.616,24.616,0,0,1-8.012-8.843H44.012A24.616,24.616,0,0,1,36,58.391Zm-9.1-11.1a28.341,28.341,0,0,1-2.162-10.161H47.267A28.365,28.365,0,0,1,45.1,47.29ZM24.735,34.871A28.365,28.365,0,0,1,26.9,24.71H45.1a28.341,28.341,0,0,1,2.162,10.161Zm3.254-12.419A24.616,24.616,0,0,1,36,13.609a24.616,24.616,0,0,1,8.012,8.843ZM16.475,24.71h7.987a30.887,30.887,0,0,0-1.985,10.161h-9A22.4,22.4,0,0,1,16.475,24.71Zm-3,12.419h9A30.829,30.829,0,0,0,24.462,47.29H16.476a22.373,22.373,0,0,1-3-10.161ZM25.445,49.548a27.756,27.756,0,0,0,6.608,8.664,22.575,22.575,0,0,1-14.075-8.664Zm21.111,0h7.466a22.575,22.575,0,0,1-14.075,8.664A27.773,27.773,0,0,0,46.555,49.548Zm2.968-14.677A30.829,30.829,0,0,0,47.539,24.71h7.987a22.4,22.4,0,0,1,3,10.161ZM46.555,22.452a27.756,27.756,0,0,0-6.608-8.664,22.575,22.575,0,0,1,14.075,8.664ZM8.9,8.9a5.645,5.645,0,1,1,5.645,5.645A5.652,5.652,0,0,1,8.9,8.9Zm2.258,59.839A2.26,2.26,0,0,1,8.9,66.484V24.71H6.645V41.645a3.391,3.391,0,0,1-3.387-3.387V26.968A10.174,10.174,0,0,1,13.419,16.806h2.258a10.17,10.17,0,0,1,3.735.725,24.78,24.78,0,0,0-5.993,28.8V66.484A2.26,2.26,0,0,1,11.161,68.742Zm9.032-2.258a2.258,2.258,0,1,1-4.516,0V50.255a25.039,25.039,0,0,0,4.516,4.891Zm33.871,2.258a2.26,2.26,0,0,1-2.258-2.258V55.146a25.071,25.071,0,0,0,4.516-4.891V66.484A2.26,2.26,0,0,1,54.065,68.742ZM68.742,38.258a3.391,3.391,0,0,1-3.387,3.387V24.71H63.1V66.484a2.258,2.258,0,0,1-4.516,0V46.328a24.78,24.78,0,0,0-5.993-28.8,10.147,10.147,0,0,1,3.735-.725h2.258A10.174,10.174,0,0,1,68.742,26.968Z"/><path class="a" d="M29.233,8.9l-3.4-1.362A29.4,29.4,0,0,1,44.159,8.626l.833-2.1A31.663,31.663,0,0,0,25.326,5.337l1.148-2.869-2.1-.839L21.7,8.322,28.393,11Z" transform="translate(2.671 0.081)"/><path class="a" d="M37.423,56.169l3.39,1.356a29.636,29.636,0,0,1-18.267-1.059l-.829,2.1a31.673,31.673,0,0,0,19.611,1.169L40.181,62.6l2.1.839,2.677-6.694L38.262,54.07Z" transform="translate(2.673 6.848)"/><path class="a" d="M24,35h2.258v2.258H24Z" transform="translate(2.968 4.387)"/><path class="a" d="M28,35h2.258v2.258H28Z" transform="translate(3.484 4.387)"/><path class="a" d="M32,35h2.258v2.258H32Z" transform="translate(4 4.387)"/><path class="a" d="M38,27h2.258v2.258H38Z" transform="translate(4.774 3.355)"/><path class="a" d="M34,27h2.258v2.258H34Z" transform="translate(4.258 3.355)"/><path class="a" d="M30,27h2.258v2.258H30Z" transform="translate(3.742 3.355)"/></g></svg>