<svg xmlns="http://www.w3.org/2000/svg" width="70.5" height="70.5" viewBox="0 0 70.5 70.5"><defs><style>.a{fill:#599b6d;stroke:#fff;stroke-width:0.5px;}</style></defs><g transform="translate(-0.75 -0.75)"><path class="a" d="M60.4,42.857a6.77,6.77,0,1,0-7.775.821,8.8,8.8,0,0,0-4.039,6.66l-.455,5.5H42.387a3.387,3.387,0,1,0,0,6.774H46.9v4.516H66.1V51.062A8.776,8.776,0,0,0,60.4,42.857Zm-4.463-9.6a4.516,4.516,0,1,1-4.516,4.516A4.521,4.521,0,0,1,55.935,33.258Zm7.9,31.613H49.161V62.613h.392a5.616,5.616,0,0,0,5.621-5.134l.755-8.312-2.249-.2-.755,8.312a3.37,3.37,0,0,1-3.372,3.08H42.387a1.129,1.129,0,1,1,0-2.258H48.13a2.249,2.249,0,0,0,2.249-2.063l.456-5.51a6.513,6.513,0,0,1,13,.537Z" transform="translate(4.903 3.871)"/><path class="a" d="M24.71,55.839l-5.742.009-.456-5.51a8.8,8.8,0,0,0-4.039-6.66A6.78,6.78,0,1,0,6.7,42.857a8.776,8.776,0,0,0-5.7,8.2V67.129H20.194V62.613H24.71a3.387,3.387,0,1,0,0-6.774ZM11.161,33.258a4.516,4.516,0,1,1-4.516,4.516A4.521,4.521,0,0,1,11.161,33.258Zm13.548,27.1H17.544a3.37,3.37,0,0,1-3.372-3.08l-.755-8.312-2.249.2.755,8.312a5.616,5.616,0,0,0,5.621,5.134h.392v2.258H3.258V51.062a6.513,6.513,0,0,1,13-.537l.456,5.519A2.246,2.246,0,0,0,18.966,58.1H24.71a1.129,1.129,0,1,1,0,2.258Z" transform="translate(0 3.871)"/><path class="a" d="M45.23,41.833c.117-.256.226-.514.323-.773l2.964-.811V34.01L45.552,33.2c-.1-.259-.2-.517-.323-.773l1.524-2.671-1.792-1.792a3.3,3.3,0,0,0,.167-.995,3.375,3.375,0,0,0-1.774-2.959L46.111,18.5a12.19,12.19,0,0,0,1.183-3.948h1.712l4.026,6.711,3.725-6.21a1.034,1.034,0,0,1,1.92.533v8h2.258v-8a3.292,3.292,0,0,0-6.115-1.694L53.032,16.87,50.284,12.29H47.346A12.1,12.1,0,0,0,35.3,1h-.659A12.1,12.1,0,0,0,22.589,12.29H19.651L16.9,16.87l-1.788-2.981A3.292,3.292,0,0,0,9,15.583v8h2.258v-8a1.034,1.034,0,0,1,1.92-.532L16.9,21.259l4.026-6.711h1.712A12.173,12.173,0,0,0,23.824,18.5l2.756,5.512a3.375,3.375,0,0,0-1.774,2.959,3.312,3.312,0,0,0,.167,1l-1.792,1.792,1.524,2.671c-.117.256-.226.514-.323.773l-2.964.81v6.239l2.964.81c.1.26.205.517.323.773L23.182,44.5l4.412,4.412,2.671-1.524c.256.117.514.226.773.323l.81,2.964h6.239l.81-2.964c.26-.1.517-.205.773-.323l2.671,1.524L46.754,44.5Zm-5.746-4.7a4.516,4.516,0,1,1-8.843-1.3,7.861,7.861,0,0,0,8.652,0A4.509,4.509,0,0,1,39.484,37.129Zm-11.29-11.29H41.742a1.129,1.129,0,0,1,0,2.258H28.194a1.129,1.129,0,0,1,0-2.258Zm6.774,9.032a5.656,5.656,0,0,1-5.531-4.516H40.5A5.656,5.656,0,0,1,34.968,34.871ZM24.806,13.09a9.842,9.842,0,0,1,9.832-9.832H35.3a9.833,9.833,0,0,1,8.794,14.229l-3.047,6.093H36.1V17.775a4.516,4.516,0,1,0-2.258,0v5.805H28.891l-3.047-6.093A9.894,9.894,0,0,1,24.806,13.09Zm10.161,2.588a2.258,2.258,0,1,1,2.258-2.258A2.26,2.26,0,0,1,34.968,15.677Zm7,30.423-2.234-1.275-.549.289a9.016,9.016,0,0,1-1.548.646l-.593.183-.675,2.476H33.571l-.677-2.476L32.3,45.76a9.012,9.012,0,0,1-1.549-.646l-.548-.289L27.971,46.1,26,44.125,27.27,41.89l-.289-.549a9.017,9.017,0,0,1-.646-1.548l-.183-.593-2.475-.675V35.732l2.476-.677.183-.593a9.012,9.012,0,0,1,.646-1.549l.289-.548L26,30.132l.339-.339a3.377,3.377,0,0,0,.79.371,7.864,7.864,0,0,0,1.726,4.059,6.774,6.774,0,1,0,12.23,0,7.869,7.869,0,0,0,1.727-4.059,3.4,3.4,0,0,0,.79-.371l.339.339-1.274,2.233.289.548a9.064,9.064,0,0,1,.646,1.549l.183.593,2.476.677v2.793l-2.476.676L43.6,39.8a9,9,0,0,1-.646,1.548l-.289.549,1.275,2.234Z" transform="translate(1.032)"/><path class="a" d="M53,27h2.258v2.258H53Z" transform="translate(6.71 3.355)"/><path class="a" d="M53,23h2.258v2.258H53Z" transform="translate(6.71 2.839)"/><path class="a" d="M9,27h2.258v2.258H9Z" transform="translate(1.032 3.355)"/><path class="a" d="M9,23h2.258v2.258H9Z" transform="translate(1.032 2.839)"/></g></svg>