<svg xmlns="http://www.w3.org/2000/svg" width="70.5" height="70.5" viewBox="0 0 70.5 70.5"><defs><style>.a{fill:#599b6d;stroke:#fff;stroke-width:0.5px;}</style></defs><g transform="translate(-0.75 -0.75)"><path class="a" d="M62.919,35a3.956,3.956,0,0,0-3.952,3.952V46.89a3.4,3.4,0,0,1-2.908,3.353l-.709.1a6.774,6.774,0,1,0-10.83,0l-.709-.1A3.4,3.4,0,0,1,40.9,46.89V38.952a3.952,3.952,0,1,0-7.9,0v8.913a10.177,10.177,0,0,0,8.24,9.978l.793.152v8.618H57.839V58l.793-.152a10.177,10.177,0,0,0,8.24-9.978V38.952A3.956,3.956,0,0,0,62.919,35ZM49.935,41.774a4.516,4.516,0,1,1-4.516,4.516A4.521,4.521,0,0,1,49.935,41.774Zm14.677,6.09a7.916,7.916,0,0,1-6.41,7.761l-2.623.5v8.225H44.29V56.13l-2.623-.506a7.914,7.914,0,0,1-6.41-7.76V38.952a1.694,1.694,0,1,1,3.387,0V46.89a5.674,5.674,0,0,0,4.847,5.589l4.025.575,2.3.006c.04,0,.077.006.116.006h1.129v0l1.129,0,4.185-.587a5.674,5.674,0,0,0,4.847-5.589V38.952a1.694,1.694,0,1,1,3.387,0Z" transform="translate(4.129 4.387)"/><path class="a" d="M61.968,23.581V1H59.511L43.859,6.691l15.85,5.284V23.581H45.8L33.643,32.333a5.6,5.6,0,0,0-1.554-2.969L29.226,26.5V19.988a14.019,14.019,0,0,0,9.522-7.833l2.545-5.583A3.943,3.943,0,0,0,37.66,1a3.8,3.8,0,0,0-3.415,2.111l-2.4,4.81a7.869,7.869,0,0,1-3.788,3.658,6.778,6.778,0,1,0-10.6.754,10.182,10.182,0,0,0-8.62,5.821L3.623,29.325a3.9,3.9,0,0,0,3.585,5.546,3.792,3.792,0,0,0,3.435-2.2L15.677,21.76V44.3a6.751,6.751,0,0,0-3.157,10.433l-.709-.1A3.4,3.4,0,0,1,8.9,51.277V43.339a3.952,3.952,0,1,0-7.9,0v8.913A10.177,10.177,0,0,0,9.24,62.23l.793.152V71H25.839V62.382l.793-.152a10.177,10.177,0,0,0,8.24-9.978V43.339a3.952,3.952,0,1,0-7.9,0v7.938a3.4,3.4,0,0,1-2.908,3.353l-.709.1a6.754,6.754,0,0,0-2.705-10.26l25.88-18.634H71V23.581ZM50.721,6.6,59.71,3.33V9.6ZM22.452,3.258a4.516,4.516,0,1,1-4.516,4.516,4.521,4.521,0,0,1,4.516-4.516Zm-7.5,14.677L8.592,31.728a1.553,1.553,0,0,1-1.441.885,1.643,1.643,0,0,1-1.482-2.334l5.213-11.17a7.933,7.933,0,0,1,7.161-4.561h6.73A10.1,10.1,0,0,0,33.86,8.93l2.4-4.81a1.573,1.573,0,0,1,1.452-.863,1.677,1.677,0,0,1,1.671,1.688,1.657,1.657,0,0,1-.15.69l-2.545,5.583a11.762,11.762,0,0,1-8.78,6.732l-.944.157v9.327l3.525,3.525a3.406,3.406,0,0,1,.992,2.395v.532L28.1,36.325V33.275l-4.049-4.049H21.323V41.2l-3.387,2.439V17.935ZM25.839,37.951l-2.258,1.626V31.951l2.258,2.258Zm-1.46,18.914a5.674,5.674,0,0,0,4.847-5.589V43.339a1.694,1.694,0,1,1,3.387,0v8.913a7.916,7.916,0,0,1-6.41,7.761l-2.623.5v8.225H12.29V60.517l-2.623-.506a7.914,7.914,0,0,1-6.41-7.76V43.339a1.694,1.694,0,1,1,3.387,0v7.938a5.674,5.674,0,0,0,4.847,5.589l4.025.575,2.3.006c.04,0,.077.006.116.006h1.129v0l1.129,0Zm-1.927-6.187a4.516,4.516,0,1,1-4.516-4.516A4.521,4.521,0,0,1,22.452,50.677Z"/><path class="a" d="M43,25h2.258v2.258H43Z" transform="translate(5.419 3.097)"/><path class="a" d="M47,25h2.258v2.258H47Z" transform="translate(5.935 3.097)"/><path class="a" d="M51,25h2.258v2.258H51Z" transform="translate(6.452 3.097)"/></g></svg>