<svg xmlns="http://www.w3.org/2000/svg" width="65.983" height="70.5" viewBox="0 0 65.983 70.5"><defs><style>.a{fill:#599b6d;stroke:#fff;stroke-width:0.5px;}</style></defs><path class="a" d="M59.488,22.126a7.9,7.9,0,1,0-9.1,0,13.415,13.415,0,0,0-2.07.937A13.594,13.594,0,0,0,40.3,15.349a7.9,7.9,0,1,0-9.116,0,13.591,13.591,0,0,0-8.014,7.715,13.416,13.416,0,0,0-2.07-.937,7.9,7.9,0,1,0-9.1,0A13.558,13.558,0,0,0,3,34.871V43.9a4.521,4.521,0,0,0,4.516,4.516H8.645V66.484a4.5,4.5,0,0,0,7.9,2.956A4.486,4.486,0,0,0,19.935,71H51.548a4.486,4.486,0,0,0,3.387-1.56,4.5,4.5,0,0,0,7.9-2.956V48.419h1.129A4.521,4.521,0,0,0,68.484,43.9V34.871A13.558,13.558,0,0,0,59.488,22.126Zm-3.463,8.93-1.09,1.09-1.09-1.09.618-7.45c.158-.008.313-.025.472-.025s.314.017.472.024ZM49.29,15.677a5.645,5.645,0,1,1,5.645,5.645A5.652,5.652,0,0,1,49.29,15.677ZM36.836,25.406,35.742,26.5l-1.094-1.094.632-8.581c.154-.006.307-.019.462-.019s.308.014.462.019ZM30.1,8.9a5.645,5.645,0,1,1,5.645,5.645A5.652,5.652,0,0,1,30.1,8.9Zm2.9,8.245-.673,9.123,3.422,3.422,3.422-3.422-.673-9.123a11.327,11.327,0,0,1,7.9,7.217A13.524,13.524,0,0,0,41.4,34.615a9,9,0,0,0-11.315,0A13.524,13.524,0,0,0,25.09,24.365a11.327,11.327,0,0,1,7.9-7.217ZM45.9,48.419h1.129v4.766a15.839,15.839,0,0,0-6.375-3.973,9.112,9.112,0,0,0,2.18-2A4.508,4.508,0,0,0,45.9,48.419ZM41.236,61.933l-3.891,6.809h-.1l4.807-16.5a13.651,13.651,0,0,1,1.234.733L42.6,56.9l-2.582,2.582Zm-7.1,6.809-3.891-6.809,1.223-2.445-2.582-2.582L28.2,52.981a13.789,13.789,0,0,1,1.233-.733l4.809,16.494ZM24.452,48.419h1.129a4.505,4.505,0,0,0,3.065-1.2,9.084,9.084,0,0,0,2.18,2,15.815,15.815,0,0,0-6.375,3.973Zm18.065-6.774a6.774,6.774,0,1,1-6.774-6.774A6.781,6.781,0,0,1,42.516,41.645Zm-2.555,9.714L35.742,65.836l-4.22-14.476a13.4,13.4,0,0,1,8.44,0Zm-22.323-20.3-1.09,1.09-1.09-1.09.618-7.45c.158-.008.313-.025.472-.025s.314.017.472.024ZM10.9,15.677a5.645,5.645,0,1,1,5.645,5.645A5.652,5.652,0,0,1,10.9,15.677Zm6.774,50.806V42.774H15.419v23.71a2.258,2.258,0,0,1-4.516,0V30.355H8.645V46.161H7.516A2.26,2.26,0,0,1,5.258,43.9V34.871a11.3,11.3,0,0,1,8.526-10.934l-.663,7.975,3.427,3.425,3.427-3.427-.663-7.975a11.3,11.3,0,0,1,8.526,10.935v2.412a9.01,9.01,0,0,0-.413,7.886,2.235,2.235,0,0,1-1.845.992H24.452V30.355H22.194V56.126a15.687,15.687,0,0,0-2.258,8.1v4.516a2.26,2.26,0,0,1-2.258-2.258Zm4.516-2.258a13.505,13.505,0,0,1,4-9.6L26.789,58l1.934,1.934L27.687,62l3.851,6.739h-3.7V63.1H25.581v5.645H22.194Zm27.1,4.516H45.9V63.1H43.645v5.645h-3.7L43.8,62l-1.035-2.071L44.7,58l.6-3.374a13.505,13.505,0,0,1,4,9.6ZM66.226,43.9a2.26,2.26,0,0,1-2.258,2.258H62.839V30.355H60.581V66.484a2.258,2.258,0,0,1-4.516,0V42.774H53.806v23.71a2.26,2.26,0,0,1-2.258,2.258V64.226a15.687,15.687,0,0,0-2.258-8.1V30.355H47.032V46.161H45.9a2.237,2.237,0,0,1-1.845-.992,9.01,9.01,0,0,0-.413-7.886V34.871a11.3,11.3,0,0,1,8.526-10.934l-.663,7.975,3.427,3.425,3.427-3.427L57.7,23.936a11.3,11.3,0,0,1,8.526,10.935Z" transform="translate(-2.75 -0.75)"/></svg>