<svg xmlns="http://www.w3.org/2000/svg" width="203.073" height="186.824" viewBox="0 0 203.073 186.824"><defs><style>.a{fill:#d6e5f0;}.b{fill:#eaae4f;}.aa,.ab,.ac,.af,.ag,.ah,.b,.c,.d,.h,.i,.l,.n,.p,.q,.r,.s,.t,.u,.v,.w,.x,.y,.z{fill-rule:evenodd;}.c{fill:#ffdfaa;}.d{fill:#ffbf9f;}.e{fill:#f66531;}.f{fill:#180e34;}.g{fill:#28214f;}.h{fill:#f66631;}.i{fill:#e09066;}.j,.l{fill:#ffbe9f;}.k{fill:#f97d55;}.m{fill:#ffae8b;}.aj,.n{fill:#0f43d6;}.o,.x{fill:#ffbd9f;}.p{fill:#fbb435;}.ae,.q{fill:#012d89;}.r{fill:#d54b27;}.s{fill:#f16c47;}.t{fill:#ff4267;}.u{fill:#fad9b6;}.v{fill:#b21f24;}.w{fill:#984d23;}.y{fill:#46d57c;}.z{fill:#244ab1;}.aa{fill:#d0d1d2;}.ab{fill:#6bde96;}.ac{fill:#46d47c;}.ad{fill:#6bdd96;}.ad,.ae,.ai{stroke:rgba(0,0,0,0);stroke-miterlimit:10;}.af{fill:#2969db;}.ag{fill:#0a0407;}.ah,.ai{fill:#fc5e7d;}.ak{fill:#eaaf4f;}</style></defs><g transform="translate(0.451)"><path class="a" d="M4.88,26V15.247H0L13.5,0,27,15.247H22.283V26Z" transform="translate(16.626 160.371)"/><path class="a" d="M4.338,23V13.487H0L12,0,24,13.487H19.807V23Z" transform="translate(68.626 71.371)"/><path class="a" d="M8.133,43V25.216H0L22.5,0,45,25.216H37.139V43Z" transform="translate(147.626 32.371)"/><path class="a" d="M8.133,43V25.216H0L22.5,0,45,25.216H37.139V43Z" transform="translate(91.626 135.371)"/><g transform="translate(35.538 94.518)"><path class="b" d="M575.932,1113.763l33.527-.043,9.8,8.725v39.274H566.167V1122.4Z" transform="translate(-484.618 -1069.413)"/><path class="c" d="M619.26,1133.5v38.419H566.167v-38.462Z" transform="translate(-484.618 -1079.617)"/><path class="b" d="M407.142,1114.323l33.527-.043,9.8,8.68v39.049H397.377v-39.1Z" transform="translate(-397.377 -1069.703)"/><path class="c" d="M450.471,1134.067v38.145H397.377v-38.191Z" transform="translate(-397.377 -1079.906)"/><path class="b" d="M489.287,1022.057l33.527-.043,9.8,9.585v43.146H479.522v-43.2Z" transform="translate(-439.835 -1022.014)"/><path class="c" d="M532.615,1041.8v43.146H479.522v-43.2Z" transform="translate(-439.835 -1032.213)"/></g><g transform="translate(78.981 3.575)"><path class="d" d="M559.123,920.611a4.077,4.077,0,0,1,.713,1.559c.211.944-.443,1.482-.244,2.211s1.683,2.191,2.053,2.1-.69-2.506-.27-2.5c.7,0,4.107-.733,4.107-.733s.4-.02-.166-.615a26.234,26.234,0,0,0-2.085-1.765,6.737,6.737,0,0,1-1.017-1.621,5.393,5.393,0,0,1-1.25.927A8.732,8.732,0,0,1,559.123,920.611Z" transform="translate(-524.421 -877.956)"/><g transform="translate(8.192 40.253)"><g transform="translate(3.267 51.201)"><path class="e" d="M1310.331,1439.284c-.107,0-.162-.137-.186-.333a1.425,1.425,0,0,1,1.143-1.527,7.747,7.747,0,0,0,2.866-1.267h1.578v2.608a.519.519,0,0,1-.519.519Z" transform="translate(-1310.134 -1436.157)"/></g><g transform="translate(16.636 51.201)"><path class="e" d="M1366.283,1439.284c-.107,0-.162-.137-.186-.333a1.425,1.425,0,0,1,1.143-1.527,7.745,7.745,0,0,0,2.866-1.267h1.577v2.608a.519.519,0,0,1-.518.519Z" transform="translate(-1366.087 -1436.157)"/></g><g transform="translate(13.17 1.054)"><g transform="translate(0 0)"><path class="f" d="M1325.47,1167.414l-.667-50.084-8.491,1.807,7.132,48.277C1323.444,1167.957,1325.47,1167.957,1325.47,1167.414Z" transform="translate(-1316.312 -1117.33)"/></g></g><g transform="translate(6.217 0) rotate(7)"><g transform="translate(0 0)"><path class="g" d="M9.114,50.71,11.034,0,0,1.355,6.886,50.618C6.872,51.079,9.1,51.171,9.114,50.71Z"/></g></g></g><path class="d" d="M494.221,922.175a4.174,4.174,0,0,0-.73,1.595c-.215.966.454,1.517.25,2.262s-1.722,2.242-2.1,2.152.705-2.564.276-2.561c-.717.005-4.2-.75-4.2-.75s-.405-.021.171-.629a26.637,26.637,0,0,1,2.133-1.806,6.913,6.913,0,0,0,1.041-1.658,5.5,5.5,0,0,0,1.279.948A8.915,8.915,0,0,0,494.221,922.175Z" transform="translate(-487.442 -878.748)"/><path class="d" d="M522.377,836.278s.05,3.158.1,3.859a5.891,5.891,0,0,0,.7,2.79,1.4,1.4,0,0,0,1.4.535l.184,2.957s2.062-.109,2.339-.084c.4.037,2.339.134,2.339.134l-.062-3.165s1.291-1.979.8-2.782-3.221-1.742-4.042-2.129c-.919-.432-.531-3.376-1.554-3.47C524.493,834.915,522.377,836.278,522.377,836.278Z" transform="translate(-505.428 -834.923)"/><path class="h" d="M515.368,855.879a1.43,1.43,0,0,0-.924-.855,8.056,8.056,0,0,0-4.1.171c-.908.367-1.094.77-1.094.77a17.533,17.533,0,0,0-4.5,1.212c-3.029,1.571-5.264,4.961-6.418,12-.335,2.045-.866,5.424-1.847,9.521-.667,2.786-2.321,8.309-2.208,8.451.923,1.154,2.363,1.946,2.8,1.511a31.343,31.343,0,0,0,5.468-10.02c1.385-4.327,2.34-7.554,2.34-7.554.1-.478-.2,15.335-.135,15.275a28.778,28.778,0,0,0,8.12,1.6,26.565,26.565,0,0,0,7.978-1.259c.036-.065-.308-3.4-.308-4.568,0-1.518-.05-5.191,0-6.478.047-1.229,1.622,3.913,2.325,6.127a32.6,32.6,0,0,0,2.982,5.9c.578.868,2.994-.568,2.865-.923s-1.768-10.727-2.072-12.415c-.863-4.789-.928-6.966-1.868-10.9s-1.864-5.655-5.747-6.949C518.673,856.386,515.368,855.879,515.368,855.879Z" transform="translate(-490.645 -844.661)"/><path class="i" d="M487.9,931.606c.342.582,1,.912,1.177.633.154-.238-.171-.529-.171-.529s.339.005.436-.24-.374-.563-.362-.628c.023-.114.338.1.407-.247.021-.11-.383-.448-.383-.448a.349.349,0,0,0,.111-.529,5.968,5.968,0,0,0-1.475-1.121c-.127-.06-.472.249-.292,1.325A5.289,5.289,0,0,0,487.9,931.606Z" transform="translate(-487.296 -882.733)"/><path class="i" d="M570.063,929.829c-.334.569-.974.893-1.151.619-.151-.233.168-.517.168-.517s-.332,0-.426-.236.366-.55.354-.614c-.022-.111-.331.1-.4-.242-.021-.107.374-.437.374-.437a.34.34,0,0,1-.109-.516,5.836,5.836,0,0,1,1.442-1.1c.124-.058.461.244.285,1.3A5.166,5.166,0,0,1,570.063,929.829Z" transform="translate(-529.324 -881.851)"/><ellipse class="j" cx="0.5" cy="1" rx="0.5" ry="1" transform="translate(104.645 96.796)"/><path class="k" d="M2.459,33.951A4.169,4.169,0,0,1,.007,32.319,34.633,34.633,0,0,1,.953,28.6c.424-1.53.951-3.434,1.261-4.727.915-3.817,1.434-6.986,1.777-9.083l0-.015.069-.423a24.6,24.6,0,0,1,2.5-8.05,9.484,9.484,0,0,1,3.912-3.951,10.959,10.959,0,0,1,1.642-.593,28.469,28.469,0,0,0-1.259,9.053c0,1.455-.07,3.256-.211,5.351,0,0,0-.007,0-.007s-.013.012-.031.1c-.01.032-.972,3.27-2.343,7.553a32.668,32.668,0,0,1-2.929,6.407,21.6,21.6,0,0,1-2.535,3.613A.477.477,0,0,1,2.459,33.951Zm29.741-.82a.7.7,0,0,1-.623-.275,32.5,32.5,0,0,1-2.982-5.9l-.146-.46-.082-.26a39.536,39.536,0,0,0-1.98-5.557c-.064-5.854-.252-10.033-.558-12.42-.312-2.44-.973-5.605-2.339-6.827.742.125,1.154.2,1.263.241a7.708,7.708,0,0,1,3.979,2.485A11.577,11.577,0,0,1,30.5,8.622c.56,2.343.811,4.075,1.1,6.082.185,1.272.413,2.852.767,4.814.11.619.4,2.384.729,4.427l.042.259c.572,3.52,1.221,7.509,1.3,7.729a.186.186,0,0,1-.047.157A3.614,3.614,0,0,1,32.2,33.131ZM21.088,1H15.077a2.577,2.577,0,0,1,1-.637A8.029,8.029,0,0,1,18.612,0a5.331,5.331,0,0,1,1.57.193,1.46,1.46,0,0,1,.9.809Z" transform="translate(3.617 10.169)"/></g><g transform="translate(35.859 48.887)"><path class="l" d="M408.663,977.633a39.952,39.952,0,0,1-1.852,9.615,58.677,58.677,0,0,1-5.551,11.6,12.2,12.2,0,0,0-1.789.447,2.667,2.667,0,0,0-.865.67l.764.545c-.083.288-1.047,1.444-1.322,2.217-.086.241.788.1.788.1a1.016,1.016,0,0,0-.125.731c.143.369.907-.031.907-.031s-.3.756.123.855a3.071,3.071,0,0,0,.958-.095s-.244.636.31.795c.461.133,1.57-1.7,1.736-2.028a17.233,17.233,0,0,1,.9-1.706,53.2,53.2,0,0,0,6.805-10.7A51.858,51.858,0,0,0,413.78,978.8a18.286,18.286,0,0,1-2.928-.258A15.78,15.78,0,0,1,408.663,977.633Z" transform="translate(-398.042 -953.445)"/><path class="l" d="M463.8,944.736c3.891-2.019,7.451-9.366,8.049-10.414.742-1.3,1.035-2.359,1.524-3.318s1.01-2,.849-2.256-.516-.137-.516-.137.094-.756-.277-.782c-.452-.032-.8.587-.8.587s.05-.836-.244-.847c-.52-.022-.919.667-.919.667s-.2-.638-.538-.559-.8.874-.8.874-.711-.155-.958.393a4.958,4.958,0,0,0,.134,2.252c.089.407-1.835,7.277-7.147,9.486a20.315,20.315,0,0,1-7.924,1.366,11.7,11.7,0,0,1-2.868-.051l1.472,5.829A33.38,33.38,0,0,0,463.8,944.736Z" transform="translate(-425.602 -927.568)"/><path class="l" d="M437.771,932.6c-.133.044.188-.031.219-.024a2.513,2.513,0,0,1,.657.288c.4.23,1.8.753,3.375,5.62.34,1.455-.351,1.753-1.119,2.363l-.816.644s-.164,1.293-.214,1.963a14,14,0,0,0-.005,1.5,1.709,1.709,0,0,1-.6.3c-.349.082-.706.172-1.057.241a11.857,11.857,0,0,1-1.281.236c-.269.017-1.095-.589-1.095-.589s.142-1.4.2-1.972a7.8,7.8,0,0,0,.07-1.959c-.439-1.9-1.8-3.987-1.24-6.2a3.855,3.855,0,0,1,1.753-2.22,2.238,2.238,0,0,1,.747-.208C437.432,932.562,437.92,932.547,437.771,932.6Z" transform="translate(-417.002 -930.149)"/><path class="m" d="M8.618,45.237,12.339,7.355,0,0,1.184,11.267Z" transform="matrix(0.995, 0.105, -0.105, 0.995, 12.837, 46.667)"/><path class="n" d="M435.246,932.52c-.174.306-.36.931-.548,1.4a6.644,6.644,0,0,1-1.212,1.98s-1-.816-1.149-.077c-.16.782,1.161,1.379,1.161,1.379s.753,2.865-.6,3.922a1.543,1.543,0,0,1-1.649.3c-2.472-.674-4.988-4.859-4.054-7.617a3.955,3.955,0,0,1,3-2.668,5.841,5.841,0,0,1,3.956.161C434.374,931.4,435.55,931.987,435.246,932.52Z" transform="translate(-413.009 -929.275)"/><path class="o" d="M2.149,39.172,5.87,1.29-7.686-5.77Z" transform="translate(22.599 53.188)"/><path class="p" d="M432.606,956.232a3.031,3.031,0,0,0-1.02-.61,10.537,10.537,0,0,0-3.376-.146,2.493,2.493,0,0,0-1.554.962,12.066,12.066,0,0,0-3.148,1.062,8.513,8.513,0,0,0-3.421,3.437c-.777,1.5-.517,3.686-.98,7a9.163,9.163,0,0,0,3.346.979,10.6,10.6,0,0,0,2-.039,12.951,12.951,0,0,1,.31,2,41.967,41.967,0,0,1-.605,8.06c-.033.2.033,1.07,4.024,1.418,5.086.447,7.505.374,7.431.138-.519-1.662.61-8.4,1.061-12.553a40.452,40.452,0,0,0,.388-5.087s3.034-.8,3.811-.928c.754-.125.265-6.165-.54-6.041A21.787,21.787,0,0,1,432.606,956.232Z" transform="translate(-408.929 -941.963)"/><path class="q" d="M437.038,998.346s2.276,6.952,2.433,11.461a40.527,40.527,0,0,1-.752,13.5c0,2.35-15.525,1.295-15.613-.436a41.613,41.613,0,0,1-1.147-8.673,29.235,29.235,0,0,1,1.147-9.624,67.059,67.059,0,0,1,2.94-6.224s.519.679,5.486.731C435.442,999.119,437.038,998.346,437.038,998.346Z" transform="translate(-410.464 -963.89)"/><path class="r" d="M448.189,942.082l.021.013Z" transform="translate(-423.961 -935.07)"/><path class="s" d="M443.506,952.859c.048.047.06.047.021.03Z" transform="translate(-421.54 -940.64)"/><path class="n" d="M427.183,944.584c-.613-.73-4.866,6.07-3.155,15.113.252,2.332,2.814,4.591,3.814,5.472s.557,3.86.533,3.774c.889-.1,2.243-4.549,2.243-5.224,0-1.6-.71-2.577-.441-4.464.357-2.5,1.742-4.38-1.8-10.6-.556-1.667.856-2.687-.533-4.075C427.548,944.287,427.483,944.945,427.183,944.584Z" transform="translate(-411.385 -936.292)"/><path class="t" d="M338.754,1210.609a10.417,10.417,0,0,0,3.025.136,8.106,8.106,0,0,0,1.575-.343c.143-.053,0-.23,0-.225a16.8,16.8,0,0,0-2.18-1,3.158,3.158,0,0,0-1.907-.493C338.881,1208.789,338.754,1210.609,338.754,1210.609Z" transform="translate(-314.741 -1116.495)"/><path class="t" d="M338.754,1210.609a10.417,10.417,0,0,0,3.025.136,8.106,8.106,0,0,0,1.575-.343c.143-.053,0-.23,0-.225a16.8,16.8,0,0,0-2.18-1,3.158,3.158,0,0,0-1.907-.493C338.881,1208.789,338.754,1210.609,338.754,1210.609Z" transform="translate(-322.889 -1116.495)"/></g><g transform="translate(115.706 48.887)"><path class="l" d="M403.159,977.633a39.951,39.951,0,0,0,1.852,9.615,58.679,58.679,0,0,0,5.551,11.6,12.2,12.2,0,0,1,1.789.447,2.668,2.668,0,0,1,.865.67l-.764.545c.083.288,1.047,1.444,1.322,2.217.086.241-.788.1-.788.1a1.016,1.016,0,0,1,.125.731c-.143.369-.907-.031-.907-.031s.3.756-.123.855a3.071,3.071,0,0,1-.958-.095s.244.636-.31.795c-.461.133-1.57-1.7-1.736-2.028a17.226,17.226,0,0,0-.9-1.706,53.206,53.206,0,0,1-6.805-10.7,51.859,51.859,0,0,1-3.329-11.849,18.286,18.286,0,0,0,2.928-.258A15.782,15.782,0,0,0,403.159,977.633Z" transform="translate(-365.129 -953.445)"/><path class="l" d="M461.816,944.736c-3.891-2.019-7.451-9.366-8.049-10.414-.742-1.3-1.035-2.359-1.524-3.318s-1.01-2-.849-2.256.516-.137.516-.137-.094-.756.277-.782c.452-.032.8.587.8.587s-.05-.836.244-.847c.52-.022.919.667.919.667s.2-.638.538-.559.8.874.8.874.711-.155.958.393a4.958,4.958,0,0,1-.134,2.252c-.089.407,1.835,7.277,7.147,9.486a20.315,20.315,0,0,0,7.924,1.366,11.7,11.7,0,0,0,2.868-.051l-1.472,5.83A33.38,33.38,0,0,1,461.816,944.736Z" transform="translate(-451.364 -927.568)"/><path class="l" d="M439.066,932.6c.133.044-.188-.031-.219-.024a2.512,2.512,0,0,0-.657.288c-.4.23-1.8.753-3.375,5.62-.34,1.455.351,1.753,1.119,2.363l.816.644s.164,1.293.214,1.963a14,14,0,0,1,.005,1.5,1.709,1.709,0,0,0,.6.3c.349.082.706.172,1.057.241a11.857,11.857,0,0,0,1.281.236c.269.017,1.095-.589,1.095-.589s-.142-1.4-.2-1.972a7.8,7.8,0,0,1-.07-1.959c.439-1.9,1.8-3.987,1.24-6.2a3.855,3.855,0,0,0-1.753-2.22,2.238,2.238,0,0,0-.747-.208C439.405,932.562,438.917,932.547,439.066,932.6Z" transform="translate(-411.184 -930.149)"/><path class="m" d="M8.618,0l3.721,37.882L0,45.237,1.184,33.97Z" transform="matrix(-0.995, 0.105, -0.105, -0.995, 38.098, 91.656)"/><path class="o" d="M-3.964,39.154-7.686,1.272,3.9-5.87Z" transform="translate(27.867 53.206)"/><path class="u" d="M427.749,956.232a3.031,3.031,0,0,1,1.02-.61,10.537,10.537,0,0,1,3.376-.146,2.493,2.493,0,0,1,1.554.962,12.067,12.067,0,0,1,3.148,1.062,8.513,8.513,0,0,1,3.421,3.437c.777,1.5.517,3.686.98,7a9.163,9.163,0,0,1-3.346.979,10.6,10.6,0,0,1-2-.039,12.951,12.951,0,0,0-.31,2,41.964,41.964,0,0,0,.605,8.06c.033.2-.033,1.07-4.024,1.418-5.086.447-7.505.374-7.431.138.519-1.662-.61-8.4-1.061-12.553a40.453,40.453,0,0,1-.387-5.087s-3.034-.8-3.811-.928c-.754-.125-.265-6.165.54-6.041A21.787,21.787,0,0,0,427.749,956.232Z" transform="translate(-402.775 -941.963)"/><path class="v" d="M424.645,998.346s-2.276,6.952-2.433,11.461a40.528,40.528,0,0,0,.752,13.5c0,2.35,12.585,2.469,12.672.737.31-1.458.431-3.662,1.166-6.641s2.275-4.835,2.295-10.5a12.425,12.425,0,0,0-3.461-8.55s-.519.679-5.486.73C426.24,999.119,424.645,998.346,424.645,998.346Z" transform="translate(-402.568 -963.89)"/><path class="r" d="M448.21,942.082l-.021.013Z" transform="translate(-423.787 -935.07)"/><path class="s" d="M443.55,952.859c-.048.047-.06.047-.021.03Z" transform="translate(-416.865 -940.64)"/><path class="t" d="M343.418,1210.609a10.413,10.413,0,0,1-3.025.136,8.106,8.106,0,0,1-1.575-.343c-.143-.053,0-.23,0-.225a16.813,16.813,0,0,1,2.18-1,3.159,3.159,0,0,1,1.907-.493C343.291,1208.789,343.418,1210.609,343.418,1210.609Z" transform="translate(-318.781 -1116.495)"/><path class="t" d="M343.418,1210.609a10.413,10.413,0,0,1-3.025.136,8.106,8.106,0,0,1-1.575-.343c-.143-.053,0-.23,0-.225a16.813,16.813,0,0,1,2.18-1,3.159,3.159,0,0,1,1.907-.493C343.291,1208.789,343.418,1210.609,343.418,1210.609Z" transform="translate(-313.077 -1116.495)"/><path class="w" d="M618.857,933.92c-.106,1.573,1.392,2.26,1.837,3.256a6.027,6.027,0,0,1,.167,3.188c-.339,3.389-3.077,5.722-2.458,9.434.471,2.827,4.163,3.415,4.738,6.294a4.742,4.742,0,0,1-.466,3.183c-.084.146-1.214,1.379-1.2,1.4.135.27,1.368.27,2.311-.163a3.541,3.541,0,0,0,1.262-1.117,3.749,3.749,0,0,0,1.089,1.895,4.207,4.207,0,0,0,2.755.67,4.349,4.349,0,0,1-.97-1.732,2.5,2.5,0,0,1,.62-1.688c.079,0,.177,1.293.773,1.843a2.9,2.9,0,0,0,2.644.644c.116-.077-.868-.825-1.067-1.886a5.252,5.252,0,0,1,.6-2.466c1.053-2.947,3.681-5.142,3.224-8.5a8.636,8.636,0,0,0-1.748-4.2c-1.061-1.31-2.679-2.384-3.379-3.961-1.055-2.371-.239-5.383-2.206-7.568a4.839,4.839,0,0,0-2.934-1.641C620.584,930.529,618.963,932.344,618.857,933.92Z" transform="translate(-594.182 -930.098)"/></g><g transform="translate(0 94.718)"><path class="x" d="M355.406,1029.154s.086,2.982.068,3.643a5.562,5.562,0,0,1-.544,2.663,1.322,1.322,0,0,1-1.3.563l-.048,2.8s-1.949-.018-2.209.017c-.377.051-2.2.228-2.2.228l-.075-2.99s-1.3-1.813-.869-2.591,2.964-1.775,3.722-2.174a7.85,7.85,0,0,1,2.644-.936A10.933,10.933,0,0,0,355.406,1029.154Z" transform="translate(-336.391 -1025.905)"/><path class="t" d="M338.754,1210.8a11.429,11.429,0,0,0,3.317.149,8.894,8.894,0,0,0,1.727-.376c.156-.058,0-.252,0-.246a18.442,18.442,0,0,0-2.39-1.1,3.462,3.462,0,0,0-2.092-.54C338.893,1208.8,338.754,1210.8,338.754,1210.8Z" transform="translate(-332.292 -1120.773)"/><path class="t" d="M0,2.014a10.734,10.734,0,0,0,3.116.14A8.349,8.349,0,0,0,4.739,1.8c.147-.055,0-.237,0-.231A17.277,17.277,0,0,0,2.493.538,3.253,3.253,0,0,0,.528.03C.131.139,0,2.014,0,2.014Z" transform="translate(14.446 83.663) rotate(30)"/><path class="y" d="M343.449,1047.91a1.352,1.352,0,0,1,.835-.846,7.633,7.633,0,0,1,3.877-.013c.872.309,1.064.678,1.064.678a16.583,16.583,0,0,1,4.3.954c2.923,1.353.576,9.339.576,9.339-.112-.446-.081,4.425-.159,6.865s.048,4.511.111,5.912c.039.876.305,3.94-.227,4.722a4.249,4.249,0,0,1-2.122.923,22,22,0,0,1-5.453.52,15.756,15.756,0,0,1-4.5-.812c-.436-.163-1.338.734-1.633-.065a36.979,36.979,0,0,1-.467-5.456c-.125-2.8-.277-4.755-.632-7.518-.167-1.3-.461-5.345-.461-5.345s-.929-7.321,1.494-8.8A11.955,11.955,0,0,1,343.449,1047.91Z" transform="translate(-331.348 -1035.029)"/><path class="z" d="M355.89,1104.452c.023,0,2.163,20.154,2.153,23.892-.012,4.309-10.669,20.5-11.3,20.658a.462.462,0,0,1-.7-.269c-.242-.533,1.141-5.83,1.394-7.209,1.012-5.512,3.31-10.135,2.608-13.885s-2.3-8.325-2.608-7.994c-.331.365-7.8,33.1-8.307,33.44-.3.12-.542.339-.913,0-.1-.095,1.63-11.928,1.616-15.61-.017-4.2.441-6.864.381-11.07-.059-4.068-.03-8.263,0-12.58s-.945-8.067-.381-8.758c.339-.417,1.487.992,6.314,1.152C351.131,1106.381,355.868,1104.36,355.89,1104.452Z" transform="translate(-331.243 -1065.042)"/><path class="x" d="M384.677,1043.31c2.989-3.209,3.316-7.406,3.813-11.11.2-1.482.028-5.052.166-6.123a16.577,16.577,0,0,0,.582-2.706c-.032-.816-.607-.477-.711-.559-.238-.185-1.116-.4-.693-.382l-.885.46s-.158-.468-.481-.443a1.491,1.491,0,0,0-1.091.615,1.112,1.112,0,0,0-1.368.885,3.381,3.381,0,0,0,.676,2.852,10.329,10.329,0,0,1,.171,3.583,12.2,12.2,0,0,1-3.807,7.682c-2.883,2.612-7.251-1.714-9.69-1.774l.1,7.548S380.855,1047.413,384.677,1043.31Z" transform="translate(-348.392 -1022.429)"/><path class="aa" d="M341.468,1071.043c.14-6.4.679-12.824.393-19.213Z" transform="translate(-332.942 -1037.625)"/><path class="x" d="M324.717,1097.741c.09,1.289.4,5.727.277,7.063a10.736,10.736,0,0,1-.649,3.02c-.332,1.122-.707,2.827-.425,3.011s.623-.79.619-.666a10.1,10.1,0,0,0-.118,1.474c.008.086-.08.494.267.46s.548-.752.634-.877c.064-.094-.188,1.826.378,1.525.494-.266.935-1.821.946-1.761.037.189.148,1.267.6.6a12.365,12.365,0,0,0,1.041-4.025s.311.679.558,1.276c.283.683,1.079.778.952.378-.272-.859-.861-3.248-1-3.987a54.672,54.672,0,0,1-.236-7.217C328.543,1097.251,324.627,1096.452,324.717,1097.741Z" transform="translate(-323.821 -1061.002)"/><path class="ab" d="M335.228,1050.254c-.26-.718-3.944.752-5.059,2.633s-2.629,6.642-3.822,11.36c-1.126,4.455-1.121,14.34-.852,14.835.173.318,3.873.5,4.205.167.119-.116.455-4.562,1.139-8.21a16.5,16.5,0,0,1,1.835-5.056s.854,9.667.867,9.284c.112-3.1.023-6.2.162-9.306.055-1.224.094-2.44.123-3.66.038-1.564.059-3.127.079-4.691C333.933,1055.34,336.009,1052.4,335.228,1050.254Z" transform="translate(-324.609 -1036.715)"/><path class="ab" d="M365.639,1042.671a11.9,11.9,0,0,1,5.143,1.46,11.593,11.593,0,0,0,5.912,1.444c3.146-.055,4.189-5.632,4.981-9.03.154-.658,3.655-.511,4.027.511.446,1.229.228,5.061-.65,8.077-.948,3.265-2.663,5.714-5.008,6.8-3.788,1.762-12.608-.743-12.608-.743s.269-4.017.441-4.928Z" transform="translate(-345.435 -1029.519)"/><path class="ac" d="M341.958,1044.566a2.581,2.581,0,0,0-1-.851c-.73-.331-2.153.106-3.239.2-1.344.5-2.136.878-2.136.878a16.593,16.593,0,0,0-4.4,1.658c-2.443,1.831-3.456,4.477-4.565,7.252-1.655,4.138-3.333,10.625-2.426,15.157.309,1.547-.975,4,.887,4.619a12.119,12.119,0,0,0,3.052.288,2.141,2.141,0,0,0,1.513-.34,6.538,6.538,0,0,0,.026-1.826s.722-4.159,1.018-6.526c.163-1.306.854-2.947.887-2.448a43.265,43.265,0,0,1,.211,5.39,17.572,17.572,0,0,1-.6,4,54.871,54.871,0,0,0,7.376,1.17c1.446,0,4.424-.431,5.862-.568a18.6,18.6,0,0,0,5.032-1.383c.041.115-1.164-7.063-1.164-9.491v-7.015a43.646,43.646,0,0,0,4.3.928c3.226.266,7.138-.714,9.35-3.415a12.558,12.558,0,0,0,1.761-4.61c.327-1.56.708-4.15.708-4.15s.615-.941-.116-1.487a5.735,5.735,0,0,0-3.355-.971,2.382,2.382,0,0,0-1.59.378,30.942,30.942,0,0,0-1.5,4.842,6.825,6.825,0,0,0-.806.425c-.311.224-.4.726-.786,1.04-.34.271-1.145.038-1.5.1-2.473.413-5.456-1.289-7.624-2.217A29.253,29.253,0,0,0,341.958,1044.566Z" transform="translate(-323.879 -1032.032)"/><path class="ad" d="M4.467,32.767a2.483,2.483,0,0,1-.268-.014,7.926,7.926,0,0,0-.818-.027,7,7,0,0,1-2.236-.261C-.09,32.052.063,30.811.209,29.611a5.88,5.88,0,0,0,.048-1.764A20.729,20.729,0,0,1,.509,20.12a41.355,41.355,0,0,1,2.176-7.431l.085-.213c1.08-2.7,2.1-5.255,4.479-7.038a7.366,7.366,0,0,1,1.809-.882,23.738,23.738,0,0,0-1.414,5.6,53.014,53.014,0,0,0-.1,8.817l0,.09c.034.868.066,1.687.088,2.494-.007-.021-.017-.033-.031-.033a5.943,5.943,0,0,0-.848,2.538c-.276,2.233-.942,6.088-1.017,6.52v.006a6.459,6.459,0,0,1-.025,1.827A1.937,1.937,0,0,1,4.467,32.767ZM29.689,14.684c-.347,0-.693-.014-1.031-.042a41.16,41.16,0,0,1-4.229-.911c-.1-.886-.208-1.749-.324-2.566-.225-1.582-.632-4.511-.874-6.262l-.046-.334.007,0,.006,0c.383.163.789.35,1.219.547l0,0h0a14.532,14.532,0,0,0,5.605,1.73,4.843,4.843,0,0,0,.8-.064.9.9,0,0,1,.154-.011c.106,0,.236.011.371.023s.28.022.419.022a.888.888,0,0,0,.555-.133,1.858,1.858,0,0,0,.431-.573,1.413,1.413,0,0,1,.353-.467,7.223,7.223,0,0,1,.806-.426l0-.018a29.929,29.929,0,0,1,1.5-4.824A2.277,2.277,0,0,1,36.8,0c.069,0,.138,0,.2.008a5.66,5.66,0,0,1,3.354.97c.727.545.123,1.476.117,1.485v.007c-.041.271-.4,2.686-.707,4.146a12.517,12.517,0,0,1-1.764,4.608,8.924,8.924,0,0,1-3.778,2.637A12.737,12.737,0,0,1,29.689,14.684Z" transform="translate(0.051 8.977)"/><path class="ae" d="M.4,48.061a.583.583,0,0,1-.392-.18c-.066-.06.423-18.339.573-23.94C.891,12.467,1.246.051,1.275,0A21.944,21.944,0,0,0,4.409.607L9.2,14.5c-.255.684-1.641,6.511-3.247,13.258C3.728,37.1,1.208,47.687.919,47.881c-.052.02-.1.044-.15.067A.89.89,0,0,1,.4,48.061Z" transform="translate(6.978 40.163)"/></g><g transform="translate(93.116)"><path class="x" d="M348.211,1029.154s-.086,2.982-.068,3.643a5.561,5.561,0,0,0,.544,2.663,1.322,1.322,0,0,0,1.3.563l.048,2.8s1.949-.018,2.209.017c.377.051,2.2.228,2.2.228l.075-2.99s1.3-1.813.869-2.591-2.964-1.775-3.722-2.174a7.85,7.85,0,0,0-2.644-.936A10.933,10.933,0,0,1,348.211,1029.154Z" transform="translate(-258.171 -931.187)"/><path class="t" d="M343.868,1210.8a11.429,11.429,0,0,1-3.317.149,8.893,8.893,0,0,1-1.727-.376c-.156-.058,0-.252,0-.246a18.44,18.44,0,0,1,2.39-1.1,3.462,3.462,0,0,1,2.091-.54C343.729,1208.8,343.868,1210.8,343.868,1210.8Z" transform="translate(-241.275 -1026.054)"/><path class="t" d="M0,.183A10.735,10.735,0,0,1,3.116.043,8.348,8.348,0,0,1,4.739.4c.147.055,0,.237,0,.231A17.278,17.278,0,0,1,2.493,1.659a3.253,3.253,0,0,1-1.965.508C.131,2.058,0,.183,0,.183Z" transform="translate(95.707 180.284) rotate(150)"/><path class="y" d="M349.926,1047.91a1.352,1.352,0,0,0-.835-.846,7.633,7.633,0,0,0-3.877-.013c-.872.309-1.064.678-1.064.678a16.583,16.583,0,0,0-4.3.954c-2.923,1.353-.576,9.339-.576,9.339.112-.446.081,4.425.159,6.865s-.048,4.511-.111,5.912c-.039.876-.305,3.94.227,4.722a4.249,4.249,0,0,0,2.122.923,22,22,0,0,0,5.453.52,15.756,15.756,0,0,0,4.5-.812c.436-.163,1.338.734,1.633-.065a36.975,36.975,0,0,0,.467-5.456c.125-2.8.277-4.755.632-7.518.167-1.3.461-5.345.461-5.345s.929-7.321-1.494-8.8A11.957,11.957,0,0,0,349.926,1047.91Z" transform="translate(-252.972 -940.31)"/><path class="af" d="M340.375,1104.452c-.023,0-2.163,20.154-2.153,23.892.012,4.309,10.669,20.5,11.295,20.658a.462.462,0,0,0,.7-.269c.242-.533-1.141-5.83-1.394-7.209-1.012-5.512-3.31-10.135-2.608-13.885s2.3-8.325,2.608-7.994c.331.365,7.8,33.1,8.307,33.44.3.12.542.339.913,0,.1-.095-1.63-11.928-1.616-15.61.017-4.2-.441-6.864-.381-11.07.059-4.068.029-8.263,0-12.58s.945-8.067.381-8.758c-.339-.417-1.487.992-6.314,1.152C345.134,1106.381,340.4,1104.36,340.375,1104.452Z" transform="translate(-255.967 -970.324)"/><path class="ag" d="M348.641,1025.8a7.318,7.318,0,0,0,1.837,4.489,3.9,3.9,0,0,0,4.661.55,4.01,4.01,0,0,0,1.432-1.856,10.058,10.058,0,0,0,.715-3.27c.114-1.083.473-3-2.45-5.083s-9.668-.674-10.005.482c-.563,1.933,3.7,3.678,3.7,3.678S348.575,1025.241,348.641,1025.8Z" transform="translate(-344.78 -1019.569)"/><path class="x" d="M375.922,1043.31c-2.989-3.209-3.316-7.406-3.813-11.11-.2-1.482-.028-5.052-.166-6.123a16.58,16.58,0,0,1-.582-2.706c.032-.816.607-.477.711-.559.238-.185,1.116-.4.693-.382l.885.46s.158-.468.481-.443a1.491,1.491,0,0,1,1.091.615,1.112,1.112,0,0,1,1.368.885,3.381,3.381,0,0,1-.676,2.852,10.329,10.329,0,0,0-.171,3.583,12.2,12.2,0,0,0,3.807,7.682c2.883,2.612,7.251-1.714,9.69-1.774l-.1,7.548S379.743,1047.413,375.922,1043.31Z" transform="translate(-303.151 -927.711)"/><path class="aa" d="M341.943,1071.043c-.14-6.4-.679-12.824-.393-19.213Z" transform="translate(-241.414 -942.907)"/><path class="x" d="M328.915,1097.741c-.09,1.289-.4,5.727-.277,7.063a10.739,10.739,0,0,0,.649,3.021c.332,1.121.707,2.827.425,3.011s-.623-.79-.619-.666a10.1,10.1,0,0,1,.118,1.474c-.008.086.08.494-.267.46s-.548-.752-.634-.877c-.064-.094.188,1.826-.378,1.525-.494-.266-.935-1.821-.946-1.761-.037.189-.148,1.267-.6.6a12.365,12.365,0,0,1-1.041-4.025s-.311.679-.558,1.276c-.283.683-1.079.778-.952.378.272-.859.861-3.248,1-3.987a54.672,54.672,0,0,0,.236-7.217C325.089,1097.251,329.005,1096.452,328.915,1097.741Z" transform="translate(-220.756 -966.284)"/><path class="ah" d="M325.522,1050.254c.26-.718,3.944.752,5.059,2.633s2.629,6.642,3.822,11.36c1.126,4.455,1.121,14.34.852,14.835-.173.318-3.873.5-4.205.167-.119-.116-.455-4.562-1.139-8.21a16.5,16.5,0,0,0-1.835-5.056s-.854,9.667-.867,9.284c-.112-3.1-.023-6.2-.162-9.306-.055-1.224-.094-2.44-.123-3.66-.038-1.564-.059-3.127-.079-4.691C326.816,1055.34,324.741,1052.4,325.522,1050.254Z" transform="translate(-227.085 -941.997)"/><path class="ah" d="M385.926,1042.671a11.9,11.9,0,0,0-5.143,1.46,11.593,11.593,0,0,1-5.912,1.444c-3.146-.055-4.189-5.632-4.981-9.03-.154-.658-3.655-.511-4.027.511-.446,1.229-.228,5.061.65,8.077.948,3.265,2.663,5.714,5.008,6.8,3.788,1.762,12.608-.743,12.608-.743s-.269-4.017-.441-4.928Z" transform="translate(-297.075 -934.801)"/><path class="t" d="M346.623,1044.566a2.581,2.581,0,0,1,1-.851c.73-.331,2.153.106,3.239.2,1.344.5,2.136.878,2.136.878a16.593,16.593,0,0,1,4.4,1.658c2.443,1.831,3.456,4.477,4.565,7.252,1.655,4.137,3.333,10.625,2.426,15.157-.309,1.547.975,4-.887,4.619a12.124,12.124,0,0,1-3.053.288,2.14,2.14,0,0,1-1.513-.34,6.539,6.539,0,0,1-.026-1.826s-.722-4.159-1.018-6.526c-.163-1.306-.854-2.947-.887-2.448a43.263,43.263,0,0,0-.211,5.39,17.566,17.566,0,0,0,.6,4c-.037.021-5.987,1.754-7.978,1.754-1.446,0-4.424-.431-5.862-.568a8.535,8.535,0,0,1-4.429-1.966c-.041.115,1.164-7.064,1.164-9.491v-7.015a43.645,43.645,0,0,1-4.3.928c-3.226.266-7.138-.714-9.35-3.415a12.557,12.557,0,0,1-1.761-4.61c-.327-1.56-.708-4.15-.708-4.15s-.615-.941.116-1.487a5.735,5.735,0,0,1,3.355-.971,2.382,2.382,0,0,1,1.59.378,30.941,30.941,0,0,1,1.5,4.842,6.824,6.824,0,0,1,.806.425c.311.224.4.726.786,1.04.34.271,1.145.038,1.5.1,2.473.413,5.456-1.289,7.624-2.217A29.252,29.252,0,0,1,346.623,1044.566Z" transform="translate(-255.648 -937.314)"/><path class="ai" d="M4.467,0A2.519,2.519,0,0,0,4.2.014a7.9,7.9,0,0,1-.818.027A6.992,6.992,0,0,0,1.145.3C-.09.715.062,1.956.21,3.156A5.9,5.9,0,0,1,.257,4.919a20.716,20.716,0,0,0,.252,7.727,41.372,41.372,0,0,0,2.175,7.431l.085.212c1.08,2.7,2.1,5.255,4.479,7.038a7.391,7.391,0,0,0,1.809.882,23.774,23.774,0,0,1-1.414-5.6,53.088,53.088,0,0,1-.1-8.817l0-.09c.034-.868.066-1.687.088-2.494-.007.021-.018.033-.032.033a5.941,5.941,0,0,1-.847-2.538c-.277-2.233-.942-6.088-1.017-6.52V2.179A6.479,6.479,0,0,0,5.709.352,1.936,1.936,0,0,0,4.467,0ZM29.69,18.083c-.347,0-.694.014-1.031.042a41.2,41.2,0,0,0-4.23.911c-.1.886-.208,1.749-.325,2.566-.224,1.582-.631,4.511-.874,6.262l-.046.334.007,0,.006,0c.384-.164.789-.35,1.219-.547l0,0h0a14.531,14.531,0,0,1,5.606-1.73,4.853,4.853,0,0,1,.8.064.89.89,0,0,0,.154.011c.107,0,.237-.011.372-.023s.28-.022.419-.022a.885.885,0,0,1,.554.133,1.86,1.86,0,0,1,.431.573,1.408,1.408,0,0,0,.352.467,7.257,7.257,0,0,0,.805.426l0,.018a29.956,29.956,0,0,0,1.5,4.824,2.275,2.275,0,0,0,1.388.384c.069,0,.138,0,.2-.008a5.661,5.661,0,0,0,3.353-.97c.727-.545.123-1.476.117-1.486V30.3c-.041-.271-.4-2.686-.707-4.146a12.523,12.523,0,0,0-1.764-4.608A8.921,8.921,0,0,0,34.23,18.9,12.74,12.74,0,0,0,29.69,18.083Z" transform="translate(109.004 136.462) rotate(180)"/><path class="aj" d="M1.274,48.062h0C1.243,47.957.89,35.6.58,24.121.268,12.579-.047.229.006.181A.575.575,0,0,1,.4,0,.885.885,0,0,1,.766.113c.049.023.1.047.153.068.29.193,2.813,10.8,5.039,20.15,1.6,6.728,2.983,12.538,3.238,13.226L4.488,47.222a14.154,14.154,0,0,0-3.213.84Z" transform="translate(102.077 182.943) rotate(180)"/><circle class="j" cx="1" cy="1" r="1" transform="translate(3.51 7.371)"/><g transform="translate(86.462 92.884)"><path class="q" d="M348.641,1025.8a7.318,7.318,0,0,0,1.837,4.489,3.9,3.9,0,0,0,4.661.55,4.01,4.01,0,0,0,1.432-1.856,10.058,10.058,0,0,0,.715-3.269c.114-1.083.473-3-2.45-5.083s-9.668-.674-10.005.482c-.563,1.933,3.7,3.678,3.7,3.678S348.575,1025.241,348.641,1025.8Z" transform="translate(-344.78 -1019.569)"/><ellipse class="j" cx="0.815" cy="1.222" rx="0.815" ry="1.222" transform="translate(3.95 7.307)"/></g></g><g transform="translate(10.106 92.884)"><path class="q" d="M353.5,1025.8a7.318,7.318,0,0,1-1.837,4.489,3.9,3.9,0,0,1-4.661.55,4.01,4.01,0,0,1-1.433-1.856,10.059,10.059,0,0,1-.715-3.27c-.114-1.083-.473-3,2.45-5.083s9.668-.674,10.006.482c.563,1.933-3.7,3.678-3.7,3.678S353.568,1025.241,353.5,1025.8Z" transform="translate(-344.78 -1019.569)"/><circle class="j" cx="1" cy="1" r="1" transform="translate(6.52 7.488)"/></g><path class="ak" d="M-8.665-4.5l.322-19.788h4.13l2.6,12.222L1.122-24.287h4.01L5.455-4.5H2.542L2.292-17.317-.525-4.5H-2.59l-2.9-12.89L-5.717-4.5Z" transform="translate(61.898 182.908)"/><path class="ak" d="M-8.665-4.5l.322-19.788h4.13l2.6,12.222L1.122-24.287h4.01L5.455-4.5H2.542L2.292-17.317-.525-4.5H-2.59l-2.9-12.89L-5.717-4.5Z" transform="translate(145.819 182.908)"/><path class="ak" d="M-9.419-4.5V-7.363h.31q.286,0,.5-.012a1.944,1.944,0,0,0,.627-.161,1.587,1.587,0,0,0,.5-.316,2.012,2.012,0,0,0,.364-.6,4.673,4.673,0,0,0,.286-.9q.1-.477.215-1.331t.191-1.76q.078-.907.173-2.327l.644-9.512H4.509V-4.5H.475V-21.244H-2.007l-.43,7.078q-.119,1.862-.209,2.888T-2.938-9a7.109,7.109,0,0,1-.5,1.862,8.188,8.188,0,0,1-.788,1.277,2.557,2.557,0,0,1-1.2.919,8.727,8.727,0,0,1-1.689.4,9.967,9.967,0,0,1-1.349.084Q-8.918-4.463-9.419-4.5Z" transform="translate(102.776 139.725)"/></g></svg>