<svg xmlns="http://www.w3.org/2000/svg" width="207.766" height="117.571" viewBox="0 0 207.766 117.571"><defs><style>.a{fill:#d5e8f7;}.b{fill:#80a0d9;}.c{fill:#ffad8b;}.d{fill:#fc5e7d;}.e{fill:#ff4367;}.f{fill:#0b48d6;}.g{fill:#286cdb;}.h{fill:#ffbc9f;}.i{fill:#003089;}.j{fill:#ffcd65;}.k{fill:#ffc03e;}.l{fill:#87e2aa;}.m{fill:#46d37c;}.n{fill:#6bdc96;}.o{fill:#c6dff7;}.p{fill:#638ad0;}.q{fill:#3c6dc4;}</style></defs><g transform="translate(0 0)"><g transform="translate(20.623 19.647)"><g transform="translate(4.897 5.826)"><path class="a" d="M842.211,657.657l34.765,31.466H937.29l50.022,60.631H971.144L930.73,702.126H870.768L832.1,665.834Z" transform="translate(-832.099 -657.657)"/></g><path class="b" d="M814.788,661.455l25.338-26.147-29.688-3.419Z" transform="translate(-810.438 -631.889)"/></g><g transform="translate(60.398 20.957)"><g transform="translate(43.463 0)"><g transform="translate(0 38.81)"><path class="c" d="M1183.011,811.185l-.182,1.1s-4.294.694-4.235-1.278c.04-1.357,2.655-.9,2.655-.9s-1.228-.632-.417-.764S1183.011,811.185,1183.011,811.185Z" transform="translate(-1178.594 -809.33)"/></g><g transform="translate(3.679 39.972)"><path class="d" d="M1200.178,814.783l-4.689-.309c-.369-.091-.864,1.927-.494,2.018l5.743,2.555v-3.7Z" transform="translate(-1194.864 -814.471)"/></g><g transform="translate(9.25 94.936)"><path class="e" d="M1219.51,1059.014a.285.285,0,0,0,.288.233h1.676a.591.591,0,0,0,.585-.689,3.267,3.267,0,0,0-.46-.99h-.468a13.474,13.474,0,0,0-1.495,1.092.405.405,0,0,0-.126.353Z" transform="translate(-1219.506 -1057.569)"/></g><g transform="translate(22.983 94.936)"><path class="e" d="M1280.245,1058.961a.285.285,0,0,0,.286.286h1.682a.591.591,0,0,0,.585-.689,3.269,3.269,0,0,0-.461-.99h-.468a13.489,13.489,0,0,0-1.5,1.092.424.424,0,0,0-.1.138A.441.441,0,0,0,1280.245,1058.961Z" transform="translate(-1280.245 -1057.569)"/></g><g transform="translate(3.007 44.062)"><path class="f" d="M1200.305,883.436l-2.3-19.849s13.69-22.409,14-22.541-5.61-7.213-5.61-7.213-6.46-1.537-6.5-1.23-1.88,5.16-1.88,5.16-5.984,18.046-6.114,24.311c-.114,5.453,7.769,21.362,7.769,21.362C1199.663,883.6,1200.305,883.6,1200.305,883.436Z" transform="translate(-1191.893 -832.562)"/></g><g transform="translate(11.323 47.036)"><path class="g" d="M1242.523,893.612l1.456-47.9-11.279.23-4.027,2.338,13.173,45.32C1241.844,893.685,1242.522,893.7,1242.523,893.612Z" transform="translate(-1228.673 -845.713)"/></g><g transform="translate(6.508 15.412)"><path class="e" d="M1219.681,706.053c-1.764-1.061-3.549,2.2-4.668,3.932-3.894,6.014-7.634,33.234-7.634,33.234.339,3.155,22.272,1.869,21.932-1.286C1229.312,741.933,1224.379,708.878,1219.681,706.053Z" transform="translate(-1207.379 -705.845)"/></g><g transform="translate(7.441 37.381)"><path class="c" d="M1217.9,806.148v1.484s-5.917,1.167-6.377-2.787c-.309-2.655,3.714-.216,3.714-.216s-.872-1.819.194-1.6C1216.361,803.223,1217.9,806.148,1217.9,806.148Z" transform="translate(-1211.507 -803.013)"/></g><g transform="translate(13.512 17.93)"><path class="d" d="M1252.6,741.4l-14.095.021c-.266-.015-.132-2.367.134-2.352l10.629-3.009s-6.965-8.831-7.511-10.872c-.834-3.113-.536-6.863,2.108-7.971,2.334-.979,4.778,1.234,5.534,3.788.925,3.125,4.982,12.632,5.581,17.607A2.49,2.49,0,0,1,1252.6,741.4Z" transform="translate(-1238.359 -716.981)"/></g><g transform="translate(8.008 3.93)"><path class="h" d="M1220.464,670.226l-.758-1.957s-4.919,3.1-5.578-2.833,1.493-10.585,5.71-10.365,5.016,11.176,5.016,11.176C1224.889,668.708,1221.478,671.344,1220.464,670.226Z" transform="translate(-1214.011 -655.063)"/></g><g transform="translate(2.19)"><path class="i" d="M1204.941,652.794l-1.437-1.711s.637-4.392-.966-4.216-1.252,2.459-1.252,2.459h-.681l-.175-.921s-2.269-.831-2.145-2.084c-2.193,1.7-7.476,3.721-9.823-4.02-2.163-7.138,15.657-5.052,18.073-.154S1204.941,652.794,1204.941,652.794Z" transform="translate(-1188.279 -637.68)"/></g></g><g transform="translate(19.201 43.234)"><path class="h" d="M1071.284,830.218l.2-.875s.99-.638,1.3-.381c.249.206-.042.331-.169.374.242-.063,1.489-.283,1.429.592C1073.952,831.347,1072.339,831.08,1071.284,830.218Z" transform="translate(-1071.284 -828.901)"/></g><g transform="translate(22.638 24.191)"><path class="h" d="M1087.058,747.819l-.572-.739s1.06-2.462,1.529-2.4-.112,1.156-.112,1.156,1.49-1.714,2.424-.687C1091.807,746.772,1087.673,747.824,1087.058,747.819Z" transform="translate(-1086.486 -744.676)"/></g><g transform="translate(10.276 93.112)"><path class="e" d="M1034.515,1051.028a.3.3,0,0,1-.3.247h-1.772a.625.625,0,0,1-.618-.728,3.456,3.456,0,0,1,.487-1.046h.495a14.286,14.286,0,0,1,1.581,1.154.429.429,0,0,1,.133.374Z" transform="translate(-1031.811 -1049.501)"/></g><g transform="translate(8.533 61.791)"><path class="c" d="M1026.306,942.319c0,.2.481.177.583-.026l5.5-28.988-7.591-2.333-.7,1.149Z" transform="translate(-1024.103 -910.972)"/></g><g transform="translate(16.651 26.324)"><path class="j" d="M1060.942,757.762l5.053-3.638c.184-.151,1.044.9.86,1.049l-6.847,8.624.9-6.245" transform="translate(-1060.008 -754.11)"/></g><g transform="translate(8.548 94.84)"><path class="e" d="M1026.87,1058.672a.3.3,0,0,1-.305.247h-1.772a.624.624,0,0,1-.618-.728,3.457,3.457,0,0,1,.487-1.046h.495a14.278,14.278,0,0,1,1.58,1.154.429.429,0,0,1,.133.373Z" transform="translate(-1024.166 -1057.145)"/></g><g transform="translate(6.805 63.519)"><path class="h" d="M1018.661,949.964c0,.2.481.177.583-.026l5.5-28.988-7.591-2.333-.7,1.149Z" transform="translate(-1016.458 -918.617)"/></g><g transform="translate(4.615 36.012)"><path class="i" d="M1019.532,802.227c1.611,6.044-.3,24.362-.3,24.362-.062,1.289-11,.767-10.934-.522,0,0-3.421-20.186,0-25.593,1.172-1.852,8.009-3.8,8.044-3.482S1019.137,800.745,1019.532,802.227Z" transform="translate(-1006.774 -796.958)"/></g><g transform="translate(4.359 15.878)"><path class="k" d="M1014,709.794c-.856-1.049-4.027-2.424-5.153-1.671-5.011,3.346-2.648,24.5-2.648,24.5-.085,1.292,13.056,1.757,13.141.465C1019.338,733.092,1020.961,718.325,1014,709.794Z" transform="translate(-1005.64 -707.907)"/></g><g transform="translate(6.14 19.68)"><path class="j" d="M1017.63,724.723c-2.563-.04-3.593,3.065-3.8,5.5-.239,2.76-.3,9.646-.309,12.766a2.337,2.337,0,0,0,1.456,2.175l11.546,4.582a2.419,2.419,0,0,0,.45-1.189l-9.339-6.773s1.422-8.647,2.081-11.491C1020.32,727.666,1019.912,724.758,1017.63,724.723Z" transform="translate(-1013.517 -724.722)"/></g><g transform="translate(8.364 2.816)"><path class="h" d="M1027.454,664.824l1.448-2.955s3.391.929,4.145-1.95-.175-10.887-4.725-9.657-4.945,12.935-4.945,12.935C1023.01,664.116,1027.088,665.743,1027.454,664.824Z" transform="translate(-1023.354 -650.134)"/></g><path class="f" d="M990.188,664.853a1.623,1.623,0,0,0,1.517-.712,3.3,3.3,0,0,0,.525-1.664c.157-1.868-.416-3.874.418-5.554.578-1.165,1.746-1.951,2.328-3.114a6.542,6.542,0,0,0,.476-3.169,11.315,11.315,0,0,1,.141-3.224,3.088,3.088,0,0,1,2.04-2.315,6.361,6.361,0,0,1,1.521-.076,7.377,7.377,0,0,0,5.634-2.725,2.619,2.619,0,0,0,.687-2.379c-.352-1.014-1.576-1.373-2.629-1.586a19.46,19.46,0,0,0-6.543-.548,6.75,6.75,0,0,0-5.279,3.489c-.89,1.926-.474,4.163-.457,6.284a16.165,16.165,0,0,1-2.514,8.752,9.523,9.523,0,0,0-1.635,3.15,3.769,3.769,0,0,0,1.112,3.319c.451.443,1.057.548,1.513.916S989.454,664.729,990.188,664.853Z" transform="translate(-986.362 -637.68)"/></g><g transform="translate(162.519 24.552)"><g transform="translate(19.279 14.696)"><path class="l" d="M1525.536,718.735c1.426,1.5.782,17.4.794,17.286l10.05,3.677s-.325,1.307-.325,1.47-12.462-1.743-12.462-1.743l-.3-12.506S1524.119,717.248,1525.536,718.735Z" transform="translate(-1523.297 -718.579)"/></g><g transform="translate(24.298 35.541)"><path class="h" d="M1549.028,812.337c-.126,1.85-.747-.236-.747-.236a1.75,1.75,0,0,1-2.788-.406l.334-.9S1549.154,810.487,1549.028,812.337Z" transform="translate(-1545.493 -810.773)"/></g><g transform="translate(6.25)"><g transform="translate(30.965 67.771)"><path class="e" d="M1605.269,955.115a.3.3,0,0,1-.333.207l-1.758-.221a.625.625,0,0,1-.523-.8,3.457,3.457,0,0,1,.613-.977l.491.062a14.268,14.268,0,0,1,1.425,1.341.429.429,0,0,1,.085.387Z" transform="translate(-1602.629 -953.324)"/></g><g transform="translate(0.574 35.814)"><path class="i" d="M1468.436,814.751s-1.206,8.337,1.957,10.537c5.249,3.649,25.251-.246,25.251-.246l3.531,18.889c-.013.1.591.18.6.076l2.064-20.56a5.864,5.864,0,0,0-4.364-5.847l-16.3-4.308-5.937-1.309Z" transform="translate(-1468.21 -811.982)"/></g><g transform="translate(0 10.694)"><path class="m" d="M1481.022,705.338c-.7-2.381.059-4.47-2.423-4.459-16.022.073-12.624,28.216-12.624,28.216.086,1.393,13.426-.615,13.34-2.008C1479.314,727.088,1482.508,710.391,1481.022,705.338Z" transform="translate(-1465.673 -700.879)"/></g><g transform="translate(2.168)"><g transform="translate(10.468 5.334)"><path class="h" d="M1524.153,686.607l1.167-.716s1.154,2.445,3.459,1.544,9.658-5.669,5.825-8.469c-7.6-5.554-12.752,3.567-12.752,3.567C1520.755,683.151,1523.056,687.226,1524.153,686.607Z" transform="translate(-1521.563 -677.172)"/></g><g transform="translate(10.552)"><path class="i" d="M1521.932,664.5a19.544,19.544,0,0,0,3.719-1.976c.668-.722,1.117-3.3,2.639-2.916s-.714,2.238-.714,2.238l.326.42,1.429-.605s2.5,1.651,2.9-.285c0,0,7.061,10.574,9.252,5.626s-5.494-14.868-12.165-13.243S1521.932,664.5,1521.932,664.5Z" transform="translate(-1521.932 -653.581)"/></g><g transform="translate(0 13.449)"><path class="n" d="M1491.639,734.857c.215.073-.282,1.535-.5,1.462l-12.367-2.47a4.683,4.683,0,0,1-3.51-4.659,96.816,96.816,0,0,1,.728-11.048c.638-3.388,2.839-5.594,5.2-4.977s3.2,3.056,2.7,5.912c-.447,2.533-2.812,10.336-2.812,10.336Z" transform="translate(-1475.264 -713.062)"/></g></g></g><g transform="translate(0 50.359)"><g transform="translate(0 37.279)"><path class="k" d="M1467.109,1042.547v2.674a1.355,1.355,0,0,1-1.359,1.353h-26.369a1.354,1.354,0,0,1-1.354-1.353v-2.674a1.352,1.352,0,0,1,1.354-1.354h26.369A1.353,1.353,0,0,1,1467.109,1042.547Z" transform="translate(-1438.028 -1041.193)"/><g transform="translate(2.031 0.772)"><g transform="translate(23.693 0)"><g transform="translate(0 0)"><rect class="j" width="3.837" height="1.326" transform="translate(1.326 0) rotate(90)"/></g></g><g transform="translate(21.324 0)"><g transform="translate(0)"><rect class="j" width="3.837" height="1.326" transform="translate(1.326 0) rotate(90)"/></g></g><g transform="translate(18.954 0)"><g transform="translate(0 0)"><rect class="j" width="3.837" height="1.326" transform="translate(1.326 0) rotate(90)"/></g></g><g transform="translate(16.585 0)"><g transform="translate(0)"><rect class="j" width="3.837" height="1.326" transform="translate(1.326 0) rotate(90)"/></g></g><g transform="translate(14.216 0)"><g transform="translate(0)"><rect class="j" width="3.837" height="1.326" transform="translate(1.326 0) rotate(90)"/></g></g><g transform="translate(11.847 0)"><g transform="translate(0 0)"><rect class="j" width="3.837" height="1.326" transform="translate(1.326 0) rotate(90)"/></g></g><g transform="translate(9.477 0)"><g transform="translate(0)"><rect class="j" width="3.837" height="1.326" transform="translate(1.326 0) rotate(90)"/></g></g><g transform="translate(7.108 0)"><g transform="translate(0 0)"><rect class="j" width="3.837" height="1.326" transform="translate(1.326 0) rotate(90)"/></g></g><g transform="translate(4.739 0)"><g transform="translate(0)"><rect class="j" width="3.837" height="1.326" transform="translate(1.326) rotate(90)"/></g></g><g transform="translate(2.369 0)"><g transform="translate(0)"><rect class="j" width="3.837" height="1.326" transform="translate(1.326 0) rotate(90)"/></g></g><g transform="translate(0 0)"><g transform="translate(0 0)"><rect class="j" width="3.837" height="1.326" transform="translate(1.326 0) rotate(90)"/></g></g></g></g><g transform="translate(0 31.066)"><path class="k" d="M1467.109,1015.067v2.674a1.355,1.355,0,0,1-1.359,1.353h-26.369a1.354,1.354,0,0,1-1.354-1.353v-2.674a1.352,1.352,0,0,1,1.354-1.354h26.369A1.353,1.353,0,0,1,1467.109,1015.067Z" transform="translate(-1438.028 -1013.713)"/><g transform="translate(2.031 0.772)"><g transform="translate(23.693 0)"><g transform="translate(0 0)"><g transform="translate(0 0)"><rect class="j" width="3.837" height="1.326" transform="translate(1.326 0) rotate(90)"/></g></g></g><g transform="translate(21.324 0)"><g transform="translate(0 0)"><rect class="j" width="3.837" height="1.326" transform="translate(1.326 0) rotate(90)"/></g></g><g transform="translate(18.955 0)"><g transform="translate(0 0)"><g transform="translate(0 0)"><rect class="j" width="3.837" height="1.326" transform="translate(1.326 0) rotate(90)"/></g></g></g><g transform="translate(16.585 0)"><g transform="translate(0 0)"><rect class="j" width="3.837" height="1.326" transform="translate(1.326 0) rotate(90)"/></g></g><g transform="translate(14.216 0)"><g transform="translate(0 0)"><rect class="j" width="3.837" height="1.326" transform="translate(1.326 0) rotate(90)"/></g></g><g transform="translate(11.847 0)"><g transform="translate(0 0)"><g transform="translate(0 0)"><rect class="j" width="3.837" height="1.326" transform="translate(1.326 0) rotate(90)"/></g></g></g><g transform="translate(9.477 0)"><g transform="translate(0 0)"><rect class="j" width="3.837" height="1.326" transform="translate(1.326 0) rotate(90)"/></g></g><g transform="translate(7.108 0)"><g transform="translate(0 0)"><g transform="translate(0 0)"><rect class="j" width="3.837" height="1.326" transform="translate(1.326 0) rotate(90)"/></g></g></g><g transform="translate(4.739 0)"><g transform="translate(0 0)"><rect class="j" width="3.837" height="1.326" transform="translate(1.326) rotate(90)"/></g></g><g transform="translate(2.369 0)"><g transform="translate(0 0)"><rect class="j" width="3.837" height="1.326" transform="translate(1.326 0) rotate(90)"/></g></g><g transform="translate(0 0)"><g transform="translate(0 0)"><g transform="translate(0 0)"><rect class="j" width="3.837" height="1.326" transform="translate(1.326 0) rotate(90)"/></g></g></g></g></g><g transform="translate(0 24.852)"><path class="k" d="M1467.109,987.587v2.674a1.355,1.355,0,0,1-1.359,1.353h-26.369a1.354,1.354,0,0,1-1.354-1.353v-2.674a1.352,1.352,0,0,1,1.354-1.354h26.369A1.353,1.353,0,0,1,1467.109,987.587Z" transform="translate(-1438.028 -986.233)"/><g transform="translate(2.031 0.772)"><g transform="translate(23.693 0)"><g transform="translate(0 0)"><g transform="translate(0 0)"><rect class="j" width="3.837" height="1.326" transform="translate(1.326 0) rotate(90)"/></g></g></g><g transform="translate(21.324 0)"><g transform="translate(0 0)"><g transform="translate(0 0)"><rect class="j" width="3.837" height="1.326" transform="translate(1.326 0) rotate(90)"/></g></g></g><g transform="translate(18.954 0)"><g transform="translate(0 0)"><g transform="translate(0 0)"><rect class="j" width="3.837" height="1.326" transform="translate(1.326 0) rotate(90)"/></g></g></g><g transform="translate(16.585 0)"><g transform="translate(0 0)"><rect class="j" width="3.837" height="1.326" transform="translate(1.326 0) rotate(90)"/></g></g><g transform="translate(14.216 0)"><g transform="translate(0 0)"><rect class="j" width="3.837" height="1.326" transform="translate(1.326 0) rotate(90)"/></g></g><g transform="translate(11.847 0)"><g transform="translate(0 0)"><g transform="translate(0 0)"><rect class="j" width="3.837" height="1.326" transform="translate(1.326 0) rotate(90)"/></g></g></g><g transform="translate(9.477 0)"><g transform="translate(0 0)"><g transform="translate(0 0)"><rect class="j" width="3.837" height="1.326" transform="translate(1.326 0) rotate(90)"/></g></g></g><g transform="translate(7.108 0)"><g transform="translate(0 0)"><g transform="translate(0 0)"><rect class="j" width="3.837" height="1.326" transform="translate(1.326 0) rotate(90)"/></g></g></g><g transform="translate(4.739 0)"><g transform="translate(0 0)"><rect class="j" width="3.837" height="1.326" transform="translate(1.326) rotate(90)"/></g></g><g transform="translate(2.369 0)"><g transform="translate(0)"><rect class="j" width="3.837" height="1.326" transform="translate(1.326 0) rotate(90)"/></g></g><g transform="translate(0 0)"><g transform="translate(0 0)"><g transform="translate(0 0)"><rect class="j" width="3.837" height="1.326" transform="translate(1.326 0) rotate(90)"/></g></g></g></g></g><g transform="translate(0 18.639)"><path class="k" d="M1467.109,960.107v2.674a1.355,1.355,0,0,1-1.359,1.354h-26.369a1.354,1.354,0,0,1-1.354-1.354v-2.674a1.352,1.352,0,0,1,1.354-1.354h26.369A1.353,1.353,0,0,1,1467.109,960.107Z" transform="translate(-1438.028 -958.753)"/><g transform="translate(2.031 0.772)"><g transform="translate(23.693 0)"><g transform="translate(0 0)"><g transform="translate(0 0)"><rect class="j" width="3.837" height="1.326" transform="translate(1.326 0) rotate(90)"/></g></g></g><g transform="translate(21.324 0)"><g transform="translate(0 0)"><rect class="j" width="3.837" height="1.326" transform="translate(1.326 0) rotate(90)"/></g></g><g transform="translate(18.955 0)"><g transform="translate(0 0)"><rect class="j" width="3.837" height="1.326" transform="translate(1.326 0) rotate(90)"/></g></g><g transform="translate(16.585 0)"><g transform="translate(0 0)"><rect class="j" width="3.837" height="1.326" transform="translate(1.326 0) rotate(90)"/></g></g><g transform="translate(14.216 0)"><g transform="translate(0 0)"><rect class="j" width="3.837" height="1.326" transform="translate(1.326 0) rotate(90)"/></g></g><g transform="translate(11.847 0)"><g transform="translate(0 0)"><g transform="translate(0 0)"><rect class="j" width="3.837" height="1.326" transform="translate(1.326 0) rotate(90)"/></g></g></g><g transform="translate(9.477 0)"><g transform="translate(0 0)"><rect class="j" width="3.837" height="1.326" transform="translate(1.326 0) rotate(90)"/></g></g><g transform="translate(7.108 0)"><g transform="translate(0 0)"><rect class="j" width="3.837" height="1.326" transform="translate(1.326 0) rotate(90)"/></g></g><g transform="translate(4.739 0)"><g transform="translate(0 0)"><rect class="j" width="3.837" height="1.326" transform="translate(1.326) rotate(90)"/></g></g><g transform="translate(2.369 0)"><g transform="translate(0 0)"><rect class="j" width="3.837" height="1.326" transform="translate(1.326 0) rotate(90)"/></g></g><g transform="translate(0 0)"><g transform="translate(0 0)"><g transform="translate(0 0)"><rect class="j" width="3.837" height="1.326" transform="translate(1.326 0) rotate(90)"/></g></g></g></g></g><g transform="translate(0 12.426)"><path class="k" d="M1467.109,932.627V935.3a1.355,1.355,0,0,1-1.359,1.354h-26.369a1.354,1.354,0,0,1-1.354-1.354v-2.674a1.352,1.352,0,0,1,1.354-1.354h26.369A1.353,1.353,0,0,1,1467.109,932.627Z" transform="translate(-1438.028 -931.273)"/><g transform="translate(2.031 0.772)"><g transform="translate(23.693 0)"><g transform="translate(0 0)"><rect class="j" width="3.837" height="1.326" transform="translate(1.326 0) rotate(90)"/></g></g><g transform="translate(21.324 0)"><g transform="translate(0 0)"><g transform="translate(0 0)"><rect class="j" width="3.837" height="1.326" transform="translate(1.326 0) rotate(90)"/></g></g></g><g transform="translate(18.955 0)"><g transform="translate(0 0)"><rect class="j" width="3.837" height="1.326" transform="translate(1.326 0) rotate(90)"/></g></g><g transform="translate(16.585 0)"><g transform="translate(0 0)"><rect class="j" width="3.837" height="1.326" transform="translate(1.326 0) rotate(90)"/></g></g><g transform="translate(14.216 0)"><g transform="translate(0 0)"><g transform="translate(0 0)"><rect class="j" width="3.837" height="1.326" transform="translate(1.326 0) rotate(90)"/></g></g></g><g transform="translate(11.847 0)"><g transform="translate(0 0)"><rect class="j" width="3.837" height="1.326" transform="translate(1.326 0) rotate(90)"/></g></g><g transform="translate(9.477 0)"><g transform="translate(0 0)"><g transform="translate(0 0)"><rect class="j" width="3.837" height="1.326" transform="translate(1.326 0) rotate(90)"/></g></g></g><g transform="translate(7.108 0)"><g transform="translate(0 0)"><rect class="j" width="3.837" height="1.326" transform="translate(1.326 0) rotate(90)"/></g></g><g transform="translate(4.739 0)"><g transform="translate(0 0)"><g transform="translate(0 0)"><rect class="j" width="3.837" height="1.326" transform="translate(1.326) rotate(90)"/></g></g></g><g transform="translate(2.369 0)"><g transform="translate(0 0)"><g transform="translate(0 0)"><rect class="j" width="3.837" height="1.326" transform="translate(1.326 0) rotate(90)"/></g></g></g><g transform="translate(0 0)"><g transform="translate(0 0)"><g transform="translate(0 0)"><rect class="j" width="3.837" height="1.326" transform="translate(1.326 0) rotate(90)"/></g></g></g></g></g><g transform="translate(0 6.213)"><path class="k" d="M1467.109,905.147v2.674a1.355,1.355,0,0,1-1.359,1.354h-26.369a1.354,1.354,0,0,1-1.354-1.354v-2.674a1.352,1.352,0,0,1,1.354-1.354h26.369A1.353,1.353,0,0,1,1467.109,905.147Z" transform="translate(-1438.028 -903.793)"/><g transform="translate(2.031 0.772)"><g transform="translate(23.693 0)"><g transform="translate(0 0)"><rect class="j" width="3.837" height="1.326" transform="translate(1.326 0) rotate(90)"/></g></g><g transform="translate(21.324 0)"><g transform="translate(0 0)"><rect class="j" width="3.837" height="1.326" transform="translate(1.326 0) rotate(90)"/></g></g><g transform="translate(18.954 0)"><g transform="translate(0 0)"><g transform="translate(0 0)"><rect class="j" width="3.837" height="1.326" transform="translate(1.326 0) rotate(90)"/></g></g></g><g transform="translate(16.585 0)"><g transform="translate(0 0)"><rect class="j" width="3.837" height="1.326" transform="translate(1.326 0) rotate(90)"/></g></g><g transform="translate(14.216 0)"><g transform="translate(0 0)"><rect class="j" width="3.837" height="1.326" transform="translate(1.326 0) rotate(90)"/></g></g><g transform="translate(11.847 0)"><g transform="translate(0 0)"><g transform="translate(0 0)"><rect class="j" width="3.837" height="1.326" transform="translate(1.326 0) rotate(90)"/></g></g></g><g transform="translate(9.477 0)"><g transform="translate(0 0)"><rect class="j" width="3.837" height="1.326" transform="translate(1.326 0) rotate(90)"/></g></g><g transform="translate(7.108 0)"><g transform="translate(0 0)"><g transform="translate(0 0)"><rect class="j" width="3.837" height="1.326" transform="translate(1.326 0) rotate(90)"/></g></g></g><g transform="translate(4.739 0)"><g transform="translate(0 0)"><rect class="j" width="3.837" height="1.326" transform="translate(1.326) rotate(90)"/></g></g><g transform="translate(2.369 0)"><g transform="translate(0 0)"><rect class="j" width="3.837" height="1.326" transform="translate(1.326 0) rotate(90)"/></g></g><g transform="translate(0 0)"><g transform="translate(0 0)"><g transform="translate(0 0)"><rect class="j" width="3.837" height="1.326" transform="translate(1.326 0) rotate(90)"/></g></g></g></g></g><path class="k" d="M1467.109,877.667v2.674a1.355,1.355,0,0,1-1.359,1.354h-26.369a1.354,1.354,0,0,1-1.354-1.354v-2.674a1.352,1.352,0,0,1,1.354-1.353h26.369A1.353,1.353,0,0,1,1467.109,877.667Z" transform="translate(-1438.028 -876.314)"/><g transform="translate(2.031 0.772)"><g transform="translate(23.693 0)"><g transform="translate(0 0)"><g transform="translate(0 0)"><rect class="j" width="3.837" height="1.326" transform="translate(1.326 0) rotate(90)"/></g></g></g><g transform="translate(21.324 0)"><g transform="translate(0 0)"><rect class="j" width="3.837" height="1.326" transform="translate(1.326 0) rotate(90)"/></g></g><g transform="translate(18.955 0)"><g transform="translate(0 0)"><g transform="translate(0 0)"><rect class="j" width="3.837" height="1.326" transform="translate(1.326 0) rotate(90)"/></g></g></g><g transform="translate(16.585 0)"><g transform="translate(0 0)"><rect class="j" width="3.837" height="1.326" transform="translate(1.326 0) rotate(90)"/></g></g><g transform="translate(14.216 0)"><g transform="translate(0 0)"><rect class="j" width="3.837" height="1.326" transform="translate(1.326 0) rotate(90)"/></g></g><g transform="translate(11.847 0)"><g transform="translate(0 0)"><g transform="translate(0 0)"><rect class="j" width="3.837" height="1.326" transform="translate(1.326 0) rotate(90)"/></g></g></g><g transform="translate(9.477 0)"><g transform="translate(0 0)"><rect class="j" width="3.837" height="1.326" transform="translate(1.326 0) rotate(90)"/></g></g><g transform="translate(7.108 0)"><g transform="translate(0 0)"><g transform="translate(0 0)"><rect class="j" width="3.837" height="1.326" transform="translate(1.326 0) rotate(90)"/></g></g></g><g transform="translate(4.739 0)"><g transform="translate(0 0)"><rect class="j" width="3.837" height="1.326" transform="translate(1.326) rotate(90)"/></g></g><g transform="translate(2.369 0)"><g transform="translate(0 0)"><rect class="j" width="3.837" height="1.326" transform="translate(1.326 0) rotate(90)"/></g></g><g transform="translate(0 0)"><g transform="translate(0 0)"><g transform="translate(0 0)"><rect class="j" width="3.837" height="1.326" transform="translate(1.326 0) rotate(90)"/></g></g></g></g></g><g transform="translate(17.815 24.384)"><g transform="translate(0 12.495)"><path class="o" d="M1532.756,820.683l-15.934-2.708h0a1.544,1.544,0,0,1,1.781-1.263l14.412,2.449Z" transform="translate(-1516.821 -816.689)"/></g><g transform="translate(9.64)"><path class="a" d="M1577.2,764.687l-4.557,14.4-13.185-2.24,4.647-14.68a1.058,1.058,0,0,1,1.185-.722l11.08,1.883A1.056,1.056,0,0,1,1577.2,764.687Z" transform="translate(-1559.458 -761.428)"/></g><g transform="translate(16.664 7.422)"><path class="o" d="M1595.821,796.148c-.129.757-1.417,1.17-2.877.921s-2.54-1.063-2.411-1.82,1.417-1.17,2.877-.921S1595.949,795.391,1595.821,796.148Z" transform="translate(-1590.522 -794.256)"/></g></g></g><g transform="translate(38.026 0)"><ellipse class="a" cx="11.46" cy="9.494" rx="11.46" ry="9.494"/><g transform="translate(8.029 2.526)"><path class="a" d="M924.8,556.162a11.526,11.526,0,0,0,8.23,7.321,16.272,16.272,0,0,0,8.85,10.2c-6.177-.091-14.789-3.622-17.663-7.1C921.3,563.076,924.121,559.625,924.8,556.162Z" transform="translate(-922.92 -556.162)"/></g></g><g transform="translate(90.125 17.063)"><path class="a" d="M1117.837,625.4c0,2.731,2.672,4.945,5.968,4.945s5.969-2.214,5.969-4.945-2.672-4.944-5.969-4.944S1117.837,622.671,1117.837,625.4Z" transform="translate(-1117.837 -620.457)"/><g transform="translate(4.181 1.315)"><path class="a" d="M1137.31,626.274a6,6,0,0,0,4.286,3.813,8.475,8.475,0,0,0,4.609,5.311c-3.217-.047-7.7-1.887-9.2-3.7C1135.487,629.875,1136.956,628.077,1137.31,626.274Z" transform="translate(-1136.331 -626.274)"/></g><g transform="translate(2.134 4.177)"><g transform="translate(0 0)"><path class="p" d="M1128.632,639.177a.79.79,0,0,1-1.113,1.113.276.276,0,0,1-.066-.066.79.79,0,0,1,1.113-1.114A.281.281,0,0,1,1128.632,639.177Z" transform="translate(-1127.276 -638.934)"/></g><g transform="translate(3.067)"><path class="p" d="M1142.2,639.177a.79.79,0,0,1-1.113,1.113.283.283,0,0,1-.066-.066.79.79,0,0,1,1.114-1.113A.277.277,0,0,1,1142.2,639.177Z" transform="translate(-1140.842 -638.933)"/></g><g transform="translate(6.135 0)"><path class="p" d="M1155.767,639.177a.79.79,0,0,1-1.113,1.113.274.274,0,0,1-.066-.066.79.79,0,0,1,1.113-1.114A.273.273,0,0,1,1155.767,639.177Z" transform="translate(-1154.41 -638.934)"/></g></g></g><g transform="translate(150.931 20.176)"><path class="a" d="M1392.4,653.992h5.386a.83.83,0,0,0,.8-.6c1.56-5.623,4.749-5.784,4.838-10.681a8.12,8.12,0,0,0-8.19-8.478,8.511,8.511,0,0,0-8.456,8.323c0,4.9,3.219,5.232,4.821,10.837A.832.832,0,0,0,1392.4,653.992Z" transform="translate(-1386.776 -634.228)"/><g transform="translate(7.132 23.936)"><path class="p" d="M1418.322,740.093a1.222,1.222,0,0,0,2.363,0Z" transform="translate(-1418.322 -740.093)"/></g><g transform="translate(5.621 19.764)"><path class="q" d="M1417.023,721.643c-.144,3.241.338,4.33-.429,4.33-4.716,0-4.957.159-4.957-.429v-3.9Z" transform="translate(-1411.637 -721.643)"/></g><g transform="translate(5.108 20.684)"><path class="p" d="M.475,0H5.938a.475.475,0,0,1,.475.475v0a.475.475,0,0,1-.475.475H.475A.475.475,0,0,1,0,.475v0A.475.475,0,0,1,.475,0Z"/><g transform="translate(0 1.541)"><path class="p" d="M.475,0H5.938a.475.475,0,0,1,.475.475v0A.475.475,0,0,1,5.937.95H.475A.475.475,0,0,1,0,.475v0A.475.475,0,0,1,.475,0Z"/></g></g><g transform="translate(3.418 3.383)"><path class="b" d="M1411.692,654.831v-1.483l-1.367-.394a3.66,3.66,0,0,0-.232-.559l.689-1.246-1.048-1.048-1.246.688a3.633,3.633,0,0,0-.559-.232l-.394-1.367h-1.483l-.394,1.367a3.709,3.709,0,0,0-.559.232l-1.246-.688-1.048,1.048.688,1.246a3.723,3.723,0,0,0-.232.559l-1.367.394v1.483l1.367.394a3.565,3.565,0,0,0,.232.56l-.688,1.246,1.048,1.048,1.245-.689a3.586,3.586,0,0,0,.56.232l.394,1.367h1.483l.394-1.367a3.568,3.568,0,0,0,.56-.232l1.246.689,1.048-1.048-.689-1.246a3.588,3.588,0,0,0,.232-.56Zm-4.9,1.018a1.76,1.76,0,1,1,1.759-1.759A1.759,1.759,0,0,1,1406.792,655.849Z" transform="translate(-1401.892 -649.19)"/></g></g><g transform="translate(36.592 79.278)"><g transform="translate(0 5.658)"><path class="a" d="M899.994,935.475c0,5.861-4.236,6.4-9.462,6.4s-9.462-.538-9.462-6.4,4.236-14.825,9.462-14.825S899.994,929.614,899.994,935.475Z" transform="translate(-881.07 -920.65)"/></g><g transform="translate(4.536)"><path class="a" d="M910.983,896.33h-.023a.293.293,0,0,1-.028.1c-.047.1-.1.2-.148.3l-.51,1.035-1.474,2.989-.81,1.644h-3.867l-2.993-6.073h.322a11.412,11.412,0,0,1,2.046-.69,5.15,5.15,0,0,1,2.471.627l.154.064.107.043a3.35,3.35,0,0,0,2.234.257,3.636,3.636,0,0,0,.608-.282l.032-.017c.069-.038.138-.076.207-.112a2.128,2.128,0,0,1,.889-.29c.243-.01.778.114.761.4Z" transform="translate(-901.13 -895.626)"/></g><g transform="translate(5.925 5.658)"><rect class="q" width="6.939" height="1.119" rx="0.528"/></g><g transform="translate(6.021 10.482)"><path class="k" d="M911.725,952.183v1.379h-1.01V952.2a5.474,5.474,0,0,1-3.017-1.022l.554-1.244a4.719,4.719,0,0,0,2.463.936V948.4a4.194,4.194,0,0,1-2.438-1.2c-.906-1.116-.46-3.538,2.438-3.823v-1.391h1.01v1.367a5.274,5.274,0,0,1,2.5.751l-.5,1.243a5.126,5.126,0,0,0-1.995-.665v2.487c1.569.371,2.857.849,2.857,2.475C914.581,950.83,913.757,951.967,911.725,952.183Zm-1.01-5.27v-2.192C909.275,944.948,908.814,946.37,910.715,946.913Zm1.01,1.749v2.179C913.295,950.6,913.627,949.2,911.725,948.662Z" transform="translate(-907.698 -941.988)"/></g></g><g transform="translate(42.103 5.37)"><g transform="translate(8.457 0)"><path class="b" d="M1.78,0H4.527A1.781,1.781,0,0,1,6.307,1.781V6.469A1.779,1.779,0,0,1,4.528,8.248H1.781A1.781,1.781,0,0,1,0,6.467V1.78A1.78,1.78,0,0,1,1.78,0Z"/></g><path class="q" d="M909.789,572.865a1.044,1.044,0,0,0,1.963.5v3.226a.4.4,0,0,1-.4.4h-5.5a.4.4,0,0,1-.4-.4v-7.443a.4.4,0,0,1,.4-.4h5.5a.4.4,0,0,1,.4.4v3.226a1.044,1.044,0,0,0-1.963.5Z" transform="translate(-905.445 -568.741)"/><g transform="translate(6.494 3.017)"><path class="b" d="M936.119,582.427a1.142,1.142,0,0,1-1.609,1.61.366.366,0,0,1-.083-.083,1.142,1.142,0,0,1,1.61-1.61A.355.355,0,0,1,936.119,582.427Z" transform="translate(-934.166 -582.083)"/></g><g transform="translate(7.929 3.397)"><rect class="b" width="1.08" height="1.454"/></g></g><g transform="translate(0 66.626)"><g transform="translate(0 10.338)"><g transform="translate(2.76 2.765)"><g transform="translate(0 29.976)"><path class="q" d="M731.868,1031.07a.432.432,0,1,1,.308-.127A.43.43,0,0,1,731.868,1031.07Z" transform="translate(-731.434 -1030.207)"/></g><g transform="translate(0 1.762)"><path class="q" d="M731.434,932.3a.434.434,0,0,1,.434-.434h0a.44.44,0,0,1,.434.434h0a.434.434,0,0,1-.434.434h0A.429.429,0,0,1,731.434,932.3Zm0-1.764a.434.434,0,0,1,.434-.434h0a.44.44,0,0,1,.434.434h0a.434.434,0,0,1-.434.434h0A.429.429,0,0,1,731.434,930.536Zm0-1.763a.434.434,0,0,1,.434-.434h0a.44.44,0,0,1,.434.434h0a.434.434,0,0,1-.434.434h0A.428.428,0,0,1,731.434,928.773Zm0-1.764a.434.434,0,0,1,.434-.434h0a.44.44,0,0,1,.434.434h0a.434.434,0,0,1-.434.434h0A.429.429,0,0,1,731.434,927.009Zm0-1.764a.434.434,0,0,1,.434-.434h0a.44.44,0,0,1,.434.434h0a.434.434,0,0,1-.434.434h0A.429.429,0,0,1,731.434,925.245Zm0-1.764a.434.434,0,0,1,.434-.434h0a.44.44,0,0,1,.434.434h0a.434.434,0,0,1-.434.434h0A.429.429,0,0,1,731.434,923.482Zm0-1.764a.434.434,0,0,1,.434-.434h0a.44.44,0,0,1,.434.434h0a.434.434,0,0,1-.434.434h0A.429.429,0,0,1,731.434,921.718Zm0-1.763a.434.434,0,0,1,.434-.434h0a.44.44,0,0,1,.434.434h0a.434.434,0,0,1-.434.434h0A.428.428,0,0,1,731.434,919.955Zm0-1.764a.434.434,0,0,1,.434-.434h0a.44.44,0,0,1,.434.434h0a.434.434,0,0,1-.434.434h0A.429.429,0,0,1,731.434,918.191Zm0-1.764a.434.434,0,0,1,.434-.434h0a.44.44,0,0,1,.434.434h0a.434.434,0,0,1-.434.434h0A.429.429,0,0,1,731.434,916.427Zm0-1.764a.434.434,0,0,1,.434-.434h0a.44.44,0,0,1,.434.434h0a.434.434,0,0,1-.434.434h0A.429.429,0,0,1,731.434,914.664Zm0-1.764a.427.427,0,0,1,.434-.425h0a.432.432,0,0,1,.434.425h0a.434.434,0,0,1-.434.434h0A.429.429,0,0,1,731.434,912.9Zm0-1.763a.434.434,0,0,1,.434-.434h0a.44.44,0,0,1,.434.434h0a.434.434,0,0,1-.434.434h0A.428.428,0,0,1,731.434,911.137Zm0-1.764a.434.434,0,0,1,.434-.434h0a.44.44,0,0,1,.434.434h0a.434.434,0,0,1-.434.434h0A.429.429,0,0,1,731.434,909.373Zm0-1.764a.434.434,0,0,1,.434-.434h0a.44.44,0,0,1,.434.434h0a.434.434,0,0,1-.434.434h0A.429.429,0,0,1,731.434,907.61Zm0-1.763a.427.427,0,0,1,.434-.425h0a.432.432,0,0,1,.434.425h0a.434.434,0,0,1-.434.434h0A.428.428,0,0,1,731.434,905.846Z" transform="translate(-731.434 -905.421)"/></g><path class="q" d="M731.868,898.484a.432.432,0,0,1-.434-.434.412.412,0,0,1,.127-.3.44.44,0,0,1,.615,0,.411.411,0,0,1,.126.3.431.431,0,0,1-.434.434Z" transform="translate(-731.434 -897.626)"/></g><path class="k" d="M724.843,886.365a3.3,3.3,0,0,1-4.647,4.648.874.874,0,0,1-.2-.2,3.3,3.3,0,0,1,4.647-4.648A.879.879,0,0,1,724.843,886.365Z" transform="translate(-719.227 -885.397)"/></g><g transform="translate(24.538 10.338)"><g transform="translate(2.758 2.767)"><g transform="translate(0 29.976)"><path class="q" d="M840.389,1031.077a.432.432,0,0,1-.434-.434.4.4,0,0,1,.136-.307.446.446,0,0,1,.606,0,.434.434,0,0,1-.307.742Z" transform="translate(-839.955 -1030.217)"/></g><g transform="translate(0 1.751)"><path class="q" d="M839.955,932.269a.44.44,0,0,1,.434-.434h0a.434.434,0,0,1,.434.434h0a.429.429,0,0,1-.434.434h0A.434.434,0,0,1,839.955,932.269Zm0-1.764a.44.44,0,0,1,.434-.434h0a.434.434,0,0,1,.434.434h0a.429.429,0,0,1-.434.434h0A.434.434,0,0,1,839.955,930.505Zm0-1.763a.44.44,0,0,1,.434-.434h0a.434.434,0,0,1,.434.434h0a.428.428,0,0,1-.434.434h0A.434.434,0,0,1,839.955,928.742Zm0-1.764a.44.44,0,0,1,.434-.434h0a.434.434,0,0,1,.434.434h0a.429.429,0,0,1-.434.434h0A.434.434,0,0,1,839.955,926.978Zm0-1.764a.44.44,0,0,1,.434-.434h0a.434.434,0,0,1,.434.434h0a.429.429,0,0,1-.434.434h0A.434.434,0,0,1,839.955,925.214Zm0-1.764a.432.432,0,0,1,.434-.425h0a.427.427,0,0,1,.434.425h0a.429.429,0,0,1-.434.434h0A.434.434,0,0,1,839.955,923.451Zm0-1.764a.44.44,0,0,1,.434-.434h0a.434.434,0,0,1,.434.434h0a.429.429,0,0,1-.434.434h0A.434.434,0,0,1,839.955,921.687Zm0-1.763a.44.44,0,0,1,.434-.434h0a.434.434,0,0,1,.434.434h0a.428.428,0,0,1-.434.434h0A.434.434,0,0,1,839.955,919.924Zm0-1.764a.44.44,0,0,1,.434-.434h0a.434.434,0,0,1,.434.434h0a.429.429,0,0,1-.434.434h0A.434.434,0,0,1,839.955,918.16Zm0-1.764a.44.44,0,0,1,.434-.434h0a.434.434,0,0,1,.434.434h0a.429.429,0,0,1-.434.434h0A.434.434,0,0,1,839.955,916.4Zm0-1.764a.44.44,0,0,1,.434-.434h0a.434.434,0,0,1,.434.434h0a.429.429,0,0,1-.434.434h0A.434.434,0,0,1,839.955,914.633Zm0-1.764a.44.44,0,0,1,.434-.434h0a.434.434,0,0,1,.434.434h0a.429.429,0,0,1-.434.434h0A.434.434,0,0,1,839.955,912.869Zm0-1.763a.432.432,0,0,1,.434-.425h0a.427.427,0,0,1,.434.425h0a.428.428,0,0,1-.434.434h0A.434.434,0,0,1,839.955,911.106Zm0-1.764a.432.432,0,0,1,.434-.425h0a.427.427,0,0,1,.434.425h0a.429.429,0,0,1-.434.434h0A.434.434,0,0,1,839.955,909.343Zm0-1.764a.44.44,0,0,1,.434-.434h0a.434.434,0,0,1,.434.434h0a.429.429,0,0,1-.434.434h0A.434.434,0,0,1,839.955,907.579Zm0-1.764a.44.44,0,0,1,.434-.434h0a.434.434,0,0,1,.434.434h0a.429.429,0,0,1-.434.434h0A.434.434,0,0,1,839.955,905.815Z" transform="translate(-839.955 -905.381)"/></g><path class="q" d="M840.389,898.492a.432.432,0,0,1-.308-.126.411.411,0,0,1-.126-.3.424.424,0,0,1,.136-.317.446.446,0,0,1,.606.009.416.416,0,0,1,.127.307.411.411,0,0,1-.127.3A.431.431,0,0,1,840.389,898.492Z" transform="translate(-839.955 -897.636)"/></g><path class="k" d="M833.374,886.365a3.3,3.3,0,0,1-4.647,4.648.87.87,0,0,1-.2-.2,3.3,3.3,0,0,1,4.647-4.648A.879.879,0,0,1,833.374,886.365Z" transform="translate(-827.758 -885.397)"/></g><g transform="translate(11.274)"><g transform="translate(3.623 3.627)"><g transform="translate(0 39.323)"><path class="q" d="M785.685,1030.763a.608.608,0,0,1-.407-.163.579.579,0,0,1,0-.805.588.588,0,0,1,.8,0,.579.579,0,0,1,0,.805A.6.6,0,0,1,785.685,1030.763Z" transform="translate(-785.115 -1029.636)"/></g><g transform="translate(0 2.303)"><path class="q" d="M785.115,901.164a.563.563,0,0,1,.561-.561h0a.566.566,0,0,1,.57.561h0a.567.567,0,0,1-.57.57h0A.565.565,0,0,1,785.115,901.164Zm0-2.306a.565.565,0,0,1,.561-.57h0a.568.568,0,0,1,.57.57h0a.565.565,0,0,1-.57.56h0A.563.563,0,0,1,785.115,898.858Zm0-2.315a.565.565,0,0,1,.561-.57h0a.568.568,0,0,1,.57.57h0a.568.568,0,0,1-.57.57h0A.565.565,0,0,1,785.115,896.543Zm0-2.315a.571.571,0,0,1,.561-.57h0a.573.573,0,0,1,.57.57h0a.568.568,0,0,1-.57.57h0A.566.566,0,0,1,785.115,894.227Zm0-2.315a.563.563,0,0,1,.561-.561h0a.566.566,0,0,1,.57.561h0a.567.567,0,0,1-.57.57h0A.565.565,0,0,1,785.115,891.912Zm0-2.306a.565.565,0,0,1,.561-.57h0a.568.568,0,0,1,.57.57h0a.566.566,0,0,1-.57.56h0A.563.563,0,0,1,785.115,889.606Zm0-2.315a.565.565,0,0,1,.561-.57h0a.567.567,0,0,1,.57.57h0a.568.568,0,0,1-.57.57h0A.566.566,0,0,1,785.115,887.291Zm0-2.315a.565.565,0,0,1,.561-.57h0a.568.568,0,0,1,.57.57h0a.568.568,0,0,1-.57.57h0A.565.565,0,0,1,785.115,884.975Zm0-2.315a.564.564,0,0,1,.561-.561h0a.566.566,0,0,1,.57.561h0a.568.568,0,0,1-.57.57h0A.565.565,0,0,1,785.115,882.66Zm0-2.306a.565.565,0,0,1,.561-.57h0a.568.568,0,0,1,.57.57h0a.566.566,0,0,1-.57.56h0A.563.563,0,0,1,785.115,880.354Zm0-2.316a.565.565,0,0,1,.561-.57h0a.568.568,0,0,1,.57.57h0a.568.568,0,0,1-.57.57h0A.565.565,0,0,1,785.115,878.039Zm0-2.315a.565.565,0,0,1,.561-.57h0a.567.567,0,0,1,.57.57h0a.568.568,0,0,1-.57.57h0A.565.565,0,0,1,785.115,875.724Zm0-2.315a.564.564,0,0,1,.561-.561h0a.566.566,0,0,1,.57.561h0a.568.568,0,0,1-.57.57h0A.565.565,0,0,1,785.115,873.408Zm0-2.306a.565.565,0,0,1,.561-.57h0a.568.568,0,0,1,.57.57h0a.566.566,0,0,1-.57.56h0A.563.563,0,0,1,785.115,871.1Zm0-2.315a.565.565,0,0,1,.561-.57h0a.568.568,0,0,1,.57.57h0a.573.573,0,0,1-.57.57h0A.571.571,0,0,1,785.115,868.787Zm0-2.315a.565.565,0,0,1,.561-.57h0a.567.567,0,0,1,.57.57h0a.568.568,0,0,1-.57.57h0A.565.565,0,0,1,785.115,866.472Z" transform="translate(-785.115 -865.902)"/></g><path class="q" d="M785.685,856.843a.556.556,0,0,1-.57-.57.562.562,0,0,1,.163-.4.565.565,0,0,1,.968.4.556.556,0,0,1-.561.57Z" transform="translate(-785.115 -855.716)"/></g><path class="k" d="M776.453,840.936c3.166,4.4-1.7,9.264-6.1,6.1a1.113,1.113,0,0,1-.25-.25c-3.165-4.4,1.7-9.263,6.1-6.1A1.106,1.106,0,0,1,776.453,840.936Z" transform="translate(-769.091 -839.672)"/></g></g></g></svg>