<svg xmlns="http://www.w3.org/2000/svg" width="130.363" height="115.321" viewBox="0 0 130.363 115.321"><defs><style>.a{fill:#ffccbe;}.b{fill:#f97c55;}.c{fill:#4f7dfc;}.d{fill:#3160ff;}.e{fill:#f66531;}.f{fill:#180e34;}.g{fill:#28214f;}.h{fill:#3aefd0;}.i{fill:#1fddc1;}</style></defs><g transform="translate(0 0)"><g transform="translate(30.889 34.171)"><path class="a" d="M782.836,938.62l.759,1.114s2.9-.255,2.387-3.772c-.517-3.54-3.07.055-3.07.055s.542-.913-.239-.964S782.836,938.62,782.836,938.62Z" transform="translate(-782.363 -934.403)"/></g><g transform="translate(13.274 29.366)"><path class="b" d="M671.219,903.607c2.976.5,6.746,12.12,6.746,12.12l8.641-3.507c.307-.254,1.715,1.446,1.408,1.7,0,0-7.053,8.592-9.817,8.105-4.536-.8-9.45-15.815-9.45-15.815S670.334,903.458,671.219,903.607Z" transform="translate(-668.747 -903.601)"/></g><g transform="translate(97.917 35.135)"><path class="a" d="M1216.32,944.6l-.605,1.2s-2.908.131-2.864-3.424c.044-3.577,3.051-.351,3.051-.351s-.658-.834.11-.987S1216.32,944.6,1216.32,944.6Z" transform="translate(-1212.85 -940.695)"/></g><g transform="translate(100.338 28.046)"><path class="c" d="M1244.7,895.005c-2.884.889-5.084,12.905-5.084,12.905l-9.028-2.333c-.338-.211-1.509,1.66-1.171,1.871,0,0,8.127,7.584,10.8,6.736,4.391-1.392,7.276-16.925,7.276-16.925S1245.557,894.741,1244.7,895.005Z" transform="translate(-1229.355 -894.986)"/></g><g transform="translate(11.38 110.973)"><path class="d" d="M663.295,1440.005c.131,0,.2-.169.229-.41a1.754,1.754,0,0,0-1.407-1.88,9.537,9.537,0,0,1-3.527-1.559h-1.941v3.21a.638.638,0,0,0,.638.638Z" transform="translate(-656.649 -1436.157)"/></g><g transform="translate(112.987 110.973)"><path class="e" d="M1310.376,1440.005c-.131,0-.2-.169-.229-.41a1.754,1.754,0,0,1,1.407-1.88,9.538,9.538,0,0,0,3.527-1.559h1.942v3.21a.638.638,0,0,1-.638.638Z" transform="translate(-1310.134 -1436.157)"/></g><g transform="translate(121.748 110.973)"><path class="e" d="M1366.328,1440.005c-.131,0-.2-.169-.229-.41a1.754,1.754,0,0,1,1.407-1.88,9.536,9.536,0,0,0,3.527-1.559h1.941v3.21a.638.638,0,0,1-.638.638Z" transform="translate(-1366.086 -1436.157)"/></g><g transform="translate(7.791 64.115)"><path class="f" d="M639.474,1183.768l7.947-40.96-7.791-5.9-5.9,20.072,3.458,26.787C637.19,1184.177,639.474,1184.177,639.474,1183.768Z" transform="translate(-633.732 -1136.909)"/></g><g transform="translate(3.739 110.973)"><path class="d" d="M614.5,1440.005c.131,0,.2-.169.229-.41a1.754,1.754,0,0,0-1.407-1.88,9.536,9.536,0,0,1-3.527-1.559h-1.941v3.21a.638.638,0,0,0,.638.638Z" transform="translate(-607.858 -1436.157)"/></g><g transform="translate(1.717 65.303)"><path class="g" d="M599.138,1190.169l11.076-43.777L594.94,1144.5l1.746,45.67C596.686,1190.816,599.138,1190.816,599.138,1190.169Z" transform="translate(-594.94 -1144.499)"/></g><g transform="translate(0 24.612)"><path class="e" d="M600.571,879.412c-1.205-1.8-6.724-5.785-8.732-4.968-6.008,2.443-7.863,45.761-7.863,45.761,0,3.639,24.958,3.639,24.958,0C608.935,920.2,606.595,888.413,600.571,879.412Z" transform="translate(-583.977 -874.335)"/></g><g transform="translate(5.993 10.235)"><path class="a" d="M629.515,793.948l.71-2.344s4.877,1.587,5.992-1.953c1.471-4.674.825-14.553-9.177-13.073-8.674,1.284-2.922,15.29-2.922,15.29C624.481,792.661,629.116,794.86,629.515,793.948Z" transform="translate(-622.248 -776.429)"/></g><g transform="translate(3.779 4.687)"><path class="f" d="M612.056,761.628s1.565-.615,1.754-1.1c.611-1.554-1.709-6.353.734-6.64s1.849,2.245,1.849,2.245h1.034l.308-3.411s2.927-.88.9-1.871c0,0,10.916,1.21,10.652-6.184s-21.034-2.158-21.172,2.905C607.928,754.558,612.056,761.628,612.056,761.628Z" transform="translate(-608.111 -740.998)"/></g><g transform="translate(113.301 61.57)"><path class="f" d="M1327.6,1170.062l-.787-48.333-14.667-1.07,12.959,49.4C1325.1,1170.628,1327.6,1170.628,1327.6,1170.062Z" transform="translate(-1312.142 -1120.659)"/></g><g transform="translate(108.894 61.57)"><path class="g" d="M1295.132,1170.17l3.531-48.441-14.667-1.07,8.393,49.415C1292.372,1170.555,1295.115,1170.651,1295.132,1170.17Z" transform="translate(-1283.996 -1120.659)"/></g><g transform="translate(107.982 18.613)"><path class="d" d="M1300.224,882.46c.914-11.443.172-40.773-5.517-47.451-1.628-1.911-7.494,3.312-8.726,8.022-1.752,6.693-6.492,27.942-7.81,37.942C1278.171,884.025,1300.224,885.512,1300.224,882.46Z" transform="translate(-1278.171 -834.605)"/></g><g transform="translate(109.983 4.992)"><path class="a" d="M1300.046,761.217l-1.188-1.617s-4.828,2.2-6.809-.788c-1.939-2.925-2.212-15.862,6.867-15.862,8.484,0,6.36,15.56,6.36,15.56C1305.375,759.9,1300.541,761.911,1300.046,761.217Z" transform="translate(-1290.949 -742.949)"/></g><g transform="translate(101.636 0)"><path class="f" d="M1260.553,731.376s-2.356.34-2.806-.2c-1.136-1.362.765-6.964-1.513-6.931s-1.057,2.905-1.057,2.905h-.627l-.924-2.707s-2.212-.759-.825-2.08c0,0-13.469,5.15-15.087-4.754s25.023-7.395,25.816-.231S1260.553,731.376,1260.553,731.376Z" transform="translate(-1237.643 -711.066)"/></g><g transform="translate(66.542 29.659)"><path class="b" d="M1045.964,908.6v29.156a2.149,2.149,0,0,1-2.152,2.147h-29.564a2.149,2.149,0,0,1-2.152-2.147V925.927c3.849.275,4.419,2.842,7.808,2.477a5.256,5.256,0,0,0-.583-10.481c-3.048,0-3.453,2.259-7.224,2.508V908.6a2.154,2.154,0,0,1,2.152-2.152h29.564A2.154,2.154,0,0,1,1045.964,908.6Z" transform="translate(-1012.097 -906.452)"/></g><g transform="translate(100.185 41.056)"><path class="b" d="M1235.6,979.711a5.233,5.233,0,0,0-3.1,1.011,7.864,7.864,0,0,1-4.123,1.5v5.493a8.456,8.456,0,0,1,4.212,1.562,5.257,5.257,0,1,0,3.011-9.563Z" transform="translate(-1228.379 -979.711)"/></g><g transform="translate(78.242 62.482)"><path class="b" d="M1096.154,1124.22a7.863,7.863,0,0,1-1.5-4.122h-5.493a8.459,8.459,0,0,1-1.563,4.212,5.257,5.257,0,1,0,8.552-.09Z" transform="translate(-1086.65 -1120.098)"/></g><g transform="translate(45.098 62.482)"><path class="c" d="M883.219,1124.22a7.867,7.867,0,0,1-1.5-4.122h-5.493a8.458,8.458,0,0,1-1.562,4.212,5.257,5.257,0,1,0,8.552-.09Z" transform="translate(-873.715 -1120.098)"/></g><g transform="translate(20.482 29.659)"><path class="c" d="M774.9,923.765a5.29,5.29,0,0,1-4.644,4.639c-3.383.364-3.958-2.2-7.808-2.477v11.833a2.149,2.149,0,0,1-2.152,2.147H730.729a2.149,2.149,0,0,1-2.152-2.147V925.927a7.862,7.862,0,0,0-4.123,1.5,5.26,5.26,0,0,1-8.329-4.83,5.258,5.258,0,0,1,8.241-3.721,8.423,8.423,0,0,0,4.211,1.558c.593-8.586-1.52-13.979,2.152-13.979h12.56c-.271,3.8-2.841,4.426-2.477,7.807a5.256,5.256,0,0,0,10.481-.583c0-3.027-2.261-3.477-2.508-7.224h11.507a2.154,2.154,0,0,1,2.152,2.152v11.827c3.824-.252,4.115-2.508,7.224-2.508A5.261,5.261,0,0,1,774.9,923.765Z" transform="translate(-716.094 -906.452)"/></g><g transform="translate(94.444 60.812)"><path class="a" d="M1195.162,1109.146s-.48,3.367-3.473,2.138c-2.164-.909-.695-1.79.267-2.192-.187.027-.321-.027-.321-.267,0-.561,2.543-.466,2.543-.466Z" transform="translate(-1190.569 -1108.354)"/></g><g transform="translate(97.736 24.192)"><path class="c" d="M1235.609,871.085c-2.2-1.292-4.6,1.334-6.041,3.763-4.317,7.3-16.814,33.03-16.814,33.03-.153.17,1.1,1.292,1.25,1.122,0,0,19.777-21.742,23.025-29.761C1238.208,876.325,1237.966,872.467,1235.609,871.085Z" transform="translate(-1212.741 -870.744)"/></g><g transform="translate(33.235 51.799)"><path class="a" d="M805.317,1052.905c-.225,4.134-7.844.787-7.844.787l.067-1.551s1.616-3.023,2.5-2.45c.778.512-.573,1.412-.921,1.637C799.914,1051.043,805.5,1049.037,805.317,1052.905Z" transform="translate(-797.473 -1049.62)"/></g><g transform="translate(4.726 28.567)"><path class="b" d="M617.2,899c-3.05.745-3.576,6.1-2.6,9.869.94,3.631,2.342,12.25,5.213,14.377,4.543,3.365,22.925,4.017,22.925,4.017.679.083,1.038-2.872.359-2.954l-18.551-6.073s-.175-11.04-1.5-14.333C621.934,901.15,619.787,898.374,617.2,899Z" transform="translate(-614.158 -898.914)"/></g></g><g transform="translate(32.691 89.56)"><g transform="translate(0 0)"><path class="h" d="M799.143,1307.527a28.792,28.792,0,0,1,5.431,5.814c1.38,1.94,2.033,3.671,2.354,3.587.64.05.07-8.039-4.12-13.287-4.112-5.184-7.666-4.824-8.427-3.046C793.425,1302.559,795.03,1304.358,799.143,1307.527Z" transform="translate(-794.113 -1299.405)"/><g transform="translate(2.334 2.842)"><path class="i" d="M818.155,1328a19.969,19.969,0,0,1,1.232,3.736l.022,0a21.642,21.642,0,0,0-1.083-3.708l.067.158c-.2-1.248-.442-2.547-.757-3.9.144,1.025.257,2,.353,2.936-.058-.129-.116-.258-.177-.387-.036-.076-.071-.15-.108-.226-.141-.292-.289-.582-.443-.867v0c-.311-1.277-.68-2.606-1.137-3.988.237,1.068.432,2.088.6,3.06-.373-.611-.68-1.051-1.027-1.522h0c-.43-1.215-.927-2.473-1.516-3.769.349,1.04.648,2.04.911,3a14.762,14.762,0,0,0-1.329-1.436c-.531-1.144-1.133-2.322-1.832-3.528.412,1,.771,1.963,1.09,2.889a8.514,8.514,0,0,0-3.983-1.884l-.023.063a13.106,13.106,0,0,1,3.048,1.784,12.076,12.076,0,0,0-2.836.149,12.079,12.079,0,0,1,3.624.478c.441.373.872.757,1.285,1.159a11,11,0,0,0-2.688-.361,11.432,11.432,0,0,1,3.424,1.114v0a16.785,16.785,0,0,1,1.2,1.453,10.262,10.262,0,0,0-2.609-1,10.946,10.946,0,0,1,3.079,1.684l0-.014c.1.156.2.312.3.47l0,.015.009,0c.147.236.289.474.426.716a9.581,9.581,0,0,0-2.357-1.3,10.516,10.516,0,0,1,2.792,2.116h0c.088.175.173.352.256.528.021.044.042.091.063.136C818.081,1327.838,818.118,1327.92,818.155,1328Z" transform="translate(-809.021 -1317.557)"/></g><g transform="translate(12.722 7.641)"><path class="h" d="M876.849,1356.258c-.8,1.122-1.176,2.123-1.361,2.074-.37.029-.041-4.649,2.382-7.683,2.378-3,4.433-2.79,4.873-1.762C883.777,1351.011,879.477,1352.361,876.849,1356.258Z" transform="translate(-875.36 -1348.2)"/><g transform="translate(0.182 1.644)"><path class="i" d="M877.244,1364.737a11.563,11.563,0,0,0-.713,2.161h-.012a12.484,12.484,0,0,1,.626-2.144l-.039.091c.115-.722.256-1.473.438-2.256-.083.593-.148,1.159-.2,1.7.034-.075.067-.149.1-.224l.062-.131c.082-.169.167-.337.257-.5h0c.18-.738.394-1.507.658-2.306-.137.618-.25,1.207-.348,1.769.216-.353.394-.608.594-.88h0c.248-.7.535-1.43.876-2.18-.2.6-.375,1.18-.527,1.734a8.465,8.465,0,0,1,.769-.83c.307-.662.656-1.343,1.059-2.04-.239.578-.446,1.136-.63,1.671a4.924,4.924,0,0,1,2.3-1.089l.013.036a7.592,7.592,0,0,0-1.762,1.032,6.965,6.965,0,0,1,1.64.086,6.988,6.988,0,0,0-2.1.276c-.255.216-.5.438-.743.671a6.354,6.354,0,0,1,1.554-.209,6.618,6.618,0,0,0-1.98.644v0a9.791,9.791,0,0,0-.691.84,5.932,5.932,0,0,1,1.508-.577,6.333,6.333,0,0,0-1.78.974v-.008c-.06.09-.118.18-.176.272v.009l-.005,0c-.085.137-.167.274-.247.414a5.55,5.55,0,0,1,1.363-.752,6.085,6.085,0,0,0-1.615,1.224h0c-.051.1-.1.2-.148.305-.013.026-.024.052-.036.078C877.287,1364.641,877.265,1364.689,877.244,1364.737Z" transform="translate(-876.519 -1358.696)"/></g></g></g><g transform="translate(11.156 15.89)"><path class="d" d="M866.487,1410.738l-1.128-9.854,8.35.018-1.128,9.854Z" transform="translate(-865.359 -1400.884)"/></g><g transform="translate(8.722 15.89)"><path class="c" d="M850.942,1410.738l-1.128-9.854,8.35.018-1.128,9.854Z" transform="translate(-849.813 -1400.884)"/></g></g><g transform="translate(68.94 85.441)"><path class="h" d="M1032.154,1281.226c6.343,5.143,7.136,9.571,7.785,9.4.64.05.07-8.039-4.12-13.287-4.112-5.183-7.667-4.824-8.427-3.046C1026.436,1276.258,1028.04,1278.058,1032.154,1281.226Z" transform="translate(-1027.124 -1273.105)"/><g transform="translate(2.334 2.842)"><path class="i" d="M1052.4,1305.439l.021,0a21.617,21.617,0,0,0-1.082-3.708l.067.158c-.2-1.248-.442-2.547-.757-3.9.144,1.025.257,2,.353,2.936-.228-.508-.456-.978-.728-1.48v0c-.311-1.277-.68-2.606-1.137-3.988.237,1.068.432,2.088.6,3.06-.373-.611-.68-1.051-1.027-1.521h0c-.43-1.216-.927-2.473-1.516-3.769.349,1.04.648,2.04.911,3a14.756,14.756,0,0,0-1.329-1.436c-.531-1.144-1.133-2.322-1.831-3.528.412,1,.771,1.964,1.089,2.889a8.524,8.524,0,0,0-3.983-1.884l-.023.063a13.111,13.111,0,0,1,3.048,1.783,12.077,12.077,0,0,0-2.837.15,12.088,12.088,0,0,1,3.624.477c.441.373.872.757,1.285,1.159a11.005,11.005,0,0,0-2.688-.361,11.438,11.438,0,0,1,3.424,1.114v0a16.822,16.822,0,0,1,1.2,1.453,10.268,10.268,0,0,0-2.609-1,10.956,10.956,0,0,1,3.079,1.684l0-.014c.1.156.205.311.3.47l0,.015.009,0c.147.236.289.474.426.716a9.59,9.59,0,0,0-2.356-1.3,10.512,10.512,0,0,1,2.792,2.116A19.884,19.884,0,0,1,1052.4,1305.439Z" transform="translate(-1042.032 -1291.256)"/></g><g transform="translate(12.722 7.641)"><path class="h" d="M1109.86,1329.957c-.8,1.122-1.176,2.123-1.361,2.074-.37.029-.04-4.649,2.382-7.684,2.378-3,4.433-2.789,4.873-1.761C1116.788,1324.71,1112.488,1326.061,1109.86,1329.957Z" transform="translate(-1108.371 -1321.899)"/><g transform="translate(0.181 1.644)"><path class="i" d="M1109.542,1340.6h-.012a12.5,12.5,0,0,1,.626-2.144l-.038.091c.115-.722.256-1.473.438-2.256-.083.593-.149,1.158-.2,1.7.132-.294.264-.566.421-.856h0c.18-.739.393-1.507.658-2.306-.137.618-.25,1.207-.348,1.769.216-.353.394-.608.594-.88h0c.248-.7.535-1.43.876-2.179-.2.6-.375,1.18-.527,1.734a8.467,8.467,0,0,1,.769-.83c.307-.662.656-1.343,1.059-2.04-.238.578-.446,1.135-.63,1.67a4.922,4.922,0,0,1,2.3-1.089l.013.036a7.591,7.591,0,0,0-1.762,1.031,6.977,6.977,0,0,1,1.64.086,6.989,6.989,0,0,0-2.1.276c-.255.216-.5.438-.743.671a6.357,6.357,0,0,1,1.554-.209,6.605,6.605,0,0,0-1.98.644v0a9.693,9.693,0,0,0-.692.84,5.943,5.943,0,0,1,1.509-.577,6.334,6.334,0,0,0-1.78.974v-.008c-.06.09-.119.18-.176.272v.009l-.005,0c-.085.136-.167.274-.247.414a5.541,5.541,0,0,1,1.363-.753,6.088,6.088,0,0,0-1.615,1.224A11,11,0,0,0,1109.542,1340.6Z" transform="translate(-1109.53 -1332.395)"/></g></g><g transform="translate(11.156 15.89)"><path class="d" d="M1099.5,1384.438l-1.129-9.854,8.35.018-1.129,9.854Z" transform="translate(-1098.37 -1374.583)"/></g><g transform="translate(8.722 15.89)"><path class="c" d="M1083.953,1384.438l-1.129-9.854,8.35.018-1.128,9.854Z" transform="translate(-1082.824 -1374.583)"/></g></g></svg>