<svg xmlns="http://www.w3.org/2000/svg" width="70.501" height="70.5" viewBox="0 0 70.501 70.5"><defs><style>.a{fill:#599b6d;stroke:#fff;stroke-width:0.5px;}</style></defs><g transform="translate(0.25 0.25)"><g transform="translate(10.161 7.903)"><path class="a" d="M76.516,62.774a2.258,2.258,0,1,1,2.258-2.258h2.258a4.516,4.516,0,1,0-4.516,4.516,2.258,2.258,0,1,1-2.258,2.258H72a4.516,4.516,0,1,0,4.516-4.516Z" transform="translate(-72 -56)"/></g><g transform="translate(13.548 5.645)"><rect class="a" width="2.258" height="3.387"/></g><g transform="translate(13.548 22.581)"><rect class="a" width="2.258" height="3.387"/></g><g transform="translate(0 63.226)"><path class="a" d="M0,448v6.774H20.323V448Zm18.065,4.516H2.258v-2.258H18.065Z" transform="translate(0 -448)"/></g><g transform="translate(0 58.71)"><path class="a" d="M0,416v6.774H20.323V416Zm18.065,4.516H2.258v-2.258H18.065Z" transform="translate(0 -416)"/></g><g transform="translate(0 54.194)"><path class="a" d="M0,384v6.774H20.323V384Zm18.065,4.516H2.258v-2.258H18.065Z" transform="translate(0 -384)"/></g><g transform="translate(22.581 63.226)"><path class="a" d="M166.774,448v2.258h11.29v2.258H162.258v-2.258h2.258V448H160v6.774h20.323V448Z" transform="translate(-160 -448)"/></g><g transform="translate(22.581 58.71)"><path class="a" d="M160,416v5.645h2.258v-3.387h15.806v3.387h2.258V416Z" transform="translate(-160 -416)"/></g><g transform="translate(22.581 54.194)"><path class="a" d="M160,384v6.774h20.323V384Zm18.065,4.516H162.258v-2.258h15.806Z" transform="translate(-160 -384)"/></g><g transform="translate(22.581 49.677)"><path class="a" d="M160,352v6.774h20.323V352Zm18.065,4.516H162.258v-2.258h15.806Z" transform="translate(-160 -352)"/></g><g transform="translate(22.581 45.161)"><path class="a" d="M160,320v6.774h20.323V320Zm18.065,4.516H162.258v-2.258h15.806Z" transform="translate(-160 -320)"/></g><g transform="translate(45.161 63.226)"><path class="a" d="M320,448v6.774h20.323V448Zm18.065,4.516H322.258v-2.258h15.806Z" transform="translate(-320 -448)"/></g><g transform="translate(45.161 58.71)"><path class="a" d="M320,416v6.774h20.323V416Zm18.065,4.516H322.258v-2.258h15.806Z" transform="translate(-320 -416)"/></g><g transform="translate(45.161 54.194)"><path class="a" d="M320,384v6.774h20.323V384Zm18.065,4.516H322.258v-2.258h15.806Z" transform="translate(-320 -384)"/></g><g transform="translate(45.161 49.677)"><path class="a" d="M320,352v6.774h20.323V352Zm18.065,4.516H322.258v-2.258h15.806Z" transform="translate(-320 -352)"/></g><g transform="translate(45.161 45.161)"><path class="a" d="M335.806,320v2.258h2.258v2.258H322.258v-2.258h11.29V320H320v6.774h20.323V320Z" transform="translate(-320 -320)"/></g><g transform="translate(45.161 40.645)"><path class="a" d="M320,288v5.645h2.258v-3.387h15.806v3.387h2.258V288Z" transform="translate(-320 -288)"/></g><g transform="translate(45.161 36.129)"><path class="a" d="M320,256v6.774h20.323V256Zm18.065,4.516H322.258v-2.258h15.806Z" transform="translate(-320 -256)"/></g><g transform="translate(0.431)"><path class="a" d="M55.689,0a3.387,3.387,0,0,0,0,6.774h5.178L44.236,23.406l-8.943-5.59L3.056,43.137l1.4,1.776L35.44,20.572l9.121,5.7L66.318,4.516H55.689a1.129,1.129,0,0,1,0-2.258H70.367V16.935a1.129,1.129,0,1,1-2.258,0v-9.5L45.331,30.212l-10.079-5.6L6.435,47.667,7.846,49.43,35.481,27.323l10.244,5.691L65.851,12.887v4.049a3.387,3.387,0,1,0,6.774,0V0Z" transform="translate(-3.056)"/></g><g transform="translate(4.516 14.677)"><rect class="a" width="2.258" height="2.258"/></g><g transform="translate(22.581 14.677)"><rect class="a" width="2.258" height="2.258"/></g><g transform="translate(0 1.129)"><path class="a" d="M14.677,8A14.677,14.677,0,1,0,29.355,22.677,14.694,14.694,0,0,0,14.677,8Zm0,27.1A12.419,12.419,0,1,1,27.1,22.677,12.434,12.434,0,0,1,14.677,35.1Z" transform="translate(0 -8)"/></g></g></svg>