<svg xmlns="http://www.w3.org/2000/svg" width="70.5" height="70.5" viewBox="0 0 70.5 70.5"><defs><style>.a{fill:#599b6d;stroke:#fff;stroke-width:0.5px;}</style></defs><g transform="translate(-0.75 -0.75)"><path class="a" d="M45.516,11.516a2.26,2.26,0,0,1,2.258,2.258h2.258a4.511,4.511,0,0,0-3.387-4.356V7H44.387V9.258H41v4.516a4.521,4.521,0,0,0,4.516,4.516,2.26,2.26,0,0,1,2.258,2.258v2.258H45.516a2.26,2.26,0,0,1-2.258-2.258H41A4.511,4.511,0,0,0,44.387,24.9v2.418h2.258V25.065h3.387V20.548a4.521,4.521,0,0,0-4.516-4.516,2.26,2.26,0,0,1-2.258-2.258V11.516Z" transform="translate(5.161 0.774)"/><path class="a" d="M71,31.484A30.518,30.518,0,0,0,40.516,1H39.387V32.613H54.065V46.161a2.26,2.26,0,0,1-2.258,2.258h-5.77a7.9,7.9,0,0,0-5.52-13.548h-7.9V5.516H31.484a30.483,30.483,0,0,0-5.645,60.439V71h23.71V59.808a1.694,1.694,0,0,1,1.391-1.668l3.612-.657A9.028,9.028,0,0,0,61.968,48.6V32.613H71ZM41.611,60.405l-1.1,1.1-1.1-1.1.7-9.728h.8Zm4.55-17.631a5.645,5.645,0,1,1-5.645-5.645A5.652,5.652,0,0,1,46.161,42.774ZM10.8,55.089A28.248,28.248,0,0,1,3.31,37.129H28.758ZM30.355,7.8V34.871H3.286A28.259,28.259,0,0,1,30.355,7.8ZM12.39,56.691,31.951,37.129H35a7.878,7.878,0,0,0,.386,11.64,12.431,12.431,0,0,0-9.543,12.069v2.792A28,28,0,0,1,12.39,56.691ZM59.71,48.6a6.771,6.771,0,0,1-5.563,6.665l-3.612.656a3.951,3.951,0,0,0-3.245,3.89v8.934H33.742V56.323H31.484V68.742H28.1v-7.9A10.166,10.166,0,0,1,37.85,50.7L37.1,61.271l3.421,3.421,3.421-3.421-.756-10.594h8.626a4.521,4.521,0,0,0,4.516-4.516V30.919a1.694,1.694,0,0,1,3.387,0Zm2.2-18.243a3.932,3.932,0,0,0-7.788,0H41.645V3.281A28.262,28.262,0,0,1,68.719,30.355Z"/><path class="a" d="M0,0H2.258V2.258H0Z" transform="translate(19.194 53.457) rotate(-45)"/><path class="a" d="M0,0H2.144V2.258H0Z" transform="translate(22.387 50.262) rotate(-45)"/><path class="a" d="M0,0H2.258V2.258H0Z" transform="translate(16 56.649) rotate(-45)"/><path class="a" d="M27.323,30.29V19H7V30.29ZM9.258,21.258H25.065v6.774H9.258Z" transform="translate(0.774 2.323)"/><path class="a" d="M11,23h2.258v2.258H11Z" transform="translate(1.29 2.839)"/><path class="a" d="M15,23h2.258v2.258H15Z" transform="translate(1.806 2.839)"/><path class="a" d="M19,23h2.258v2.258H19Z" transform="translate(2.323 2.839)"/><path class="a" d="M23,13h2.258v2.258H23Z" transform="translate(2.839 1.548)"/><path class="a" d="M23,9h2.258v2.258H23Z" transform="translate(2.839 1.032)"/><path class="a" d="M7.581,35.714l-2.223.4c.138.772.313,1.547.52,2.3l2.178-.6c-.189-.691-.349-1.4-.475-2.1Z" transform="translate(0.562 4.479)"/><path class="a" d="M8.577,39.389l-2.112.8c.278.736.59,1.465.93,2.165l2.032-.983c-.31-.64-.6-1.306-.85-1.98Z" transform="translate(0.705 4.953)"/><path class="a" d="M10.219,42.82,8.285,43.984c.4.667.841,1.328,1.307,1.963l1.821-1.335c-.426-.58-.828-1.184-1.195-1.793Z" transform="translate(0.94 5.396)"/><path class="a" d="M54.558,18.278l1.98-1.085c-.376-.684-.788-1.363-1.227-2.014l-1.873,1.259c.4.6.777,1.216,1.12,1.84Z" transform="translate(6.766 1.83)"/><path class="a" d="M56.851,25.436l2.237-.306c-.106-.777-.25-1.558-.425-2.321l-2.2.507C56.623,24.013,56.754,24.726,56.851,25.436Z" transform="translate(7.157 2.814)"/><path class="a" d="M56.037,21.754l2.144-.706c-.245-.744-.527-1.486-.841-2.206l-2.071.9C55.555,20.4,55.813,21.075,56.037,21.754Z" transform="translate(7.002 2.302)"/></g></svg>