<svg xmlns="http://www.w3.org/2000/svg" width="30" height="21.429" viewBox="0 0 30 21.429"><defs><style>.a{fill:#fff;}</style></defs><g transform="translate(-6.25 -18.75)"><path class="a" d="M25.536,20.893H7.321a1.071,1.071,0,0,1,0-2.143H25.536a1.071,1.071,0,0,1,0,2.143Z"/><path class="a" d="M35.179,49.018H7.321a1.071,1.071,0,1,1,0-2.143H35.179a1.071,1.071,0,1,1,0,2.143Z" transform="translate(0 -18.482)"/><path class="a" d="M35.179,77.143H7.321a1.071,1.071,0,0,1,0-2.143H35.179a1.071,1.071,0,1,1,0,2.143Z" transform="translate(0 -36.964)"/></g></svg>