<svg xmlns="http://www.w3.org/2000/svg" width="70.5" height="70.5" viewBox="0 0 70.5 70.5"><defs><style>.a{fill:#599b6d;stroke:#fff;stroke-width:0.5px;}</style></defs><g transform="translate(-0.75 -0.75)"><path class="a" d="M60.442,50.677a3.912,3.912,0,0,0,.4-1.694V39.407h9.032V25.859H63.1V22.472a10.174,10.174,0,0,0-7.7-9.85,6.777,6.777,0,1,0-9.241.185,20.306,20.306,0,0,0-4.542,1.622L31.364,19.556a3.846,3.846,0,0,0-.963.69,4.063,4.063,0,0,0-2.12.248l-11.7,4.874a6.772,6.772,0,1,0-9.514,1.339A10.172,10.172,0,0,0,1,36V67.048a3.947,3.947,0,0,0,3.368,3.893V71H71V50.677Zm-1.862-1.694a1.694,1.694,0,0,1-3.387,0V39.407h3.387Zm-5.645-9.576v9.576a3.911,3.911,0,0,0,.4,1.694H48.023a3.912,3.912,0,0,0,.4-1.694V39.121l3.387-.924v1.21Zm14.677-11.29v9.032H54.065V28.117h2.258v1.129a3.387,3.387,0,1,0,6.774,0V28.117ZM46.161,7.774a4.516,4.516,0,1,1,4.687,4.5l-.15,0v.018a.116.116,0,0,0-.02,0A4.521,4.521,0,0,1,46.161,7.774Zm-13.787,13.8L42.627,16.45a18.073,18.073,0,0,1,8.05-1.9c.1,0,.191-.01.287-.015l1.971.035a7.912,7.912,0,0,1,7.9,7.9v6.774a1.129,1.129,0,1,1-2.258,0V23.421A8.861,8.861,0,0,0,56,17.142l-1.6,1.59a6.62,6.62,0,0,1,1.931,4.69v2.438H51.806v10l-3.981,1.086a2.261,2.261,0,0,0-1.664,2.178v9.863a1.694,1.694,0,0,1-3.387,0V35.4a3.367,3.367,0,0,1,1.872-3.029l4.9-2.451V17.935H47.024l-13.207,6.6a1.613,1.613,0,0,1-2.333-1.523A1.6,1.6,0,0,1,32.375,21.575Zm-16.7,20.07H14.548V35.588l16.958-7.98a3.823,3.823,0,0,0,.992-.7,3.61,3.61,0,0,0,2.327-.349L47.29,20.327v8.2l-3.654,1.827A5.613,5.613,0,0,0,40.516,35.4v13.58a3.911,3.911,0,0,0,.4,1.694H24.268l-2.946,2.715v-6.1a5.652,5.652,0,0,0-5.645-5.645ZM6.645,21.323a4.516,4.516,0,1,1,4.516,4.516A4.521,4.521,0,0,1,6.645,21.323ZM3.258,36a7.912,7.912,0,0,1,7.9-7.9H15.9l13.247-5.52c.034-.014.075-.023.112-.035a4.5,4.5,0,0,0-.036.557,3.842,3.842,0,0,0,1.026,2.6L12.29,34.154V43.9h3.387a3.391,3.391,0,0,1,3.387,3.387V58.015a1.694,1.694,0,1,1-3.388,0V50.677a2.26,2.26,0,0,0-2.258-2.258H6.645a3.391,3.391,0,0,1-3.387-3.387ZM8.9,50.677h4.516v7.336a3.915,3.915,0,0,0,.612,2.1L8.9,64.837ZM3.258,67.048V49.519a5.587,5.587,0,0,0,3.387,1.158V67.048a1.694,1.694,0,0,1-3.387,0Zm65.484,1.694H8.507a3.952,3.952,0,0,0,.256-.706l6.977-6.43a3.935,3.935,0,0,0,5.582-3.591V56.463l3.829-3.527H68.742Z" transform="translate(0 0)"/><path class="a" d="M57,57h2.258v2.258H57Z" transform="translate(7.226 7.226)"/><path class="a" d="M53,57h2.258v2.258H53Z" transform="translate(6.71 7.226)"/><path class="a" d="M49,57h2.258v2.258H49Z" transform="translate(6.194 7.226)"/></g></svg>