<svg id="play_" data-name="play " xmlns="http://www.w3.org/2000/svg" width="80" height="80" viewBox="0 0 80 80">
  <metadata><?xpacket begin="﻿" id="W5M0MpCehiHzreSzNTczkc9d"?>
<x:xmpmeta xmlns:x="adobe:ns:meta/" x:xmptk="Adobe XMP Core 5.6-c142 79.160924, 2017/07/13-01:06:39        ">
   <rdf:RDF xmlns:rdf="http://www.w3.org/1999/02/22-rdf-syntax-ns#">
      <rdf:Description rdf:about=""/>
   </rdf:RDF>
</x:xmpmeta>
                                                                                                    
                                                                                                    
                                                                                                    
                                                                                                    
                                                                                                    
                                                                                                    
                                                                                                    
                                                                                                    
                                                                                                    
                                                                                                    
                                                                                                    
                                                                                                    
                                                                                                    
                                                                                                    
                                                                                                    
                                                                                                    
                                                                                                    
                                                                                                    
                                                                                                    
                                                                                                    
                           
<?xpacket end="w"?></metadata>
<defs>
    <style>
      .cls-1 {
        fill: #fff;
        fill-rule: evenodd;
      }
    </style>
  </defs>
  <path id="play_svg" data-name="play svg" class="cls-1" d="M961,8388a40,40,0,1,1,40-40A40,40,0,0,1,961,8388Zm0-78.48A38.48,38.48,0,1,0,999.476,8348,38.479,38.479,0,0,0,961,8309.52Zm13.866,36.07-21.121-13.37a4.009,4.009,0,0,0-3.992-.12,3.839,3.839,0,0,0-2.1,3.3v26.73a3.84,3.84,0,0,0,2.1,3.3,4.025,4.025,0,0,0,1.9.48,3.972,3.972,0,0,0,2.065-.6l21.137-13.35A3.764,3.764,0,0,0,974.866,8345.59Z" transform="translate(-921 -8308)"/>
</svg>
