<svg xmlns="http://www.w3.org/2000/svg" width="70.5" height="70.5" viewBox="0 0 70.5 70.5"><defs><style>.a{fill:#599b6d;stroke:#fff;stroke-width:0.5px;}</style></defs><g transform="translate(-0.75 -0.75)"><path class="a" d="M23.276,43.49a13.9,13.9,0,0,0,21.779,2.729L55.661,35.613,49.548,29.5,39.33,39.718a5.258,5.258,0,0,1-7.435-7.436L42.113,22.065,36,15.952l-3.336,3.336,5.144-9.644A3.84,3.84,0,0,0,34.419,4h-.272a3.861,3.861,0,0,0-3.292,1.863l-7.4,12.331a5.644,5.644,0,0,1-2.328,2.134A9.027,9.027,0,1,0,8.9,21.2,10.173,10.173,0,0,0,1,31.1v4.516a7.914,7.914,0,0,0,5.645,7.57V66.1a4.5,4.5,0,0,0,7.9,2.956,4.5,4.5,0,0,0,7.9-2.956V43.516h.565C23.105,43.516,23.188,43.5,23.276,43.49Zm29.192-7.877L50.677,37.4l-2.92-2.92,1.791-1.791ZM30.3,30.686a7.516,7.516,0,0,0,10.63,10.629l5.234-5.234L49.081,39,43.46,44.621A11.617,11.617,0,0,1,25.441,42.66a3.923,3.923,0,0,0-1.826-6.986,11.545,11.545,0,0,1,3.376-7.519l5.621-5.623,2.92,2.92Zm8.622-8.621-1.791,1.791-2.92-2.92L36,19.145Zm-23.28,8.6-1.092,1.093-1.092-1.093.584-7.472h1.016Zm-7.866-16.5a6.774,6.774,0,1,1,6.774,6.774,6.781,6.781,0,0,1-6.774-6.774Zm3.387,9.032h.614l-.65,8.335,3.423,3.423,3.424-3.423-.651-8.335h1.3a7.943,7.943,0,0,0,6.776-3.836l7.4-12.331a1.591,1.591,0,0,1,1.356-.768h.272a1.579,1.579,0,0,1,1.394,2.324l-8.635,16.19-1.785,1.785a13.785,13.785,0,0,0-4.034,9.056H10.032A1.13,1.13,0,0,1,8.9,34.484V28.839H6.645v4.516H3.258V31.1a7.913,7.913,0,0,1,7.9-7.9Zm-7.9,12.419H6.853a3.382,3.382,0,0,0,3.179,2.258H23.016a1.694,1.694,0,1,1,0,3.387H8.9a5.652,5.652,0,0,1-5.645-5.645ZM20.194,66.1a2.258,2.258,0,1,1-4.516,0V48.032H13.419V66.1a2.258,2.258,0,0,1-4.516,0V43.516h11.29Z" transform="translate(0 0.387)"/><path class="a" d="M52.387,16.29a1.13,1.13,0,0,1-1.129-1.129H49a3.382,3.382,0,0,0,2.258,3.179v2.466h2.258V18.548h2.258V15.161a3.391,3.391,0,0,0-3.387-3.387,1.13,1.13,0,0,1-1.129-1.129V9.516h1.129a1.13,1.13,0,0,1,1.129,1.129h2.258a3.382,3.382,0,0,0-2.258-3.179V5H51.258V7.258H49v3.387a3.391,3.391,0,0,0,3.387,3.387,1.13,1.13,0,0,1,1.129,1.129V16.29Z" transform="translate(6.194 0.516)"/><path class="a" d="M53.419,25.839A12.419,12.419,0,1,0,41,13.419,12.434,12.434,0,0,0,53.419,25.839Zm0-22.581A10.161,10.161,0,1,1,43.258,13.419,10.173,10.173,0,0,1,53.419,3.258Z" transform="translate(5.161)"/><path class="a" d="M58.258,33a10.138,10.138,0,0,0-9.2,14.455c-3.458,1-5.481,2.725-5.481,4.739V53.37c-2.4-1.512-6.352-2.305-10.161-2.305C27.4,51.065,21,53.043,21,56.71v4.516c0,3.667,6.4,5.645,12.419,5.645,4.492,0,9.193-1.1,11.29-3.185,2.1,2.082,6.8,3.185,11.29,3.185,6.021,0,12.419-1.978,12.419-5.645V52.194A3.855,3.855,0,0,0,66.5,49.077,10.144,10.144,0,0,0,58.258,33Zm7.9,10.161a7.909,7.909,0,0,1-6.774,7.813V48.806h2.258V45.419a3.391,3.391,0,0,0-3.387-3.387A1.13,1.13,0,0,1,57.129,40.9V39.774h1.129A1.13,1.13,0,0,1,59.387,40.9h2.258a3.382,3.382,0,0,0-2.258-3.179V35.348A7.909,7.909,0,0,1,66.161,43.161Zm-9.032-7.813v2.168H54.871V40.9a3.391,3.391,0,0,0,3.387,3.387,1.13,1.13,0,0,1,1.129,1.129v1.129H58.258a1.13,1.13,0,0,1-1.129-1.129H54.871A3.382,3.382,0,0,0,57.129,48.6v2.375a7.893,7.893,0,0,1,0-15.626ZM54.871,64.59a22.721,22.721,0,0,1-4.516-.614V61.761a26.129,26.129,0,0,0,4.516.571Zm2.258-2.258a26.128,26.128,0,0,0,4.516-.571v2.215a22.8,22.8,0,0,1-4.516.614Zm0-2.258V57.816a26.129,26.129,0,0,0,4.516-.571V59.46A22.8,22.8,0,0,1,57.129,60.074Zm-2.258,0a22.721,22.721,0,0,1-4.516-.614V57.245a26.129,26.129,0,0,0,4.516.571ZM48.1,58.715c-1.45-.636-2.258-1.383-2.258-2.005V55.533A11.6,11.6,0,0,0,48.1,56.6ZM33.419,53.323c6.2,0,10.161,2.005,10.161,3.387S39.622,60.1,33.419,60.1,23.258,58.092,23.258,56.71,27.216,53.323,33.419,53.323Zm-1.129,9.01V64.59a22.731,22.731,0,0,1-4.53-.618l0-2.214a26.122,26.122,0,0,0,4.525.574Zm2.258,0a26.129,26.129,0,0,0,4.516-.571v2.215a22.8,22.8,0,0,1-4.516.614Zm-11.29-1.106V60.049a11.565,11.565,0,0,0,2.251,1.062l0,2.114C24.062,62.592,23.258,61.847,23.258,61.226Zm18.065,2.005V61.114a11.6,11.6,0,0,0,2.258-1.065v1.176C43.581,61.848,42.772,62.6,41.323,63.231Zm4.516-2.005V60.049A11.6,11.6,0,0,0,48.1,61.114v2.117C46.647,62.6,45.839,61.848,45.839,61.226ZM63.9,63.231V61.114a11.6,11.6,0,0,0,2.258-1.065v1.176C66.161,61.848,65.353,62.6,63.9,63.231Zm0-4.516V56.6a11.6,11.6,0,0,0,2.258-1.065V56.71C66.161,57.332,65.353,58.079,63.9,58.715ZM56,55.581c-6.2,0-10.161-2.005-10.161-3.387,0-.837,1.542-2,4.465-2.728a10.117,10.117,0,0,0,14.675,1.3c.749.481,1.182.994,1.182,1.432C66.161,53.575,62.2,55.581,56,55.581Z" transform="translate(2.581 4.129)"/></g></svg>