<svg xmlns="http://www.w3.org/2000/svg" width="74.412" height="75.5" viewBox="0 0 74.412 75.5"><defs><style>.a{fill:#599b6d;stroke:#fff;stroke-width:0.5px;}</style></defs><g transform="translate(-3.418 0.25)"><g transform="translate(3.668)"><path class="a" d="M98.478,140.92l-2.233.931,1.823,4.373H90.1v2.419h8.972L102.1,155.9l-3.024,7.258H80.624a18.04,18.04,0,0,0-24.59,0H35.668v2.419H53.847a18.145,18.145,0,1,0,28.965,0H98.068l-1.822,4.373,2.233.931L104.72,155.9ZM84.055,176.466a15.726,15.726,0,1,1-15.726-15.726A15.744,15.744,0,0,1,84.055,176.466Z" transform="translate(-30.829 -119.612)"/><path class="a" d="M33.728,78.63,55.044,67.083l2.681,2.681-4.972.622a3.78,3.78,0,0,0,.469,7.53,20.168,20.168,0,0,0,2.244-.125l10.671-1.185,1.548-6.2-5.1-7.147,6.552-.936,2.382,8.331h6.96a3.629,3.629,0,0,0,0-7.258H77.046L75.97,58.023,71.23,52.335a6.153,6.153,0,0,0-5.644-2.176L60.5,47.616,50.133,49.689a3.869,3.869,0,0,0,.758,7.662h.665l-.342.186L29.581,71.2a4.084,4.084,0,0,0-1.913,3.471v.347a4.1,4.1,0,0,0,6.06,3.61Zm31.339-7.723-.87,3.48-9,1a17.72,17.72,0,0,1-1.978.11,1.36,1.36,0,0,1-.169-2.71l9.879-1.235-5.67-5.67,3.04-1.646ZM50.891,54.932a1.449,1.449,0,0,1-.284-2.871l9.552-1.91,2.4,1.2-4.882,2.664-5.8.9a1.381,1.381,0,0,1-.223.018ZM30.087,75.02v-.347a1.68,1.68,0,0,1,.785-1.425L52.44,59.622l12.184-6.645a3.808,3.808,0,0,1,4.748.906L73.72,59.1l1.344,6.719h3.41a1.21,1.21,0,1,1,0,2.419H73.338l-2.458-8.6-9.726,1.389L32.576,76.5a1.705,1.705,0,0,1-.8.2A1.688,1.688,0,0,1,30.087,75.02Z" transform="translate(-24.039 -40.416)"/><path class="a" d="M314.926,14.516a7.258,7.258,0,1,0-7.258-7.258A7.265,7.265,0,0,0,314.926,14.516Zm0-12.1a4.839,4.839,0,1,1-4.839,4.839A4.844,4.844,0,0,1,314.926,2.419Z" transform="translate(-261.7)"/><rect class="a" width="2.419" height="2.419" transform="translate(0 43.548)"/><rect class="a" width="2.419" height="2.419" transform="translate(0 18.145)"/><rect class="a" width="12.097" height="2.419" transform="translate(4.839 18.145)"/><rect class="a" width="2.419" height="2.419" transform="translate(2.419 13.306)"/><rect class="a" width="13.306" height="2.419" transform="translate(7.258 13.306)"/><rect class="a" width="2.419" height="2.419" transform="translate(4.839 8.468)"/><rect class="a" width="12.097" height="2.419" transform="translate(9.677 8.468)"/></g></g></svg>