<svg xmlns="http://www.w3.org/2000/svg" width="70.5" height="70.5" viewBox="0 0 70.5 70.5"><defs><style>.a{fill:#599b6d;stroke:#fff;stroke-width:0.5px;}</style></defs><g transform="translate(-0.75 -0.75)"><path class="a" d="M8.9,50.672l1.242-1.887c-2.123-1.4-2.879-2.618-2.879-3.294,0-.32.178-1.206,1.837-2.539l-1.416-1.76C5.926,42.6,5,44.088,5,45.491,5,47.2,6.347,48.995,8.9,50.672Z" transform="translate(0.516 5.186)"/><path class="a" d="M13.737,49.971c-.772-.311-1.5-.637-2.176-.972l-1.008,2.02c.726.362,1.513.715,2.34,1.048Z" transform="translate(1.233 6.193)"/><path class="a" d="M57.039,45.247H59.3a4.077,4.077,0,0,0-.684-2.159l-1.914,1.2A1.912,1.912,0,0,1,57.039,45.247Z" transform="translate(7.187 5.431)"/><path class="a" d="M57.215,41.541a16.338,16.338,0,0,0-1.972-1.411l-1.184,1.923a14.071,14.071,0,0,1,1.7,1.213Z" transform="translate(6.846 5.049)"/><path class="a" d="M53.609,39.231c-.672-.329-1.39-.647-2.139-.947l-.842,2.094c.7.281,1.367.577,1.989.881Z" transform="translate(6.404 4.811)"/><path class="a" d="M68.742,44.989V7.774H59.71v31.19q-1.086-.447-2.258-.852V14.548H48.419V35.866c-2.153-.358-4.419-.623-6.774-.791v-.2a4.521,4.521,0,0,0,4.516-4.516v-7.9a10.171,10.171,0,0,0-6.067-9.293,6.774,6.774,0,1,0-8.188,0,10.171,10.171,0,0,0-6.067,9.293v7.9a4.521,4.521,0,0,0,4.516,4.516v.2c-2.355.168-4.621.432-6.774.791v-16.8H14.548V38.111q-1.172.4-2.258.852V25.839H3.258V44.989A8.865,8.865,0,0,0,1,50.677v4.516C1,64.058,16.374,71,36,71s35-6.942,35-15.806V50.677A8.865,8.865,0,0,0,68.742,44.989ZM61.968,10.032h4.516V42.807a25.042,25.042,0,0,0-4.516-2.824Zm-11.29,6.774h4.516V37.393c-1.43-.417-2.94-.786-4.516-1.106ZM36,52.055a3.373,3.373,0,0,0,5.645-2.506V46.973c2.714.856,4.516,2.291,4.516,3.7,0,2.136-4.173,4.516-10.161,4.516s-10.161-2.38-10.161-4.516c0-1.414,1.8-2.849,4.516-3.7v2.575A3.373,3.373,0,0,0,36,52.055Zm-5.645-7.44c-4.2,1.128-6.774,3.405-6.774,6.063,0,3.8,5.455,6.774,12.419,6.774s12.419-2.976,12.419-6.774c0-2.658-2.572-4.935-6.774-6.063v-2.6C49.8,43.1,55.194,46.5,55.194,50.677c0,5.15-8.252,9.032-19.194,9.032s-19.194-3.883-19.194-9.032c0-4.173,5.4-7.579,13.548-8.666Zm6.736-24.7L36,21.545l-1.091-1.636.593-5.336c.166-.01.33-.025.5-.025s.332.015.5.025ZM31.484,7.774A4.516,4.516,0,1,1,36,12.29,4.521,4.521,0,0,1,31.484,7.774ZM28.1,30.355v-7.9a7.908,7.908,0,0,1,5.077-7.371l-.6,5.4L36,25.616l3.425-5.138-.6-5.4A7.908,7.908,0,0,1,43.9,22.452v7.9a2.26,2.26,0,0,1-2.258,2.258V22.452H39.387v27.1a1.129,1.129,0,0,1-2.258,0V32.613H34.871V49.548a1.129,1.129,0,0,1-2.258,0v-27.1H30.355V32.613A2.26,2.26,0,0,1,28.1,30.355Zm-11.29-9.032h4.516V36.287c-1.576.321-3.086.69-4.516,1.106ZM10.032,28.1V39.984a24.917,24.917,0,0,0-4.516,2.824V28.1Zm20.323,9.241v2.4c-9.632,1.21-15.806,5.441-15.806,10.939,0,6.648,8.821,11.29,21.452,11.29s21.452-4.643,21.452-11.29c0-5.5-6.175-9.729-15.806-10.939v-2.4c15.288,1.135,27.1,6.9,27.1,13.34,0,7.344-14.994,13.548-32.742,13.548S3.258,58.022,3.258,50.677C3.258,44.234,15.067,38.473,30.355,37.338ZM36,68.742c-16.631,0-30.842-5.448-32.566-12.175C8.506,62.43,21.008,66.484,36,66.484s27.494-4.054,32.566-9.917C66.842,63.294,52.631,68.742,36,68.742Z"/></g></svg>