<svg xmlns="http://www.w3.org/2000/svg" width="70.5" height="70.5" viewBox="0 0 70.5 70.5"><defs><style>.a{fill:#599b6d;stroke:#fff;stroke-width:0.5px;}</style></defs><g transform="translate(-0.75 -0.75)"><path class="a" d="M62.289,30.685A15.8,15.8,0,1,0,38.982,15.677H28.164L22.518,8.9H4.586l7.9,7.9-7.9,7.9H22.518l5.645-6.774H38.982a15.82,15.82,0,0,0,8.191,12.749,12.372,12.372,0,0,0-4.862,9.832v7.9a4.521,4.521,0,0,0,4.516,4.516h1.129V67.048a3.946,3.946,0,0,0,6.774,2.757,3.946,3.946,0,0,0,6.774-2.757V52.935h1.129a4.521,4.521,0,0,0,4.516-4.516v-7.9A12.372,12.372,0,0,0,62.289,30.685ZM10.037,11.161H21.459l3.764,4.516H14.553Zm11.422,11.29H10.037l4.516-4.516h10.67ZM41.24,17.935H43.5a11.29,11.29,0,1,0,0-2.258H41.24a13.548,13.548,0,1,1,0,2.258Zm9.135,0a4.516,4.516,0,1,0,0-2.258h-4.6a9.032,9.032,0,1,1,0,2.258Zm2.412-2.258a2.258,2.258,0,1,1,0,2.258h1.944V15.677Zm3.045,23.27-1.1,1.1-1.1-1.1.391-6.371c.237.011.471.036.71.036s.473-.025.709-.036Zm9.06,9.471a2.26,2.26,0,0,1-2.258,2.258H61.505V38.258H59.247v28.79a1.694,1.694,0,0,1-3.387,0V47.29H53.6V67.048a1.694,1.694,0,0,1-3.387,0V38.258H47.957V50.677H46.828a2.26,2.26,0,0,1-2.258-2.258v-7.9a10.126,10.126,0,0,1,5.058-8.765,15.692,15.692,0,0,0,2.147.575l-.46,7.5,3.415,3.415,3.415-3.415-.46-7.5a15.692,15.692,0,0,0,2.147-.575,10.123,10.123,0,0,1,5.058,8.765Z" transform="translate(0.463)"/><path class="a" d="M36.786,49.1a6.774,6.774,0,1,0-8.346,0,11.343,11.343,0,0,0-5.988,5.593A11.347,11.347,0,0,0,16.463,49.1a6.774,6.774,0,1,0-8.346,0A11.3,11.3,0,0,0,1,59.581v6.774H43.9V59.581A11.3,11.3,0,0,0,36.786,49.1Zm-3.091,8.932-1.082,1.082-1.082-1.082.747-7.466c.112,0,.221-.017.334-.017s.222.012.334.017ZM28.1,43.774a4.516,4.516,0,1,1,4.516,4.516A4.521,4.521,0,0,1,28.1,43.774ZM13.372,58.032,12.29,59.113l-1.082-1.082.747-7.466c.112,0,.221-.017.334-.017s.222.012.334.017Zm-5.6-14.257A4.516,4.516,0,1,1,12.29,48.29,4.521,4.521,0,0,1,7.774,43.774ZM21.323,64.1H19.065V55.065H16.806V64.1H7.774V55.065H5.516V64.1H3.258V59.581a9.047,9.047,0,0,1,6.39-8.636l-.793,7.927,3.435,3.435,3.435-3.435-.793-7.927a9.047,9.047,0,0,1,6.39,8.636Zm20.323,0H39.387V55.065H37.129V64.1H28.1V55.065H25.839V64.1H23.581V59.581a9.047,9.047,0,0,1,6.39-8.636l-.793,7.927,3.435,3.435,3.435-3.435-.793-7.927a9.047,9.047,0,0,1,6.39,8.636Z" transform="translate(0 4.645)"/><path class="a" d="M32.96,2.293l-1.6,1.6,1.46,1.46H22V7.607H38.274Z" transform="translate(2.71 0.167)"/><path class="a" d="M26.9,28.314l1.6-1.6-1.46-1.46H37.86V23H21.586Z" transform="translate(2.656 2.839)"/><path class="a" d="M32,9h2.258v2.258H32Z" transform="translate(4 1.032)"/><path class="a" d="M28,9h2.258v2.258H28Z" transform="translate(3.484 1.032)"/><path class="a" d="M24,9h2.258v2.258H24Z" transform="translate(2.968 1.032)"/><path class="a" d="M24,19h2.258v2.258H24Z" transform="translate(2.968 2.323)"/><path class="a" d="M28,19h2.258v2.258H28Z" transform="translate(3.484 2.323)"/><path class="a" d="M32,19h2.258v2.258H32Z" transform="translate(4 2.323)"/></g></svg>